<?xml version="1.0" encoding="UTF-8" standalone="no"?>
<!-- Creator: CorelDRAW X7 -->

<svg
   xml:space="preserve"
   width="297mm"
   height="210mm"
   version="1.1"
   style="shape-rendering:geometricPrecision; text-rendering:geometricPrecision; image-rendering:optimizeQuality; fill-rule:evenodd; clip-rule:evenodd"
   viewBox="0 0 29700 21000"
   id="svg357"
   sodipodi:docname="svg_18.svg"
   inkscape:version="1.1.2 (0a00cf5339, 2022-02-04)"
   xmlns:inkscape="http://www.inkscape.org/namespaces/inkscape"
   xmlns:sodipodi="http://sodipodi.sourceforge.net/DTD/sodipodi-0.dtd"
   xmlns:xlink="http://www.w3.org/1999/xlink"
   xmlns="http://www.w3.org/2000/svg"
   xmlns:svg="http://www.w3.org/2000/svg"><sodipodi:namedview
   id="namedview359"
   pagecolor="#ffffff"
   bordercolor="#666666"
   borderopacity="1.0"
   inkscape:pageshadow="2"
   inkscape:pageopacity="0.0"
   inkscape:pagecheckerboard="0"
   inkscape:document-units="mm"
   showgrid="false"
   inkscape:zoom="1.3274387"
   inkscape:cx="607.56103"
   inkscape:cy="478.74152"
   inkscape:window-width="2560"
   inkscape:window-height="1382"
   inkscape:window-x="0"
   inkscape:window-y="0"
   inkscape:window-maximized="1"
   inkscape:current-layer="Layer_x0020_1" />
 <defs
   id="defs95">
  <style
   type="text/css"
   id="style2">
   <![CDATA[
    .str3 {stroke:white;stroke-width:1.11}
    .str4 {stroke:white;stroke-width:1.12}
    .str5 {stroke:white;stroke-width:1.46}
    .str6 {stroke:#FEFEFE;stroke-width:7.62}
    .str0 {stroke:#FEFEFE;stroke-width:7.62}
    .str1 {stroke:white;stroke-width:7.62}
    .str2 {stroke:#EEEEF7;stroke-width:22.75;stroke-linecap:round;stroke-linejoin:round}
    .fil6 {fill:none}
    .fil8 {fill:none;fill-rule:nonzero}
    .fil24 {fill:#FEFEFE}
    .fil32 {fill:#292929}
    .fil21 {fill:#4D555A}
    .fil28 {fill:#748087}
    .fil5 {fill:#DADADA}
    .fil12 {fill:#FEFEFE;fill-rule:nonzero}
    .fil13 {fill:#2B2A29;fill-rule:nonzero}
    .fil2 {fill:#292929;fill-rule:nonzero}
    .fil3 {fill:#4D555A;fill-rule:nonzero}
    .fil30 {fill:#748087;fill-rule:nonzero}
    .fil15 {fill:#B2B2B2;fill-rule:nonzero}
    .fil9 {fill:#DEDEDE;fill-rule:nonzero}
    .fil11 {fill:#E5E5E5;fill-rule:nonzero}
    .fil31 {fill:#E6E6E6;fill-rule:nonzero}
    .fil10 {fill:#EFEEFB;fill-rule:nonzero}
    .fil7 {fill:whitesmoke;fill-rule:nonzero}
    .fil4 {fill:white;fill-rule:nonzero;fill-opacity:0.450980}
    .fil16 {fill:#E5E5E5;fill-rule:nonzero;fill-opacity:0.749020}
    .fil20 {fill:white;fill-rule:nonzero}
    .fil27 {fill:url(#id13)}
    .fil26 {fill:url(#id14)}
    .fil35 {fill:url(#id15)}
    .fil33 {fill:url(#id16)}
    .fil22 {fill:url(#id17)}
    .fil18 {fill:url(#id18)}
    .fil34 {fill:url(#id19)}
    .fil19 {fill:url(#id20)}
    .fil23 {fill:url(#id21)}
    .fil36 {fill:url(#id22)}
    .fil1 {fill:url(#id23);fill-rule:nonzero}
    .fil14 {fill:url(#id24);fill-rule:nonzero}
    .fil17 {fill:url(#id25);fill-rule:nonzero}
    .fil0 {fill:url(#id26);fill-rule:nonzero}
    .fil29 {fill:url(#id27);fill-rule:nonzero}
    .fil25 {fill:url(#id28);fill-rule:nonzero}
   ]]>
  </style>
   <mask
   id="id0">
  <linearGradient
   id="id1"
   gradientUnits="userSpaceOnUse"
   x1="9339.83"
   y1="12002.7"
   x2="7723.47"
   y2="11778">
   <stop
   offset="0"
   style="stop-opacity:1; stop-color:white"
   id="stop4" />
   <stop
   offset="1"
   style="stop-opacity:0; stop-color:white"
   id="stop6" />
  </linearGradient>
    <rect
   style="fill:url(#id1)"
   x="6439"
   y="11332"
   width="4186"
   height="1116"
   id="rect9" />
   </mask>
   <mask
   id="id2">
  <linearGradient
   id="id3"
   gradientUnits="userSpaceOnUse"
   x1="7771.73"
   y1="5554.05"
   x2="7771.73"
   y2="6489.05">
   <stop
   offset="0"
   style="stop-opacity:1; stop-color:white"
   id="stop12" />
   <stop
   offset="1"
   style="stop-opacity:0; stop-color:white"
   id="stop14" />
  </linearGradient>
    <rect
   style="fill:url(#id3)"
   x="4683"
   y="5554"
   width="6177"
   height="935"
   id="rect17" />
   </mask>
   <mask
   id="id4">
  <linearGradient
   id="id5"
   gradientUnits="userSpaceOnUse"
   x1="7771.73"
   y1="9345.05"
   x2="7771.73"
   y2="10280">
   <stop
   offset="0"
   style="stop-opacity:1; stop-color:white"
   id="stop20" />
   <stop
   offset="1"
   style="stop-opacity:0; stop-color:white"
   id="stop22" />
  </linearGradient>
    <rect
   style="fill:url(#id5)"
   x="4683"
   y="9345"
   width="6177"
   height="936"
   id="rect25" />
   </mask>
   <mask
   id="id6">
  <linearGradient
   id="id7"
   gradientUnits="userSpaceOnUse"
   x1="8512.23"
   y1="7464.05"
   x2="8512.23"
   y2="8337.05">
   <stop
   offset="0"
   style="stop-opacity:1; stop-color:white"
   id="stop28" />
   <stop
   offset="1"
   style="stop-opacity:0; stop-color:white"
   id="stop30" />
  </linearGradient>
    <rect
   style="fill:url(#id7)"
   x="7264"
   y="7464"
   width="2496"
   height="874"
   id="rect33" />
   </mask>
   <clipPath
   id="id8">
    <rect
   x="7523"
   y="7730"
   width="2075"
   height="794"
   id="rect36" />
   </clipPath>
   <clipPath
   id="id9"
   style="clip-rule:nonzero">
    <path
   d="M10067 12907l-3070 0c-303,0 -549,245 -549,549 0,303 246,548 549,548l3070 0c303,0 549,-245 549,-548 0,-304 -246,-549 -549,-549z"
   id="path39" />
   </clipPath>
   <clipPath
   id="id10"
   style="clip-rule:nonzero">
    <path
   d="M26065 17820c310,-294 504,-710 504,-1172 0,-892 -724,-1615 -1616,-1615 -892,0 -1616,723 -1616,1615 0,462 194,878 504,1172l1112 -1112 1112 1112z"
   id="path42" />
   </clipPath>
   <mask
   id="id11">
  <linearGradient
   id="id12"
   gradientUnits="userSpaceOnUse"
   x1="7771.73"
   y1="17165.8"
   x2="7771.73"
   y2="18100.8">
   <stop
   offset="0"
   style="stop-opacity:1; stop-color:white"
   id="stop45" />
   <stop
   offset="1"
   style="stop-opacity:0; stop-color:white"
   id="stop47" />
  </linearGradient>
    <rect
   style="fill:url(#id12)"
   x="4683"
   y="17166"
   width="6177"
   height="936"
   id="rect50" />
   </mask>
  <linearGradient
   id="id13"
   gradientUnits="userSpaceOnUse"
   x1="25842.4"
   y1="18177.6"
   x2="24063.2"
   y2="15118.4">
   <stop
   offset="0"
   style="stop-opacity:1; stop-color:#E6E6E6"
   id="stop53" />
   <stop
   offset="0.219608"
   style="stop-opacity:1; stop-color:#E6E6E6"
   id="stop55" />
   <stop
   offset="1"
   style="stop-opacity:1; stop-color:white"
   id="stop57" />
  </linearGradient>
  <linearGradient
   id="id14"
   gradientUnits="userSpaceOnUse"
   x1="26058"
   y1="18547.4"
   x2="23847.6"
   y2="14748.6">
   <stop
   offset="0"
   style="stop-opacity:1; stop-color:#E6E6E6"
   id="stop60" />
   <stop
   offset="0.729412"
   style="stop-opacity:1; stop-color:#EDEDED"
   id="stop62" />
   <stop
   offset="1"
   style="stop-opacity:1; stop-color:white"
   id="stop64" />
  </linearGradient>
  <linearGradient
   id="id15"
   gradientUnits="userSpaceOnUse"
   xlink:href="#id13"
   x1="10284.8"
   y1="15636.5"
   x2="9875.33"
   y2="14933.5">
  </linearGradient>
  <linearGradient
   id="id16"
   gradientUnits="objectBoundingBox"
   x1="75.4422%"
   y1="93.7259%"
   x2="24.5578%"
   y2="6.27414%">
   <stop
   offset="0"
   style="stop-opacity:1; stop-color:#E6E6E6"
   id="stop68" />
   <stop
   offset="0.729412"
   style="stop-opacity:1; stop-color:#E6E6E6"
   id="stop70" />
   <stop
   offset="1"
   style="stop-opacity:1; stop-color:white"
   id="stop72" />
  </linearGradient>
  <linearGradient
   id="id17"
   gradientUnits="userSpaceOnUse"
   xlink:href="#id16"
   x1="5622.82"
   y1="12522"
   x2="5032.56"
   y2="11507.6">
  </linearGradient>
  <linearGradient
   id="id18"
   gradientUnits="userSpaceOnUse"
   xlink:href="#id16"
   x1="5622.82"
   y1="13995.3"
   x2="5032.56"
   y2="12980.9">
  </linearGradient>
  <linearGradient
   id="id19"
   gradientUnits="objectBoundingBox"
   xlink:href="#id16"
   x1="75.4422%"
   y1="93.7259%"
   x2="24.5578%"
   y2="6.27414%">
  </linearGradient>
  <linearGradient
   id="id20"
   gradientUnits="objectBoundingBox"
   xlink:href="#id13"
   x1="75.4614%"
   y1="93.7189%"
   x2="24.5386%"
   y2="6.28109%">
  </linearGradient>
  <linearGradient
   id="id21"
   gradientUnits="userSpaceOnUse"
   xlink:href="#id13"
   x1="5532.4"
   y1="12366.3"
   x2="5122.98"
   y2="11663.3">
  </linearGradient>
  <linearGradient
   id="id22"
   gradientUnits="userSpaceOnUse"
   xlink:href="#id13"
   x1="7125.69"
   y1="15636.5"
   x2="6716.27"
   y2="14933.5">
  </linearGradient>
  <linearGradient
   id="id23"
   gradientUnits="userSpaceOnUse"
   x1="11331"
   y1="8128.5"
   x2="27308"
   y2="8128.5">
   <stop
   offset="0"
   style="stop-opacity:1; stop-color:#E6E6E6"
   id="stop81" />
   <stop
   offset="1"
   style="stop-opacity:1; stop-color:white"
   id="stop83" />
  </linearGradient>
  <linearGradient
   id="id24"
   gradientUnits="userSpaceOnUse"
   x1="15262.5"
   y1="18321.3"
   x2="12223"
   y2="14992.7">
   <stop
   offset="0"
   style="stop-opacity:1; stop-color:#E6E6E6"
   id="stop86" />
   <stop
   offset="1"
   style="stop-opacity:1; stop-color:whitesmoke"
   id="stop88" />
  </linearGradient>
  <linearGradient
   id="id25"
   gradientUnits="userSpaceOnUse"
   xlink:href="#id24"
   x1="21307.3"
   y1="17859.8"
   x2="18059.8"
   y2="15449.2">
  </linearGradient>
  <linearGradient
   id="id26"
   gradientUnits="userSpaceOnUse"
   xlink:href="#id24"
   x1="21041.3"
   y1="19594.4"
   x2="9012.28"
   y2="1505.64">
  </linearGradient>
  <linearGradient
   id="id27"
   gradientUnits="userSpaceOnUse"
   xlink:href="#id24"
   x1="25991.6"
   y1="17686.8"
   x2="23914"
   y2="15609.2">
  </linearGradient>
  <linearGradient
   id="id28"
   gradientUnits="userSpaceOnUse"
   xlink:href="#id24"
   x1="10377.4"
   y1="13781"
   x2="6697.1"
   y2="13085.7">
  </linearGradient>
 
   
   
  <linearGradient
   inkscape:collect="always"
   xlink:href="#id13"
   id="linearGradient3474"
   gradientUnits="userSpaceOnUse"
   x1="5534.6499"
   y1="13842.831"
   x2="5121.3502"
   y2="13133.169" />
   
   
  </defs>
 <g
   id="Layer_x0020_1"
   inkscape:label="Layer 1"
   inkscape:groupmode="layer"
   style="display:inline">
  <metadata
   id="CorelCorpID_0Corel-Layer" />
  
  
  
  
  
  
  
  
  
  
  
  
  
  
  
  
  
  
  
  
  
  
  
  
  
  
  
  
  
  
  
  
  
  
  
  
  
  
  
  
  
  
  
  
  
  
  
  <polygon
   class="fil15"
   points="12330,15461 12303,15461 12303,15440 12330,15440 "
   id="polygon191" />
  <polygon
   class="fil15"
   points="15738,15461 15711,15461 15711,15440 15738,15440 "
   id="polygon193" />
  
  
  
  
  
  
  
  
  
  
  
  
  
  
  
  
  
  
  
  
  
  
  
  
  
  
  
  
  
  
  
  
  
  
  
  
  
  
  
  
 <polygon
   class="fil0"
   points="1439,1469 28614,1469 28614,19631 1439,19631 "
   id="polygon98"
   style="shape-rendering:geometricPrecision;text-rendering:geometricPrecision;image-rendering:optimizeQuality;fill-rule:evenodd;clip-rule:evenodd;display:inline" /></g><g
   inkscape:groupmode="layer"
   id="layer1"
   inkscape:label="Layer 2"
   style="display:inline"><path
     class="fil11 str3"
     d="m 3336,2410 h -870 c -172,0 -311,139 -311,311 v 8132 c 0,172 139,312 311,312 h 870 c 172,0 312,-140 312,-312 V 2721 c 0,-172 -140,-311 -312,-311 z"
     id="path145"
     style="clip-rule:evenodd;display:inline;fill-rule:evenodd;image-rendering:optimizeQuality;shape-rendering:geometricPrecision;text-rendering:geometricPrecision" /><path
     class="fil4"
     d="m 5359,5554 h 4826 c 373,0 675,298 675,666 0,368 -302,666 -675,666 H 5359 c -373,0 -675,-298 -675,-666 0,-368 302,-666 675,-666 z"
     id="path106"
     style="clip-rule:evenodd;display:inline;fill-rule:evenodd;image-rendering:optimizeQuality;shape-rendering:geometricPrecision;text-rendering:geometricPrecision" /><path
     class="fil4"
     d="m 5359,9345 h 4826 c 373,0 675,298 675,666 0,368 -302,666 -675,666 H 5359 c -373,0 -675,-298 -675,-666 0,-368 302,-666 675,-666 z"
     id="path109"
     style="clip-rule:evenodd;display:inline;fill-rule:evenodd;image-rendering:optimizeQuality;shape-rendering:geometricPrecision;text-rendering:geometricPrecision" /><path
     class="fil2"
     d="M 10067,11336 H 6997 c -303,0 -549,246 -549,549 0,303 246,549 549,549 h 3070 c 303,0 549,-246 549,-549 0,-303 -246,-549 -549,-549 z"
     id="path102"
     style="clip-rule:evenodd;display:inline;fill-rule:evenodd;image-rendering:optimizeQuality;shape-rendering:geometricPrecision;text-rendering:geometricPrecision" /><path
     class="fil2"
     d="M 10067,12907 H 6997 c -303,0 -549,245 -549,549 0,303 246,548 549,548 h 3070 c 303,0 549,-245 549,-548 0,-304 -246,-549 -549,-549 z"
     id="path245"
     style="clip-rule:evenodd;display:inline;fill-rule:evenodd;image-rendering:optimizeQuality;shape-rendering:geometricPrecision;text-rendering:geometricPrecision" /><path
     class="fil4"
     d="m 5359,17166 h 4826 c 373,0 675,298 675,666 0,368 -302,666 -675,666 H 5359 c -373,0 -675,-298 -675,-666 0,-368 302,-666 675,-666 z"
     id="path169"
     style="clip-rule:evenodd;display:inline;fill-rule:evenodd;image-rendering:optimizeQuality;shape-rendering:geometricPrecision;text-rendering:geometricPrecision" /><path
     class="fil4"
     d="m 7895,7464 h 1234 c 348,0 631,278 631,622 0,344 -283,622 -631,622 H 7895 c -348,0 -630,-278 -630,-622 0,-344 282,-622 630,-622 z"
     id="path114"
     style="clip-rule:evenodd;display:inline;fill-rule:evenodd;image-rendering:optimizeQuality;shape-rendering:geometricPrecision;text-rendering:geometricPrecision" /><path
     class="fil1 str0"
     d="m 11823,14000 h 14993 c 272,0 492,-226 492,-505 V 2762 c 0,-279 -220,-505 -492,-505 H 11823 c -272,0 -492,226 -492,505 v 10733 c 0,279 220,505 492,505 z"
     id="path100"
     style="clip-rule:evenodd;display:inline;fill-rule:evenodd;image-rendering:optimizeQuality;shape-rendering:geometricPrecision;text-rendering:geometricPrecision" /><path
     class="fil14 str4"
     d="m 15770,14477 h -4055 c -199,0 -360,161 -360,360 v 3640 c 0,199 161,360 360,360 h 4055 c 199,0 360,-161 360,-360 v -3640 c 0,-199 -161,-360 -360,-360 z"
     id="path173"
     style="clip-rule:evenodd;display:inline;fill-rule:evenodd;image-rendering:optimizeQuality;shape-rendering:geometricPrecision;text-rendering:geometricPrecision" /><path
     class="fil17 str3"
     d="m 21286,14483 h -3204 c -157,0 -284,128 -284,285 v 3774 c 0,157 127,284 284,284 h 3204 c 157,0 284,-127 284,-284 v -3774 c 0,-157 -127,-285 -284,-285 z"
     id="path219"
     style="clip-rule:evenodd;display:inline;fill-rule:evenodd;image-rendering:optimizeQuality;shape-rendering:geometricPrecision;text-rendering:geometricPrecision" /><a
     id="a4532"
     style="clip-rule:evenodd;display:inline;fill-rule:evenodd;image-rendering:optimizeQuality;shape-rendering:geometricPrecision;text-rendering:geometricPrecision"><g
       id="g4530"><circle
         class="fil26 str5"
         cx="24953"
         cy="16648"
         r="2172"
         id="circle253" /><path
         class="fil27 str6"
         d="m 24953,14899 c 966,0 1749,783 1749,1749 0,966 -783,1749 -1749,1749 -966,0 -1749,-783 -1749,-1749 0,-966 783,-1749 1749,-1749 z"
         id="path255" /></g></a></g><g
   inkscape:groupmode="layer"
   id="layer2"
   inkscape:label="Layer 3"
   style="display:inline"><path
     id="_1"
     class="fil5"
     d="m 5359,5554 h 4826 c 373,0 675,298 675,666 0,96 -21,187 -58,269 H 4741 c -37,-82 -57,-173 -57,-269 0,-368 302,-666 675,-666 z"
     mask="url(#id2)"
     style="clip-rule:evenodd;display:inline;fill-rule:evenodd;image-rendering:optimizeQuality;shape-rendering:geometricPrecision;text-rendering:geometricPrecision" /><path
     id="_1_0"
     class="fil5"
     d="m 5359,9345 h 4826 c 373,0 675,298 675,666 0,96 -21,187 -58,269 H 4741 c -37,-82 -57,-173 -57,-269 0,-368 302,-666 675,-666 z"
     mask="url(#id4)"
     style="clip-rule:evenodd;display:inline;fill-rule:evenodd;image-rendering:optimizeQuality;shape-rendering:geometricPrecision;text-rendering:geometricPrecision" /><g
     clip-path="url(#id9)"
     id="g249"
     style="clip-rule:evenodd;display:inline;fill-rule:evenodd;image-rendering:optimizeQuality;shape-rendering:geometricPrecision;text-rendering:geometricPrecision">
   <g
   id="_2470739209536">
    <path
   id="1"
   class="fil25 str3"
   d="M 10353,12807 H 6722 c -178,0 -322,37 -322,82 v 1089 c 0,45 144,82 322,82 h 3631 c 178,0 322,-37 322,-82 v -1089 c 0,-45 -144,-82 -322,-82 z" />
   </g>
  </g><path
     id="_1_2"
     class="fil5"
     d="m 5359,17166 h 4826 c 373,0 675,298 675,666 0,96 -21,187 -58,269 H 4741 c -37,-82 -57,-173 -57,-269 0,-368 302,-666 675,-666 z"
     mask="url(#id11)"
     style="clip-rule:evenodd;display:inline;fill-rule:evenodd;image-rendering:optimizeQuality;shape-rendering:geometricPrecision;text-rendering:geometricPrecision" /><circle
     class="fil34 str5"
     cx="5328"
     cy="15285"
     r="580"
     id="circle330"
     style="clip-rule:evenodd;display:inline;fill-rule:evenodd;image-rendering:optimizeQuality;shape-rendering:geometricPrecision;text-rendering:geometricPrecision" /><circle
     class="fil33 str5"
     cx="6921"
     cy="15285"
     r="580"
     id="circle328"
     style="clip-rule:evenodd;display:inline;fill-rule:evenodd;image-rendering:optimizeQuality;shape-rendering:geometricPrecision;text-rendering:geometricPrecision" /><circle
     class="fil34 str5"
     cx="8519"
     cy="15285"
     r="580"
     id="circle336"
     style="clip-rule:evenodd;display:inline;fill-rule:evenodd;image-rendering:optimizeQuality;shape-rendering:geometricPrecision;text-rendering:geometricPrecision" /><circle
     class="fil33 str5"
     cx="10080"
     cy="15285"
     r="580"
     id="circle340"
     style="clip-rule:evenodd;display:inline;fill-rule:evenodd;image-rendering:optimizeQuality;shape-rendering:geometricPrecision;text-rendering:geometricPrecision" /><path
     id="_1_1"
     class="fil5"
     d="m 7895,7464 h 1234 c 348,0 631,278 631,622 0,89 -19,174 -54,251 H 7318 c -34,-77 -53,-162 -53,-251 0,-344 282,-622 630,-622 z"
     mask="url(#id6)"
     style="clip-rule:evenodd;display:inline;fill-rule:evenodd;image-rendering:optimizeQuality;shape-rendering:geometricPrecision;text-rendering:geometricPrecision" /><circle
     class="fil22 str5"
     cx="5328"
     cy="12015"
     r="580"
     id="circle234"
     style="clip-rule:evenodd;display:inline;fill:url(#id17);fill-rule:evenodd;image-rendering:optimizeQuality;shape-rendering:geometricPrecision;text-rendering:geometricPrecision" /><circle
     class="fil18 str5"
     cx="5328"
     cy="13488"
     r="580"
     id="circle225"
     style="clip-rule:evenodd;display:inline;fill:url(#id18);fill-rule:evenodd;image-rendering:optimizeQuality;shape-rendering:geometricPrecision;text-rendering:geometricPrecision" /><path
     class="fil9"
     d="m 19045,10441 c 0,-41 -33,-74 -74,-74 -41,0 -74,33 -74,74 0,41 33,74 74,74 41,0 74,-33 74,-74 z"
     id="path131"
     style="clip-rule:evenodd;display:inline;fill-rule:evenodd;image-rendering:optimizeQuality;shape-rendering:geometricPrecision;text-rendering:geometricPrecision" /><path
     class="fil9"
     d="m 18656,10441 c 0,-41 -33,-74 -74,-74 -41,0 -74,33 -74,74 0,41 33,74 74,74 41,0 74,-33 74,-74 z"
     id="path133"
     style="clip-rule:evenodd;display:inline;fill-rule:evenodd;image-rendering:optimizeQuality;shape-rendering:geometricPrecision;text-rendering:geometricPrecision" /><path
     class="fil9"
     d="m 19823,10441 c 0,-41 -33,-74 -74,-74 -41,0 -74,33 -74,74 0,41 33,74 74,74 41,0 74,-33 74,-74 z"
     id="path135"
     style="clip-rule:evenodd;display:inline;fill-rule:evenodd;image-rendering:optimizeQuality;shape-rendering:geometricPrecision;text-rendering:geometricPrecision" /><path
     class="fil9"
     d="m 20212,10441 c 0,-41 -33,-74 -74,-74 -41,0 -74,33 -74,74 0,41 33,74 74,74 41,0 74,-33 74,-74 z"
     id="path137"
     style="clip-rule:evenodd;display:inline;fill-rule:evenodd;image-rendering:optimizeQuality;shape-rendering:geometricPrecision;text-rendering:geometricPrecision" /><polygon
     class="fil16"
     points="12303,17901 12499,17901 12499,15128 12303,15128 "
     id="polygon195"
     style="clip-rule:evenodd;display:inline;fill-rule:evenodd;image-rendering:optimizeQuality;shape-rendering:geometricPrecision;text-rendering:geometricPrecision" /><polygon
     class="fil16"
     points="12948,17901 13144,17901 13144,15128 12948,15128 "
     id="polygon199"
     style="clip-rule:evenodd;display:inline;fill-rule:evenodd;image-rendering:optimizeQuality;shape-rendering:geometricPrecision;text-rendering:geometricPrecision" /><polygon
     class="fil16"
     points="13592,17901 13789,17901 13789,15128 13592,15128 "
     id="polygon203"
     style="clip-rule:evenodd;display:inline;fill-rule:evenodd;image-rendering:optimizeQuality;shape-rendering:geometricPrecision;text-rendering:geometricPrecision" /><polygon
     class="fil16"
     points="14237,17901 14433,17901 14433,15128 14237,15128 "
     id="polygon207"
     style="clip-rule:evenodd;display:inline;fill-rule:evenodd;image-rendering:optimizeQuality;shape-rendering:geometricPrecision;text-rendering:geometricPrecision" /><polygon
     class="fil16"
     points="14882,17901 15078,17901 15078,15128 14882,15128 "
     id="polygon211"
     style="clip-rule:evenodd;display:inline;fill-rule:evenodd;image-rendering:optimizeQuality;shape-rendering:geometricPrecision;text-rendering:geometricPrecision" /><polygon
     class="fil16"
     points="15527,17901 15723,17901 15723,15128 15527,15128 "
     id="polygon215"
     style="clip-rule:evenodd;display:inline;fill-rule:evenodd;image-rendering:optimizeQuality;shape-rendering:geometricPrecision;text-rendering:geometricPrecision" /><path
     class="fil2"
     d="m 20720,15056 h -2116 c -267,0 -482,216 -482,482 0,266 215,482 482,482 h 2116 c 266,0 482,-216 482,-482 0,-266 -216,-482 -482,-482 z m 0,900 v 0 h -2116 c -231,0 -419,-187 -419,-418 0,-231 188,-418 419,-418 h 2116 c 231,0 419,187 419,418 0,231 -188,418 -419,418 z"
     id="path221"
     style="clip-rule:evenodd;display:inline;fill-rule:evenodd;image-rendering:optimizeQuality;shape-rendering:geometricPrecision;text-rendering:geometricPrecision" /><polygon
     class="fil2"
     points="20759,15448 20804,15493 20669,15628 20534,15493 20579,15448 20669,15538 "
     id="polygon223"
     style="clip-rule:evenodd;display:inline;fill-rule:evenodd;image-rendering:optimizeQuality;shape-rendering:geometricPrecision;text-rendering:geometricPrecision" /></g><g
   inkscape:groupmode="layer"
   id="layer3"
   inkscape:label="Layer 4"
   style="display:inline"><path
     class="fil2"
     d="m 3639,6374 h -893 c -222,0 -401,180 -401,402 0,222 179,402 401,402 h 893 c 222,0 402,-180 402,-402 0,-222 -180,-402 -402,-402 z"
     id="path155"
     style="clip-rule:evenodd;display:inline;fill-rule:evenodd;image-rendering:optimizeQuality;shape-rendering:geometricPrecision;text-rendering:geometricPrecision" /><path
     class="fil31"
     d="M 10261,17962 H 7060 c -42,0 -75,-34 -75,-76 0,-42 33,-75 75,-75 h 3201 c 41,0 75,33 75,75 0,42 -34,76 -75,76 z"
     id="path322"
     style="clip-rule:evenodd;display:inline;fill-rule:evenodd;image-rendering:optimizeQuality;shape-rendering:geometricPrecision;text-rendering:geometricPrecision" /><circle
     class="fil19 str0"
     cx="5328"
     cy="15285"
     r="402"
     id="circle332"
     style="clip-rule:evenodd;display:inline;fill-rule:evenodd;image-rendering:optimizeQuality;shape-rendering:geometricPrecision;text-rendering:geometricPrecision" /><circle
     class="fil36 str0"
     cx="6921"
     cy="15285"
     r="402"
     id="circle352"
     style="clip-rule:evenodd;display:inline;fill-rule:evenodd;image-rendering:optimizeQuality;shape-rendering:geometricPrecision;text-rendering:geometricPrecision" /><circle
     class="fil19 str0"
     cx="8519"
     cy="15285"
     r="402"
     id="circle338"
     style="clip-rule:evenodd;display:inline;fill-rule:evenodd;image-rendering:optimizeQuality;shape-rendering:geometricPrecision;text-rendering:geometricPrecision" /><circle
     class="fil35 str0"
     cx="10080"
     cy="15285"
     r="402"
     id="circle342"
     style="clip-rule:evenodd;display:inline;fill-rule:evenodd;image-rendering:optimizeQuality;shape-rendering:geometricPrecision;text-rendering:geometricPrecision" /><path
     class="fil2"
     d="m 27146,2900 c 0,-138 -111,-249 -249,-249 -137,0 -249,111 -249,249 0,137 112,249 249,249 138,0 249,-112 249,-249 z"
     id="path125"
     style="clip-rule:evenodd;display:inline;fill-rule:evenodd;image-rendering:optimizeQuality;shape-rendering:geometricPrecision;text-rendering:geometricPrecision" /><path
     class="fil7"
     d="m 7872,8422 c -190,0 -345,-155 -345,-346 0,-190 155,-345 345,-345 h 1281 c 190,0 345,155 345,345 0,191 -155,346 -345,346 z"
     id="path123"
     style="clip-rule:evenodd;display:inline;fill-rule:evenodd;image-rendering:optimizeQuality;shape-rendering:geometricPrecision;text-rendering:geometricPrecision" /><circle
     class="fil23 str0"
     cx="5328"
     cy="12015"
     r="402"
     id="circle236"
     style="clip-rule:evenodd;display:inline;fill:url(#id21);fill-rule:evenodd;image-rendering:optimizeQuality;shape-rendering:geometricPrecision;text-rendering:geometricPrecision" /><circle
     class="fil19 str0"
     cx="5328"
     cy="13488"
     r="402"
     id="circle227"
     style="clip-rule:evenodd;display:inline;fill:url(#linearGradient3474);fill-rule:evenodd;image-rendering:optimizeQuality;shape-rendering:geometricPrecision;text-rendering:geometricPrecision" /><path
     class="fil2"
     d="m 12339,10783 c -238,0 -431,193 -431,431 0,238 193,431 431,431 238,0 431,-193 431,-431 0,-238 -193,-431 -431,-431 z"
     id="path139"
     style="clip-rule:evenodd;display:inline;fill-rule:evenodd;image-rendering:optimizeQuality;shape-rendering:geometricPrecision;text-rendering:geometricPrecision" /><path
     class="fil2"
     d="m 19456,10441 c 0,-54 -43,-98 -97,-98 -54,0 -97,44 -97,98 0,53 43,97 97,97 54,0 97,-44 97,-97 z"
     id="path143"
     style="clip-rule:evenodd;display:inline;fill-rule:evenodd;image-rendering:optimizeQuality;shape-rendering:geometricPrecision;text-rendering:geometricPrecision" /><polygon
     class="fil15"
     points="12303,17890 12330,17890 12330,17912 12303,17912 "
     id="polygon175"
     style="clip-rule:evenodd;display:inline;fill-rule:evenodd;image-rendering:optimizeQuality;shape-rendering:geometricPrecision;text-rendering:geometricPrecision" /><polygon
     class="fil15"
     points="15711,17890 15738,17890 15738,17912 15711,17912 "
     id="polygon177"
     style="clip-rule:evenodd;display:inline;fill-rule:evenodd;image-rendering:optimizeQuality;shape-rendering:geometricPrecision;text-rendering:geometricPrecision" /><polygon
     class="fil15"
     points="12303,17278 12330,17278 12330,17299 12303,17299 "
     id="polygon179"
     style="clip-rule:evenodd;display:inline;fill-rule:evenodd;image-rendering:optimizeQuality;shape-rendering:geometricPrecision;text-rendering:geometricPrecision" /><polygon
     class="fil15"
     points="15711,17278 15738,17278 15738,17299 15711,17299 "
     id="polygon181"
     style="clip-rule:evenodd;display:inline;fill-rule:evenodd;image-rendering:optimizeQuality;shape-rendering:geometricPrecision;text-rendering:geometricPrecision" /><polygon
     class="fil15"
     points="12303,16665 12330,16665 12330,16686 12303,16686 "
     id="polygon183"
     style="clip-rule:evenodd;display:inline;fill-rule:evenodd;image-rendering:optimizeQuality;shape-rendering:geometricPrecision;text-rendering:geometricPrecision" /><polygon
     class="fil15"
     points="15711,16665 15738,16665 15738,16686 15711,16686 "
     id="polygon185"
     style="clip-rule:evenodd;display:inline;fill-rule:evenodd;image-rendering:optimizeQuality;shape-rendering:geometricPrecision;text-rendering:geometricPrecision" /><polygon
     class="fil15"
     points="12303,16053 12330,16053 12330,16074 12303,16074 "
     id="polygon187"
     style="clip-rule:evenodd;display:inline;fill-rule:evenodd;image-rendering:optimizeQuality;shape-rendering:geometricPrecision;text-rendering:geometricPrecision" /><polygon
     class="fil15"
     points="15711,16053 15738,16053 15738,16074 15711,16074 "
     id="polygon189"
     style="clip-rule:evenodd;display:inline;fill-rule:evenodd;image-rendering:optimizeQuality;shape-rendering:geometricPrecision;text-rendering:geometricPrecision" /><polygon
     class="fil2"
     points="12303,17901 12499,17901 12499,16454 12303,16454 "
     id="polygon197"
     style="clip-rule:evenodd;display:inline;fill-rule:evenodd;image-rendering:optimizeQuality;shape-rendering:geometricPrecision;text-rendering:geometricPrecision" /><polygon
     class="fil2"
     points="12948,17901 13144,17901 13144,15855 12948,15855 "
     id="polygon201"
     style="clip-rule:evenodd;display:inline;fill-rule:evenodd;image-rendering:optimizeQuality;shape-rendering:geometricPrecision;text-rendering:geometricPrecision" /><polygon
     class="fil2"
     points="13592,17901 13789,17901 13789,16638 13592,16638 "
     id="polygon205"
     style="clip-rule:evenodd;display:inline;fill-rule:evenodd;image-rendering:optimizeQuality;shape-rendering:geometricPrecision;text-rendering:geometricPrecision" /><polygon
     class="fil2"
     points="14237,17901 14433,17901 14433,16962 14237,16962 "
     id="polygon209"
     style="clip-rule:evenodd;display:inline;fill-rule:evenodd;image-rendering:optimizeQuality;shape-rendering:geometricPrecision;text-rendering:geometricPrecision" /><polygon
     class="fil2"
     points="14882,17901 15078,17901 15078,16365 14882,16365 "
     id="polygon213"
     style="clip-rule:evenodd;display:inline;fill-rule:evenodd;image-rendering:optimizeQuality;shape-rendering:geometricPrecision;text-rendering:geometricPrecision" /><polygon
     class="fil2"
     points="15527,17901 15723,17901 15723,16110 15527,16110 "
     id="polygon217"
     style="clip-rule:evenodd;display:inline;fill-rule:evenodd;image-rendering:optimizeQuality;shape-rendering:geometricPrecision;text-rendering:geometricPrecision" /><g
     id="g4600"
     style="clip-rule:evenodd;display:inline;fill-rule:evenodd;image-rendering:optimizeQuality;shape-rendering:geometricPrecision;text-rendering:geometricPrecision"><path
       class="fil2"
       d="m 26065,17820 c 310,-294 504,-710 504,-1172 0,-892 -724,-1615 -1616,-1615 -892,0 -1616,723 -1616,1615 0,462 194,878 504,1172 l 1112,-1112 z"
       id="path257" /><g
       clip-path="url(#id10)"
       id="g262">
   <g
   id="_2470739206624">
    <polygon
   id="polygon259"
   class="fil28"
   points="25723,18203 27387,18203 27387,15989 25723,16527 " />
   </g>
  </g><path
       class="fil29"
       d="m 24953,15164 c -819,0 -1484,665 -1484,1484 0,820 665,1484 1484,1484 819,0 1484,-664 1484,-1484 0,-819 -665,-1484 -1484,-1484 z"
       id="path266" /></g></g><g
   inkscape:groupmode="layer"
   id="layer4"
   inkscape:label="Layer 5"
   style="display:inline"><path
     class="fil12"
     d="m 3388,6797 c 0,-110 -89,-199 -199,-199 -111,0 -200,89 -200,199 0,111 89,200 200,200 33,0 64,-8 92,-23 l 59,19 -5,-61 c 33,-35 53,-83 53,-135 z m -275,12 v 0 c -8,0 -14,-7 -14,-15 0,-8 6,-14 14,-14 8,0 15,6 15,14 0,8 -7,15 -15,15 z m 83,0 v 0 c -8,0 -14,-7 -14,-15 0,-8 6,-14 14,-14 8,0 15,6 15,14 0,8 -7,15 -15,15 z m 82,0 v 0 c -8,0 -14,-7 -14,-15 0,-8 6,-14 14,-14 8,0 15,6 15,14 0,8 -7,15 -15,15 z"
     id="path157"
     style="clip-rule:evenodd;display:inline;fill-rule:evenodd;image-rendering:optimizeQuality;shape-rendering:geometricPrecision;text-rendering:geometricPrecision" /><polygon
     class="fil2"
     points="3104,3314 3104,3564 2974,3564 2974,3479 2908,3442 2841,3479 2841,3564 2711,3564 2711,3314 2908,3205 "
     id="polygon147"
     style="clip-rule:evenodd;display:inline;fill-rule:evenodd;image-rendering:optimizeQuality;shape-rendering:geometricPrecision;text-rendering:geometricPrecision" /><g
     id="g1600"
     style="clip-rule:evenodd;display:inline;fill-rule:evenodd;image-rendering:optimizeQuality;shape-rendering:geometricPrecision;text-rendering:geometricPrecision"><polygon
       class="fil2"
       points="3133,5191 3044,5191 3044,4868 3133,4868 "
       id="polygon149" /><polygon
       class="fil2"
       points="2948,5191 2858,5191 2858,4975 2948,4975 "
       id="polygon151" /><polygon
       class="fil2"
       points="2771,5191 2681,5191 2681,5079 2771,5079 "
       id="polygon153" /></g><path
     class="fil2"
     d="m 3078,10160 c 0,-8 -2,-20 -3,-29 -1,-8 3,-16 10,-20 l 29,-17 c 10,-6 13,-18 7,-28 l -25,-45 c -6,-9 -19,-13 -28,-7 l -42,24 c -16,-17 -36,-29 -59,-38 -8,-3 -13,-10 -13,-19 0,-9 0,-22 -1,-33 0,-11 -9,-20 -20,-20 h -52 c -11,0 -20,9 -20,20 v 35 c 0,8 -4,15 -11,18 -14,6 -36,17 -52,29 -6,4 -15,5 -22,1 l -29,-17 c -10,-6 -22,-2 -28,7 l -26,45 c -5,10 -2,22 8,28 l 41,24 c 0,0 0,0 0,0 -3,13 -5,27 -5,42 0,10 0,19 2,28 1,9 -2,17 -9,21 l -29,17 c -10,6 -13,18 -8,28 l 26,44 c 6,10 18,14 28,8 l 29,-17 c 7,-4 16,-3 23,2 18,15 39,27 62,33 0,0 0,0 0,0 v 48 c 0,11 9,20 20,20 h 52 c 11,0 20,-9 20,-20 1,-11 1,-24 1,-34 0,-8 5,-15 13,-18 18,-7 34,-17 49,-29 6,-5 15,-6 23,-2 l 29,17 c 9,6 22,2 28,-8 l 25,-44 c 6,-10 3,-22 -7,-28 l -29,-17 c -7,-4 -11,-12 -9,-21 1,-9 2,-18 2,-28 z m -171,65 v 0 c -35,0 -64,-29 -64,-65 0,-36 29,-65 64,-65 36,0 65,29 65,65 0,36 -29,65 -65,65 z"
     id="path159"
     style="clip-rule:evenodd;display:inline;fill-rule:evenodd;image-rendering:optimizeQuality;shape-rendering:geometricPrecision;text-rendering:geometricPrecision" /><g
     id="g1604"
     style="clip-rule:evenodd;display:inline;fill-rule:evenodd;image-rendering:optimizeQuality;shape-rendering:geometricPrecision;text-rendering:geometricPrecision"><path
       class="fil2"
       d="m 2990,8380 c 0,46 -37,83 -83,83 -46,0 -83,-37 -83,-83 0,-46 37,-83 83,-83 46,0 83,37 83,83 z"
       id="path161" /><path
       class="fil2"
       d="m 3100,8700 v -80 c 0,-50 -41,-91 -91,-91 h -203 c -50,0 -91,41 -91,91 v 80 z"
       id="path163" /></g><path
     class="fil2"
     d="m 5325,16858 v -240 h 83 c 19,0 33,1 43,3 14,4 26,9 35,18 13,10 22,24 29,41 6,16 9,35 9,57 0,18 -2,34 -6,48 -4,14 -10,26 -17,35 -6,10 -14,17 -22,22 -7,6 -17,10 -28,12 -11,3 -24,4 -39,4 z m 32,-28 h 52 c 15,0 28,-1 37,-4 9,-3 16,-7 21,-13 8,-7 14,-17 18,-30 4,-13 6,-28 6,-47 0,-25 -4,-44 -12,-58 -8,-13 -18,-22 -30,-27 -9,-3 -22,-5 -41,-5 h -51 z m 196,-59 c 0,-32 9,-56 27,-71 15,-13 33,-20 55,-20 24,0 43,8 59,24 15,16 22,37 22,65 0,22 -3,40 -10,53 -6,12 -16,22 -29,29 -13,8 -27,11 -42,11 -25,0 -44,-8 -59,-23 -15,-16 -23,-38 -23,-68 z m 30,0 c 0,23 5,39 15,50 10,11 22,17 37,17 15,0 27,-6 37,-17 9,-11 14,-28 14,-51 0,-21 -5,-37 -15,-48 -9,-12 -22,-17 -36,-17 -15,0 -27,5 -37,16 -10,11 -15,28 -15,50 z m 199,87 -52,-174 h 31 l 27,101 10,37 c 1,-2 4,-14 9,-36 l 28,-102 h 30 l 26,101 9,33 10,-33 30,-101 h 29 l -55,174 h -30 l -28,-104 -7,-30 -35,134 z m 212,0 v -174 h 26 v 25 c 13,-19 31,-29 55,-29 11,0 21,2 29,6 9,4 16,9 20,15 4,6 8,13 9,22 1,5 2,15 2,28 v 107 h -30 v -106 c 0,-12 -1,-21 -3,-27 -2,-5 -6,-10 -12,-14 -6,-3 -13,-5 -21,-5 -12,0 -23,4 -32,12 -9,8 -14,23 -14,45 v 95 z m 186,0 v -240 h 29 v 240 z m 64,-87 c 0,-32 9,-56 27,-71 15,-13 33,-20 55,-20 23,0 43,8 58,24 15,16 23,37 23,65 0,22 -3,40 -10,53 -7,12 -17,22 -29,29 -13,8 -27,11 -42,11 -25,0 -45,-8 -60,-23 -15,-16 -22,-38 -22,-68 z m 30,0 c 0,23 5,39 15,50 9,11 22,17 37,17 14,0 26,-6 36,-17 10,-11 15,-28 15,-51 0,-21 -5,-37 -15,-48 -10,-12 -22,-17 -36,-17 -15,0 -28,5 -37,16 -10,11 -15,28 -15,50 z m 282,66 c -11,9 -22,15 -32,19 -10,4 -21,6 -33,6 -19,0 -34,-5 -44,-14 -10,-9 -15,-21 -15,-36 0,-8 2,-16 5,-23 4,-7 9,-13 16,-17 6,-4 13,-7 21,-10 6,-1 15,-3 26,-4 24,-3 42,-6 53,-10 0,-4 0,-7 0,-8 0,-12 -3,-20 -8,-25 -8,-7 -19,-10 -34,-10 -14,0 -24,2 -31,7 -6,5 -11,14 -14,26 l -29,-4 c 2,-12 7,-22 13,-30 6,-8 14,-13 26,-17 11,-5 24,-7 39,-7 15,0 27,2 37,6 9,3 16,8 20,13 5,5 8,12 10,20 1,5 1,14 1,27 v 39 c 0,28 1,45 2,52 1,8 4,15 7,21 h -31 c -3,-6 -5,-13 -5,-21 z m -3,-66 c -11,4 -27,8 -48,11 -12,2 -21,4 -26,6 -5,2 -9,5 -12,10 -2,4 -4,8 -4,14 0,7 3,14 9,19 6,5 15,8 26,8 12,0 22,-3 31,-8 9,-4 15,-11 19,-20 3,-6 5,-16 5,-29 z m 188,87 v -22 c -11,17 -27,26 -49,26 -14,0 -26,-4 -38,-11 -12,-8 -21,-19 -27,-32 -6,-14 -10,-30 -10,-48 0,-17 3,-33 9,-47 6,-14 15,-25 26,-32 12,-8 25,-12 39,-12 10,0 20,3 28,7 8,4 15,10 20,17 v -86 h 29 v 240 z m -93,-87 c 0,23 4,39 14,50 9,11 20,17 33,17 13,0 24,-5 33,-16 9,-10 14,-26 14,-48 0,-24 -5,-41 -14,-52 -9,-12 -21,-17 -34,-17 -13,0 -24,5 -33,16 -9,11 -13,27 -13,50 z"
     id="path311"
     style="clip-rule:evenodd;display:inline;fill-rule:evenodd;image-rendering:optimizeQuality;shape-rendering:geometricPrecision;text-rendering:geometricPrecision" /><polygon
     class="fil2"
     points="10174,16657 10205,16657 10205,16860 9727,16860 9727,16657 9758,16657 9758,16829 10174,16829 "
     id="polygon313"
     style="clip-rule:evenodd;display:inline;fill-rule:evenodd;image-rendering:optimizeQuality;shape-rendering:geometricPrecision;text-rendering:geometricPrecision" /><polygon
     class="fil2"
     points="9950,16482 9982,16482 9982,16739 9950,16739 "
     id="polygon315"
     style="clip-rule:evenodd;display:inline;fill-rule:evenodd;image-rendering:optimizeQuality;shape-rendering:geometricPrecision;text-rendering:geometricPrecision" /><polygon
     class="fil2"
     points="9966,16763 9868,16665 9890,16643 9966,16718 10042,16643 10064,16665 "
     id="polygon317"
     style="clip-rule:evenodd;display:inline;fill-rule:evenodd;image-rendering:optimizeQuality;shape-rendering:geometricPrecision;text-rendering:geometricPrecision" /><path
     class="fil2"
     d="m 8888,16867 v -57 h -104 v -28 l 109,-155 h 25 v 155 h 32 v 28 h -32 v 57 z m 0,-85 v -108 l -75,108 z m 92,-34 c 0,-28 3,-51 9,-68 6,-18 15,-31 26,-41 12,-9 26,-13 44,-13 13,0 24,2 34,7 9,5 17,13 24,23 6,10 11,21 14,35 4,15 6,34 6,57 0,29 -3,51 -9,69 -6,17 -14,30 -26,40 -11,9 -26,14 -43,14 -23,0 -42,-8 -55,-25 -16,-20 -24,-53 -24,-98 z m 31,0 c 0,40 4,66 13,79 10,13 21,20 35,20 13,0 25,-7 34,-20 9,-13 14,-39 14,-79 0,-39 -5,-65 -14,-78 -9,-13 -21,-20 -35,-20 -13,0 -24,6 -32,17 -10,15 -15,42 -15,81 z m 162,-64 c 0,-17 4,-32 13,-43 8,-13 21,-19 37,-19 15,0 28,6 38,17 10,10 15,26 15,47 0,20 -5,36 -15,47 -10,11 -23,16 -37,16 -15,0 -27,-5 -37,-16 -10,-11 -14,-27 -14,-49 z m 51,-41 c -7,0 -13,3 -18,9 -5,7 -8,18 -8,35 0,16 3,26 8,33 5,6 11,9 18,9 7,0 14,-3 19,-10 4,-6 7,-17 7,-34 0,-16 -3,-26 -8,-33 -5,-6 -11,-9 -18,-9 z m 0,233 131,-254 h 24 l -130,254 z m 104,-66 c 0,-17 4,-31 13,-43 8,-12 21,-18 37,-18 16,0 28,5 38,16 10,11 15,26 15,47 0,21 -5,36 -15,47 -10,11 -23,17 -37,17 -15,0 -27,-6 -37,-17 -9,-10 -14,-27 -14,-49 z m 51,-41 c -7,0 -13,3 -18,10 -5,6 -7,18 -7,34 0,16 2,26 7,33 5,6 11,9 18,9 8,0 14,-3 19,-9 5,-7 7,-18 7,-35 0,-15 -3,-26 -7,-32 -5,-7 -11,-10 -19,-10 z"
     id="path319"
     style="clip-rule:evenodd;display:inline;fill-rule:evenodd;image-rendering:optimizeQuality;shape-rendering:geometricPrecision;text-rendering:geometricPrecision" /><path
     class="fil13"
     d="m 10135,9858 c -27,-27 -63,-42 -102,-42 -38,0 -75,15 -102,42 -27,28 -42,64 -42,102 0,33 11,63 31,88 l -140,140 c -7,7 -7,18 0,26 4,3 8,5 13,5 5,0 9,-2 13,-5 l 139,-140 c 25,20 56,31 88,31 39,0 75,-15 102,-43 56,-56 56,-147 0,-204 z m -26,179 v 0 c -40,41 -111,41 -152,0 -21,-21 -32,-48 -32,-77 0,-28 11,-56 32,-76 20,-20 47,-32 76,-32 29,0 56,12 76,32 43,42 43,111 0,153 z"
     id="path167"
     style="clip-rule:evenodd;display:inline;fill-rule:evenodd;image-rendering:optimizeQuality;shape-rendering:geometricPrecision;text-rendering:geometricPrecision" /><path
     class="fil3"
     d="M 10067,11348 H 6997 c -150,0 -286,61 -384,159 -98,98 -158,234 -158,383 0,150 60,286 158,384 98,98 234,159 384,159 h 3070 c 149,0 285,-61 383,-159 98,-98 159,-234 159,-384 0,-149 -61,-285 -159,-383 -98,-98 -234,-159 -383,-159 z m -3070,-13 h 3070 c 153,0 292,62 393,162 100,101 162,240 162,393 0,154 -62,293 -162,393 -101,101 -240,163 -393,163 H 6997 c -154,0 -293,-62 -393,-163 -101,-100 -163,-239 -163,-393 0,-153 62,-292 163,-393 100,-100 239,-162 393,-162 z"
     mask="url(#id0)"
     id="path104"
     style="clip-rule:evenodd;display:inline;fill-rule:evenodd;image-rendering:optimizeQuality;shape-rendering:geometricPrecision;text-rendering:geometricPrecision" /><path
     class="fil8 str6"
     d="M 10067,12907 H 6997 c -303,0 -549,245 -549,549 0,303 246,548 549,548 h 3070 c 303,0 549,-245 549,-548 0,-304 -246,-549 -549,-549 z"
     id="path251"
     style="clip-rule:evenodd;display:inline;fill-rule:evenodd;image-rendering:optimizeQuality;shape-rendering:geometricPrecision;text-rendering:geometricPrecision" /><rect
     class="fil32"
     x="5058"
     y="17811"
     width="2081"
     height="151"
     rx="76"
     ry="75"
     id="rect324"
     style="clip-rule:evenodd;display:inline;fill-rule:evenodd;image-rendering:optimizeQuality;shape-rendering:geometricPrecision;text-rendering:geometricPrecision" /><path
     class="fil6 str1"
     d="M 10185,17166 H 5359 c -373,0 -675,298 -675,666 0,368 302,666 675,666 h 4826 c 373,0 675,-298 675,-666 0,-368 -302,-666 -675,-666 z"
     id="path171"
     style="clip-rule:evenodd;display:inline;fill-rule:evenodd;image-rendering:optimizeQuality;shape-rendering:geometricPrecision;text-rendering:geometricPrecision" /><path
     class="fil21"
     d="m 5295,13473 v -161 c 0,-18 15,-33 33,-33 18,0 32,15 32,33 v 161 c 0,18 -14,33 -32,33 -18,0 -33,-15 -33,-33 z m 161,-146 c -10,-9 -26,-7 -34,4 -8,10 -7,25 4,34 39,30 61,76 61,125 0,87 -72,159 -159,159 -88,0 -159,-72 -159,-159 0,-49 22,-95 60,-125 11,-8 13,-24 4,-34 -8,-11 -23,-13 -34,-4 -50,39 -79,99 -79,163 0,114 93,207 208,207 114,0 207,-93 207,-207 0,-64 -29,-124 -79,-163 z"
     id="path232"
     style="clip-rule:evenodd;display:inline;fill-rule:evenodd;image-rendering:optimizeQuality;shape-rendering:geometricPrecision;text-rendering:geometricPrecision" /><path
     class="fil24"
     d="m 5295,12000 v -162 c 0,-18 15,-32 33,-32 18,0 32,14 32,32 v 162 c 0,18 -14,32 -32,32 -18,0 -33,-14 -33,-32 z m 161,-147 c -10,-8 -26,-6 -34,4 -8,11 -7,26 4,34 39,31 61,76 61,125 0,88 -72,159 -159,159 -88,0 -159,-71 -159,-159 0,-49 22,-94 60,-124 11,-9 13,-24 4,-35 -8,-10 -23,-12 -34,-4 -50,40 -79,99 -79,163 0,115 93,208 208,208 114,0 207,-93 207,-208 0,-64 -29,-123 -79,-163 z"
     id="path243"
     style="clip-rule:evenodd;display:inline;fill-rule:evenodd;image-rendering:optimizeQuality;shape-rendering:geometricPrecision;text-rendering:geometricPrecision" /><rect
     class="fil28"
     x="5196"
     y="15142"
     width="263"
     height="287"
     id="rect334"
     style="clip-rule:evenodd;display:inline;fill-rule:evenodd;image-rendering:optimizeQuality;shape-rendering:geometricPrecision;text-rendering:geometricPrecision" /><g
     id="_2470739255776"
     style="clip-rule:evenodd;display:inline;fill-rule:evenodd;image-rendering:optimizeQuality;shape-rendering:geometricPrecision;text-rendering:geometricPrecision">
   <path
   class="fil3"
   d="m 10186,15471 c 6,0 11,-2 15,-5 9,-6 9,-16 0,-22 l -226,-159 226,-159 c 9,-6 9,-15 0,-21 -8,-6 -21,-7 -30,-1 l -226,159 c -8,6 -13,14 -13,22 0,9 5,16 13,22 l 226,159 c 4,3 10,5 15,5 z"
   id="path344" />
   <path
   id="_1_4"
   class="fil30"
   d="m 10206,15472 v 0 h -1 v 1 h -1 l -1,1 v 0 h -1 v 0 l -1,1 v 0 h -1 -1 v 1 h -1 v 0 h -1 l -1,1 v 0 h -1 -1 v 0 h -1 v 0 l -1,1 h -1 v 0 h -1 -1 v 0 h -1 -1 v 0 h -1 v -15 0 h 1 v 0 h 1 v 0 0 h 1 v 0 h 1 v 0 0 h 1 v 0 h 1 v 0 0 l 1,-1 v 0 0 h 1 v 0 0 h 1 v 0 -1 h 1 v 0 0 0 h 1 v -1 0 0 z m 0,0 v 0 l -1,1 z m -1,-34 v 0 l 1,1 1,1 1,1 1,1 1,1 1,1 1,1 v 1 l 1,1 v 1 l 1,1 v 1 1 l 1,2 v 1 1 1 2 1 l -1,1 v 1 l -1,1 v 1 l -1,2 v 1 l -1,1 -1,1 v 1 l -1,1 h -1 l -1,1 -1,1 -9,-12 h 1 v -1 0 h 1 v -1 0 h 1 v -1 0 0 0 -1 0 0 0 -1 0 0 0 -1 0 0 -1 0 h -1 v -1 0 0 l -1,-1 v 0 0 l -1,-1 v 0 z m -234,-147 v -12 h 8 l 226,159 -8,12 z m 0,0 -9,-6 9,-6 z m 226,-171 8,12 v 0 l -226,159 -8,-12 z m 9,-21 v 0 h 1 l 1,1 1,1 1,1 v 1 l 1,1 1,1 v 1 l 1,1 v 1 l 1,1 v 2 l 1,1 v 1 1 2 1 1 l -1,1 v 1 2 l -1,1 v 1 l -1,1 v 1 l -1,1 -1,1 -1,1 -1,1 -1,1 -1,1 h -1 l -8,-12 h 1 v 0 -1 h 1 v 0 -1 0 h 1 v -1 0 0 -1 0 0 0 -1 0 0 0 -1 0 0 0 -1 0 h -1 v -1 0 h -1 v -1 0 l -1,-1 v 0 z m -39,-1 v 0 h 1 l 1,-1 1,-1 h 1 l 2,-1 h 1 l 1,-1 h 1 1 l 2,-1 h 1 1 1 2 1 1 2 1 1 1 2 l 1,1 h 1 1 l 2,1 h 1 1 l 1,1 1,1 h 2 l 1,1 1,1 -9,11 v 0 h -1 v -1 h -1 -1 v 0 l -1,-1 h -1 v 0 h -1 -1 -1 v -1 h -1 -1 -1 -1 v 0 h -1 -1 l -1,1 v 0 h -1 -1 -1 v 1 h -1 -1 v 0 l -1,1 v 0 h -1 v 0 z m 0,0 v 0 h 1 z m -218,171 v 0 l -8,-12 226,-159 8,12 z m 0,0 v 0 h 1 z m -24,16 v 0 -1 -1 -1 -1 -1 -1 l 1,-1 v -1 -1 -1 l 1,-1 v -1 l 1,-1 v 0 l 1,-1 v -1 l 1,-1 v -1 l 1,-1 v -1 l 1,-1 h 1 v -1 l 1,-1 1,-1 h 1 v -1 l 1,-1 1,-1 h 1 l 1,-1 1,-1 8,12 -1,1 v 0 l -1,1 v 0 l -1,1 v 0 l -1,1 v 0 l -1,1 v 0 l -1,1 v 0 1 h -1 v 1 0 l -1,1 v 0 1 0 l -1,1 v 0 1 0 1 0 l -1,1 v 0 1 0 1 0 0 z m 16,28 v 0 h -1 l -1,-1 -1,-1 h -1 l -1,-1 v -1 l -1,-1 h -1 l -1,-1 v -1 l -1,-1 -1,-1 v 0 l -1,-1 v -1 l -1,-1 v -1 l -1,-1 v -1 l -1,-1 v -1 l -1,-1 v -1 -1 -1 l -1,-1 v -1 -1 -1 -1 -1 -1 h 14 v 1 0 1 0 1 h 1 v 1 0 1 0 1 l 1,1 v 0 1 0 l 1,1 v 0 1 h 1 v 1 0 l 1,1 v 0 l 1,1 v 0 h 1 v 1 h 1 v 1 h 1 v 1 h 1 v 0 z m 8,-12 v 0 l 1,1 z m 226,159 -8,12 -226,-159 8,-12 z m 11,18 v 0 h -1 v 0 h -1 v 0 h -1 -1 v 0 h -1 -1 v -1 h -1 v 0 h -1 -1 v 0 h -1 l -1,-1 v 0 h -1 v 0 h -1 l -1,-1 v 0 h -1 v 0 l -1,-1 v 0 h -1 l -1,-1 v 0 h -1 v -1 l 8,-12 v 0 l 1,1 v 0 0 h 1 v 0 0 1 h 1 v 0 0 h 1 v 0 0 h 1 v 1 0 h 1 v 0 h 1 v 0 0 h 1 v 0 0 h 1 v 0 h 1 v 0 0 h 1 v 0 0 z" />
  </g><g
     id="_2470739254912"
     style="clip-rule:evenodd;display:inline;fill-rule:evenodd;image-rendering:optimizeQuality;shape-rendering:geometricPrecision;text-rendering:geometricPrecision">
   <path
   class="fil3"
   d="m 8424,15471 c -6,0 -11,-2 -15,-5 -9,-6 -9,-16 0,-22 l 226,-159 -226,-159 c -9,-6 -9,-15 0,-21 8,-6 22,-7 30,-1 l 226,159 c 9,6 13,14 13,22 0,9 -4,16 -13,22 l -226,159 c -4,3 -10,5 -15,5 z"
   id="path348" />
   <path
   id="_1_5"
   class="fil3"
   d="m 8404,15472 9,-12 v 0 0 1 h 1 v 0 0 h 1 v 0 1 0 h 1 v 0 0 h 1 v 0 0 l 1,1 v 0 h 1 v 0 0 h 1 v 0 0 h 1 v 0 h 1 v 0 0 h 1 v 0 h 1 v 0 15 h -1 v 0 h -1 -1 v 0 h -1 -1 v 0 h -1 v -1 h -1 -1 v 0 h -1 -1 v 0 l -1,-1 v 0 h -1 -1 v -1 h -1 v 0 h -1 l -1,-1 v 0 h -1 v 0 l -1,-1 h -1 v -1 z m 0,0 v 0 l -1,-1 z m 1,-34 8,12 v 0 1 h -1 v 0 l -1,1 v 0 0 1 h -1 v 0 1 0 0 1 0 0 0 0 1 0 0 1 0 0 0 l 1,1 v 0 0 1 h 1 v 0 1 h 1 l -9,12 -1,-1 -1,-1 h -1 v -1 l -1,-1 -1,-1 -1,-1 v -1 l -1,-2 v -1 l -1,-1 v -1 -1 l -1,-1 v -2 -1 -1 -1 l 1,-2 v -1 -1 l 1,-1 v -1 l 1,-1 1,-1 v -1 l 1,-1 1,-1 1,-1 1,-1 1,-1 z m 234,-147 -226,159 -8,-12 226,-159 h 8 z m 0,-12 9,6 -9,6 z m -226,-159 226,159 -8,12 -226,-159 v 0 z m -9,-21 9,11 v 0 l -1,1 v 0 1 h -1 v 0 1 0 h -1 v 1 0 0 0 1 0 0 0 1 0 0 0 1 0 0 1 h 1 v 0 1 0 h 1 v 1 h 1 v 0 l -8,12 h -1 l -1,-1 -1,-1 -1,-1 -1,-1 -1,-1 v -1 l -1,-1 -1,-1 v -1 l -1,-1 v -2 -1 l -1,-1 v -1 -1 -2 -1 l 1,-1 v -1 -2 l 1,-1 v -1 l 1,-1 v -1 l 1,-1 1,-1 1,-1 v -1 l 1,-1 1,-1 z m 0,0 v 0 l 2,-1 z m 39,-1 -8,12 v 0 h -1 v 0 l -1,-1 v 0 h -1 -1 v -1 h -1 -1 -1 v 0 l -1,-1 h -1 -1 v 0 h -1 -1 -1 v 0 l -1,1 h -1 -1 -1 v 0 h -1 l -1,1 v 0 h -1 v 0 l -1,1 h -1 v 0 l -9,-11 1,-1 2,-1 h 1 l 1,-1 1,-1 h 1 1 l 2,-1 h 1 1 l 1,-1 h 2 1 1 2 1 1 1 2 1 1 1 l 2,1 h 1 1 l 1,1 h 2 l 1,1 h 1 l 1,1 1,1 z m 0,0 v 0 l 5,4 z m 218,171 -226,-159 8,-12 226,159 z m 0,0 v 0 h -1 z m 24,16 h -14 v 0 0 -1 0 -1 0 -1 h -1 v -1 0 -1 0 -1 h -1 v -1 0 -1 h -1 v -1 0 l -1,-1 v 0 l -1,-1 v 0 -1 h -1 v -1 h -1 v -1 h -1 l -1,-1 v 0 l -1,-1 8,-12 1,1 1,1 h 1 l 1,1 1,1 v 1 h 1 l 1,1 1,1 v 1 h 1 l 1,1 v 1 l 1,1 1,1 v 1 l 1,1 v 1 0 l 1,1 v 1 l 1,1 v 1 1 l 1,1 v 1 1 1 1 1 1 z m -16,28 -8,-12 v 0 h 1 v -1 h 1 v -1 h 1 l 1,-1 v 0 h 1 v -1 0 l 1,-1 v 0 l 1,-1 v 0 -1 h 1 v -1 -1 0 h 1 v -1 -1 0 -1 0 l 1,-1 v 0 -1 0 -1 0 -1 h 14 v 1 1 1 1 1 1 1 l -1,1 v 1 1 l -1,1 v 1 l -1,1 v 1 1 l -1,1 v 1 l -1,1 -1,1 v 0 l -1,1 -1,1 v 1 l -1,1 h -1 l -1,1 v 1 l -1,1 h -1 l -1,1 -1,1 z m -8,-12 v 0 l -1,1 z m -226,159 226,-159 8,12 -226,159 z m -11,18 v -15 0 0 h 1 v 0 h 1 v 0 0 h 1 v 0 0 h 1 v 0 h 1 v 0 0 h 1 v 0 -1 h 1 v 0 0 h 1 v 0 0 h 1 v -1 0 h 1 v 0 0 0 l 1,-1 v 0 l 8,12 v 1 h -1 v 0 l -1,1 v 0 h -1 l -1,1 v 0 h -1 v 0 l -1,1 h -1 v 0 h -1 v 0 l -1,1 h -1 v 0 h -1 v 0 h -1 -1 v 1 h -1 -1 v 0 h -1 v 0 h -1 -1 v 0 z" />
  </g><polygon
     class="fil13"
     points="7090,15285 6822,15468 6822,15103 "
     id="polygon354"
     style="clip-rule:evenodd;display:inline;fill-rule:evenodd;image-rendering:optimizeQuality;shape-rendering:geometricPrecision;text-rendering:geometricPrecision" /><g
     id="g2504"
     style="clip-rule:evenodd;display:inline;fill-rule:evenodd;image-rendering:optimizeQuality;shape-rendering:geometricPrecision;text-rendering:geometricPrecision"><line
       class="fil8 str2"
       x1="26791"
       y1="3006"
       x2="27003"
       y2="2794"
       id="line127" /><line
       class="fil8 str2"
       x1="27003"
       y1="3006"
       x2="26791"
       y2="2794"
       id="line129" /></g><path
     class="fil2"
     d="m 8857,8077 c 0,134 109,243 243,243 134,0 243,-109 243,-243 0,-135 -109,-244 -243,-244 -134,0 -243,109 -243,244 z"
     id="path165"
     style="clip-rule:evenodd;display:inline;fill-rule:evenodd;image-rendering:optimizeQuality;shape-rendering:geometricPrecision;text-rendering:geometricPrecision" /><path
     class="fil6 str1"
     d="M 9129,7464 H 7895 c -348,0 -630,278 -630,622 0,344 282,622 630,622 h 1234 c 348,0 631,-278 631,-622 0,-344 -283,-622 -631,-622 z"
     id="path117"
     style="clip-rule:evenodd;display:inline;fill-rule:evenodd;image-rendering:optimizeQuality;shape-rendering:geometricPrecision;text-rendering:geometricPrecision" /><path
     class="fil6 str1"
     d="M 10185,9345 H 5359 c -373,0 -675,298 -675,666 0,368 302,666 675,666 h 4826 c 373,0 675,-298 675,-666 0,-368 -302,-666 -675,-666 z"
     id="path112"
     style="clip-rule:evenodd;display:inline;fill-rule:evenodd;image-rendering:optimizeQuality;shape-rendering:geometricPrecision;text-rendering:geometricPrecision" /><path
     class="fil2"
     d="m 5328,11685 c -182,0 -330,148 -330,330 0,182 148,329 330,329 182,0 329,-147 329,-329 0,-182 -147,-330 -329,-330 z"
     id="path241"
     style="clip-rule:evenodd;display:inline;fill-rule:evenodd;image-rendering:optimizeQuality;shape-rendering:geometricPrecision;text-rendering:geometricPrecision" /><path
     class="fil10"
     d="m 12211,11351 105,-274 h 40 l 111,274 h -41 l -32,-83 h -115 l -30,83 z m 79,-113 h 93 l -29,-75 c -8,-23 -15,-42 -19,-57 -4,17 -9,35 -15,52 z"
     id="path141"
     style="clip-rule:evenodd;display:inline;fill-rule:evenodd;image-rendering:optimizeQuality;shape-rendering:geometricPrecision;text-rendering:geometricPrecision" /><g
     id="_2470739261568"
     style="clip-rule:evenodd;display:inline;fill-rule:evenodd;image-rendering:optimizeQuality;shape-rendering:geometricPrecision;text-rendering:geometricPrecision">
   <path
   class="fil2"
   d="m 24989,15520 c -18,0 -32,-15 -32,-32 v -119 c 0,-18 14,-33 32,-33 18,0 33,15 33,33 v 119 c 0,17 -15,32 -33,32 z"
   id="path268" />
   <path
   class="fil2"
   d="m 24687,15560 c -17,4 -35,-6 -40,-23 l -31,-115 c -4,-17 6,-35 23,-40 17,-4 35,6 40,23 l 31,115 c 4,17 -6,35 -23,40 z"
   id="path270" />
   <path
   class="fil2"
   d="m 24405,15677 c -16,8 -35,3 -44,-12 l -60,-103 c -9,-16 -3,-36 12,-45 15,-8 35,-3 44,12 l 60,103 c 8,16 3,36 -12,45 z"
   id="path272" />
   <path
   class="fil2"
   d="m 24163,15862 c -13,13 -33,13 -46,0 l -84,-84 c -13,-12 -13,-33 0,-46 12,-12 33,-12 46,0 l 84,85 c 12,12 12,33 0,45 z"
   id="path274" />
   <path
   class="fil2"
   d="m 25946,17645 c -13,13 -34,13 -46,0 l -84,-84 c -13,-13 -13,-33 0,-46 12,-12 33,-12 45,0 l 85,84 c 12,13 12,34 0,46 z"
   id="path276" />
   <path
   class="fil2"
   d="m 23977,16104 c -9,16 -29,21 -44,12 l -103,-59 c -16,-9 -21,-29 -12,-44 9,-16 29,-21 44,-12 l 103,59 c 15,9 21,29 12,44 z"
   id="path278" />
   <path
   class="fil2"
   d="m 26161,17365 c -9,15 -29,21 -45,12 l -103,-60 c -15,-9 -20,-28 -12,-44 9,-15 29,-20 45,-12 l 103,60 c 15,9 20,29 12,44 z"
   id="path280" />
   <path
   class="fil2"
   d="m 23860,16386 c -4,17 -22,28 -39,23 l -115,-31 c -18,-4 -28,-22 -23,-39 4,-17 22,-28 39,-23 l 115,31 c 17,4 28,22 23,39 z"
   id="path282" />
   <path
   class="fil2"
   d="m 26296,17039 c -5,17 -23,27 -40,23 l -115,-31 c -17,-5 -27,-23 -23,-40 5,-17 23,-27 40,-23 l 115,31 c 17,5 27,23 23,40 z"
   id="path284" />
   <path
   class="fil2"
   d="m 23820,16689 c 0,18 -14,32 -32,32 h -119 c -18,0 -32,-14 -32,-32 0,-18 14,-33 32,-33 h 119 c 18,0 32,15 32,33 z"
   id="path286" />
   <path
   class="fil2"
   d="m 26342,16689 c 0,18 -15,32 -33,32 h -119 c -17,0 -32,-14 -32,-32 0,-18 15,-33 32,-33 h 119 c 18,0 33,15 33,33 z"
   id="path288" />
   <path
   class="fil2"
   d="m 23860,16991 c 5,17 -6,35 -23,40 l -115,31 c -17,4 -35,-6 -39,-23 -5,-17 5,-35 23,-40 l 115,-31 c 17,-4 35,6 39,23 z"
   id="path290" />
   <path
   class="fil2"
   d="m 26296,16339 c 4,17 -6,35 -23,39 l -115,31 c -17,5 -35,-6 -40,-23 -4,-17 6,-35 23,-39 l 115,-31 c 17,-5 35,6 40,23 z"
   id="path292" />
   <path
   class="fil2"
   d="m 23977,17273 c 9,16 3,35 -12,44 l -103,60 c -15,9 -35,3 -44,-12 -9,-15 -4,-35 12,-44 l 103,-60 c 15,-8 35,-3 44,12 z"
   id="path294" />
   <path
   class="fil2"
   d="m 26161,16013 c 8,15 3,35 -12,44 l -103,59 c -16,9 -36,4 -45,-12 -8,-15 -3,-35 12,-44 l 103,-59 c 16,-9 36,-4 45,12 z"
   id="path296" />
   <path
   class="fil2"
   d="m 24163,17515 c 12,13 12,33 0,46 l -84,84 c -13,13 -34,13 -46,0 -13,-12 -13,-33 0,-46 l 84,-84 c 13,-12 33,-12 46,0 z"
   id="path298" />
   <path
   class="fil2"
   d="m 25946,15732 c 12,13 12,34 0,46 l -85,84 c -12,13 -33,13 -45,0 -13,-12 -13,-33 0,-45 l 84,-85 c 12,-12 33,-12 46,0 z"
   id="path300" />
   <path
   class="fil2"
   d="m 25665,15517 c 16,9 21,29 12,45 l -59,103 c -9,15 -29,20 -44,12 -16,-9 -21,-29 -12,-45 l 59,-103 c 9,-15 29,-20 44,-12 z"
   id="path302" />
   <path
   class="fil2"
   d="m 25339,15382 c 17,5 28,23 23,40 l -31,115 c -4,17 -22,27 -39,23 -17,-5 -28,-23 -23,-40 l 31,-115 c 4,-17 22,-27 39,-23 z"
   id="path304" />
   <path
   class="fil2"
   d="m 25155,16829 819,-405 c 18,-9 8,-37 -12,-32 l -886,220 c -67,16 -105,87 -81,152 24,65 98,95 160,65 z"
   id="path306" />
   <path
   class="fil30"
   d="m 25221,16753 c 0,122 -98,220 -220,220 -121,0 -219,-98 -219,-220 0,-121 98,-219 219,-219 122,0 220,98 220,219 z"
   id="path308" />
  </g></g>
 
</svg>
