<?xml version="1.0" encoding="UTF-8" standalone="no"?>
<!-- Creator: CorelDRAW X7 -->

<svg
   xml:space="preserve"
   width="264.583mm"
   height="176.389mm"
   version="1.1"
   style="shape-rendering:geometricPrecision; text-rendering:geometricPrecision; image-rendering:optimizeQuality; fill-rule:evenodd; clip-rule:evenodd"
   viewBox="0 0 26458 17639"
   id="svg301"
   sodipodi:docname="svg_14.svg"
   inkscape:version="1.1.2 (0a00cf5339, 2022-02-04)"
   xmlns:inkscape="http://www.inkscape.org/namespaces/inkscape"
   xmlns:sodipodi="http://sodipodi.sourceforge.net/DTD/sodipodi-0.dtd"
   xmlns="http://www.w3.org/2000/svg"
   xmlns:svg="http://www.w3.org/2000/svg"><sodipodi:namedview
   id="namedview303"
   pagecolor="#ffffff"
   bordercolor="#666666"
   borderopacity="1.0"
   inkscape:pageshadow="2"
   inkscape:pageopacity="0.0"
   inkscape:pagecheckerboard="0"
   inkscape:document-units="mm"
   showgrid="false"
   inkscape:zoom="0.7901913"
   inkscape:cx="424.58073"
   inkscape:cy="368.89801"
   inkscape:window-width="1920"
   inkscape:window-height="1022"
   inkscape:window-x="0"
   inkscape:window-y="0"
   inkscape:window-maximized="1"
   inkscape:current-layer="layer1" />
 <defs
   id="defs18">
  <style
   type="text/css"
   id="style2">
   <![CDATA[
    .str1 {stroke:#055942;stroke-width:4.73}
    .str7 {stroke:#FEFEFE;stroke-width:10.15}
    .str3 {stroke:#FEFEFE;stroke-width:10.15}
    .str6 {stroke:#FEFEFE;stroke-width:10.15}
    .str5 {stroke:#FEFEFE;stroke-width:10.15}
    .str4 {stroke:#FEFEFE;stroke-width:10.16}
    .str2 {stroke:white;stroke-width:27.07;stroke-linecap:round}
    .str0 {stroke:#FEFEFE;stroke-width:11.94;stroke-linecap:round;stroke-linejoin:round}
    .fil8 {fill:none;fill-rule:nonzero}
    .fil1 {fill:#00A7E8}
    .fil2 {fill:#1070B7}
    .fil0 {fill:#3B1B16}
    .fil6 {fill:#862F18}
    .fil11 {fill:#C23E1A}
    .fil13 {fill:#F2C5A3}
    .fil12 {fill:#FEFEFE}
    .fil10 {fill:#055942;fill-rule:nonzero}
    .fil5 {fill:#862F18;fill-rule:nonzero}
    .fil9 {fill:#C1C1C1;fill-rule:nonzero}
    .fil4 {fill:#F2C5A3;fill-rule:nonzero}
    .fil3 {fill:#FDF4FF;fill-rule:nonzero}
    .fil7 {fill:#FEFEFE;fill-rule:nonzero}
    .fil14 {fill:white;fill-rule:nonzero}
   ]]>
  </style>
    <clipPath
   id="id0">
     <path
   d="M24720 1103c0,424 0,849 0,1274 -7758,0 -15516,0 -23275,0 0,-425 0,-850 0,-1274 7759,0 15517,0 23275,0z"
   id="path4" />
    </clipPath>
   <mask
   id="id1">
  <linearGradient
   id="id2"
   gradientUnits="userSpaceOnUse"
   x1="13077.7"
   y1="2118.51"
   x2="13077.7"
   y2="1374.91">
   <stop
   offset="0"
   style="stop-opacity:1; stop-color:white"
   id="stop7" />
   <stop
   offset="1"
   style="stop-opacity:0; stop-color:white"
   id="stop9" />
  </linearGradient>
    <rect
   style="fill:url(#id2)"
   x="1424"
   y="1096"
   width="23307"
   height="1302"
   id="rect12" />
   </mask>
    <clipPath
   id="id3">
     <path
   d="M23960 1481c0,178 0,357 0,535 -179,0 -357,0 -536,0 0,-178 0,-357 0,-535 179,0 357,0 536,0z"
   id="path15" />
    </clipPath>
 </defs>
 <g
   inkscape:groupmode="layer"
   id="layer1"
   inkscape:label="Layer 1"
   sodipodi:insensitive="true"><rect
     class="fil0"
     x="636"
     y="539"
     width="25348"
     height="16804"
     id="rect21"
     style="clip-rule:evenodd;fill-rule:evenodd;image-rendering:optimizeQuality;shape-rendering:geometricPrecision;text-rendering:geometricPrecision" /></g><g
   inkscape:groupmode="layer"
   id="layer2"
   inkscape:label="Layer 2"
   style="display:inline"><polygon
     class="fil2"
     style="clip-rule:evenodd;display:none;fill-rule:evenodd;image-rendering:optimizeQuality;shape-rendering:geometricPrecision;text-rendering:geometricPrecision"
     points="24721,2388 1434,2388 1434,1106 24721,1106 "
     mask="url(#id1)"
     id="polygon31" /><polygon
     class="fil4"
     points="8572,4967 1635,4967 1635,4076 8572,4076 "
     id="polygon86"
     style="clip-rule:evenodd;fill-rule:evenodd;image-rendering:optimizeQuality;shape-rendering:geometricPrecision;text-rendering:geometricPrecision" /><polygon
     class="fil7"
     points="8572,7032 1635,7032 1635,6142 8572,6142 "
     id="polygon88"
     style="clip-rule:evenodd;fill-rule:evenodd;image-rendering:optimizeQuality;shape-rendering:geometricPrecision;text-rendering:geometricPrecision" /><polygon
     class="fil4"
     points="4315,10546 1635,10546 1635,9656 4315,9656 "
     id="polygon75"
     style="clip-rule:evenodd;fill-rule:evenodd;image-rendering:optimizeQuality;shape-rendering:geometricPrecision;text-rendering:geometricPrecision" /><g
     id="g80"
     style="clip-rule:evenodd;fill-rule:evenodd;image-rendering:optimizeQuality;shape-rendering:geometricPrecision;text-rendering:geometricPrecision">
   <polygon
   class="fil5"
   points="8433,10546 5753,10546 5753,9656 8433,9656 "
   id="polygon77" />
   <path
   id="1"
   class="fil7"
   d="m 5753,10541 h 2680 v 10 H 5753 l -5,-5 z m 0,10 h -5 v -5 z m 5,-895 v 890 h -10 v -890 l 5,-5 z m -10,0 v -5 h 5 z m 2685,5 H 5753 v -10 h 2680 l 5,5 z m 0,-10 h 5 v 5 z m -5,895 v -890 h 10 v 890 l -5,5 z m 10,0 v 5 h -5 z" />
  </g><path
     class="fil4"
     d="M 4003,11744 H 1972 c -180,0 -327,-147 -327,-328 0,-181 147,-327 327,-327 h 2031 c 181,0 327,146 327,327 0,181 -146,328 -327,328 z"
     id="path150"
     style="clip-rule:evenodd;fill-rule:evenodd;image-rendering:optimizeQuality;shape-rendering:geometricPrecision;text-rendering:geometricPrecision" /><path
     class="fil5 str3"
     d="M 8120,11744 H 6089 c -181,0 -327,-147 -327,-328 0,-181 146,-327 327,-327 h 2031 c 181,0 327,146 327,327 0,181 -146,328 -327,328 z"
     id="path152"
     style="clip-rule:evenodd;fill-rule:evenodd;image-rendering:optimizeQuality;shape-rendering:geometricPrecision;text-rendering:geometricPrecision" /><polygon
     class="fil7"
     points="16288,8584 16040,8584 16040,8514 16288,8514 "
     id="polygon288"
     style="clip-rule:evenodd;fill-rule:evenodd;image-rendering:optimizeQuality;shape-rendering:geometricPrecision;text-rendering:geometricPrecision" /><polygon
     class="fil7"
     points="16632,8584 16384,8584 16384,8514 16632,8514 "
     id="polygon290"
     style="clip-rule:evenodd;fill-rule:evenodd;image-rendering:optimizeQuality;shape-rendering:geometricPrecision;text-rendering:geometricPrecision" /><polygon
     class="fil7"
     points="17301,8584 17053,8584 17053,8514 17301,8514 "
     id="polygon294"
     style="clip-rule:evenodd;fill-rule:evenodd;image-rendering:optimizeQuality;shape-rendering:geometricPrecision;text-rendering:geometricPrecision" /><polygon
     class="fil7"
     points="17626,8584 17378,8584 17378,8514 17626,8514 "
     id="polygon296"
     style="clip-rule:evenodd;fill-rule:evenodd;image-rendering:optimizeQuality;shape-rendering:geometricPrecision;text-rendering:geometricPrecision" /><path
     class="fil4"
     d="M 8168,13722 H 2024 c -217,0 -392,-176 -392,-392 0,-217 175,-392 392,-392 h 6144 c 217,0 392,175 392,392 0,216 -175,392 -392,392 z"
     id="path168"
     style="clip-rule:evenodd;fill-rule:evenodd;image-rendering:optimizeQuality;shape-rendering:geometricPrecision;text-rendering:geometricPrecision" /><path
     class="fil4"
     d="M 8168,14941 H 2024 c -217,0 -392,-175 -392,-392 0,-216 175,-392 392,-392 h 6144 c 217,0 392,176 392,392 0,217 -175,392 -392,392 z"
     id="path214"
     style="clip-rule:evenodd;fill-rule:evenodd;image-rendering:optimizeQuality;shape-rendering:geometricPrecision;text-rendering:geometricPrecision" /><rect
     class="fil13"
     x="1701"
     y="15484"
     width="754"
     height="754"
     id="rect256"
     style="clip-rule:evenodd;fill-rule:evenodd;image-rendering:optimizeQuality;shape-rendering:geometricPrecision;text-rendering:geometricPrecision" /><rect
     class="fil13"
     x="2709"
     y="15484"
     width="754"
     height="754"
     id="rect258"
     style="clip-rule:evenodd;fill-rule:evenodd;image-rendering:optimizeQuality;shape-rendering:geometricPrecision;text-rendering:geometricPrecision" /><rect
     class="fil6 str5"
     x="3705"
     y="15484"
     width="754"
     height="754"
     id="rect260"
     style="clip-rule:evenodd;fill-rule:evenodd;image-rendering:optimizeQuality;shape-rendering:geometricPrecision;text-rendering:geometricPrecision" /><path
     class="fil4"
     d="m 6333,15581 c 172,0 311,139 311,311 0,172 -139,312 -311,312 -172,0 -312,-140 -312,-312 0,-172 140,-311 312,-311 z"
     id="path268"
     style="clip-rule:evenodd;fill-rule:evenodd;image-rendering:optimizeQuality;shape-rendering:geometricPrecision;text-rendering:geometricPrecision" /><path
     class="fil5 str6"
     d="m 5451,15581 c -172,0 -311,139 -311,311 0,172 139,312 311,312 172,0 312,-140 312,-312 0,-172 -140,-311 -312,-311 z"
     id="path272"
     style="clip-rule:evenodd;fill-rule:evenodd;image-rendering:optimizeQuality;shape-rendering:geometricPrecision;text-rendering:geometricPrecision" /><path
     class="fil4"
     d="m 9764,16179 c -256,0 -463,-207 -463,-463 0,-256 207,-464 463,-464 257,0 464,208 464,464 0,256 -207,463 -464,463 z"
     id="path160"
     style="clip-rule:evenodd;fill-rule:evenodd;image-rendering:optimizeQuality;shape-rendering:geometricPrecision;text-rendering:geometricPrecision" /><path
     class="fil5 str4"
     d="m 10982,15252 c 256,0 463,208 463,464 0,256 -207,463 -463,463 -256,0 -464,-207 -464,-463 0,-256 208,-464 464,-464 z"
     id="path162"
     style="clip-rule:evenodd;fill-rule:evenodd;image-rendering:optimizeQuality;shape-rendering:geometricPrecision;text-rendering:geometricPrecision" /><polygon
     class="fil12"
     points="9659,13189 9617,13231 9617,13343 9697,13479 9796,13546 10778,13548 10778,13051 9864,13051 9782,13068 9724,13106 9667,13160 "
     id="polygon280"
     style="clip-rule:evenodd;display:inline;fill-rule:evenodd;image-rendering:optimizeQuality;shape-rendering:geometricPrecision;text-rendering:geometricPrecision" /><polygon
     class="fil12"
     points="11171,14344 11072,14411 10090,14413 10090,13916 11004,13916 11086,13932 11144,13971 11200,14025 11209,14054 11251,14096 11251,14208 "
     id="polygon276"
     style="clip-rule:evenodd;fill-rule:evenodd;image-rendering:optimizeQuality;shape-rendering:geometricPrecision;text-rendering:geometricPrecision" /><polygon
     class="fil4"
     points="15364,16188 12434,16188 12434,12582 15364,12582 "
     id="polygon120"
     style="clip-rule:evenodd;fill-rule:evenodd;image-rendering:optimizeQuality;shape-rendering:geometricPrecision;text-rendering:geometricPrecision" /><path
     class="fil3"
     d="M23559 14203c0,-645 -523,-1168 -1168,-1168 -645,0 -1168,523 -1168,1168 0,645 523,1168 1168,1168 645,0 1168,-523 1168,-1168z"
     id="path61"
     style="shape-rendering:geometricPrecision;text-rendering:geometricPrecision;image-rendering:optimizeQuality;fill-rule:evenodd;clip-rule:evenodd" /><path
     class="fil8 str0"
     d="M23874 14203c0,-819 -664,-1483 -1483,-1483 -819,0 -1484,664 -1484,1483 0,819 665,1483 1484,1483 819,0 1483,-664 1483,-1483"
     id="path59"
     style="shape-rendering:geometricPrecision;text-rendering:geometricPrecision;image-rendering:optimizeQuality;fill-rule:evenodd;clip-rule:evenodd" /><path
     class="fil9"
     d="M19337 13267l0 2891 -2892 0 0 -2891 2892 0zm19 -19l0 0 -2930 0 0 2929 2930 0 0 -2929z"
     id="path92"
     style="shape-rendering:geometricPrecision;text-rendering:geometricPrecision;image-rendering:optimizeQuality;fill-rule:evenodd;clip-rule:evenodd" /></g><g
   inkscape:groupmode="layer"
   id="layer3"
   inkscape:label="Layer 3"
   style="display:inline"><polygon
     class="fil4"
     points="645,2386 645,1103 25983,1103 25983,2386 "
     id="polygon35"
     style="clip-rule:evenodd;fill-rule:evenodd;image-rendering:optimizeQuality;shape-rendering:geometricPrecision;text-rendering:geometricPrecision" /><polygon
     class="fil5"
     points="16971,8584 16724,8584 16724,8514 16971,8514 "
     id="polygon292"
     style="clip-rule:evenodd;fill-rule:evenodd;image-rendering:optimizeQuality;shape-rendering:geometricPrecision;text-rendering:geometricPrecision" /><rect
     class="fil6"
     x="2003"
     y="13194"
     width="275"
     height="271"
     id="rect170"
     style="clip-rule:evenodd;fill-rule:evenodd;image-rendering:optimizeQuality;shape-rendering:geometricPrecision;text-rendering:geometricPrecision" /><rect
     class="fil6"
     x="2320"
     y="13194"
     width="275"
     height="271"
     id="rect172"
     style="clip-rule:evenodd;fill-rule:evenodd;image-rendering:optimizeQuality;shape-rendering:geometricPrecision;text-rendering:geometricPrecision" /><rect
     class="fil6"
     x="2622"
     y="13194"
     width="275"
     height="271"
     id="rect174"
     style="clip-rule:evenodd;fill-rule:evenodd;image-rendering:optimizeQuality;shape-rendering:geometricPrecision;text-rendering:geometricPrecision" /><rect
     class="fil6"
     x="2940"
     y="13194"
     width="275"
     height="271"
     id="rect176"
     style="clip-rule:evenodd;fill-rule:evenodd;image-rendering:optimizeQuality;shape-rendering:geometricPrecision;text-rendering:geometricPrecision" /><rect
     class="fil6"
     x="3250"
     y="13194"
     width="275"
     height="271"
     id="rect178"
     style="clip-rule:evenodd;fill-rule:evenodd;image-rendering:optimizeQuality;shape-rendering:geometricPrecision;text-rendering:geometricPrecision" /><rect
     class="fil6"
     x="3565"
     y="13194"
     width="275"
     height="271"
     id="rect180"
     style="clip-rule:evenodd;fill-rule:evenodd;image-rendering:optimizeQuality;shape-rendering:geometricPrecision;text-rendering:geometricPrecision" /><rect
     class="fil6"
     x="3867"
     y="13194"
     width="275"
     height="271"
     id="rect182"
     style="clip-rule:evenodd;fill-rule:evenodd;image-rendering:optimizeQuality;shape-rendering:geometricPrecision;text-rendering:geometricPrecision" /><rect
     class="fil6"
     x="4179"
     y="13194"
     width="275"
     height="271"
     id="rect184"
     style="clip-rule:evenodd;fill-rule:evenodd;image-rendering:optimizeQuality;shape-rendering:geometricPrecision;text-rendering:geometricPrecision" /><rect
     class="fil6"
     x="4485"
     y="13194"
     width="275"
     height="271"
     id="rect186"
     style="clip-rule:evenodd;fill-rule:evenodd;image-rendering:optimizeQuality;shape-rendering:geometricPrecision;text-rendering:geometricPrecision" /><rect
     class="fil6"
     x="4803"
     y="13194"
     width="275"
     height="271"
     id="rect188"
     style="clip-rule:evenodd;fill-rule:evenodd;image-rendering:optimizeQuality;shape-rendering:geometricPrecision;text-rendering:geometricPrecision" /><rect
     class="fil6"
     x="5115"
     y="13194"
     width="275"
     height="271"
     id="rect190"
     style="clip-rule:evenodd;fill-rule:evenodd;image-rendering:optimizeQuality;shape-rendering:geometricPrecision;text-rendering:geometricPrecision" /><rect
     class="fil6"
     x="5432"
     y="13194"
     width="275"
     height="271"
     id="rect192"
     style="clip-rule:evenodd;fill-rule:evenodd;image-rendering:optimizeQuality;shape-rendering:geometricPrecision;text-rendering:geometricPrecision" /><rect
     class="fil6"
     x="5734"
     y="13194"
     width="275"
     height="271"
     id="rect194"
     style="clip-rule:evenodd;fill-rule:evenodd;image-rendering:optimizeQuality;shape-rendering:geometricPrecision;text-rendering:geometricPrecision" /><rect
     class="fil6"
     x="6052"
     y="13194"
     width="275"
     height="271"
     id="rect196"
     style="clip-rule:evenodd;fill-rule:evenodd;image-rendering:optimizeQuality;shape-rendering:geometricPrecision;text-rendering:geometricPrecision" /><rect
     class="fil6"
     x="6363"
     y="13194"
     width="275"
     height="271"
     id="rect198"
     style="clip-rule:evenodd;fill-rule:evenodd;image-rendering:optimizeQuality;shape-rendering:geometricPrecision;text-rendering:geometricPrecision" /><rect
     class="fil6"
     x="6677"
     y="13194"
     width="275"
     height="271"
     id="rect200"
     style="clip-rule:evenodd;fill-rule:evenodd;image-rendering:optimizeQuality;shape-rendering:geometricPrecision;text-rendering:geometricPrecision" /><rect
     class="fil6"
     x="6979"
     y="13194"
     width="275"
     height="271"
     id="rect202"
     style="clip-rule:evenodd;fill-rule:evenodd;image-rendering:optimizeQuality;shape-rendering:geometricPrecision;text-rendering:geometricPrecision" /><rect
     class="fil6"
     x="7291"
     y="13194"
     width="275"
     height="271"
     id="rect204"
     style="clip-rule:evenodd;fill-rule:evenodd;image-rendering:optimizeQuality;shape-rendering:geometricPrecision;text-rendering:geometricPrecision" /><rect
     class="fil6"
     x="7597"
     y="13194"
     width="275"
     height="271"
     id="rect206"
     style="clip-rule:evenodd;fill-rule:evenodd;image-rendering:optimizeQuality;shape-rendering:geometricPrecision;text-rendering:geometricPrecision" /><rect
     class="fil6"
     x="7915"
     y="13194"
     width="275"
     height="271"
     id="rect208"
     style="clip-rule:evenodd;fill-rule:evenodd;image-rendering:optimizeQuality;shape-rendering:geometricPrecision;text-rendering:geometricPrecision" /><rect
     class="fil6"
     x="2003"
     y="14414"
     width="275"
     height="271"
     id="rect216"
     style="clip-rule:evenodd;fill-rule:evenodd;image-rendering:optimizeQuality;shape-rendering:geometricPrecision;text-rendering:geometricPrecision" /><rect
     class="fil6"
     x="2320"
     y="14414"
     width="275"
     height="271"
     id="rect218"
     style="clip-rule:evenodd;fill-rule:evenodd;image-rendering:optimizeQuality;shape-rendering:geometricPrecision;text-rendering:geometricPrecision" /><rect
     class="fil6"
     x="2622"
     y="14414"
     width="275"
     height="271"
     id="rect220"
     style="clip-rule:evenodd;fill-rule:evenodd;image-rendering:optimizeQuality;shape-rendering:geometricPrecision;text-rendering:geometricPrecision" /><rect
     class="fil6"
     x="2940"
     y="14414"
     width="275"
     height="271"
     id="rect222"
     style="clip-rule:evenodd;fill-rule:evenodd;image-rendering:optimizeQuality;shape-rendering:geometricPrecision;text-rendering:geometricPrecision" /><rect
     class="fil6"
     x="3250"
     y="14414"
     width="275"
     height="271"
     id="rect224"
     style="clip-rule:evenodd;fill-rule:evenodd;image-rendering:optimizeQuality;shape-rendering:geometricPrecision;text-rendering:geometricPrecision" /><rect
     class="fil6"
     x="3565"
     y="14414"
     width="275"
     height="271"
     id="rect226"
     style="clip-rule:evenodd;fill-rule:evenodd;image-rendering:optimizeQuality;shape-rendering:geometricPrecision;text-rendering:geometricPrecision" /><rect
     class="fil6"
     x="3867"
     y="14414"
     width="275"
     height="271"
     id="rect228"
     style="clip-rule:evenodd;fill-rule:evenodd;image-rendering:optimizeQuality;shape-rendering:geometricPrecision;text-rendering:geometricPrecision" /><rect
     class="fil6"
     x="4179"
     y="14414"
     width="275"
     height="271"
     id="rect230"
     style="clip-rule:evenodd;fill-rule:evenodd;image-rendering:optimizeQuality;shape-rendering:geometricPrecision;text-rendering:geometricPrecision" /><rect
     class="fil6"
     x="4485"
     y="14414"
     width="275"
     height="271"
     id="rect232"
     style="clip-rule:evenodd;fill-rule:evenodd;image-rendering:optimizeQuality;shape-rendering:geometricPrecision;text-rendering:geometricPrecision" /><rect
     class="fil6"
     x="4803"
     y="14414"
     width="275"
     height="271"
     id="rect234"
     style="clip-rule:evenodd;fill-rule:evenodd;image-rendering:optimizeQuality;shape-rendering:geometricPrecision;text-rendering:geometricPrecision" /><rect
     class="fil6"
     x="5115"
     y="14414"
     width="275"
     height="271"
     id="rect236"
     style="clip-rule:evenodd;fill-rule:evenodd;image-rendering:optimizeQuality;shape-rendering:geometricPrecision;text-rendering:geometricPrecision" /><rect
     class="fil12"
     x="5432"
     y="14414"
     width="275"
     height="271"
     id="rect238"
     style="clip-rule:evenodd;fill-rule:evenodd;image-rendering:optimizeQuality;shape-rendering:geometricPrecision;text-rendering:geometricPrecision" /><rect
     class="fil12"
     x="5734"
     y="14414"
     width="275"
     height="271"
     id="rect240"
     style="clip-rule:evenodd;fill-rule:evenodd;image-rendering:optimizeQuality;shape-rendering:geometricPrecision;text-rendering:geometricPrecision" /><rect
     class="fil12"
     x="6052"
     y="14414"
     width="275"
     height="271"
     id="rect242"
     style="clip-rule:evenodd;fill-rule:evenodd;image-rendering:optimizeQuality;shape-rendering:geometricPrecision;text-rendering:geometricPrecision" /><rect
     class="fil12"
     x="6363"
     y="14414"
     width="275"
     height="271"
     id="rect244"
     style="clip-rule:evenodd;fill-rule:evenodd;image-rendering:optimizeQuality;shape-rendering:geometricPrecision;text-rendering:geometricPrecision" /><rect
     class="fil12"
     x="6677"
     y="14414"
     width="275"
     height="271"
     id="rect246"
     style="clip-rule:evenodd;fill-rule:evenodd;image-rendering:optimizeQuality;shape-rendering:geometricPrecision;text-rendering:geometricPrecision" /><rect
     class="fil12"
     x="6979"
     y="14414"
     width="275"
     height="271"
     id="rect248"
     style="clip-rule:evenodd;fill-rule:evenodd;image-rendering:optimizeQuality;shape-rendering:geometricPrecision;text-rendering:geometricPrecision" /><rect
     class="fil12"
     x="7291"
     y="14414"
     width="275"
     height="271"
     id="rect250"
     style="clip-rule:evenodd;fill-rule:evenodd;image-rendering:optimizeQuality;shape-rendering:geometricPrecision;text-rendering:geometricPrecision" /><rect
     class="fil12"
     x="7597"
     y="14414"
     width="275"
     height="271"
     id="rect252"
     style="clip-rule:evenodd;fill-rule:evenodd;image-rendering:optimizeQuality;shape-rendering:geometricPrecision;text-rendering:geometricPrecision" /><rect
     class="fil12"
     x="7915"
     y="14414"
     width="275"
     height="271"
     id="rect254"
     style="clip-rule:evenodd;fill-rule:evenodd;image-rendering:optimizeQuality;shape-rendering:geometricPrecision;text-rendering:geometricPrecision" /><path
     class="fil4"
     d="m 10768,13063 v 478 h -899 c -132,0 -239,-107 -239,-239 0,-131 107,-239 239,-239 z m 28,-27 v 0 h -927 c -147,0 -266,119 -266,266 0,147 119,266 266,266 h 927 z"
     id="path282"
     style="clip-rule:evenodd;fill-rule:evenodd;image-rendering:optimizeQuality;shape-rendering:geometricPrecision;text-rendering:geometricPrecision" /><path
     class="fil5 str7"
     d="M10076 13901l-4 0 -211 0c-147,0 -266,119 -266,266 0,147 119,266 266,266l211 0 4 0 923 0c147,0 266,-119 266,-266 0,-147 -119,-266 -266,-266l-923 0zm118 505c88,-44 149,-134 149,-239 0,-104 -61,-195 -149,-239l805 0c131,0 238,108 238,239 0,132 -107,239 -238,239l-805 0z"
     id="path278"
     style="shape-rendering:geometricPrecision;text-rendering:geometricPrecision;image-rendering:optimizeQuality;fill-rule:evenodd;clip-rule:evenodd" /><circle
     class="fil12"
     cx="13096"
     cy="15852"
     r="101"
     id="circle138"
     style="shape-rendering:geometricPrecision;text-rendering:geometricPrecision;image-rendering:optimizeQuality;fill-rule:evenodd;clip-rule:evenodd" /><circle
     class="fil12"
     cx="13499"
     cy="15852"
     r="101"
     id="circle140"
     style="shape-rendering:geometricPrecision;text-rendering:geometricPrecision;image-rendering:optimizeQuality;fill-rule:evenodd;clip-rule:evenodd" /><circle
     class="fil12"
     cx="13902"
     cy="15852"
     r="101"
     id="circle142"
     style="shape-rendering:geometricPrecision;text-rendering:geometricPrecision;image-rendering:optimizeQuality;fill-rule:evenodd;clip-rule:evenodd" /><circle
     class="fil12"
     cx="14305"
     cy="15852"
     r="101"
     id="circle144"
     style="shape-rendering:geometricPrecision;text-rendering:geometricPrecision;image-rendering:optimizeQuality;fill-rule:evenodd;clip-rule:evenodd" /><circle
     class="fil12"
     cx="14708"
     cy="15852"
     r="101"
     id="circle146"
     style="shape-rendering:geometricPrecision;text-rendering:geometricPrecision;image-rendering:optimizeQuality;fill-rule:evenodd;clip-rule:evenodd" /><circle
     class="fil12"
     cx="15111"
     cy="15852"
     r="101"
     id="circle148"
     style="shape-rendering:geometricPrecision;text-rendering:geometricPrecision;image-rendering:optimizeQuality;fill-rule:evenodd;clip-rule:evenodd" /><path
     class="fil8 str1"
     d="M23467 14203c0,-594 -482,-1077 -1076,-1077 -595,0 -1077,483 -1077,1077 0,595 482,1077 1077,1077 594,0 1076,-482 1076,-1077"
     id="path63"
     style="shape-rendering:geometricPrecision;text-rendering:geometricPrecision;image-rendering:optimizeQuality;fill-rule:evenodd;clip-rule:evenodd" /><path
     class="fil4"
     d="M21342 15301c-13,0 -25,-5 -34,-15 -290,-289 -449,-674 -449,-1083 0,-844 687,-1532 1532,-1532 100,0 201,10 299,30 26,5 44,30 38,57 -5,26 -30,43 -57,38 -92,-18 -186,-27 -280,-27 -791,0 -1435,643 -1435,1434 0,383 149,744 420,1015 19,19 19,49 0,68 -9,10 -22,15 -34,15z"
     id="path71"
     style="shape-rendering:geometricPrecision;text-rendering:geometricPrecision;image-rendering:optimizeQuality;fill-rule:evenodd;clip-rule:evenodd" /><polygon
     class="fil10"
     points="19356,14759 16426,14759 16426,14045 19356,14045 "
     id="polygon98"
     style="shape-rendering:geometricPrecision;text-rendering:geometricPrecision;image-rendering:optimizeQuality;fill-rule:evenodd;clip-rule:evenodd" /></g><g
   inkscape:groupmode="layer"
   id="layer4"
   inkscape:label="Layer 4"
   style="display:inline"><rect
     class="fil6"
     x="5374"
     y="1103"
     width="1964"
     height="1285"
     id="rect45"
     style="clip-rule:evenodd;fill-rule:evenodd;image-rendering:optimizeQuality;shape-rendering:geometricPrecision;text-rendering:geometricPrecision" /><path
     class="fil7"
     d="m 21272,2030 h -7300 c -157,0 -285,-128 -285,-286 0,-157 128,-285 285,-285 h 7300 c 157,0 285,128 285,285 0,158 -128,286 -285,286 z"
     id="path90"
     style="clip-rule:evenodd;fill-rule:evenodd;image-rendering:optimizeQuality;shape-rendering:geometricPrecision;text-rendering:geometricPrecision" /><path
     class="fil4"
     d="m 10792,13036 h 215 c 147,0 266,119 266,266 0,147 -119,266 -266,266 h -215 c -147,0 -267,-119 -267,-266 0,-147 120,-266 267,-266 z"
     id="path284"
     style="clip-rule:evenodd;fill-rule:evenodd;image-rendering:optimizeQuality;shape-rendering:geometricPrecision;text-rendering:geometricPrecision" /><polygon
     class="fil5"
     points="12794,15574 12592,15574 12592,12759 12794,12759 "
     id="polygon122"
     style="clip-rule:evenodd;fill-rule:evenodd;image-rendering:optimizeQuality;shape-rendering:geometricPrecision;text-rendering:geometricPrecision" /><polygon
     class="fil5"
     points="13197,15574 12995,15574 12995,13518 13197,13518 "
     id="polygon124"
     style="clip-rule:evenodd;fill-rule:evenodd;image-rendering:optimizeQuality;shape-rendering:geometricPrecision;text-rendering:geometricPrecision" /><polygon
     class="fil5"
     points="14003,15574 13801,15574 13801,12759 14003,12759 "
     id="polygon126"
     style="clip-rule:evenodd;fill-rule:evenodd;image-rendering:optimizeQuality;shape-rendering:geometricPrecision;text-rendering:geometricPrecision" /><polygon
     class="fil5"
     points="13600,15574 13398,15574 13398,14277 13600,14277 "
     id="polygon128"
     style="clip-rule:evenodd;fill-rule:evenodd;image-rendering:optimizeQuality;shape-rendering:geometricPrecision;text-rendering:geometricPrecision" /><polygon
     class="fil5"
     points="14406,15574 14205,15574 14205,12759 14406,12759 "
     id="polygon130"
     style="clip-rule:evenodd;fill-rule:evenodd;image-rendering:optimizeQuality;shape-rendering:geometricPrecision;text-rendering:geometricPrecision" /><polygon
     class="fil5"
     points="14809,15574 14608,15574 14608,13293 14809,13293 "
     id="polygon132"
     style="clip-rule:evenodd;fill-rule:evenodd;image-rendering:optimizeQuality;shape-rendering:geometricPrecision;text-rendering:geometricPrecision" /><polygon
     class="fil5"
     points="15212,15574 15011,15574 15011,14463 15212,14463 "
     id="polygon134"
     style="clip-rule:evenodd;fill-rule:evenodd;image-rendering:optimizeQuality;shape-rendering:geometricPrecision;text-rendering:geometricPrecision" /><circle
     class="fil11"
     cx="12693"
     cy="15852"
     r="101"
     id="circle136"
     style="clip-rule:evenodd;fill-rule:evenodd;image-rendering:optimizeQuality;shape-rendering:geometricPrecision;text-rendering:geometricPrecision" /><polygon
     class="fil4"
     points="19356,14045 16426,14045 16426,13330 19356,13330 "
     id="polygon96"
     style="clip-rule:evenodd;fill-rule:evenodd;image-rendering:optimizeQuality;shape-rendering:geometricPrecision;text-rendering:geometricPrecision" /><polygon
     class="fil4"
     points="19356,15473 16426,15473 16426,14759 19356,14759 "
     id="polygon100"
     style="clip-rule:evenodd;fill-rule:evenodd;image-rendering:optimizeQuality;shape-rendering:geometricPrecision;text-rendering:geometricPrecision" /><polygon
     class="fil4"
     points="19356,16188 16426,16188 16426,15473 19356,15473 "
     id="polygon102"
     style="clip-rule:evenodd;fill-rule:evenodd;image-rendering:optimizeQuality;shape-rendering:geometricPrecision;text-rendering:geometricPrecision" /><g
     id="g118"
     style="clip-rule:evenodd;fill-rule:evenodd;image-rendering:optimizeQuality;shape-rendering:geometricPrecision;text-rendering:geometricPrecision">
   <polygon
   class="fil5"
   points="16431,14044 19352,14044 19352,14759 16431,14759 "
   id="polygon114" />
   <path
   id="path116"
   class="fil7"
   d="m 16431,14754 h 2921 v 10 h -2921 l -5,-5 z m 0,10 h -5 v -5 z m 6,-720 v 715 h -11 v -715 l 5,-5 z m -11,0 v -5 h 5 z m 2926,6 h -2921 v -11 h 2921 l 5,5 z m 0,-11 h 5 v 5 z m -6,720 v -715 h 11 v 715 l -5,5 z m 11,0 v 5 h -5 z" />
  </g><polygon
     class="fil5"
     points="19356,13330 16426,13330 16426,12616 19356,12616 "
     id="polygon94"
     style="shape-rendering:geometricPrecision;text-rendering:geometricPrecision;image-rendering:optimizeQuality;fill-rule:evenodd;clip-rule:evenodd" /></g><g
   inkscape:groupmode="layer"
   id="layer5"
   inkscape:label="Layer 5"
   style="display:inline"><path
     class="fil5"
     d="m 2223,1847 -18,-54 h -75 l -17,54 h -33 l 68,-200 h 41 l 68,200 z m -55,-170 h -1 l -29,89 h 59 z m 118,-42 h 31 v 88 h 1 c 4,-9 9,-16 16,-21 8,-5 16,-7 26,-7 19,0 34,7 44,21 10,13 15,32 15,57 0,25 -5,44 -15,57 -10,14 -25,21 -44,21 -10,0 -18,-3 -26,-8 -7,-5 -12,-11 -16,-20 h -1 v 24 h -31 z m 65,189 c 11,0 19,-4 26,-10 6,-7 10,-17 10,-28 v -26 c 0,-11 -4,-21 -10,-28 -7,-7 -15,-10 -26,-10 -10,0 -18,2 -24,7 -7,5 -10,11 -10,18 v 51 c 0,8 3,14 10,19 6,5 14,7 24,7 z m 163,27 c -11,0 -20,-2 -28,-6 -9,-3 -16,-8 -22,-15 -6,-7 -11,-15 -14,-25 -3,-9 -5,-20 -5,-32 0,-12 2,-23 5,-32 3,-10 8,-18 14,-25 6,-7 13,-12 22,-16 8,-3 17,-5 28,-5 10,0 19,2 28,5 8,4 16,9 22,16 6,7 10,15 13,25 4,9 5,20 5,32 0,12 -1,23 -5,32 -3,10 -7,18 -13,25 -6,7 -14,12 -22,15 -9,4 -18,6 -28,6 z m 0,-26 c 10,0 19,-3 26,-10 6,-7 9,-16 9,-29 v -26 c 0,-13 -3,-23 -9,-29 -7,-7 -16,-10 -26,-10 -11,0 -20,3 -26,10 -7,6 -10,16 -10,29 v 26 c 0,13 3,22 10,29 6,7 15,10 26,10 z m 193,-2 h -1 c -1,3 -3,7 -5,10 -2,4 -5,7 -9,9 -3,3 -7,5 -12,7 -4,1 -10,2 -16,2 -15,0 -27,-5 -36,-15 -8,-10 -13,-24 -13,-43 v -95 h 32 v 91 c 0,23 9,35 28,35 4,0 8,-1 12,-2 4,-1 7,-2 10,-4 3,-2 6,-5 7,-8 2,-4 3,-7 3,-12 v -100 h 31 v 149 h -31 z m 117,24 c -11,0 -19,-2 -24,-8 -6,-6 -9,-14 -9,-24 v -91 h -23 v -26 h 13 c 5,0 9,-1 11,-3 2,-2 3,-6 3,-11 v -26 h 28 v 40 h 31 v 26 h -31 v 98 h 29 v 25 z m 222,-24 h -2 c -1,3 -3,7 -5,10 -2,4 -5,7 -8,9 -3,3 -8,5 -12,7 -5,1 -10,2 -16,2 -16,0 -28,-5 -36,-15 -9,-10 -13,-24 -13,-43 v -95 h 31 v 91 c 0,23 10,35 29,35 4,0 8,-1 12,-2 3,-1 7,-2 10,-4 3,-2 5,-5 7,-8 2,-4 3,-7 3,-12 v -100 h 31 v 149 h -31 z m 123,28 c -14,0 -26,-3 -36,-8 -9,-5 -18,-11 -25,-20 l 20,-19 c 6,7 12,12 19,16 7,4 15,6 24,6 9,0 16,-2 20,-6 5,-3 7,-8 7,-14 0,-5 -2,-9 -5,-13 -3,-3 -9,-5 -16,-6 l -14,-2 c -15,-2 -27,-6 -36,-13 -9,-7 -13,-17 -13,-31 0,-7 1,-14 4,-19 2,-6 6,-11 11,-15 5,-4 11,-7 18,-9 6,-2 14,-3 22,-3 13,0 24,2 33,6 8,5 16,10 23,18 l -20,18 c -3,-4 -8,-8 -15,-12 -6,-3 -13,-5 -21,-5 -8,0 -15,2 -19,5 -4,4 -6,8 -6,14 0,6 2,10 5,13 4,3 10,5 18,6 l 14,2 c 16,2 28,7 36,14 7,7 11,17 11,29 0,7 -2,14 -4,20 -3,6 -7,11 -12,15 -5,4 -12,7 -19,9 -7,3 -15,4 -24,4 z"
     id="path37"
     style="clip-rule:evenodd;fill-rule:evenodd;image-rendering:optimizeQuality;shape-rendering:geometricPrecision;text-rendering:geometricPrecision" /><path
     class="fil5"
     d="m 4242,1730 -22,-43 h -1 v 153 h -31 v -200 h 36 l 65,111 22,42 h 1 v -153 h 31 v 200 h -36 z m 207,114 c -11,0 -21,-2 -29,-6 -8,-3 -16,-9 -21,-15 -6,-7 -11,-15 -14,-25 -3,-10 -5,-20 -5,-32 0,-12 2,-23 5,-33 3,-9 8,-17 14,-24 5,-7 13,-12 21,-16 8,-3 18,-5 29,-5 11,0 20,2 29,5 8,4 15,10 20,16 6,7 10,15 13,24 3,9 4,19 4,29 v 12 h -102 v 5 c 0,11 3,20 10,28 7,7 16,11 29,11 9,0 17,-2 23,-6 6,-4 12,-10 16,-17 l 18,18 c -5,10 -13,17 -24,22 -10,6 -22,9 -36,9 z m 0,-132 c -6,0 -11,1 -15,3 -5,2 -8,5 -11,8 -4,3 -6,8 -8,12 -2,5 -2,10 -2,16 v 2 h 69 v -3 c 0,-11 -3,-20 -9,-27 -6,-7 -14,-11 -24,-11 z m 84,-21 h 31 l 15,63 13,56 h 1 l 16,-56 18,-63 h 28 l 18,63 16,56 h 1 l 13,-56 15,-63 h 29 l -40,149 h -35 l -20,-68 -12,-42 v 0 l -12,42 -20,68 h -34 z m 291,153 c -15,0 -26,-3 -36,-8 -10,-5 -18,-12 -25,-20 l 20,-19 c 6,7 12,12 19,16 6,4 14,5 23,5 9,0 16,-1 21,-5 4,-3 6,-8 6,-15 0,-4 -1,-8 -4,-12 -3,-3 -9,-5 -17,-6 l -13,-2 c -16,-2 -28,-6 -36,-13 -9,-7 -13,-18 -13,-31 0,-8 1,-14 4,-20 2,-5 6,-10 11,-14 5,-4 11,-7 17,-9 7,-2 15,-3 23,-3 13,0 24,2 33,6 8,4 16,10 22,18 l -19,18 c -4,-5 -9,-9 -15,-12 -6,-3 -13,-5 -21,-5 -9,0 -15,2 -19,5 -4,4 -6,8 -6,14 0,5 1,10 5,13 4,2 9,4 18,6 l 13,2 c 17,2 29,7 36,14 8,7 12,17 12,29 0,7 -2,14 -5,19 -2,6 -6,11 -11,15 -6,5 -12,8 -19,10 -7,3 -15,4 -24,4 z"
     id="path39"
     style="clip-rule:evenodd;fill-rule:evenodd;image-rendering:optimizeQuality;shape-rendering:geometricPrecision;text-rendering:geometricPrecision" /><path
     class="fil5"
     d="m 7819,1851 c -17,0 -31,-3 -43,-9 -12,-6 -22,-15 -30,-25 l 22,-21 c 7,9 15,15 24,20 8,4 18,6 29,6 12,0 22,-3 29,-8 6,-6 9,-14 9,-24 0,-7 -2,-14 -7,-18 -4,-5 -12,-8 -24,-10 l -18,-4 c -19,-3 -34,-10 -43,-19 -10,-9 -15,-22 -15,-38 0,-8 2,-16 5,-24 3,-7 8,-13 14,-18 6,-5 13,-8 22,-11 8,-3 18,-4 29,-4 15,0 28,3 39,8 11,5 21,13 28,23 l -22,20 c -5,-7 -12,-12 -19,-16 -8,-4 -17,-6 -28,-6 -11,0 -20,2 -27,7 -6,4 -9,11 -9,20 0,8 3,14 8,18 5,4 13,8 24,10 l 18,3 c 20,4 34,11 44,20 9,9 13,22 13,38 0,9 -1,18 -4,25 -4,8 -8,14 -15,20 -6,5 -13,10 -22,12 -9,3 -20,5 -31,5 z m 168,0 c -11,0 -21,-2 -29,-6 -8,-3 -16,-8 -22,-15 -5,-7 -10,-15 -13,-25 -3,-9 -5,-20 -5,-32 0,-12 2,-23 5,-32 3,-10 8,-18 13,-25 6,-7 14,-12 22,-16 8,-3 18,-5 29,-5 10,0 20,2 28,6 9,4 16,9 21,16 6,6 10,14 13,23 2,9 4,19 4,29 v 12 h -103 v 5 c 0,11 4,21 11,28 6,7 16,11 29,11 9,0 17,-2 23,-6 6,-4 12,-10 16,-16 l 18,18 c -5,9 -13,16 -24,22 -10,5 -22,8 -36,8 z m 0,-132 c -6,0 -11,1 -15,3 -5,2 -8,5 -12,8 -3,4 -5,8 -7,13 -2,4 -3,10 -3,15 v 2 h 70 v -3 c 0,-11 -3,-20 -9,-27 -6,-7 -14,-11 -24,-11 z m 100,128 v -149 h 32 v 29 h 1 c 2,-8 7,-14 13,-20 7,-6 16,-9 28,-9 h 8 v 31 h -12 c -12,0 -22,2 -28,6 -7,4 -10,10 -10,17 v 95 z m 145,0 -51,-149 h 31 l 23,68 15,53 h 2 l 15,-53 23,-68 h 30 l -51,149 z m 130,-175 c -6,0 -11,-2 -14,-5 -3,-3 -4,-7 -4,-12 v -4 c 0,-5 1,-9 4,-12 3,-3 8,-5 14,-5 7,0 11,2 14,5 3,3 5,7 5,12 v 4 c 0,5 -2,9 -5,12 -3,3 -7,5 -14,5 z m -15,26 h 31 v 149 h -31 z m 133,153 c -11,0 -20,-2 -29,-6 -8,-3 -15,-8 -21,-15 -6,-7 -10,-15 -13,-25 -3,-9 -5,-20 -5,-32 0,-12 2,-23 5,-32 3,-10 7,-18 13,-25 6,-7 13,-12 21,-16 9,-3 18,-5 29,-5 15,0 27,3 37,10 9,7 16,16 21,27 l -26,12 c -2,-7 -6,-13 -11,-17 -5,-4 -12,-6 -21,-6 -11,0 -20,4 -26,11 -6,7 -9,16 -9,28 v 26 c 0,12 3,21 9,28 6,7 15,11 26,11 9,0 17,-2 22,-7 5,-4 10,-10 13,-18 l 24,13 c -5,12 -13,21 -23,28 -10,7 -22,10 -36,10 z m 145,0 c -10,0 -20,-2 -28,-6 -9,-3 -16,-8 -22,-15 -6,-7 -10,-15 -13,-25 -4,-9 -5,-20 -5,-32 0,-12 1,-23 5,-32 3,-10 7,-18 13,-25 6,-7 13,-12 22,-16 8,-3 18,-5 28,-5 11,0 21,2 29,6 8,4 15,9 21,16 5,6 10,14 12,23 3,9 5,19 5,29 v 12 h -103 v 5 c 0,11 4,21 10,28 7,7 17,11 29,11 10,0 17,-2 24,-6 6,-4 11,-10 16,-16 l 18,18 c -5,9 -13,16 -24,22 -11,5 -23,8 -37,8 z m 0,-132 c -5,0 -10,1 -14,3 -5,2 -9,5 -12,8 -3,4 -5,8 -7,13 -2,4 -3,10 -3,15 v 2 h 70 v -3 c 0,-11 -3,-20 -9,-27 -6,-7 -14,-11 -25,-11 z m 148,132 c -14,0 -26,-3 -35,-8 -10,-5 -18,-11 -25,-20 l 20,-19 c 6,7 12,12 19,16 6,4 14,6 23,6 9,0 16,-2 21,-6 4,-3 6,-8 6,-14 0,-5 -1,-9 -4,-13 -3,-3 -9,-5 -17,-6 l -14,-2 c -15,-2 -27,-6 -36,-13 -8,-7 -13,-17 -13,-31 0,-7 2,-14 4,-19 3,-6 7,-11 12,-15 5,-4 10,-7 17,-9 7,-2 15,-3 23,-3 13,0 24,2 33,6 8,5 16,10 22,18 l -19,18 c -4,-4 -9,-8 -15,-12 -6,-3 -13,-5 -21,-5 -9,0 -15,2 -19,5 -4,4 -6,8 -6,14 0,6 1,10 5,13 4,3 9,5 17,6 l 14,2 c 17,2 29,7 36,14 8,7 11,17 11,29 0,7 -1,14 -4,20 -2,6 -6,11 -12,15 -5,4 -11,7 -18,9 -7,3 -16,4 -25,4 z"
     id="path41"
     style="clip-rule:evenodd;fill-rule:evenodd;image-rendering:optimizeQuality;shape-rendering:geometricPrecision;text-rendering:geometricPrecision" /><path
     class="fil5"
     d="m 9842,1867 c -17,0 -31,-3 -43,-9 -11,-6 -22,-14 -30,-25 l 22,-21 c 7,9 15,15 24,20 8,4 18,6 29,6 13,0 22,-2 29,-8 6,-6 10,-14 10,-23 0,-8 -3,-14 -7,-19 -5,-5 -13,-8 -25,-10 l -17,-3 c -20,-4 -35,-10 -44,-20 -10,-9 -15,-21 -15,-37 0,-9 2,-17 5,-24 3,-8 8,-14 14,-18 6,-5 13,-9 22,-12 9,-2 18,-4 29,-4 15,0 28,3 39,8 11,5 21,13 29,23 l -23,20 c -5,-7 -11,-12 -19,-16 -7,-4 -17,-6 -28,-6 -11,0 -20,2 -26,7 -7,4 -10,11 -10,20 0,8 3,14 8,19 5,4 13,7 24,9 l 18,4 c 20,3 34,10 44,19 9,9 14,22 14,38 0,9 -2,18 -5,25 -4,8 -8,15 -14,20 -7,6 -14,10 -23,13 -9,3 -19,4 -31,4 z m 200,-28 h -2 c -1,4 -3,7 -5,11 -2,3 -5,6 -8,9 -4,2 -8,4 -12,6 -5,1 -10,2 -16,2 -16,0 -28,-5 -36,-15 -9,-10 -13,-24 -13,-42 v -95 h 31 v 91 c 0,23 10,34 29,34 4,0 8,0 11,-1 4,-1 8,-3 11,-5 3,-2 5,-5 7,-8 2,-3 3,-7 3,-12 v -99 h 31 v 149 h -31 z m 75,-124 h 32 v 24 h 1 c 3,-9 9,-16 16,-20 7,-5 16,-8 26,-8 19,0 34,7 44,21 10,13 15,33 15,57 0,25 -5,44 -15,58 -10,13 -25,20 -44,20 -10,0 -19,-2 -26,-7 -7,-5 -13,-12 -16,-21 h -1 v 82 h -32 z m 66,125 c 10,0 19,-3 26,-10 6,-7 9,-16 9,-28 v -26 c 0,-11 -3,-20 -9,-27 -7,-7 -16,-11 -26,-11 -10,0 -18,3 -25,7 -6,5 -9,11 -9,19 v 51 c 0,7 3,13 9,18 7,5 15,7 25,7 z m 104,-125 h 31 v 24 h 2 c 3,-9 8,-16 16,-20 7,-5 16,-8 26,-8 19,0 33,7 43,21 11,13 16,33 16,57 0,25 -5,44 -16,58 -10,13 -24,20 -43,20 -10,0 -19,-2 -26,-7 -8,-5 -13,-12 -16,-21 h -2 v 82 h -31 z m 65,125 c 11,0 20,-3 26,-10 7,-7 10,-16 10,-28 v -26 c 0,-11 -3,-20 -10,-27 -6,-7 -15,-11 -26,-11 -9,0 -17,3 -24,7 -6,5 -10,11 -10,19 v 51 c 0,7 4,13 10,18 7,5 15,7 24,7 z m 163,27 c -10,0 -20,-2 -28,-5 -9,-4 -16,-9 -22,-16 -6,-7 -10,-15 -13,-25 -4,-9 -5,-20 -5,-32 0,-12 1,-22 5,-32 3,-10 7,-18 13,-25 6,-6 13,-12 22,-15 8,-4 18,-6 28,-6 11,0 20,2 28,6 9,3 16,9 22,15 6,7 11,15 14,25 3,10 5,20 5,32 0,12 -2,23 -5,32 -3,10 -8,18 -14,25 -6,7 -13,12 -22,16 -8,3 -17,5 -28,5 z m 0,-26 c 11,0 20,-3 26,-10 7,-6 10,-16 10,-29 v -25 c 0,-13 -3,-23 -10,-30 -6,-6 -15,-10 -26,-10 -10,0 -19,4 -26,10 -6,7 -9,17 -9,30 v 25 c 0,13 3,23 9,29 7,7 16,10 26,10 z m 103,23 v -149 h 32 v 28 h 1 c 2,-7 7,-14 13,-20 7,-5 16,-8 28,-8 h 8 v 30 h -12 c -12,0 -22,2 -29,6 -6,4 -9,10 -9,18 v 95 z m 153,0 c -11,0 -20,-3 -25,-9 -6,-5 -8,-13 -8,-24 v -91 h -24 v -25 h 13 c 5,0 9,-1 11,-4 2,-2 3,-6 3,-11 v -26 h 28 v 41 h 31 v 25 h -31 v 98 h 29 v 26 z"
     id="path43"
     style="clip-rule:evenodd;fill-rule:evenodd;image-rendering:optimizeQuality;shape-rendering:geometricPrecision;text-rendering:geometricPrecision" /><path
     class="fil7"
     d="m 5879,1845 c -26,0 -47,-9 -61,-26 -15,-18 -23,-44 -23,-77 0,-17 2,-32 6,-45 4,-13 9,-23 17,-32 7,-9 16,-16 26,-20 10,-5 22,-7 35,-7 18,0 32,4 44,12 12,7 21,18 28,33 l -28,15 c -3,-9 -8,-17 -16,-23 -7,-5 -16,-8 -28,-8 -15,0 -27,5 -36,16 -9,10 -13,25 -13,43 v 31 c 0,19 4,33 13,44 9,10 21,15 36,15 12,0 22,-3 30,-9 7,-6 13,-14 16,-24 l 26,16 c -6,14 -16,26 -28,34 -12,8 -26,12 -44,12 z m 163,0 c -10,0 -20,-2 -28,-5 -9,-4 -16,-9 -22,-16 -6,-7 -10,-15 -14,-25 -3,-9 -5,-20 -5,-32 0,-12 2,-22 5,-32 4,-10 8,-18 14,-25 6,-6 13,-12 22,-15 8,-4 18,-6 28,-6 10,0 20,2 28,6 9,3 16,9 22,15 6,7 10,15 14,25 3,10 4,20 4,32 0,12 -1,23 -4,32 -4,10 -8,18 -14,25 -6,7 -13,12 -22,16 -8,3 -18,5 -28,5 z m 0,-26 c 11,0 19,-3 26,-10 6,-6 9,-16 9,-29 v -25 c 0,-13 -3,-23 -9,-30 -7,-6 -15,-10 -26,-10 -11,0 -19,4 -26,10 -6,7 -10,17 -10,30 v 25 c 0,13 4,23 10,29 7,7 15,10 26,10 z m 103,23 v -149 h 31 v 24 h 2 c 3,-8 8,-14 14,-20 7,-5 16,-8 28,-8 15,0 27,5 35,15 9,10 13,25 13,43 v 95 h -31 v -91 c 0,-23 -10,-35 -28,-35 -4,0 -8,1 -12,2 -4,1 -8,2 -11,4 -3,3 -5,5 -7,8 -2,4 -3,8 -3,12 v 100 z m 208,0 c -11,0 -20,-3 -25,-9 -6,-5 -8,-13 -8,-24 v -91 h -24 v -25 h 13 c 5,0 9,-1 11,-4 2,-2 3,-6 3,-11 v -26 h 28 v 41 h 31 v 25 h -31 v 98 h 29 v 26 z m 172,0 c -8,0 -14,-3 -19,-7 -4,-5 -7,-11 -8,-18 h -1 c -3,9 -8,16 -16,21 -8,5 -17,7 -28,7 -15,0 -27,-4 -36,-12 -8,-8 -12,-19 -12,-32 0,-15 5,-26 16,-34 11,-7 27,-11 48,-11 h 27 v -13 c 0,-9 -3,-16 -8,-21 -5,-5 -13,-7 -23,-7 -9,0 -16,2 -22,5 -5,4 -10,9 -14,15 l -18,-17 c 5,-8 12,-15 21,-21 9,-5 20,-8 35,-8 19,0 34,5 44,14 11,9 16,22 16,38 v 75 h 16 v 26 z m -63,-21 c 10,0 18,-2 24,-6 6,-4 10,-10 10,-17 v -22 h -27 c -21,0 -32,7 -32,20 v 5 c 0,7 2,12 7,15 4,4 10,5 18,5 z m 169,24 c -11,0 -20,-2 -29,-5 -8,-4 -15,-9 -21,-16 -6,-7 -10,-15 -13,-25 -3,-9 -5,-20 -5,-32 0,-12 2,-22 5,-32 3,-10 7,-18 13,-25 6,-6 13,-12 21,-15 9,-4 18,-6 29,-6 15,0 27,4 36,10 10,7 17,16 21,27 l -25,12 c -3,-7 -6,-12 -11,-17 -6,-4 -13,-6 -21,-6 -12,0 -20,4 -26,11 -6,7 -9,16 -9,28 v 26 c 0,12 3,21 9,28 6,7 14,11 26,11 9,0 16,-2 22,-7 5,-4 9,-10 13,-18 l 24,13 c -5,12 -13,22 -23,28 -10,7 -22,10 -36,10 z m 136,0 c -15,0 -26,-2 -36,-7 -9,-5 -18,-12 -25,-21 l 20,-18 c 6,6 12,12 19,15 6,4 14,6 23,6 9,0 16,-2 21,-5 4,-4 7,-9 7,-15 0,-5 -2,-9 -5,-12 -3,-4 -9,-6 -17,-7 l -13,-2 c -16,-1 -28,-6 -36,-13 -9,-7 -13,-17 -13,-31 0,-7 1,-14 4,-19 2,-6 6,-11 11,-15 5,-4 11,-7 17,-9 7,-2 15,-3 23,-3 13,0 24,2 33,7 8,4 16,10 22,17 l -19,18 c -4,-4 -9,-8 -15,-12 -6,-3 -13,-5 -21,-5 -9,0 -15,2 -19,6 -4,3 -6,8 -6,13 0,6 1,10 5,13 4,3 10,5 18,6 l 13,2 c 17,2 29,7 36,14 8,8 12,17 12,29 0,8 -2,14 -5,20 -2,6 -6,11 -11,15 -6,4 -12,7 -19,10 -7,2 -15,3 -24,3 z"
     id="path47"
     style="clip-rule:evenodd;fill-rule:evenodd;image-rendering:optimizeQuality;shape-rendering:geometricPrecision;text-rendering:geometricPrecision" /><path
     class="fil7"
     d="m 1740,5590 h 71 c 13,0 24,2 35,7 10,4 19,10 26,18 8,9 13,19 17,32 4,12 6,27 6,43 0,17 -2,31 -6,44 -4,13 -9,23 -17,31 -7,9 -16,15 -26,19 -11,4 -22,6 -35,6 h -71 z m 71,172 c 15,0 27,-5 36,-14 9,-10 14,-23 14,-42 v -32 c 0,-18 -5,-32 -14,-41 -9,-9 -21,-14 -36,-14 h -39 v 143 z m 181,32 c -11,0 -20,-2 -29,-6 -8,-3 -15,-9 -21,-15 -6,-7 -11,-15 -14,-25 -3,-10 -5,-20 -5,-32 0,-12 2,-23 5,-32 3,-10 8,-18 14,-25 6,-7 13,-12 21,-16 9,-3 18,-5 29,-5 11,0 20,2 29,6 8,3 15,9 20,16 6,6 10,14 13,23 3,9 4,19 4,29 v 12 h -102 v 5 c 0,11 3,20 10,28 7,7 16,11 29,11 9,0 17,-2 23,-6 7,-4 12,-10 16,-17 l 19,19 c -6,9 -14,16 -24,22 -11,5 -23,8 -37,8 z m 0,-132 c -5,0 -10,1 -15,3 -4,2 -8,5 -11,8 -3,4 -6,8 -8,12 -1,5 -2,10 -2,16 v 2 h 69 v -3 c 0,-11 -3,-20 -9,-27 -6,-7 -14,-11 -24,-11 z m 108,5 h -22 v -26 h 22 v -24 c 0,-12 4,-22 10,-29 6,-6 16,-10 28,-10 h 25 v 26 h -31 v 37 h 88 v 149 h -31 v -123 h -57 v 123 h -32 z m 105,-52 c -7,0 -11,-2 -14,-5 -3,-3 -5,-7 -5,-12 v -5 c 0,-4 2,-8 5,-11 3,-3 7,-5 14,-5 6,0 11,2 14,5 3,3 4,7 4,11 v 5 c 0,5 -1,9 -4,12 -3,3 -8,5 -14,5 z m 60,175 v -149 h 31 v 25 h 2 c 3,-8 8,-15 14,-20 7,-5 16,-8 27,-8 16,0 28,5 36,15 9,10 13,24 13,43 v 94 h -31 v -90 c 0,-24 -10,-35 -28,-35 -4,0 -8,0 -12,1 -4,1 -8,3 -11,5 -3,2 -5,5 -7,8 -2,3 -3,7 -3,12 v 99 z m 182,-175 c -7,0 -11,-2 -14,-5 -3,-3 -5,-7 -5,-12 v -5 c 0,-4 2,-8 5,-11 3,-3 7,-5 14,-5 6,0 11,2 14,5 3,3 4,7 4,11 v 5 c 0,5 -1,9 -4,12 -3,3 -8,5 -14,5 z m -16,26 h 31 v 149 h -31 z m 117,149 c -11,0 -19,-2 -24,-8 -6,-6 -9,-14 -9,-24 v -91 h -23 v -26 h 13 c 5,0 9,-1 11,-3 2,-2 3,-6 3,-11 v -26 h 28 v 40 h 31 v 26 h -31 v 98 h 29 v 25 z m 79,-175 c -6,0 -11,-2 -14,-5 -3,-3 -4,-7 -4,-12 v -5 c 0,-4 1,-8 4,-11 3,-3 8,-5 14,-5 7,0 12,2 14,5 3,3 5,7 5,11 v 5 c 0,5 -2,9 -5,12 -2,3 -7,5 -14,5 z m -15,26 h 31 v 149 h -31 z m 134,153 c -10,0 -20,-2 -28,-6 -9,-3 -16,-9 -22,-15 -6,-7 -10,-15 -14,-25 -3,-10 -4,-20 -4,-32 0,-12 1,-23 4,-32 4,-10 8,-18 14,-25 6,-7 13,-12 22,-16 8,-3 18,-5 28,-5 10,0 20,2 28,5 9,4 16,9 22,16 6,7 10,15 14,25 3,9 5,20 5,32 0,12 -2,22 -5,32 -4,10 -8,18 -14,25 -6,6 -13,12 -22,15 -8,4 -18,6 -28,6 z m 0,-26 c 11,0 19,-4 26,-10 6,-7 10,-17 10,-30 v -25 c 0,-13 -4,-23 -10,-29 -7,-7 -15,-10 -26,-10 -11,0 -19,3 -26,10 -6,6 -9,16 -9,29 v 25 c 0,13 3,23 9,30 7,6 15,10 26,10 z m 103,22 v -149 h 31 v 25 h 2 c 3,-8 8,-15 15,-20 6,-5 15,-8 27,-8 15,0 27,5 35,15 9,10 13,24 13,43 v 94 h -31 v -90 c 0,-24 -9,-35 -28,-35 -4,0 -8,0 -12,1 -4,1 -7,3 -10,5 -4,2 -6,5 -8,8 -2,3 -3,7 -3,12 v 99 z m 293,4 c -11,0 -20,-2 -29,-6 -8,-3 -15,-9 -21,-15 -6,-7 -11,-15 -14,-25 -3,-10 -5,-20 -5,-32 0,-12 2,-23 5,-32 3,-10 8,-18 14,-25 6,-7 13,-12 21,-16 9,-3 18,-5 29,-5 10,0 19,2 28,5 8,4 15,9 21,16 6,7 11,15 14,25 3,9 5,20 5,32 0,12 -2,22 -5,32 -3,10 -8,18 -14,25 -6,6 -13,12 -21,15 -9,4 -18,6 -28,6 z m 0,-26 c 10,0 19,-4 25,-10 7,-7 10,-17 10,-30 v -25 c 0,-13 -3,-23 -10,-29 -6,-7 -15,-10 -25,-10 -11,0 -20,3 -26,10 -7,6 -10,16 -10,29 v 25 c 0,13 3,23 10,30 6,6 15,10 26,10 z m 109,-101 h -23 v -26 h 23 v -24 c 0,-12 3,-22 9,-29 6,-6 16,-10 29,-10 h 24 v 26 h -31 v 37 h 31 v 26 h -31 v 123 h -31 z m 198,123 c -11,0 -19,-2 -24,-8 -6,-6 -9,-14 -9,-24 v -91 h -23 v -26 h 13 c 5,0 8,-1 10,-3 2,-2 3,-6 3,-11 v -26 h 29 v 40 h 31 v 26 h -31 v 98 h 29 v 25 z m 155,-149 h 30 l -63,179 c -1,5 -3,9 -6,13 -2,3 -4,6 -7,8 -3,2 -7,4 -11,5 -4,1 -9,2 -15,2 h -18 v -26 h 25 l 9,-25 -54,-156 h 31 l 30,88 8,32 h 2 l 9,-32 z m 56,0 h 31 v 25 h 2 c 3,-9 8,-16 15,-21 8,-5 16,-7 26,-7 19,0 34,7 44,20 11,14 16,33 16,58 0,24 -5,44 -16,57 -10,14 -25,21 -44,21 -10,0 -18,-3 -26,-8 -7,-5 -12,-12 -15,-20 h -2 v 82 h -31 z m 65,126 c 11,0 20,-4 26,-11 7,-7 10,-16 10,-27 v -26 c 0,-12 -3,-21 -10,-28 -6,-7 -15,-10 -26,-10 -10,0 -18,2 -24,7 -7,5 -10,11 -10,18 v 51 c 0,8 3,14 10,19 6,4 14,7 24,7 z m 163,27 c -10,0 -20,-2 -28,-6 -9,-3 -16,-9 -22,-15 -6,-7 -10,-15 -14,-25 -3,-10 -4,-20 -4,-32 0,-12 1,-23 4,-32 4,-10 8,-18 14,-25 6,-7 13,-12 22,-16 8,-3 18,-5 28,-5 10,0 20,2 28,5 9,4 16,9 22,16 6,7 10,15 14,25 3,9 4,20 4,32 0,12 -1,22 -4,32 -4,10 -8,18 -14,25 -6,6 -13,12 -22,15 -8,4 -18,6 -28,6 z m 0,-26 c 11,0 19,-4 26,-10 6,-7 10,-17 10,-30 v -25 c 0,-13 -4,-23 -10,-29 -7,-7 -15,-10 -26,-10 -11,0 -19,3 -26,10 -6,6 -10,16 -10,29 v 25 c 0,13 4,23 10,30 7,6 15,10 26,10 z m 234,36 c 0,16 -6,27 -18,35 -12,8 -31,12 -58,12 -12,0 -22,-1 -31,-2 -8,-2 -15,-4 -21,-7 -5,-3 -9,-7 -12,-12 -2,-4 -3,-9 -3,-15 0,-8 2,-14 6,-19 5,-5 11,-8 19,-9 v -4 c -11,-3 -17,-11 -17,-22 0,-8 3,-14 8,-18 5,-4 11,-7 18,-9 v -1 c -8,-4 -15,-10 -20,-18 -4,-7 -7,-16 -7,-26 0,-15 5,-28 16,-37 10,-9 24,-14 44,-14 10,0 19,1 27,4 v -4 c 0,-6 1,-11 4,-15 3,-4 8,-6 15,-6 h 23 v 25 h -30 v 6 c 6,5 11,11 15,18 4,6 5,14 5,23 0,15 -5,27 -15,36 -10,10 -25,14 -44,14 -7,0 -14,0 -20,-2 -3,1 -7,3 -10,6 -3,2 -4,5 -4,9 0,4 2,7 6,9 3,1 8,2 15,2 h 37 c 18,0 31,4 39,11 9,7 13,18 13,30 z m -29,4 c 0,-5 -2,-9 -6,-13 -4,-3 -11,-4 -22,-4 h -50 c -7,4 -10,10 -10,17 0,6 2,11 7,15 5,4 13,5 25,5 h 19 c 24,0 37,-6 37,-20 z m -47,-91 c 9,0 16,-2 21,-6 5,-5 8,-11 8,-20 v -5 c 0,-9 -3,-15 -8,-19 -5,-4 -12,-6 -21,-6 -9,0 -16,2 -21,6 -6,4 -8,10 -8,19 v 5 c 0,9 2,15 8,20 5,4 12,6 21,6 z m 99,73 v -149 h 31 v 29 h 2 c 2,-8 6,-14 13,-20 7,-6 16,-9 28,-9 h 8 v 30 h -12 c -13,0 -22,2 -29,6 -6,4 -10,10 -10,18 v 95 z m 217,0 c -9,0 -15,-2 -19,-7 -5,-4 -7,-10 -8,-18 h -2 c -3,10 -8,17 -15,22 -8,4 -17,7 -28,7 -16,0 -28,-4 -36,-12 -8,-8 -12,-19 -12,-33 0,-15 5,-26 16,-33 11,-8 26,-11 47,-11 h 27 v -13 c 0,-9 -2,-16 -7,-21 -5,-5 -13,-8 -24,-8 -8,0 -15,2 -21,6 -6,4 -10,9 -14,15 l -19,-17 c 5,-9 12,-16 21,-21 9,-5 21,-8 35,-8 20,0 35,4 45,13 10,9 15,22 15,39 v 75 h 16 v 25 z m -63,-20 c 9,0 17,-2 24,-6 6,-5 9,-11 9,-18 v -21 h -26 c -22,0 -33,6 -33,20 v 5 c 0,7 3,12 7,15 5,3 11,5 19,5 z m 111,-129 h 31 v 25 h 1 c 4,-9 9,-16 16,-21 8,-5 16,-7 26,-7 19,0 34,7 44,20 10,14 16,33 16,58 0,24 -6,44 -16,57 -10,14 -25,21 -44,21 -10,0 -18,-3 -26,-8 -7,-5 -12,-12 -16,-20 h -1 v 82 h -31 z m 65,126 c 11,0 19,-4 26,-11 6,-7 10,-16 10,-27 v -26 c 0,-12 -4,-21 -10,-28 -7,-7 -15,-10 -26,-10 -10,0 -18,2 -24,7 -7,5 -10,11 -10,18 v 51 c 0,8 3,14 10,19 6,4 14,7 24,7 z m 104,-189 h 32 v 88 h 1 c 3,-8 8,-15 15,-20 6,-5 15,-8 27,-8 15,0 27,5 36,15 8,10 12,24 12,43 v 94 h -31 v -91 c 0,-23 -9,-34 -28,-34 -4,0 -8,0 -12,1 -4,1 -7,3 -10,5 -3,2 -6,5 -8,8 -1,3 -2,7 -2,11 v 100 h -32 z m 256,63 h 30 l -63,179 c -2,5 -4,9 -6,13 -2,3 -5,6 -8,8 -2,2 -6,4 -10,5 -4,1 -9,2 -15,2 h -18 v -26 h 25 l 9,-25 -55,-156 h 32 l 29,88 9,32 h 1 l 10,-32 z"
     id="path73"
     style="clip-rule:evenodd;fill-rule:evenodd;image-rendering:optimizeQuality;shape-rendering:geometricPrecision;text-rendering:geometricPrecision" /><path
     class="fil7"
     d="m 6671,9999 h 89 c 16,0 29,5 39,14 9,10 14,22 14,38 0,7 -1,14 -3,19 -2,5 -5,9 -8,13 -3,3 -7,6 -11,7 -4,2 -9,3 -13,3 v 2 c 4,0 9,1 14,3 5,2 9,4 13,8 5,4 8,8 11,14 3,6 4,13 4,22 0,8 -1,15 -4,22 -2,7 -6,13 -10,19 -5,5 -10,9 -17,12 -6,3 -13,4 -20,4 h -98 z m 33,172 h 55 c 9,0 15,-2 20,-6 5,-5 7,-11 7,-19 v -10 c 0,-8 -2,-14 -7,-19 -5,-4 -11,-6 -20,-6 h -55 z m 0,-87 h 50 c 8,0 14,-2 18,-6 5,-5 7,-10 7,-18 v -9 c 0,-8 -2,-14 -7,-18 -4,-4 -10,-6 -18,-6 h -50 z m 244,91 h -1 c -1,3 -3,7 -5,10 -3,4 -5,7 -9,9 -3,3 -7,5 -12,6 -4,2 -10,3 -16,3 -15,0 -27,-5 -36,-15 -8,-10 -13,-24 -13,-43 v -95 h 32 v 91 c 0,23 9,35 28,35 4,0 8,-1 12,-2 4,-1 7,-2 10,-5 3,-2 6,-4 7,-8 2,-3 3,-7 3,-11 v -100 h 31 v 149 h -31 z m 117,24 c -11,0 -19,-3 -24,-8 -6,-6 -9,-14 -9,-24 v -91 h -23 v -26 h 13 c 5,0 8,-1 10,-3 2,-3 3,-6 3,-11 v -26 h 29 v 40 h 31 v 26 h -31 v 98 h 28 v 25 z m 103,0 c -11,0 -19,-3 -25,-8 -5,-6 -8,-14 -8,-24 v -91 h -23 v -26 h 12 c 5,0 9,-1 11,-3 2,-3 3,-6 3,-11 v -26 h 28 v 40 h 31 v 26 h -31 v 98 h 29 v 25 z m 120,4 c -10,0 -19,-2 -28,-6 -8,-3 -15,-9 -21,-15 -6,-7 -11,-15 -14,-25 -3,-10 -5,-20 -5,-32 0,-12 2,-23 5,-33 3,-9 8,-17 14,-24 6,-7 13,-12 21,-16 9,-3 18,-5 28,-5 11,0 20,2 29,5 8,4 15,9 21,16 6,7 11,15 14,24 3,10 5,21 5,33 0,12 -2,22 -5,32 -3,10 -8,18 -14,25 -6,6 -13,12 -21,15 -9,4 -18,6 -29,6 z m 0,-26 c 11,0 20,-4 26,-10 7,-7 10,-17 10,-30 v -25 c 0,-13 -3,-23 -10,-29 -6,-7 -15,-10 -26,-10 -10,0 -19,3 -25,10 -7,6 -10,16 -10,29 v 25 c 0,13 3,23 10,30 6,6 15,10 25,10 z m 104,22 v -149 h 31 v 25 h 1 c 4,-8 8,-15 15,-20 7,-6 16,-8 27,-8 15,0 27,5 36,15 8,10 13,24 13,43 v 94 h -32 v -90 c 0,-24 -9,-35 -28,-35 -4,0 -8,0 -12,1 -4,1 -7,3 -10,5 -3,2 -6,5 -7,8 -2,3 -3,7 -3,12 v 99 z"
     id="path82"
     style="clip-rule:evenodd;fill-rule:evenodd;image-rendering:optimizeQuality;shape-rendering:geometricPrecision;text-rendering:geometricPrecision" /><path
     class="fil5"
     d="m 2553,9999 h 89 c 17,0 30,5 39,14 9,10 14,22 14,38 0,7 -1,14 -3,19 -2,5 -5,9 -8,13 -3,3 -7,6 -11,7 -4,2 -8,3 -12,3 v 2 c 4,0 8,1 13,3 5,2 9,4 13,8 5,4 8,8 11,14 3,6 4,13 4,22 0,8 -1,15 -4,22 -2,7 -6,13 -10,19 -5,5 -10,9 -17,12 -6,3 -13,4 -20,4 h -98 z m 33,172 h 55 c 9,0 15,-2 20,-6 5,-5 7,-11 7,-19 v -10 c 0,-8 -2,-14 -7,-19 -5,-4 -11,-6 -20,-6 h -55 z m 0,-87 h 50 c 8,0 14,-2 19,-6 4,-5 6,-10 6,-18 v -9 c 0,-8 -2,-14 -6,-18 -5,-4 -11,-6 -19,-6 h -50 z m 244,91 h -1 c -1,3 -3,7 -5,10 -2,4 -5,7 -9,9 -3,3 -7,5 -12,6 -4,2 -10,3 -16,3 -15,0 -27,-5 -36,-15 -8,-10 -13,-24 -13,-43 v -95 h 32 v 91 c 0,23 9,35 28,35 4,0 8,-1 12,-2 4,-1 7,-2 10,-5 3,-2 6,-4 7,-8 2,-3 3,-7 3,-11 v -100 h 31 v 149 h -31 z m 117,24 c -11,0 -19,-3 -24,-8 -6,-6 -9,-14 -9,-24 v -91 h -23 v -26 h 13 c 5,0 9,-1 11,-3 2,-3 3,-6 3,-11 v -26 h 28 v 40 h 31 v 26 h -31 v 98 h 29 v 25 z m 103,0 c -11,0 -19,-3 -25,-8 -5,-6 -8,-14 -8,-24 v -91 h -23 v -26 h 12 c 6,0 9,-1 11,-3 2,-3 3,-6 3,-11 v -26 h 28 v 40 h 31 v 26 h -31 v 98 h 29 v 25 z m 121,4 c -11,0 -20,-2 -29,-6 -8,-3 -15,-9 -21,-15 -6,-7 -11,-15 -14,-25 -3,-10 -5,-20 -5,-32 0,-12 2,-23 5,-33 3,-9 8,-17 14,-24 6,-7 13,-12 21,-16 9,-3 18,-5 29,-5 10,0 19,2 28,5 8,4 16,9 21,16 6,7 11,15 14,24 3,10 5,21 5,33 0,12 -2,22 -5,32 -3,10 -8,18 -14,25 -5,6 -13,12 -21,15 -9,4 -18,6 -28,6 z m 0,-26 c 10,0 19,-4 25,-10 7,-7 10,-17 10,-30 v -25 c 0,-13 -3,-23 -10,-29 -6,-7 -15,-10 -25,-10 -11,0 -20,3 -26,10 -7,6 -10,16 -10,29 v 25 c 0,13 3,23 10,30 6,6 15,10 26,10 z m 103,22 v -149 h 31 v 25 h 1 c 4,-8 9,-15 15,-20 7,-6 16,-8 27,-8 16,0 27,5 36,15 8,10 13,24 13,43 v 94 h -32 v -90 c 0,-24 -9,-35 -28,-35 -4,0 -8,0 -12,1 -3,1 -7,3 -10,5 -3,2 -5,5 -7,8 -2,3 -3,7 -3,12 v 99 z"
     id="path84"
     style="clip-rule:evenodd;fill-rule:evenodd;image-rendering:optimizeQuality;shape-rendering:geometricPrecision;text-rendering:geometricPrecision" /><path
     class="fil7"
     d="m 6671,11315 h 89 c 16,0 29,4 39,14 9,9 14,21 14,37 0,8 -1,14 -3,19 -2,5 -5,10 -8,13 -3,3 -7,6 -11,8 -4,1 -9,2 -13,3 v 1 c 4,0 9,1 14,3 5,2 9,5 13,8 5,4 8,9 11,15 3,5 4,13 4,21 0,8 -1,16 -4,23 -2,7 -6,13 -10,18 -5,5 -10,9 -17,12 -6,3 -13,5 -20,5 h -98 z m 33,172 h 55 c 9,0 15,-2 20,-7 5,-4 7,-11 7,-19 v -9 c 0,-9 -2,-15 -7,-19 -5,-5 -11,-7 -20,-7 h -55 z m 0,-88 h 50 c 8,0 14,-2 18,-6 5,-4 7,-10 7,-18 v -9 c 0,-8 -2,-13 -7,-18 -4,-4 -10,-6 -18,-6 h -50 z m 244,91 h -1 c -1,4 -3,7 -5,11 -3,3 -5,6 -9,9 -3,2 -7,4 -12,6 -4,1 -10,2 -16,2 -15,0 -27,-5 -36,-15 -8,-10 -13,-24 -13,-43 v -94 h 32 v 90 c 0,23 9,35 28,35 4,0 8,0 12,-2 4,-1 7,-2 10,-4 3,-2 6,-5 7,-8 2,-4 3,-7 3,-12 v -99 h 31 v 149 h -31 z m 117,25 c -11,0 -19,-3 -24,-9 -6,-6 -9,-14 -9,-24 v -91 h -23 v -25 h 13 c 5,0 8,-2 10,-4 2,-2 3,-6 3,-11 v -26 h 29 v 41 h 31 v 25 h -31 v 98 h 28 v 26 z m 103,0 c -11,0 -19,-3 -25,-9 -5,-6 -8,-14 -8,-24 v -91 h -23 v -25 h 12 c 5,0 9,-2 11,-4 2,-2 3,-6 3,-11 v -26 h 28 v 41 h 31 v 25 h -31 v 98 h 29 v 26 z m 120,3 c -10,0 -19,-2 -28,-5 -8,-4 -15,-9 -21,-16 -6,-7 -11,-15 -14,-25 -3,-9 -5,-20 -5,-32 0,-12 2,-23 5,-32 3,-10 8,-18 14,-25 6,-7 13,-12 21,-15 9,-4 18,-6 28,-6 11,0 20,2 29,6 8,3 15,8 21,15 6,7 11,15 14,25 3,9 5,20 5,32 0,12 -2,23 -5,32 -3,10 -8,18 -14,25 -6,7 -13,12 -21,16 -9,3 -18,5 -29,5 z m 0,-26 c 11,0 20,-3 26,-10 7,-6 10,-16 10,-29 v -26 c 0,-13 -3,-22 -10,-29 -6,-7 -15,-10 -26,-10 -10,0 -19,3 -25,10 -7,7 -10,16 -10,29 v 26 c 0,13 3,23 10,29 6,7 15,10 25,10 z m 104,23 v -149 h 31 v 24 h 1 c 4,-8 8,-15 15,-20 7,-5 16,-8 27,-8 15,0 27,5 36,15 8,10 13,24 13,43 v 95 h -32 v -91 c 0,-23 -9,-35 -28,-35 -4,0 -8,1 -12,2 -4,1 -7,2 -10,4 -3,2 -6,5 -7,8 -2,4 -3,7 -3,12 v 100 z"
     id="path154"
     style="clip-rule:evenodd;fill-rule:evenodd;image-rendering:optimizeQuality;shape-rendering:geometricPrecision;text-rendering:geometricPrecision" /><path
     class="fil5"
     d="m 2553,11315 h 89 c 17,0 30,4 39,14 9,9 14,21 14,37 0,8 -1,14 -3,19 -2,5 -5,10 -8,13 -3,3 -7,6 -11,8 -4,1 -8,2 -12,3 v 1 c 4,0 8,1 13,3 5,2 9,5 13,8 5,4 8,9 11,15 3,5 4,13 4,21 0,8 -1,16 -4,23 -2,7 -6,13 -10,18 -5,5 -10,9 -17,12 -6,3 -13,5 -20,5 h -98 z m 33,172 h 55 c 9,0 15,-2 20,-7 5,-4 7,-11 7,-19 v -9 c 0,-9 -2,-15 -7,-19 -5,-5 -11,-7 -20,-7 h -55 z m 0,-88 h 50 c 8,0 14,-2 19,-6 4,-4 6,-10 6,-18 v -9 c 0,-8 -2,-13 -6,-18 -5,-4 -11,-6 -19,-6 h -50 z m 244,91 h -1 c -1,4 -3,7 -5,11 -2,3 -5,6 -9,9 -3,2 -7,4 -12,6 -4,1 -10,2 -16,2 -15,0 -27,-5 -36,-15 -8,-10 -13,-24 -13,-43 v -94 h 32 v 90 c 0,23 9,35 28,35 4,0 8,0 12,-2 4,-1 7,-2 10,-4 3,-2 6,-5 7,-8 2,-4 3,-7 3,-12 v -99 h 31 v 149 h -31 z m 117,25 c -11,0 -19,-3 -24,-9 -6,-6 -9,-14 -9,-24 v -91 h -23 v -25 h 13 c 5,0 9,-2 11,-4 2,-2 3,-6 3,-11 v -26 h 28 v 41 h 31 v 25 h -31 v 98 h 29 v 26 z m 103,0 c -11,0 -19,-3 -25,-9 -5,-6 -8,-14 -8,-24 v -91 h -23 v -25 h 12 c 6,0 9,-2 11,-4 2,-2 3,-6 3,-11 v -26 h 28 v 41 h 31 v 25 h -31 v 98 h 29 v 26 z m 121,3 c -11,0 -20,-2 -29,-5 -8,-4 -15,-9 -21,-16 -6,-7 -11,-15 -14,-25 -3,-9 -5,-20 -5,-32 0,-12 2,-23 5,-32 3,-10 8,-18 14,-25 6,-7 13,-12 21,-15 9,-4 18,-6 29,-6 10,0 19,2 28,6 8,3 16,8 21,15 6,7 11,15 14,25 3,9 5,20 5,32 0,12 -2,23 -5,32 -3,10 -8,18 -14,25 -5,7 -13,12 -21,16 -9,3 -18,5 -28,5 z m 0,-26 c 10,0 19,-3 25,-10 7,-6 10,-16 10,-29 v -26 c 0,-13 -3,-22 -10,-29 -6,-7 -15,-10 -25,-10 -11,0 -20,3 -26,10 -7,7 -10,16 -10,29 v 26 c 0,13 3,23 10,29 6,7 15,10 26,10 z m 103,23 v -149 h 31 v 24 h 1 c 4,-8 9,-15 15,-20 7,-5 16,-8 27,-8 16,0 27,5 36,15 8,10 13,24 13,43 v 95 h -32 v -91 c 0,-23 -9,-35 -28,-35 -4,0 -8,1 -12,2 -3,1 -7,2 -10,4 -3,2 -5,5 -7,8 -2,4 -3,7 -3,12 v 100 z"
     id="path156"
     style="clip-rule:evenodd;fill-rule:evenodd;image-rendering:optimizeQuality;shape-rendering:geometricPrecision;text-rendering:geometricPrecision" /><path
     class="fil7"
     d="m 1973,12488 h 71 c 13,0 25,2 35,6 10,5 19,11 27,19 7,9 13,19 17,31 4,13 6,28 6,44 0,17 -2,31 -6,44 -4,12 -10,23 -17,31 -8,8 -17,15 -27,19 -10,4 -22,6 -35,6 h -71 z m 71,171 c 15,0 27,-4 36,-14 9,-9 14,-23 14,-41 v -32 c 0,-18 -5,-32 -14,-41 -9,-10 -21,-14 -36,-14 h -38 v 142 z m 181,33 c -10,0 -19,-2 -28,-6 -8,-3 -16,-9 -22,-15 -6,-7 -10,-15 -13,-25 -4,-10 -5,-21 -5,-32 0,-12 1,-23 5,-33 3,-9 7,-17 13,-24 6,-7 14,-12 22,-16 9,-3 18,-5 28,-5 11,0 20,2 29,5 8,4 15,9 21,16 6,7 11,15 14,24 3,10 5,21 5,33 0,11 -2,22 -5,32 -3,10 -8,18 -14,25 -6,6 -13,12 -21,15 -9,4 -18,6 -29,6 z m 0,-26 c 11,0 20,-4 26,-10 7,-7 10,-17 10,-30 v -25 c 0,-13 -3,-23 -10,-29 -6,-7 -15,-10 -26,-10 -10,0 -19,3 -26,10 -6,6 -9,16 -9,29 v 25 c 0,13 3,23 9,30 7,6 16,10 26,10 z m 87,-127 h 30 l 15,63 14,56 v 0 l 16,-56 18,-63 h 28 l 18,63 16,56 h 1 l 13,-56 16,-63 h 29 l -41,149 h -35 l -19,-68 -12,-42 h -1 l -12,42 -19,68 h -35 z m 243,149 v -149 h 32 v 25 h 1 c 3,-8 8,-15 15,-20 6,-6 15,-8 27,-8 15,0 27,5 36,15 8,10 12,24 12,43 v 94 h -31 v -90 c 0,-24 -9,-35 -28,-35 -4,0 -8,0 -12,1 -4,1 -7,3 -10,5 -3,2 -6,5 -8,8 -1,3 -2,7 -2,11 v 100 z m 198,0 c -10,0 -18,-3 -24,-8 -5,-5 -7,-13 -7,-23 v -181 h 31 v 187 h 20 v 25 z m 109,4 c -11,0 -20,-2 -29,-6 -8,-3 -15,-9 -21,-15 -6,-7 -11,-15 -14,-25 -3,-10 -5,-21 -5,-32 0,-12 2,-23 5,-33 3,-9 8,-17 14,-24 6,-7 13,-12 21,-16 9,-3 18,-5 29,-5 10,0 19,2 28,5 8,4 16,9 22,16 5,7 10,15 13,24 4,10 5,21 5,33 0,11 -1,22 -5,32 -3,10 -8,18 -13,25 -6,6 -14,12 -22,15 -9,4 -18,6 -28,6 z m 0,-26 c 10,0 19,-4 25,-10 7,-7 10,-17 10,-30 v -25 c 0,-13 -3,-23 -10,-29 -6,-7 -15,-10 -25,-10 -11,0 -20,3 -26,10 -7,6 -10,16 -10,29 v 25 c 0,13 3,23 10,30 6,6 15,10 26,10 z m 212,22 c -8,0 -14,-2 -19,-7 -4,-5 -7,-11 -8,-18 h -1 c -3,10 -8,17 -16,21 -8,5 -17,8 -28,8 -15,0 -27,-4 -36,-12 -8,-8 -12,-19 -12,-33 0,-15 5,-26 16,-33 11,-8 27,-12 48,-12 h 27 v -12 c 0,-9 -3,-16 -8,-21 -5,-5 -13,-8 -23,-8 -9,0 -16,2 -22,6 -5,4 -10,9 -14,15 l -18,-17 c 5,-9 12,-16 21,-21 9,-6 20,-8 35,-8 19,0 34,4 44,13 11,9 16,22 16,39 v 75 h 16 v 25 z m -63,-20 c 10,0 18,-2 24,-7 6,-4 10,-10 10,-17 v -21 h -27 c -21,0 -32,6 -32,20 v 5 c 0,6 2,11 7,15 4,3 10,5 18,5 z m 205,-4 h -2 c -3,8 -8,15 -15,20 -8,5 -16,8 -26,8 -19,0 -34,-7 -44,-21 -11,-14 -16,-33 -16,-57 0,-25 5,-44 16,-58 10,-13 25,-20 44,-20 10,0 18,2 26,7 7,5 12,12 15,21 h 2 v -88 h 31 v 212 h -31 z m -34,1 c 10,0 18,-3 24,-7 7,-5 10,-11 10,-19 v -51 c 0,-7 -3,-14 -10,-18 -6,-5 -14,-7 -24,-7 -11,0 -20,3 -26,10 -7,7 -10,16 -10,28 v 26 c 0,11 3,20 10,27 6,7 15,11 26,11 z"
     id="path210"
     style="clip-rule:evenodd;fill-rule:evenodd;image-rendering:optimizeQuality;shape-rendering:geometricPrecision;text-rendering:geometricPrecision" /><path
     class="fil7"
     d="m 7413,12688 v -27 h 56 v -149 h -2 l -47,49 -20,-18 51,-55 h 50 v 173 h 48 v 27 z m 232,4 c -12,0 -23,-3 -32,-7 -9,-5 -17,-12 -23,-21 -5,-8 -10,-19 -13,-32 -3,-13 -4,-27 -4,-44 0,-16 1,-31 4,-44 3,-12 8,-23 13,-32 6,-9 14,-16 23,-20 9,-5 20,-7 32,-7 25,0 44,9 55,27 12,18 18,43 18,76 0,33 -6,58 -18,76 -11,19 -30,28 -55,28 z m 0,-28 c 7,0 13,-1 18,-4 5,-3 9,-7 12,-12 3,-5 5,-11 7,-18 1,-8 2,-16 2,-24 v -35 c 0,-9 -1,-17 -2,-24 -2,-7 -4,-14 -7,-19 -3,-5 -7,-9 -12,-12 -5,-2 -11,-4 -18,-4 -6,0 -12,2 -17,4 -5,3 -9,7 -12,12 -3,5 -5,12 -7,19 -1,7 -2,15 -2,24 v 35 c 0,8 1,16 2,24 2,7 4,13 7,18 3,5 7,9 12,12 5,3 11,4 17,4 z m 172,28 c -12,0 -23,-3 -32,-7 -9,-5 -17,-12 -23,-21 -6,-8 -10,-19 -13,-32 -3,-13 -4,-27 -4,-44 0,-16 1,-31 4,-44 3,-12 7,-23 13,-32 6,-9 14,-16 23,-20 9,-5 20,-7 32,-7 25,0 44,9 55,27 12,18 18,43 18,76 0,33 -6,58 -18,76 -11,19 -30,28 -55,28 z m 0,-28 c 7,0 13,-1 18,-4 5,-3 9,-7 12,-12 3,-5 5,-11 7,-18 1,-8 2,-16 2,-24 v -35 c 0,-9 -1,-17 -2,-24 -2,-7 -4,-14 -7,-19 -3,-5 -7,-9 -12,-12 -5,-2 -11,-4 -18,-4 -6,0 -12,2 -17,4 -5,3 -9,7 -12,12 -3,5 -5,12 -7,19 -1,7 -2,15 -2,24 v 35 c 0,8 1,16 2,24 2,7 4,13 7,18 3,5 7,9 12,12 5,3 11,4 17,4 z m 138,24 139,-200 h 29 l -139,200 z m 13,-90 c -15,0 -27,-5 -35,-14 -9,-10 -13,-24 -13,-43 0,-18 4,-32 13,-42 8,-9 20,-14 35,-14 16,0 27,5 36,14 8,10 12,24 12,42 0,19 -4,33 -12,43 -9,9 -20,14 -36,14 z m 0,-19 c 14,0 20,-10 20,-30 v -16 c 0,-19 -6,-29 -20,-29 -13,0 -20,10 -20,29 v 16 c 0,20 7,30 20,30 z m 142,113 c -15,0 -27,-5 -36,-15 -8,-10 -12,-24 -12,-42 0,-19 4,-33 12,-42 9,-10 21,-15 36,-15 15,0 27,5 36,15 8,9 12,23 12,42 0,18 -4,32 -12,42 -9,10 -21,15 -36,15 z m 0,-20 c 14,0 20,-9 20,-29 v -16 c 0,-20 -6,-30 -20,-30 -14,0 -20,10 -20,30 v 16 c 0,20 6,29 20,29 z"
     id="path212"
     style="clip-rule:evenodd;fill-rule:evenodd;image-rendering:optimizeQuality;shape-rendering:geometricPrecision;text-rendering:geometricPrecision" /><path
     class="fil7"
     d="m 1740,3508 h 71 c 13,0 24,2 35,6 10,4 19,11 26,19 8,8 13,19 17,31 4,13 6,27 6,44 0,16 -2,31 -6,43 -4,13 -9,23 -17,32 -7,8 -16,14 -26,18 -11,5 -22,7 -35,7 h -71 z m 71,171 c 15,0 27,-5 36,-14 9,-9 14,-23 14,-41 v -32 c 0,-18 -5,-32 -14,-42 -9,-9 -21,-14 -36,-14 h -39 v 143 z m 181,32 c -11,0 -20,-2 -29,-5 -8,-4 -15,-9 -21,-16 -6,-7 -11,-15 -14,-24 -3,-10 -5,-21 -5,-33 0,-12 2,-22 5,-32 3,-10 8,-18 14,-25 6,-6 13,-12 21,-15 9,-4 18,-6 29,-6 11,0 20,2 29,6 8,4 15,9 20,16 6,7 10,15 13,24 3,9 4,18 4,29 v 11 h -102 v 5 c 0,12 3,21 10,28 7,7 16,11 29,11 9,0 17,-2 23,-6 7,-4 12,-9 16,-16 l 19,18 c -6,9 -14,17 -24,22 -11,5 -23,8 -37,8 z m 0,-131 c -5,0 -10,1 -15,3 -4,1 -8,4 -11,8 -3,3 -6,7 -8,12 -1,5 -2,10 -2,16 v 2 h 69 v -3 c 0,-12 -3,-21 -9,-28 -6,-7 -14,-10 -24,-10 z m 108,4 h -22 v -25 h 22 v -25 c 0,-12 4,-21 10,-28 6,-7 16,-10 28,-10 h 25 v 25 h -31 v 38 h 88 v 149 h -31 v -124 h -57 v 124 h -32 z m 105,-52 c -7,0 -11,-1 -14,-4 -3,-4 -5,-7 -5,-12 v -5 c 0,-5 2,-9 5,-12 3,-3 7,-4 14,-4 6,0 11,1 14,4 3,3 4,7 4,12 v 5 c 0,5 -1,8 -4,12 -3,3 -8,4 -14,4 z m 60,176 v -149 h 31 v 24 h 2 c 3,-8 8,-14 14,-20 7,-5 16,-8 27,-8 16,0 28,5 36,15 9,10 13,25 13,43 v 95 h -31 v -91 c 0,-23 -10,-35 -28,-35 -4,0 -8,1 -12,2 -4,1 -8,2 -11,5 -3,2 -5,4 -7,8 -2,3 -3,7 -3,11 v 100 z m 182,-176 c -7,0 -11,-1 -14,-4 -3,-4 -5,-7 -5,-12 v -5 c 0,-5 2,-9 5,-12 3,-3 7,-4 14,-4 6,0 11,1 14,4 3,3 4,7 4,12 v 5 c 0,5 -1,8 -4,12 -3,3 -8,4 -14,4 z m -16,27 h 31 v 149 h -31 z m 117,149 c -11,0 -19,-3 -24,-9 -6,-5 -9,-13 -9,-24 v -91 h -23 v -25 h 13 c 5,0 9,-1 11,-4 2,-2 3,-6 3,-11 v -26 h 28 v 41 h 31 v 25 h -31 v 98 h 29 v 26 z m 79,-176 c -6,0 -11,-1 -14,-4 -3,-4 -4,-7 -4,-12 v -5 c 0,-5 1,-9 4,-12 3,-3 8,-4 14,-4 7,0 12,1 14,4 3,3 5,7 5,12 v 5 c 0,5 -2,8 -5,12 -2,3 -7,4 -14,4 z m -15,27 h 31 v 149 h -31 z m 134,152 c -10,0 -20,-2 -28,-5 -9,-4 -16,-9 -22,-16 -6,-7 -10,-15 -14,-24 -3,-10 -4,-21 -4,-33 0,-12 1,-22 4,-32 4,-10 8,-18 14,-25 6,-6 13,-12 22,-15 8,-4 18,-6 28,-6 10,0 20,2 28,6 9,3 16,9 22,15 6,7 10,15 14,25 3,10 5,20 5,32 0,12 -2,23 -5,33 -4,9 -8,17 -14,24 -6,7 -13,12 -22,16 -8,3 -18,5 -28,5 z m 0,-26 c 11,0 19,-3 26,-10 6,-6 10,-16 10,-29 v -25 c 0,-13 -4,-23 -10,-30 -7,-6 -15,-10 -26,-10 -11,0 -19,4 -26,10 -6,7 -9,17 -9,30 v 25 c 0,13 3,23 9,29 7,7 15,10 26,10 z m 103,23 v -149 h 31 v 24 h 2 c 3,-8 8,-14 15,-20 6,-5 15,-8 27,-8 15,0 27,5 35,15 9,10 13,25 13,43 v 95 h -31 v -91 c 0,-23 -9,-35 -28,-35 -4,0 -8,1 -12,2 -4,1 -7,2 -10,5 -4,2 -6,4 -8,8 -2,3 -3,7 -3,11 v 100 z m 293,3 c -11,0 -20,-2 -29,-5 -8,-4 -15,-9 -21,-16 -6,-7 -11,-15 -14,-24 -3,-10 -5,-21 -5,-33 0,-12 2,-22 5,-32 3,-10 8,-18 14,-25 6,-6 13,-12 21,-15 9,-4 18,-6 29,-6 10,0 19,2 28,6 8,3 15,9 21,15 6,7 11,15 14,25 3,10 5,20 5,32 0,12 -2,23 -5,33 -3,9 -8,17 -14,24 -6,7 -13,12 -21,16 -9,3 -18,5 -28,5 z m 0,-26 c 10,0 19,-3 25,-10 7,-6 10,-16 10,-29 v -25 c 0,-13 -3,-23 -10,-30 -6,-6 -15,-10 -25,-10 -11,0 -20,4 -26,10 -7,7 -10,17 -10,30 v 25 c 0,13 3,23 10,29 6,7 15,10 26,10 z m 109,-101 h -23 v -25 h 23 v -25 c 0,-12 3,-21 9,-28 6,-7 16,-10 29,-10 h 24 v 25 h -31 v 38 h 31 v 25 h -31 v 124 h -31 z m 198,124 c -11,0 -19,-3 -24,-9 -6,-5 -9,-13 -9,-24 v -91 h -23 v -25 h 13 c 5,0 8,-1 10,-4 2,-2 3,-6 3,-11 v -26 h 29 v 41 h 31 v 25 h -31 v 98 h 29 v 26 z m 155,-149 h 30 l -63,178 c -1,5 -3,10 -6,13 -2,4 -4,6 -7,9 -3,2 -7,3 -11,5 -4,1 -9,1 -15,1 h -18 v -25 h 25 l 9,-26 -54,-155 h 31 l 30,87 8,33 h 2 l 9,-33 z m 56,0 h 31 v 24 h 2 c 3,-9 8,-15 15,-20 8,-5 16,-8 26,-8 19,0 34,7 44,21 11,13 16,33 16,57 0,25 -5,44 -16,58 -10,13 -25,20 -44,20 -10,0 -18,-2 -26,-7 -7,-5 -12,-12 -15,-21 h -2 v 82 h -31 z m 65,125 c 11,0 20,-3 26,-10 7,-7 10,-16 10,-28 v -26 c 0,-11 -3,-20 -10,-27 -6,-7 -15,-11 -26,-11 -10,0 -18,3 -24,7 -7,5 -10,11 -10,19 v 51 c 0,7 3,14 10,18 6,5 14,7 24,7 z m 163,27 c -10,0 -20,-2 -28,-5 -9,-4 -16,-9 -22,-16 -6,-7 -10,-15 -14,-24 -3,-10 -4,-21 -4,-33 0,-12 1,-22 4,-32 4,-10 8,-18 14,-25 6,-6 13,-12 22,-15 8,-4 18,-6 28,-6 10,0 20,2 28,6 9,3 16,9 22,15 6,7 10,15 14,25 3,10 4,20 4,32 0,12 -1,23 -4,33 -4,9 -8,17 -14,24 -6,7 -13,12 -22,16 -8,3 -18,5 -28,5 z m 0,-26 c 11,0 19,-3 26,-10 6,-6 10,-16 10,-29 v -25 c 0,-13 -4,-23 -10,-30 -7,-6 -15,-10 -26,-10 -11,0 -19,4 -26,10 -6,7 -10,17 -10,30 v 25 c 0,13 4,23 10,29 7,7 15,10 26,10 z m 234,37 c 0,15 -6,27 -18,35 -12,8 -31,12 -58,12 -12,0 -22,-1 -31,-3 -8,-2 -15,-4 -21,-7 -5,-3 -9,-7 -12,-11 -2,-4 -3,-10 -3,-15 0,-9 2,-15 6,-19 5,-5 11,-8 19,-10 v -3 c -11,-4 -17,-11 -17,-23 0,-8 3,-14 8,-18 5,-4 11,-7 18,-8 v -2 c -8,-4 -15,-10 -20,-17 -4,-8 -7,-17 -7,-27 0,-15 5,-27 16,-37 10,-9 24,-14 44,-14 10,0 19,2 27,5 v -4 c 0,-7 1,-12 4,-16 3,-3 8,-5 15,-5 h 23 v 25 h -30 v 6 c 6,4 11,10 15,17 4,7 5,15 5,23 0,15 -5,28 -15,37 -10,9 -25,14 -44,14 -7,0 -14,-1 -20,-3 -3,2 -7,4 -10,6 -3,2 -4,6 -4,9 0,4 2,7 6,9 3,2 8,3 15,3 h 37 c 18,0 31,3 39,11 9,7 13,17 13,30 z m -29,3 c 0,-5 -2,-9 -6,-12 -4,-3 -11,-5 -22,-5 h -50 c -7,4 -10,10 -10,18 0,6 2,11 7,14 5,4 13,6 25,6 h 19 c 24,0 37,-7 37,-21 z m -47,-91 c 9,0 16,-2 21,-6 5,-4 8,-10 8,-19 v -6 c 0,-8 -3,-15 -8,-19 -5,-4 -12,-6 -21,-6 -9,0 -16,2 -21,6 -6,4 -8,11 -8,19 v 6 c 0,9 2,15 8,19 5,4 12,6 21,6 z m 99,74 v -149 h 31 v 28 h 2 c 2,-7 6,-14 13,-20 7,-5 16,-8 28,-8 h 8 v 30 h -12 c -13,0 -22,2 -29,6 -6,4 -10,10 -10,18 v 95 z m 217,0 c -9,0 -15,-3 -19,-7 -5,-5 -7,-11 -8,-18 h -2 c -3,9 -8,16 -15,21 -8,5 -17,7 -28,7 -16,0 -28,-4 -36,-12 -8,-8 -12,-19 -12,-32 0,-15 5,-26 16,-34 11,-7 26,-11 47,-11 h 27 v -13 c 0,-9 -2,-16 -7,-21 -5,-5 -13,-7 -24,-7 -8,0 -15,2 -21,6 -6,3 -10,8 -14,14 l -19,-17 c 5,-8 12,-15 21,-21 9,-5 21,-8 35,-8 20,0 35,5 45,14 10,9 15,22 15,38 v 75 h 16 v 26 z m -63,-21 c 9,0 17,-2 24,-6 6,-4 9,-10 9,-17 v -22 h -26 c -22,0 -33,7 -33,20 v 5 c 0,7 3,12 7,15 5,4 11,5 19,5 z m 111,-128 h 31 v 24 h 1 c 4,-9 9,-15 16,-20 8,-5 16,-8 26,-8 19,0 34,7 44,21 10,13 16,33 16,57 0,25 -6,44 -16,58 -10,13 -25,20 -44,20 -10,0 -18,-2 -26,-7 -7,-5 -12,-12 -16,-21 h -1 v 82 h -31 z m 65,125 c 11,0 19,-3 26,-10 6,-7 10,-16 10,-28 v -26 c 0,-11 -4,-20 -10,-27 -7,-7 -15,-11 -26,-11 -10,0 -18,3 -24,7 -7,5 -10,11 -10,19 v 51 c 0,7 3,14 10,18 6,5 14,7 24,7 z m 104,-188 h 32 v 87 h 1 c 3,-8 8,-14 15,-20 6,-5 15,-8 27,-8 15,0 27,5 36,15 8,10 12,25 12,43 v 95 h -31 v -91 c 0,-23 -9,-35 -28,-35 -4,0 -8,1 -12,2 -4,1 -7,2 -10,5 -3,2 -6,4 -8,8 -1,3 -2,7 -2,11 v 100 h -32 z m 256,63 h 30 l -63,178 c -2,5 -4,10 -6,13 -2,4 -5,6 -8,9 -2,2 -6,3 -10,5 -4,1 -9,1 -15,1 h -18 v -25 h 25 l 9,-26 -55,-155 h 32 l 29,87 9,33 h 1 l 10,-33 z"
     id="path298"
     style="clip-rule:evenodd;fill-rule:evenodd;image-rendering:optimizeQuality;shape-rendering:geometricPrecision;text-rendering:geometricPrecision" /><path
     class="fil5"
     d="m 21313,1657 c -15,-15 -34,-23 -56,-23 -21,0 -41,8 -56,23 -15,15 -23,35 -23,56 0,18 6,35 17,48 l -77,77 c -3,4 -3,10 0,14 2,2 5,3 8,3 2,0 5,-1 7,-3 l 76,-77 c 14,11 31,17 48,17 22,0 41,-8 56,-23 31,-31 31,-81 0,-112 z m -14,98 v 0 c -22,22 -61,22 -83,0 -12,-11 -18,-26 -18,-42 0,-16 6,-31 18,-42 11,-11 26,-17 41,-17 16,0 31,6 42,17 23,23 23,61 0,84 z"
     id="path158"
     style="clip-rule:evenodd;fill-rule:evenodd;image-rendering:optimizeQuality;shape-rendering:geometricPrecision;text-rendering:geometricPrecision" /><polygon
     class="fil5"
     points="2181,15872 1996,16015 1996,15729 "
     id="polygon262"
     style="shape-rendering:geometricPrecision;text-rendering:geometricPrecision;image-rendering:optimizeQuality;fill-rule:evenodd;clip-rule:evenodd" /><path
     class="fil14"
     d="M4034 16044c-3,0 -7,-2 -10,-5 -5,-5 -5,-14 0,-20l150 -147 -150 -147c-5,-6 -5,-15 0,-21 6,-5 15,-5 20,0l150 148c6,5 9,12 9,20 0,8 -3,15 -9,20l-150 148c-2,2 -6,4 -10,4z"
     id="path264"
     style="shape-rendering:geometricPrecision;text-rendering:geometricPrecision;image-rendering:optimizeQuality;fill-rule:evenodd;clip-rule:evenodd" /><path
     class="fil5"
     d="M3197 16044c-4,0 -7,-2 -10,-4l-150 -148c-5,-5 -8,-12 -8,-20 0,-8 3,-15 8,-20l150 -148c6,-5 15,-5 20,1 6,5 6,14 0,20l-150 147 150 147c6,6 6,15 0,20 -3,3 -6,5 -10,5z"
     id="path266"
     style="shape-rendering:geometricPrecision;text-rendering:geometricPrecision;image-rendering:optimizeQuality;fill-rule:evenodd;clip-rule:evenodd" /><path
     class="fil5"
     d="M6288 16056c-4,0 -7,-2 -10,-4 -5,-6 -5,-14 0,-20l143 -140 -143 -140c-5,-6 -5,-14 0,-20 5,-5 14,-5 19,0l143 141c5,5 8,12 8,19 0,7 -3,14 -8,19l-143 141c-2,2 -6,4 -9,4z"
     id="path270"
     style="shape-rendering:geometricPrecision;text-rendering:geometricPrecision;image-rendering:optimizeQuality;fill-rule:evenodd;clip-rule:evenodd" /><path
     class="fil14"
     d="M5496 16056c4,0 7,-2 10,-4 5,-6 5,-14 0,-20l-143 -140 143 -140c5,-6 5,-14 0,-20 -6,-5 -14,-5 -20,0l-142 141c-5,5 -8,12 -8,19 0,7 3,14 8,19l142 141c3,2 7,4 10,4z"
     id="path274"
     style="shape-rendering:geometricPrecision;text-rendering:geometricPrecision;image-rendering:optimizeQuality;fill-rule:evenodd;clip-rule:evenodd" /><path
     class="fil12"
     d="M10950 15701l0 -157c0,-18 14,-32 32,-32 17,0 31,14 31,32l0 157c0,18 -14,32 -31,32 -18,0 -32,-14 -32,-32zm157 -143c-10,-8 -25,-6 -33,4 -8,10 -7,25 4,33 37,30 59,74 59,122 0,85 -70,155 -155,155 -86,0 -155,-70 -155,-155 0,-48 22,-92 59,-122 10,-8 12,-23 4,-33 -8,-10 -23,-12 -33,-4 -49,39 -77,97 -77,159 0,112 90,202 202,202 111,0 202,-90 202,-202 0,-62 -28,-120 -77,-159z"
     id="path164"
     style="shape-rendering:geometricPrecision;text-rendering:geometricPrecision;image-rendering:optimizeQuality;fill-rule:evenodd;clip-rule:evenodd" /><path
     class="fil6"
     d="M9733 15701l0 -157c0,-18 14,-32 31,-32 18,0 32,14 32,32l0 157c0,18 -14,32 -32,32 -17,0 -31,-14 -31,-32zm157 -143c-11,-8 -26,-6 -34,4 -8,10 -6,25 4,33 38,30 59,74 59,122 0,85 -69,155 -155,155 -85,0 -154,-70 -154,-155 0,-48 21,-92 59,-122 10,-8 12,-23 4,-33 -9,-10 -23,-12 -34,-4 -49,39 -77,97 -77,159 0,112 91,202 202,202 112,0 203,-90 203,-202 0,-62 -29,-120 -77,-159z"
     id="path166"
     style="shape-rendering:geometricPrecision;text-rendering:geometricPrecision;image-rendering:optimizeQuality;fill-rule:evenodd;clip-rule:evenodd" /><polyline
     class="fil8 str2"
     points="18937,12920 18776,13087 18616,12920 "
     id="polyline104"
     style="shape-rendering:geometricPrecision;text-rendering:geometricPrecision;image-rendering:optimizeQuality;fill-rule:evenodd;clip-rule:evenodd" /><path
     class="fil7"
     d="M16874 12856l102 0c19,0 34,5 45,16 11,11 17,25 17,43 0,9 -2,16 -4,22 -2,6 -6,11 -9,15 -4,4 -8,7 -13,9 -5,1 -10,3 -14,3l0 2c4,0 9,1 15,3 6,2 11,5 16,10 5,4 9,10 12,16 3,7 5,15 5,25 0,9 -2,18 -5,26 -3,8 -7,15 -12,21 -5,6 -12,11 -19,14 -7,4 -15,5 -24,5l-112 0 0 -230zm37 198l65 0c9,0 17,-2 22,-7 6,-5 9,-13 9,-22l0 -11c0,-10 -3,-17 -9,-22 -5,-5 -13,-8 -22,-8l-65 0 0 70zm0 -101l58 0c9,0 17,-2 22,-7 5,-5 7,-12 7,-20l0 -11c0,-9 -2,-15 -7,-20 -5,-5 -13,-7 -22,-7l-58 0 0 65zm282 105l-1 0c-2,4 -4,8 -6,12 -3,4 -6,8 -10,10 -4,3 -8,6 -14,8 -5,1 -11,2 -18,2 -18,0 -32,-5 -42,-17 -10,-11 -14,-28 -14,-49l0 -110 36 0 0 105c0,27 11,40 33,40 4,0 9,0 13,-2 5,-1 8,-3 12,-5 3,-3 6,-6 8,-9 2,-4 3,-9 3,-14l0 -115 36 0 0 172 -36 0 0 -28zm135 28c-12,0 -22,-3 -28,-9 -6,-7 -10,-16 -10,-28l0 -105 -26 0 0 -30 14 0c6,0 10,-1 13,-4 2,-2 3,-6 3,-12l0 -30 32 0 0 46 36 0 0 30 -36 0 0 113 34 0 0 29 -32 0zm119 0c-13,0 -22,-3 -29,-9 -6,-7 -9,-16 -9,-28l0 -105 -27 0 0 -30 14 0c6,0 11,-1 13,-4 2,-2 3,-6 3,-12l0 -30 33 0 0 46 36 0 0 30 -36 0 0 113 33 0 0 29 -31 0zm139 4c-12,0 -23,-2 -33,-6 -10,-4 -18,-10 -25,-18 -6,-8 -12,-17 -16,-28 -3,-12 -5,-24 -5,-38 0,-13 2,-26 5,-37 4,-11 10,-20 16,-28 7,-8 15,-14 25,-18 10,-4 21,-7 33,-7 12,0 23,3 32,7 10,4 19,10 25,18 7,8 12,17 16,28 4,11 6,24 6,37 0,14 -2,26 -6,38 -4,11 -9,20 -16,28 -6,8 -15,14 -25,18 -9,4 -20,6 -32,6zm0 -30c12,0 22,-4 30,-11 7,-8 11,-19 11,-34l0 -29c0,-15 -4,-27 -11,-34 -8,-8 -18,-11 -30,-11 -12,0 -22,3 -30,11 -7,7 -11,19 -11,34l0 29c0,15 4,26 11,34 8,7 18,11 30,11zm119 26l0 -172 36 0 0 29 1 0c4,-9 10,-17 17,-23 8,-6 19,-10 32,-10 17,0 31,6 41,18 10,11 15,28 15,49l0 109 -36 0 0 -104c0,-27 -11,-40 -33,-40 -4,0 -9,0 -14,1 -4,2 -8,3 -12,6 -3,2 -6,5 -8,9 -2,4 -3,8 -3,13l0 115 -36 0z"
     id="path106"
     style="shape-rendering:geometricPrecision;text-rendering:geometricPrecision;image-rendering:optimizeQuality;fill-rule:evenodd;clip-rule:evenodd" /><path
     class="fil5"
     d="M17645 13775c-13,0 -24,-2 -34,-7 -10,-4 -19,-10 -26,-18 -7,-9 -13,-19 -17,-31 -4,-12 -5,-27 -5,-43 0,-16 1,-30 5,-42 4,-12 10,-23 17,-31 7,-8 16,-14 26,-19 10,-4 21,-6 34,-6 12,0 23,2 33,6 10,5 19,11 26,19 7,8 13,19 17,31 4,12 6,26 6,42 0,16 -2,31 -6,43 -4,12 -10,22 -17,31 -7,8 -16,14 -26,18 -10,5 -21,7 -33,7zm0 -27c7,0 14,-2 20,-4 6,-3 11,-7 15,-11 5,-5 8,-11 10,-18 3,-7 4,-15 4,-24l0 -30c0,-8 -1,-16 -4,-23 -2,-7 -5,-13 -10,-18 -4,-5 -9,-8 -15,-11 -6,-3 -13,-4 -20,-4 -8,0 -15,1 -21,4 -6,3 -11,6 -15,11 -4,5 -8,11 -10,18 -2,7 -3,15 -3,23l0 30c0,9 1,17 3,24 2,7 6,13 10,18 4,4 9,8 15,11 6,2 13,4 21,4zm118 -118l30 0 0 23 1 0c3,-8 8,-15 15,-20 7,-4 16,-7 25,-7 18,0 32,7 42,20 10,13 14,31 14,55 0,23 -4,41 -14,54 -10,13 -24,20 -42,20 -9,0 -18,-2 -25,-7 -7,-5 -12,-11 -15,-20l-1 0 0 78 -30 0 0 -196zm62 119c10,0 19,-3 25,-10 6,-6 9,-15 9,-26l0 -25c0,-11 -3,-19 -9,-26 -6,-7 -15,-10 -25,-10 -9,0 -17,2 -23,7 -6,4 -9,10 -9,17l0 49c0,7 3,13 9,18 6,4 14,6 23,6zm137 23c-10,0 -18,-3 -23,-8 -6,-6 -8,-13 -8,-23l0 -87 -22 0 0 -24 12 0c5,0 8,-1 10,-4 2,-2 3,-5 3,-10l0 -25 27 0 0 39 29 0 0 24 -29 0 0 93 27 0 0 25 -26 0zm128 0l0 -26 53 0 0 -142 -2 0 -44 47 -19 -17 48 -53 47 0 0 165 47 0 0 26 -130 0z"
     id="path108"
     style="shape-rendering:geometricPrecision;text-rendering:geometricPrecision;image-rendering:optimizeQuality;fill-rule:evenodd;clip-rule:evenodd" /><path
     class="fil5"
     d="M17652 15204c-13,0 -24,-2 -34,-7 -10,-4 -19,-10 -26,-19 -7,-8 -13,-18 -17,-30 -4,-13 -6,-27 -6,-43 0,-16 2,-30 6,-42 4,-12 10,-23 17,-31 7,-8 16,-15 26,-19 10,-4 21,-6 34,-6 12,0 23,2 33,6 10,4 19,11 26,19 7,8 13,19 17,31 4,12 6,26 6,42 0,16 -2,30 -6,43 -4,12 -10,22 -17,30 -7,9 -16,15 -26,19 -10,5 -21,7 -33,7zm0 -28c7,0 13,-1 20,-3 6,-3 11,-7 15,-11 4,-5 8,-11 10,-18 2,-7 4,-15 4,-24l0 -30c0,-9 -2,-16 -4,-23 -2,-7 -6,-13 -10,-18 -4,-5 -9,-9 -15,-11 -7,-3 -13,-4 -20,-4 -8,0 -15,1 -21,4 -6,2 -11,6 -15,11 -4,5 -8,11 -10,18 -2,7 -4,14 -4,23l0 30c0,9 2,17 4,24 2,7 6,13 10,18 4,4 9,8 15,11 6,2 13,3 21,3zm118 -117l30 0 0 23 1 0c3,-8 8,-15 15,-20 7,-4 15,-7 25,-7 18,0 32,7 42,20 9,13 14,31 14,55 0,23 -5,41 -14,54 -10,13 -24,20 -42,20 -10,0 -18,-3 -25,-7 -7,-5 -12,-12 -15,-20l-1 0 0 78 -30 0 0 -196zm62 119c10,0 18,-3 25,-10 6,-7 9,-15 9,-26l0 -25c0,-11 -3,-19 -9,-26 -7,-7 -15,-10 -25,-10 -9,0 -17,2 -23,7 -6,4 -9,10 -9,17l0 49c0,7 3,13 9,17 6,5 14,7 23,7zm137 22c-10,0 -18,-2 -23,-8 -6,-5 -8,-13 -8,-22l0 -87 -22 0 0 -24 12 0c4,0 8,-1 10,-4 2,-2 3,-5 3,-10l0 -25 26 0 0 39 30 0 0 24 -30 0 0 93 28 0 0 24 -26 0zm175 -112c12,0 20,-2 26,-7 6,-5 9,-12 9,-19l0 -2c0,-9 -3,-16 -9,-20 -5,-5 -12,-7 -22,-7 -9,0 -17,2 -23,6 -6,4 -12,10 -16,17l-20 -18c2,-4 6,-8 9,-12 4,-4 8,-7 13,-10 5,-3 11,-5 17,-7 6,-1 13,-2 21,-2 9,0 17,1 25,3 8,2 14,5 20,10 5,4 9,9 12,15 3,6 5,13 5,21 0,6 -1,11 -3,16 -2,5 -4,9 -8,13 -3,4 -7,7 -11,9 -5,3 -10,4 -15,6l0 1c6,1 11,3 16,5 5,3 9,6 13,10 3,4 6,8 8,14 2,5 3,11 3,18 0,8 -1,16 -5,23 -3,7 -7,13 -13,17 -6,5 -13,9 -22,12 -8,2 -17,4 -28,4 -9,0 -16,-1 -23,-3 -7,-2 -13,-5 -18,-8 -5,-3 -10,-7 -14,-11 -4,-4 -7,-8 -10,-12l23 -18c2,4 5,7 7,10 3,4 6,6 9,9 4,2 8,4 12,5 4,1 9,2 14,2 12,0 21,-3 27,-9 6,-5 9,-13 9,-23l0 -1c0,-10 -3,-18 -9,-23 -7,-5 -16,-7 -28,-7l-20 0 0 -27 19 0z"
     id="path110"
     style="shape-rendering:geometricPrecision;text-rendering:geometricPrecision;image-rendering:optimizeQuality;fill-rule:evenodd;clip-rule:evenodd" /><path
     class="fil5"
     d="M17645 15918c-13,0 -24,-2 -34,-6 -10,-5 -19,-11 -26,-19 -7,-8 -13,-19 -17,-31 -3,-12 -5,-26 -5,-42 0,-16 2,-30 5,-43 4,-12 10,-22 17,-31 7,-8 16,-14 26,-18 10,-5 21,-7 34,-7 12,0 23,2 33,7 11,4 19,10 26,18 8,9 13,19 17,31 4,13 6,27 6,43 0,16 -2,30 -6,42 -4,12 -9,23 -17,31 -7,8 -15,14 -26,19 -10,4 -21,6 -33,6zm0 -27c7,0 14,-1 20,-4 6,-3 11,-6 15,-11 5,-5 8,-11 10,-18 3,-7 4,-15 4,-23l0 -30c0,-9 -1,-17 -4,-24 -2,-7 -5,-13 -10,-18 -4,-4 -9,-8 -15,-11 -6,-2 -13,-4 -20,-4 -8,0 -14,2 -20,4 -6,3 -12,7 -16,11 -4,5 -7,11 -10,18 -2,7 -3,15 -3,24l0 30c0,8 1,16 3,23 3,7 6,13 10,18 4,5 10,8 16,11 6,3 12,4 20,4zm118 -118l30 0 0 23 1 0c3,-8 8,-15 15,-19 7,-5 16,-7 25,-7 18,0 32,6 42,19 10,13 15,31 15,55 0,23 -5,42 -15,55 -10,13 -24,19 -42,19 -9,0 -18,-2 -25,-7 -7,-5 -12,-11 -15,-20l-1 0 0 78 -30 0 0 -196zm62 120c10,0 19,-4 25,-10 6,-7 9,-16 9,-27l0 -24c0,-11 -3,-20 -9,-27 -6,-6 -15,-10 -25,-10 -9,0 -17,3 -23,7 -6,5 -9,10 -9,18l0 48c0,7 3,13 9,18 6,4 14,7 23,7zm137 22c-10,0 -18,-3 -23,-8 -5,-6 -8,-13 -8,-23l0 -87 -22 0 0 -24 12 0c5,0 8,-1 10,-3 2,-2 3,-6 3,-11l0 -25 27 0 0 39 29 0 0 24 -29 0 0 94 27 0 0 24 -26 0zm202 0l0 -37 -89 0 0 -27 77 -127 41 0 0 129 26 0 0 25 -26 0 0 37 -29 0zm-63 -62l63 0 0 -100 -2 0 -61 100z"
     id="path112"
     style="shape-rendering:geometricPrecision;text-rendering:geometricPrecision;image-rendering:optimizeQuality;fill-rule:evenodd;clip-rule:evenodd" /><path
     class="fil7"
     d="M17648 14475c-12,0 -23,-3 -34,-7 -10,-4 -18,-10 -26,-19 -7,-8 -12,-18 -16,-30 -4,-13 -6,-27 -6,-43 0,-16 2,-30 6,-42 4,-13 9,-23 16,-31 8,-8 16,-15 26,-19 11,-4 22,-6 34,-6 12,0 24,2 34,6 10,4 19,11 26,19 7,8 12,18 16,31 4,12 6,26 6,42 0,16 -2,30 -6,43 -4,12 -9,22 -16,30 -7,9 -16,15 -26,19 -10,4 -22,7 -34,7zm0 -28c7,0 14,-1 20,-3 6,-3 11,-7 16,-12 4,-4 7,-10 10,-17 2,-7 3,-15 3,-24l0 -30c0,-9 -1,-17 -3,-23 -3,-7 -6,-13 -10,-18 -5,-5 -10,-9 -16,-11 -6,-3 -13,-4 -20,-4 -7,0 -14,1 -20,4 -6,2 -11,6 -15,11 -5,5 -8,11 -10,18 -3,6 -4,14 -4,23l0 30c0,9 1,17 4,24 2,7 5,13 10,17 4,5 9,9 15,12 6,2 13,3 20,3zm119 -118l29 0 0 24 2 0c3,-9 8,-15 15,-20 7,-4 15,-7 24,-7 18,0 32,7 42,20 10,13 15,31 15,54 0,24 -5,42 -15,55 -10,13 -24,20 -42,20 -9,0 -17,-3 -24,-7 -7,-5 -12,-12 -15,-20l-2 0 0 78 -29 0 0 -197zm61 120c11,0 19,-3 25,-10 6,-7 10,-15 10,-26l0 -25c0,-11 -4,-20 -10,-26 -6,-7 -14,-10 -25,-10 -9,0 -16,2 -22,7 -7,4 -10,10 -10,17l0 49c0,7 3,13 10,17 6,5 13,7 22,7zm138 22c-11,0 -19,-2 -24,-8 -5,-5 -8,-13 -8,-22l0 -87 -22 0 0 -25 12 0c5,0 8,-1 10,-3 2,-2 3,-6 3,-10l0 -25 27 0 0 38 30 0 0 25 -30 0 0 93 28 0 0 24 -26 0zm251 0l-130 0 0 -29 61 -54c10,-9 17,-17 22,-25 6,-8 8,-17 8,-25l0 -4c0,-9 -3,-16 -8,-22 -6,-5 -13,-8 -23,-8 -5,0 -10,1 -13,3 -4,1 -8,3 -11,6 -3,3 -5,6 -7,10 -2,3 -3,7 -4,11l-27 -10c2,-6 4,-12 8,-17 3,-6 8,-11 13,-15 5,-5 11,-8 19,-11 7,-2 15,-3 25,-3 9,0 18,1 26,4 7,3 14,7 19,12 5,5 9,11 12,17 3,7 4,15 4,23 0,8 -1,15 -4,21 -2,7 -5,13 -9,19 -5,6 -10,11 -15,17 -6,5 -11,10 -18,16l-44 38 96 0 0 26z"
     id="path286"
     style="shape-rendering:geometricPrecision;text-rendering:geometricPrecision;image-rendering:optimizeQuality;fill-rule:evenodd;clip-rule:evenodd" /><path
     class="fil5"
     d="M21828 14447l0 -66 136 0 0 -364 -5 0 -113 120 -48 -43 124 -135 120 0 0 422 119 0 0 66 -333 0zm540 -287c30,0 53,-7 67,-19 14,-13 22,-30 22,-50l0 -5c0,-22 -7,-39 -21,-51 -14,-12 -33,-18 -57,-18 -23,0 -43,6 -59,16 -16,10 -30,25 -41,44l-53 -46c8,-10 16,-21 25,-30 10,-10 21,-19 33,-26 13,-7 27,-13 43,-17 16,-5 34,-7 54,-7 23,0 44,3 64,8 19,6 36,14 50,25 14,11 25,24 33,40 8,16 12,33 12,53 0,15 -3,29 -8,42 -4,12 -11,23 -20,33 -8,9 -18,17 -30,23 -11,6 -23,11 -36,13l0 4c14,3 27,7 40,13 12,7 23,15 32,25 9,10 17,22 22,36 5,13 8,29 8,47 0,21 -4,41 -12,58 -9,17 -21,32 -36,45 -15,13 -33,22 -55,29 -21,7 -45,10 -71,10 -23,0 -43,-2 -60,-7 -17,-5 -32,-12 -46,-20 -13,-8 -24,-17 -34,-28 -10,-10 -19,-21 -27,-32l58 -46c6,10 13,19 20,27 6,8 14,15 23,21 8,6 18,11 29,14 11,3 23,5 37,5 30,0 53,-7 69,-22 16,-14 23,-33 23,-59l0 -4c0,-26 -8,-45 -25,-58 -16,-13 -40,-19 -71,-19l-52 0 0 -67 50 0zm591 -132l-217 0 -12 172 5 0c5,-10 11,-18 17,-26 6,-8 13,-14 21,-20 8,-5 17,-10 27,-13 10,-3 23,-4 37,-4 20,0 40,3 58,10 18,7 33,17 47,30 13,13 23,29 31,48 7,19 11,40 11,64 0,24 -4,46 -12,67 -7,20 -19,38 -34,53 -14,14 -33,26 -54,34 -22,8 -47,12 -74,12 -22,0 -41,-2 -58,-7 -17,-5 -32,-12 -44,-20 -13,-8 -24,-17 -34,-28 -9,-10 -18,-21 -25,-32l57 -46c6,10 12,19 19,27 6,8 14,15 22,21 9,6 18,11 28,14 11,3 23,5 36,5 29,0 51,-8 67,-24 16,-16 23,-38 23,-66l0 -8c0,-28 -7,-50 -23,-66 -16,-15 -38,-23 -67,-23 -21,0 -37,4 -50,12 -12,7 -23,16 -32,26l-65 -9 18 -272 277 0 0 69z"
     id="path65"
     style="shape-rendering:geometricPrecision;text-rendering:geometricPrecision;image-rendering:optimizeQuality;fill-rule:evenodd;clip-rule:evenodd" /><polygon
     class="fil5"
     points="22447,13370 22271,13607 22382,13607 22329,13765 22510,13524 22398,13524 "
     id="polygon67"
     style="shape-rendering:geometricPrecision;text-rendering:geometricPrecision;image-rendering:optimizeQuality;fill-rule:evenodd;clip-rule:evenodd" /><path
     class="fil5"
     d="M22212 14799l-24 27 0 54 -28 0 0 -173 28 0 0 88 1 0 25 -32 46 -56 33 0 -62 73 67 100 -34 0 -52 -81zm93 -48l26 0 13 54 12 49 1 0 13 -49 15 -54 25 0 16 54 13 49 1 0 11 -49 14 -54 25 0 -35 129 -30 0 -17 -59 -11 -36 0 0 -10 36 -17 59 -30 0 -35 -129zm210 -54l27 0 0 75 2 0c2,-6 7,-12 12,-17 6,-4 14,-7 24,-7 13,0 23,5 30,13 8,9 11,21 11,37l0 82 -27 0 0 -79c0,-20 -8,-30 -24,-30 -3,0 -7,1 -10,2 -3,1 -6,2 -9,4 -3,2 -5,4 -6,7 -2,3 -3,6 -3,9l0 87 -27 0 0 -183z"
     id="path69"
     style="shape-rendering:geometricPrecision;text-rendering:geometricPrecision;image-rendering:optimizeQuality;fill-rule:evenodd;clip-rule:evenodd" /></g>
</svg>
