<?xml version="1.0" encoding="UTF-8" standalone="no"?>
<!-- Creator: CorelDRAW X7 -->

<svg
   xml:space="preserve"
   width="264.583mm"
   height="176.389mm"
   version="1.1"
   style="shape-rendering:geometricPrecision; text-rendering:geometricPrecision; image-rendering:optimizeQuality; fill-rule:evenodd; clip-rule:evenodd"
   viewBox="0 0 26458 17639"
   id="svg258"
   sodipodi:docname="svg_19.svg"
   inkscape:version="1.1.2 (0a00cf5339, 2022-02-04)"
   xmlns:inkscape="http://www.inkscape.org/namespaces/inkscape"
   xmlns:sodipodi="http://sodipodi.sourceforge.net/DTD/sodipodi-0.dtd"
   xmlns="http://www.w3.org/2000/svg"
   xmlns:svg="http://www.w3.org/2000/svg"><sodipodi:namedview
   id="namedview260"
   pagecolor="#ffffff"
   bordercolor="#666666"
   borderopacity="1.0"
   inkscape:pageshadow="2"
   inkscape:pageopacity="0.0"
   inkscape:pagecheckerboard="0"
   inkscape:document-units="mm"
   showgrid="false"
   inkscape:zoom="1.1174992"
   inkscape:cx="440.71618"
   inkscape:cy="361.96892"
   inkscape:window-width="1920"
   inkscape:window-height="1022"
   inkscape:window-x="0"
   inkscape:window-y="0"
   inkscape:window-maximized="1"
   inkscape:current-layer="layer3" />
 <defs
   id="defs7">
  <style
   type="text/css"
   id="style2">
   <![CDATA[
    .str10 {stroke:#FEFEFE;stroke-width:7.62}
    .str4 {stroke:#051C3D;stroke-width:31.1}
    .str14 {stroke:#E6550E;stroke-width:26.41}
    .str12 {stroke:#E6550E;stroke-width:26.41}
    .str1 {stroke:#E6550E;stroke-width:333.79}
    .str15 {stroke:#0D6D7E;stroke-width:333.79}
    .str13 {stroke:#E6550E;stroke-width:47.14}
    .str7 {stroke:#051C3D;stroke-width:47.14}
    .str6 {stroke:#051C3D;stroke-width:47.14}
    .str2 {stroke:#051C3D;stroke-width:47.14}
    .str9 {stroke:#051C3D;stroke-width:47.14}
    .str8 {stroke:#051C3D;stroke-width:47.14}
    .str0 {stroke:#E6550E;stroke-width:83.45}
    .str3 {stroke:#051C3D;stroke-width:52.82}
    .str11 {stroke:#051C3D;stroke-width:53.68}
    .str5 {stroke:#F5EDC1;stroke-width:30.16;stroke-linecap:round;stroke-linejoin:round}
    .fil7 {fill:none}
    .fil5 {fill:none;fill-rule:nonzero}
    .fil9 {fill:#051C3D}
    .fil0 {fill:#0D6D7E}
    .fil10 {fill:#E6550E}
    .fil1 {fill:#F5EDC1}
    .fil6 {fill:#FEFEFE;fill-rule:nonzero}
    .fil2 {fill:#051C3D;fill-rule:nonzero}
    .fil3 {fill:#0D6D7E;fill-rule:nonzero}
    .fil11 {fill:#272842;fill-rule:nonzero}
    .fil12 {fill:#E5560E;fill-rule:nonzero}
    .fil8 {fill:#E6550E;fill-rule:nonzero}
    .fil4 {fill:#F5EDC1;fill-rule:nonzero}
    .fil13 {fill:#F7EEC1;fill-rule:nonzero}
   ]]>
  </style>
   <clipPath
   id="id0"
   style="clip-rule:nonzero">
    <path
   d="M24746 2478c0,80 -64,144 -144,144l-22446 0c-80,0 -145,-64 -145,-144l0 -972c0,-80 65,-144 145,-144l22446 0c80,0 144,64 144,144l0 972z"
   id="path4" />
   </clipPath>
 </defs>
 <g
   inkscape:groupmode="layer"
   id="layer1"
   inkscape:label="Layer 1"
   sodipodi:insensitive="true"
   style="display:inline"><rect
     class="fil0"
     x="813"
     y="171"
     width="25225"
     height="17120"
     id="rect10"
     style="clip-rule:evenodd;fill-rule:evenodd;image-rendering:optimizeQuality;shape-rendering:geometricPrecision;text-rendering:geometricPrecision" /><rect
     class="fil1"
     x="1204"
     y="524"
     width="24493"
     height="16401"
     rx="166"
     ry="166"
     id="rect12"
     style="clip-rule:evenodd;fill-rule:evenodd;image-rendering:optimizeQuality;shape-rendering:geometricPrecision;text-rendering:geometricPrecision" /></g><g
   inkscape:groupmode="layer"
   id="layer2"
   inkscape:label="Layer 2"
   style="display:inline"><path
     class="fil3"
     d="m 24746,2478 c 0,80 -64,144 -144,144 H 2156 c -80,0 -145,-64 -145,-144 v -972 c 0,-80 65,-144 145,-144 h 22446 c 80,0 144,64 144,144 z"
     id="path36"
     style="clip-rule:evenodd;fill-rule:evenodd;image-rendering:optimizeQuality;shape-rendering:geometricPrecision;text-rendering:geometricPrecision" /><rect
     class="fil7 str2"
     x="2173"
     y="3974"
     width="6646"
     height="780"
     rx="174"
     ry="174"
     id="rect61"
     style="clip-rule:evenodd;fill-rule:evenodd;image-rendering:optimizeQuality;shape-rendering:geometricPrecision;text-rendering:geometricPrecision" /><rect
     class="fil7 str8"
     x="2173"
     y="7424"
     width="6646"
     height="780"
     rx="174"
     ry="174"
     id="rect151"
     style="clip-rule:evenodd;fill-rule:evenodd;image-rendering:optimizeQuality;shape-rendering:geometricPrecision;text-rendering:geometricPrecision" /><polygon
     class="fil2"
     points="6980,9668 6980,8842 7033,8842 7033,9668 "
     id="polygon195"
     style="clip-rule:evenodd;fill-rule:evenodd;image-rendering:optimizeQuality;shape-rendering:geometricPrecision;text-rendering:geometricPrecision" /><rect
     class="fil7 str9"
     x="2173"
     y="8865"
     width="6646"
     height="780"
     rx="174"
     ry="174"
     id="rect157"
     style="clip-rule:evenodd;fill-rule:evenodd;image-rendering:optimizeQuality;shape-rendering:geometricPrecision;text-rendering:geometricPrecision" /><path
     class="fil9"
     d="m 2347,10394 h 2000 c 96,0 174,79 174,174 v 432 c 0,96 -78,174 -174,174 H 2347 c -95,0 -174,-78 -174,-174 v -432 c 0,-95 79,-174 174,-174 z"
     id="path89"
     style="clip-rule:evenodd;fill-rule:evenodd;image-rendering:optimizeQuality;shape-rendering:geometricPrecision;text-rendering:geometricPrecision" /><path
     class="fil10"
     d="m 4909,10394 h 1999 c 96,0 174,79 174,174 v 432 c 0,96 -78,174 -174,174 H 4909 c -96,0 -174,-78 -174,-174 v -432 c 0,-95 78,-174 174,-174 z"
     id="path91"
     style="clip-rule:evenodd;fill-rule:evenodd;image-rendering:optimizeQuality;shape-rendering:geometricPrecision;text-rendering:geometricPrecision" /><path
     class="fil9"
     d="m 4919,11738 h 473 c 96,0 174,78 174,174 v 431 c 0,96 -78,174 -174,174 h -473 c -95,0 -174,-78 -174,-174 v -431 c 0,-96 79,-174 174,-174 z"
     id="path111"
     style="clip-rule:evenodd;fill-rule:evenodd;image-rendering:optimizeQuality;shape-rendering:geometricPrecision;text-rendering:geometricPrecision" /><path
     class="fil10"
     d="m 5858,11738 h 473 c 95,0 174,78 174,174 v 431 c 0,96 -79,174 -174,174 h -473 c -96,0 -174,-78 -174,-174 v -431 c 0,-96 78,-174 174,-174 z"
     id="path115"
     style="clip-rule:evenodd;fill-rule:evenodd;image-rendering:optimizeQuality;shape-rendering:geometricPrecision;text-rendering:geometricPrecision" /><path
     class="fil9"
     d="m 2360,11738 h 473 c 95,0 174,78 174,174 v 431 c 0,96 -79,174 -174,174 h -473 c -96,0 -174,-78 -174,-174 v -431 c 0,-96 78,-174 174,-174 z"
     id="path119"
     style="clip-rule:evenodd;fill-rule:evenodd;image-rendering:optimizeQuality;shape-rendering:geometricPrecision;text-rendering:geometricPrecision" /><path
     class="fil10"
     d="m 3299,11738 h 472 c 96,0 174,78 174,174 v 431 c 0,96 -78,174 -174,174 h -472 c -96,0 -174,-78 -174,-174 v -431 c 0,-96 78,-174 174,-174 z"
     id="path121"
     style="clip-rule:evenodd;fill-rule:evenodd;image-rendering:optimizeQuality;shape-rendering:geometricPrecision;text-rendering:geometricPrecision" /><path
     class="fil7 str11"
     d="m 7512,11850 h 1120 c 109,0 198,89 198,198 v 246 c 0,109 -89,198 -198,198 H 7512 c -109,0 -198,-89 -198,-198 v -246 c 0,-109 89,-198 198,-198 z"
     id="path237"
     style="clip-rule:evenodd;fill-rule:evenodd;image-rendering:optimizeQuality;shape-rendering:geometricPrecision;text-rendering:geometricPrecision" /><path
     class="fil5 str3"
     d="m 8622,15278 c 0,243 -197,440 -440,440 -243,0 -439,-197 -439,-440 0,-243 196,-439 439,-439 243,0 440,196 440,439"
     id="path81"
     style="clip-rule:evenodd;fill-rule:evenodd;image-rendering:optimizeQuality;shape-rendering:geometricPrecision;text-rendering:geometricPrecision" /><path
     class="fil2"
     d="m 7507,15278 c 0,243 -197,440 -440,440 -243,0 -440,-197 -440,-440 0,-243 197,-439 440,-439 243,0 440,196 440,439 z"
     id="path85"
     style="clip-rule:evenodd;fill-rule:evenodd;image-rendering:optimizeQuality;shape-rendering:geometricPrecision;text-rendering:geometricPrecision" /><path
     class="fil2"
     d="m 6391,15278 c 0,243 -197,440 -439,440 -243,0 -440,-197 -440,-440 0,-243 197,-439 440,-439 242,0 439,196 439,439 z"
     id="path75"
     style="clip-rule:evenodd;fill-rule:evenodd;image-rendering:optimizeQuality;shape-rendering:geometricPrecision;text-rendering:geometricPrecision" /><path
     class="fil2"
     d="m 3045,15278 c 0,243 -197,440 -440,440 -242,0 -439,-197 -439,-440 0,-243 197,-439 439,-439 243,0 440,196 440,439 z"
     id="path63"
     style="clip-rule:evenodd;fill-rule:evenodd;image-rendering:optimizeQuality;shape-rendering:geometricPrecision;text-rendering:geometricPrecision" /><path
     class="fil2"
     d="m 4161,15278 c 0,243 -197,440 -440,440 -243,0 -440,-197 -440,-440 0,-243 197,-439 440,-439 243,0 440,196 440,439 z"
     id="path67"
     style="clip-rule:evenodd;fill-rule:evenodd;image-rendering:optimizeQuality;shape-rendering:geometricPrecision;text-rendering:geometricPrecision" /><path
     class="fil7 str6"
     d="m 2347,13637 h 6299 c 95,0 174,78 174,174 v 216 c 0,95 -79,174 -174,174 H 2347 c -95,0 -174,-79 -174,-174 v -216 c 0,-96 79,-174 174,-174 z"
     id="path139"
     style="clip-rule:evenodd;fill-rule:evenodd;image-rendering:optimizeQuality;shape-rendering:geometricPrecision;text-rendering:geometricPrecision" /><path
     class="fil7 str7"
     d="m 9809,12438 h 2380 c 96,0 175,78 175,174 v 3008 c 0,96 -79,174 -175,174 H 9809 c -96,0 -174,-78 -174,-174 v -3008 c 0,-96 78,-174 174,-174 z"
     id="path149"
     style="clip-rule:evenodd;fill-rule:evenodd;image-rendering:optimizeQuality;shape-rendering:geometricPrecision;text-rendering:geometricPrecision" /><line
     class="fil5 str12"
     x1="13093"
     y1="13722"
     x2="15035"
     y2="13722"
     id="line241"
     style="clip-rule:evenodd;fill-rule:evenodd;image-rendering:optimizeQuality;shape-rendering:geometricPrecision;text-rendering:geometricPrecision" /><path
     class="fil7 str13"
     d="m 13024,12438 h 2117 c 95,0 174,78 174,174 v 3008 c 0,96 -79,174 -174,174 h -2117 c -96,0 -174,-78 -174,-174 v -3008 c 0,-96 78,-174 174,-174 z"
     id="path245"
     style="clip-rule:evenodd;fill-rule:evenodd;image-rendering:optimizeQuality;shape-rendering:geometricPrecision;text-rendering:geometricPrecision" /><path
     class="fil8"
     d="m 14251,12887 c 0,111 -90,201 -201,201 -111,0 -201,-90 -201,-201 0,-111 90,-201 201,-201 111,0 201,90 201,201 z"
     id="path247"
     style="clip-rule:evenodd;fill-rule:evenodd;image-rendering:optimizeQuality;shape-rendering:geometricPrecision;text-rendering:geometricPrecision" /><line
     class="fil5 str14"
     x1="13093"
     y1="15420"
     x2="15035"
     y2="15420"
     id="line251"
     style="clip-rule:evenodd;fill-rule:evenodd;image-rendering:optimizeQuality;shape-rendering:geometricPrecision;text-rendering:geometricPrecision" /><g
     id="g109"
     style="clip-rule:evenodd;fill-rule:evenodd;image-rendering:optimizeQuality;shape-rendering:geometricPrecision;text-rendering:geometricPrecision">
   <path
   class="fil2"
   d="M 23684,8699 H 9809 v -47 h 13875 v 0 z m 200,150 h -48 v 0 -7 l -1,-8 -1,-7 -1,-8 -2,-7 -2,-7 -2,-7 -3,-7 -3,-7 -3,-6 -4,-6 -4,-6 -4,-6 -5,-6 -5,-6 -5,-5 -5,-5 -5,-5 -6,-4 -6,-4 -6,-4 -7,-4 -6,-3 -7,-3 -7,-3 -7,-2 -7,-2 -7,-2 -8,-1 -7,-1 -8,-1 h -8 v -47 h 10 l 10,1 10,1 10,2 10,2 9,3 10,3 9,3 9,4 8,5 9,4 8,6 8,5 7,6 7,6 7,7 7,7 6,7 6,7 6,8 5,8 5,8 4,9 4,9 4,9 3,9 3,9 2,10 2,9 1,10 1,10 z m -48,2887 V 8849 h 48 v 2887 0 z m -152,198 v -47 0 l 8,-1 h 8 l 7,-1 8,-2 7,-1 7,-2 7,-3 7,-2 7,-3 6,-4 7,-3 6,-4 6,-4 6,-5 5,-5 5,-5 5,-5 5,-5 5,-6 4,-6 4,-6 4,-6 3,-7 3,-7 3,-6 2,-7 2,-7 2,-8 1,-7 1,-8 1,-7 v -8 h 48 v 10 l -1,10 -1,10 -2,10 -2,9 -3,10 -3,9 -4,9 -4,9 -4,8 -5,8 -5,9 -6,7 -6,8 -6,7 -7,7 -7,6 -7,7 -8,5 -7,6 -8,5 -9,5 -8,4 -9,4 -9,4 -10,3 -9,3 -10,2 -10,1 -10,2 -10,1 z m -13875,-47 h 13875 v 47 H 9809 v 0 z m -200,-151 h 48 v 0 8 l 1,7 1,8 1,7 2,8 2,7 2,7 3,6 3,7 4,7 3,6 4,6 4,6 5,6 5,5 5,5 5,5 6,5 5,5 6,4 7,4 6,3 7,4 6,3 7,2 7,3 7,2 8,1 7,2 8,1 h 7 l 8,1 v 47 h -10 l -10,-1 -10,-1 -10,-2 -10,-2 -9,-3 -9,-3 -9,-4 -9,-4 -9,-4 -8,-5 -8,-5 -8,-6 -8,-5 -7,-7 -7,-6 -7,-7 -6,-7 -6,-8 -5,-7 -6,-9 -4,-8 -5,-8 -4,-9 -3,-9 -4,-9 -2,-10 -3,-9 -1,-10 -2,-10 v -10 z m 48,-2887 v 2887 h -48 v -2887 0 z m 152,-197 v 47 0 h -8 l -7,1 -8,1 -7,1 -8,2 -7,2 -7,2 -7,3 -6,3 -7,3 -6,4 -7,4 -6,4 -5,4 -6,5 -5,5 -5,5 -5,6 -5,6 -4,5 -4,7 -3,6 -4,6 -3,7 -3,7 -2,7 -2,7 -2,7 -1,8 -1,7 -1,8 v 7 h -48 l 1,-10 v -10 l 2,-10 1,-9 3,-10 2,-9 4,-9 3,-9 4,-9 5,-9 4,-8 6,-8 5,-8 6,-7 6,-7 7,-7 7,-7 7,-6 8,-6 8,-5 8,-6 8,-4 9,-5 9,-4 9,-3 9,-3 9,-3 10,-2 10,-2 10,-1 10,-1 z"
   id="path107" />
  </g><path
     class="fil9"
     d="m 19697,12440 h 44 c 18,0 32,15 32,34 v 3318 c 0,19 -14,34 -32,34 h -44 c -18,0 -32,-15 -32,-34 v -3318 c 0,-19 14,-34 32,-34 z"
     id="path231"
     style="clip-rule:evenodd;fill-rule:evenodd;image-rendering:optimizeQuality;shape-rendering:geometricPrecision;text-rendering:geometricPrecision" /><g
     id="g201"
     style="clip-rule:evenodd;fill-rule:evenodd;image-rendering:optimizeQuality;shape-rendering:geometricPrecision;text-rendering:geometricPrecision">
   <path
   class="fil9"
   d="m 15945,12432 h 3376 c 60,0 109,49 109,109 v 494 c 0,60 -49,109 -109,109 h -3376 c -60,0 -109,-49 -109,-109 v -494 c 0,-60 49,-109 109,-109 z"
   id="path197" />
   <path
   id="path199"
   class="fil5 str10"
   d="m 15945,12432 h 3376 c 60,0 109,49 109,109 v 494 c 0,60 -49,109 -109,109 h -3376 c -60,0 -109,-49 -109,-109 v -494 c 0,-60 49,-109 109,-109 z" />
  </g><g
     id="g209"
     style="clip-rule:evenodd;fill-rule:evenodd;image-rendering:optimizeQuality;shape-rendering:geometricPrecision;text-rendering:geometricPrecision">
   <path
   class="fil0"
   d="m 15945,13289 h 3376 c 60,0 109,49 109,109 v 494 c 0,60 -49,109 -109,109 h -3376 c -60,0 -109,-49 -109,-109 v -494 c 0,-60 49,-109 109,-109 z"
   id="path205" />
   <path
   id="path207"
   class="fil5 str10"
   d="m 15945,13289 h 3376 c 60,0 109,49 109,109 v 494 c 0,60 -49,109 -109,109 h -3376 c -60,0 -109,-49 -109,-109 v -494 c 0,-60 49,-109 109,-109 z" />
  </g><g
     id="g221"
     style="clip-rule:evenodd;fill-rule:evenodd;image-rendering:optimizeQuality;shape-rendering:geometricPrecision;text-rendering:geometricPrecision">
   <path
   class="fil0"
   d="m 15945,15104 h 3376 c 60,0 109,49 109,109 v 494 c 0,60 -49,109 -109,109 h -3376 c -60,0 -109,-49 -109,-109 v -494 c 0,-60 49,-109 109,-109 z"
   id="path217" />
   <path
   id="path219"
   class="fil5 str10"
   d="m 15945,15104 h 3376 c 60,0 109,49 109,109 v 494 c 0,60 -49,109 -109,109 h -3376 c -60,0 -109,-49 -109,-109 v -494 c 0,-60 49,-109 109,-109 z" />
  </g><path
     class="fil3"
     d="m 16010,8051 v 0 c 88,0 159,71 159,159 0,88 -71,159 -159,159 -87,0 -158,-71 -158,-159 0,-88 71,-159 158,-159 z"
     id="path18"
     style="clip-rule:evenodd;fill-rule:evenodd;image-rendering:optimizeQuality;shape-rendering:geometricPrecision;text-rendering:geometricPrecision" /><path
     class="fil3"
     d="m 17034,8051 v 0 c 87,0 159,71 159,159 0,88 -72,159 -159,159 -88,0 -159,-71 -159,-159 0,-88 71,-159 159,-159 z"
     id="path20"
     style="clip-rule:evenodd;fill-rule:evenodd;image-rendering:optimizeQuality;shape-rendering:geometricPrecision;text-rendering:geometricPrecision" /><path
     class="fil3"
     d="m 17479,8051 v 0 c 88,0 159,71 159,159 0,88 -71,159 -159,159 -88,0 -159,-71 -159,-159 0,-88 71,-159 159,-159 z"
     id="path22"
     style="clip-rule:evenodd;fill-rule:evenodd;image-rendering:optimizeQuality;shape-rendering:geometricPrecision;text-rendering:geometricPrecision" /><path
     class="fil5 str0"
     d="m 23928,14150 c 0,917 -743,1660 -1660,1660 -917,0 -1660,-743 -1660,-1660 0,-917 743,-1660 1660,-1660 917,0 1660,743 1660,1660"
     id="path45"
     style="clip-rule:evenodd;fill-rule:evenodd;image-rendering:optimizeQuality;shape-rendering:geometricPrecision;text-rendering:geometricPrecision" /><path
     class="fil2"
     d="m 22925,14150 c 0,363 -294,657 -657,657 -363,0 -657,-294 -657,-657 0,-363 294,-657 657,-657 363,0 657,294 657,657 z"
     id="path49"
     style="clip-rule:evenodd;fill-rule:evenodd;image-rendering:optimizeQuality;shape-rendering:geometricPrecision;text-rendering:geometricPrecision" /></g><g
   inkscape:groupmode="layer"
   id="layer3"
   inkscape:label="Layer 3"
   style="display:inline"><g
     style="clip-rule:evenodd;fill-rule:evenodd;image-rendering:optimizeQuality;shape-rendering:geometricPrecision;text-rendering:geometricPrecision"
     clip-path="url(#id0)"
     id="g41">
   <g
   id="g39">
    <path
   id="1"
   class="fil2"
   d="m 23295,1288 h 1266 c 157,0 284,133 284,298 v 759 c 0,164 -127,297 -284,297 h -1266 z" />
   </g>
  </g><path
     class="fil1 str4"
     d="m 16937,1731 h 4664 c 63,0 115,51 115,114 v 285 c 0,63 -52,115 -115,115 h -4664 c -63,0 -115,-52 -115,-115 v -285 c 0,-63 52,-114 115,-114 z"
     id="path97"
     style="clip-rule:evenodd;fill-rule:evenodd;image-rendering:optimizeQuality;shape-rendering:geometricPrecision;text-rendering:geometricPrecision" /><path
     class="fil2"
     d="m 6991,7427 h 1666 c 93,0 167,77 167,171 v 435 c 0,95 -74,171 -167,171 H 6991 Z"
     id="path153"
     style="clip-rule:evenodd;fill-rule:evenodd;image-rendering:optimizeQuality;shape-rendering:geometricPrecision;text-rendering:geometricPrecision" /><path
     class="fil8"
     d="m 6983,8842 h 1671 c 94,0 191,80 191,180 v 466 c 0,99 -97,180 -191,180 H 6983 Z"
     id="path159"
     style="clip-rule:evenodd;fill-rule:evenodd;image-rendering:optimizeQuality;shape-rendering:geometricPrecision;text-rendering:geometricPrecision" /><path
     class="fil2"
     d="m 7918,12166 c 0,122 -99,221 -221,221 -121,0 -220,-99 -220,-221 0,-122 99,-221 220,-221 122,0 221,99 221,221 z"
     id="path235"
     style="clip-rule:evenodd;fill-rule:evenodd;image-rendering:optimizeQuality;shape-rendering:geometricPrecision;text-rendering:geometricPrecision" /><path
     class="fil8"
     d="m 5276,15278 c 0,243 -197,440 -440,440 -243,0 -440,-197 -440,-440 0,-243 197,-439 440,-439 243,0 440,196 440,439 z"
     id="path71"
     style="clip-rule:evenodd;fill-rule:evenodd;image-rendering:optimizeQuality;shape-rendering:geometricPrecision;text-rendering:geometricPrecision" /><path
     class="fil0"
     d="m 4313,13757 h 4312 c 33,0 61,27 61,60 v 214 c 0,34 -28,61 -61,61 H 4313 c -34,0 -61,-27 -61,-61 v -214 c 0,-33 27,-60 61,-60 z"
     id="path141"
     style="clip-rule:evenodd;fill-rule:evenodd;image-rendering:optimizeQuality;shape-rendering:geometricPrecision;text-rendering:geometricPrecision" /><rect
     class="fil0"
     x="9991"
     y="12661"
     width="155"
     height="1636"
     rx="47"
     ry="45"
     id="rect163"
     style="clip-rule:evenodd;fill-rule:evenodd;image-rendering:optimizeQuality;shape-rendering:geometricPrecision;text-rendering:geometricPrecision" /><rect
     class="fil0"
     x="10342"
     y="12661"
     width="155"
     height="1636"
     rx="47"
     ry="45"
     id="rect167"
     style="clip-rule:evenodd;fill-rule:evenodd;image-rendering:optimizeQuality;shape-rendering:geometricPrecision;text-rendering:geometricPrecision" /><path
     class="fil0"
     d="m 10758,12661 h 62 c 25,0 46,21 46,46 v 1964 c 0,26 -21,46 -46,46 h -62 c -26,0 -47,-20 -47,-46 v -1964 c 0,-25 21,-46 47,-46 z"
     id="path171"
     style="clip-rule:evenodd;fill-rule:evenodd;image-rendering:optimizeQuality;shape-rendering:geometricPrecision;text-rendering:geometricPrecision" /><rect
     class="fil0"
     x="11079"
     y="12661"
     width="155"
     height="1636"
     rx="47"
     ry="45"
     id="rect175"
     style="clip-rule:evenodd;fill-rule:evenodd;image-rendering:optimizeQuality;shape-rendering:geometricPrecision;text-rendering:geometricPrecision" /><path
     class="fil0"
     d="m 11513,12661 h 62 c 26,0 47,21 47,46 v 1964 c 0,26 -21,46 -47,46 h -62 c -26,0 -47,-20 -47,-46 v -1964 c 0,-25 21,-46 47,-46 z"
     id="path183"
     style="clip-rule:evenodd;fill-rule:evenodd;image-rendering:optimizeQuality;shape-rendering:geometricPrecision;text-rendering:geometricPrecision" /><rect
     class="fil0"
     x="11835"
     y="12661"
     width="155"
     height="1636"
     rx="47"
     ry="45"
     id="rect187"
     style="clip-rule:evenodd;fill-rule:evenodd;image-rendering:optimizeQuality;shape-rendering:geometricPrecision;text-rendering:geometricPrecision" /><path
     class="fil10"
     d="m 19697,12441 h 44 c 18,0 32,15 32,34 v 481 c 0,19 -14,34 -32,34 h -44 c -18,0 -32,-15 -32,-34 v -481 c 0,-19 14,-34 32,-34 z"
     id="path233"
     style="clip-rule:evenodd;fill-rule:evenodd;image-rendering:optimizeQuality;shape-rendering:geometricPrecision;text-rendering:geometricPrecision" /><g
     id="g215"
     style="clip-rule:evenodd;fill-rule:evenodd;image-rendering:optimizeQuality;shape-rendering:geometricPrecision;text-rendering:geometricPrecision">
   <path
   class="fil10"
   d="m 15945,14197 h 3376 c 60,0 109,50 109,110 v 493 c 0,60 -49,110 -109,110 h -3376 c -60,0 -109,-50 -109,-110 v -493 c 0,-60 49,-110 109,-110 z"
   id="path211" />
   <path
   id="path213"
   class="fil5 str10"
   d="m 15945,14197 h 3376 c 60,0 109,50 109,110 v 493 c 0,60 -49,110 -109,110 h -3376 c -60,0 -109,-50 -109,-110 v -493 c 0,-60 49,-110 109,-110 z" />
  </g><path
     class="fil8"
     d="m 16509,8051 v 0 c 88,0 159,71 159,159 0,88 -71,159 -159,159 -88,0 -159,-71 -159,-159 0,-88 71,-159 159,-159 z"
     id="path123"
     style="clip-rule:evenodd;fill-rule:evenodd;image-rendering:optimizeQuality;shape-rendering:geometricPrecision;text-rendering:geometricPrecision" /><path
     class="fil5 str15"
     d="m 22242,12994 c -638,0 -1155,518 -1155,1156 0,638 517,1156 1155,1156"
     id="path253"
     style="clip-rule:evenodd;fill-rule:evenodd;image-rendering:optimizeQuality;shape-rendering:geometricPrecision;text-rendering:geometricPrecision" /></g><g
   inkscape:groupmode="layer"
   id="layer4"
   inkscape:label="Layer 4"
   style="display:inline"><path
     class="fil10"
     d="m 23855,1711 h 341 c 69,0 125,57 125,126 v 310 c 0,69 -56,126 -125,126 h -341 c -69,0 -125,-57 -125,-126 v -310 c 0,-69 56,-126 125,-126 z"
     id="path135"
     style="clip-rule:evenodd;fill-rule:evenodd;image-rendering:optimizeQuality;shape-rendering:geometricPrecision;text-rendering:geometricPrecision" /><path
     class="fil2"
     d="m 17403,1731 h -474 c -59,0 -107,50 -107,111 v 285 c 0,62 48,112 107,112 h 474 z"
     id="path99"
     style="clip-rule:evenodd;fill-rule:evenodd;image-rendering:optimizeQuality;shape-rendering:geometricPrecision;text-rendering:geometricPrecision" /><path
     class="fil10"
     d="m 6065,1711 h 1539 c 54,0 98,39 98,87 v 388 c 0,48 -44,86 -98,86 H 6065 c -53,0 -97,-38 -97,-86 v -388 c 0,-48 44,-87 97,-87 z"
     id="path127"
     style="clip-rule:evenodd;fill-rule:evenodd;image-rendering:optimizeQuality;shape-rendering:geometricPrecision;text-rendering:geometricPrecision" /><path
     class="fil8"
     d="m 8663,12166 c 0,122 -99,221 -221,221 -122,0 -221,-99 -221,-221 0,-122 99,-221 221,-221 122,0 221,99 221,221 z"
     id="path239"
     style="clip-rule:evenodd;fill-rule:evenodd;image-rendering:optimizeQuality;shape-rendering:geometricPrecision;text-rendering:geometricPrecision" /><path
     class="fil10"
     d="m 2350,13757 h 4312 c 33,0 61,27 61,60 v 214 c 0,34 -28,61 -61,61 H 2350 c -34,0 -61,-27 -61,-61 v -214 c 0,-33 27,-60 61,-60 z"
     id="path143"
     style="clip-rule:evenodd;fill-rule:evenodd;image-rendering:optimizeQuality;shape-rendering:geometricPrecision;text-rendering:geometricPrecision" /><rect
     class="fil10"
     x="9991"
     y="14041"
     width="155"
     height="1475"
     rx="47"
     ry="41"
     id="rect165"
     style="clip-rule:evenodd;fill-rule:evenodd;image-rendering:optimizeQuality;shape-rendering:geometricPrecision;text-rendering:geometricPrecision" /><path
     class="fil10"
     d="m 10389,13433 h 62 c 26,0 47,21 47,46 v 1992 c 0,25 -21,46 -47,46 h -62 c -26,0 -47,-21 -47,-46 v -1992 c 0,-25 21,-46 47,-46 z"
     id="path169"
     style="clip-rule:evenodd;fill-rule:evenodd;image-rendering:optimizeQuality;shape-rendering:geometricPrecision;text-rendering:geometricPrecision" /><path
     class="fil10"
     d="m 10758,14376 h 62 c 25,0 46,21 46,46 v 1049 c 0,25 -21,46 -46,46 h -62 c -26,0 -47,-21 -47,-46 v -1049 c 0,-25 21,-46 47,-46 z"
     id="path173"
     style="clip-rule:evenodd;fill-rule:evenodd;image-rendering:optimizeQuality;shape-rendering:geometricPrecision;text-rendering:geometricPrecision" /><rect
     class="fil10"
     x="11079"
     y="14041"
     width="155"
     height="1475"
     rx="47"
     ry="41"
     id="rect177"
     style="clip-rule:evenodd;fill-rule:evenodd;image-rendering:optimizeQuality;shape-rendering:geometricPrecision;text-rendering:geometricPrecision" /><path
     class="fil10"
     d="m 11513,14376 h 62 c 26,0 47,21 47,46 v 1049 c 0,25 -21,46 -47,46 h -62 c -26,0 -47,-21 -47,-46 v -1049 c 0,-25 21,-46 47,-46 z"
     id="path185"
     style="clip-rule:evenodd;fill-rule:evenodd;image-rendering:optimizeQuality;shape-rendering:geometricPrecision;text-rendering:geometricPrecision" /><rect
     class="fil10"
     x="11835"
     y="14041"
     width="155"
     height="1475"
     rx="47"
     ry="41"
     id="rect189"
     style="clip-rule:evenodd;fill-rule:evenodd;image-rendering:optimizeQuality;shape-rendering:geometricPrecision;text-rendering:geometricPrecision" /><path
     class="fil5 str1"
     d="m 22242,12994 c 639,0 1156,518 1156,1156 0,638 -517,1156 -1156,1156"
     id="path47"
     style="clip-rule:evenodd;fill-rule:evenodd;image-rendering:optimizeQuality;shape-rendering:geometricPrecision;text-rendering:geometricPrecision" /></g><g
   inkscape:groupmode="layer"
   id="layer5"
   inkscape:label="Layer 5"
   style="display:inline"><g
     id="g1086"
     style="clip-rule:evenodd;fill-rule:evenodd;image-rendering:optimizeQuality;shape-rendering:geometricPrecision;text-rendering:geometricPrecision"><path
       class="fil5 str5"
       d="m 17189,2019 c -31,31 -80,31 -111,0 -30,-31 -30,-80 0,-111 31,-30 80,-30 111,0 30,31 30,80 0,111"
       id="path101" /><line
       class="fil5 str5"
       x1="17014"
       y1="2084"
       x2="17078"
       y2="2019"
       id="line103" /></g><path
     class="fil3"
     d="m 17789,2068 c -9,0 -17,0 -25,-2 -8,-1 -15,-3 -21,-5 -7,-3 -13,-5 -18,-9 l 11,-28 c 5,3 10,6 15,8 6,2 12,4 18,5 7,1 13,2 20,2 10,0 18,-2 22,-5 5,-3 8,-7 8,-13 0,-3 -1,-5 -3,-7 -1,-2 -4,-4 -7,-5 -3,-1 -7,-3 -13,-4 l -25,-5 c -15,-3 -25,-8 -32,-15 -7,-7 -11,-17 -11,-29 0,-10 3,-18 9,-26 5,-7 13,-13 22,-17 10,-4 21,-6 34,-6 7,0 15,1 21,2 7,1 13,3 19,6 6,2 11,5 15,9 l -11,27 c -5,-5 -12,-9 -20,-11 -7,-2 -15,-3 -24,-3 -6,0 -12,0 -16,2 -5,1 -8,3 -10,6 -3,3 -4,6 -4,10 0,4 2,8 5,10 3,3 8,5 16,7 l 25,4 c 15,3 26,8 34,15 7,7 10,17 10,28 0,10 -2,18 -8,26 -5,7 -12,13 -22,17 -10,4 -21,6 -34,6 z m 146,0 c -14,0 -25,-2 -35,-7 -10,-5 -17,-11 -22,-20 -5,-8 -8,-18 -8,-30 0,-11 3,-21 8,-30 5,-8 11,-15 20,-20 9,-5 19,-7 30,-7 11,0 20,2 28,6 8,5 15,11 19,20 4,8 7,19 7,30 v 9 h -84 v -18 h 58 l -3,3 c 0,-9 -2,-16 -6,-21 -4,-4 -10,-7 -18,-7 -5,0 -10,2 -14,4 -4,3 -7,6 -9,11 -2,4 -3,10 -3,17 v 2 c 0,8 1,14 3,18 3,5 6,9 11,11 5,2 12,4 19,4 6,0 12,-1 18,-3 6,-1 11,-4 16,-7 l 9,22 c -6,5 -12,8 -20,10 -8,2 -16,3 -24,3 z m 107,0 c -8,0 -15,-1 -22,-4 -6,-4 -11,-8 -15,-13 -4,-6 -5,-12 -5,-18 0,-8 2,-15 6,-20 5,-4 12,-8 21,-10 10,-2 22,-3 38,-3 h 13 v 18 h -12 c -6,0 -11,0 -15,0 -4,1 -8,2 -10,3 -3,1 -5,2 -6,4 -1,1 -2,4 -2,6 0,4 2,8 5,10 3,3 7,4 12,4 5,0 9,-1 12,-3 4,-2 7,-5 9,-9 2,-3 3,-7 3,-12 v -25 c 0,-6 -2,-11 -5,-13 -4,-3 -9,-4 -17,-4 -6,0 -12,1 -19,2 -6,2 -13,5 -20,9 l -9,-23 c 5,-3 10,-5 15,-7 6,-2 12,-4 18,-5 6,-1 13,-1 18,-1 12,0 21,1 29,5 8,3 13,8 17,15 4,7 6,16 6,27 v 65 h -30 v -22 0 c -1,5 -4,9 -7,13 -3,3 -7,6 -12,8 -4,2 -10,3 -16,3 z m 93,-2 v -110 h 32 v 27 h -1 c 2,-9 6,-15 12,-20 6,-6 14,-8 24,-9 l 12,-1 2,30 -21,2 c -8,1 -14,4 -19,8 -4,5 -6,11 -6,18 v 55 z m 149,2 c -12,0 -22,-2 -31,-7 -9,-5 -16,-11 -21,-20 -4,-9 -7,-19 -7,-30 0,-12 3,-22 7,-31 5,-8 12,-15 21,-19 9,-5 19,-7 31,-7 8,0 16,1 23,3 7,2 13,5 17,9 l -9,24 c -4,-3 -8,-5 -13,-7 -5,-1 -9,-2 -14,-2 -9,0 -16,2 -21,7 -5,6 -7,13 -7,23 0,9 2,17 7,22 5,6 12,8 21,8 5,0 9,-1 14,-2 5,-2 9,-4 13,-7 l 9,24 c -4,4 -10,7 -17,9 -8,2 -15,3 -23,3 z m 58,-2 v -157 h 33 v 67 h -1 c 3,-7 8,-12 15,-16 7,-4 14,-6 23,-6 9,0 16,1 22,5 6,3 10,8 13,15 3,7 5,16 5,27 v 65 h -35 v -64 c 0,-5 0,-9 -2,-12 -1,-3 -3,-5 -5,-7 -3,-1 -6,-2 -10,-2 -5,0 -9,1 -13,3 -3,2 -6,5 -8,9 -2,4 -3,8 -3,13 v 60 z"
     id="path105"
     style="clip-rule:evenodd;fill-rule:evenodd;image-rendering:optimizeQuality;shape-rendering:geometricPrecision;text-rendering:geometricPrecision" /><g
     id="g1094"
     style="clip-rule:evenodd;fill-rule:evenodd;image-rendering:optimizeQuality;shape-rendering:geometricPrecision;text-rendering:geometricPrecision"><path
       class="fil1"
       d="m 24025,2020 c 54,0 97,-45 97,-100 0,-55 -43,-99 -97,-99 -54,0 -98,44 -98,99 0,55 44,100 98,100 z m 0,-25 c 40,0 73,-34 73,-75 0,-41 -33,-75 -73,-75 -41,0 -74,34 -74,75 0,41 33,75 74,75 z"
       id="path191" /><path
       class="fil1"
       d="m 24157,2136 c -73,-74 -190,-74 -263,0 -4,5 -12,5 -17,0 -5,-5 -5,-13 0,-18 82,-83 215,-83 297,0 5,5 5,13 0,18 -5,5 -12,5 -17,0 z"
       id="path193" /></g><path
     class="fil4"
     d="m 2645,2092 91,-197 h 36 l 91,197 h -45 l -24,-55 18,14 h -117 l 18,-14 -23,55 z m 108,-151 -36,85 -7,-10 h 88 l -8,10 -36,-85 z m 214,154 c -11,0 -21,-3 -29,-8 -9,-5 -15,-13 -18,-22 h 1 v 27 h -41 v -197 h 44 v 83 h -2 c 3,-8 9,-15 17,-20 8,-5 18,-8 29,-8 12,0 23,3 32,9 9,6 16,15 21,26 5,10 8,23 8,38 0,14 -3,27 -8,38 -5,11 -12,19 -21,25 -9,6 -20,9 -33,9 z m -13,-33 c 10,0 17,-3 23,-10 6,-7 8,-16 8,-29 0,-14 -2,-24 -8,-30 -6,-7 -13,-10 -23,-10 -9,0 -17,3 -23,10 -5,6 -8,16 -8,30 0,13 3,22 8,29 6,7 14,10 23,10 z m 171,33 c -15,0 -28,-3 -39,-9 -11,-6 -20,-14 -26,-25 -6,-11 -9,-24 -9,-38 0,-15 3,-28 9,-39 6,-11 15,-19 26,-25 11,-6 24,-9 39,-9 16,0 29,3 40,9 11,6 19,14 26,25 6,11 9,24 9,39 0,14 -3,27 -9,38 -7,11 -15,19 -26,25 -11,6 -24,9 -40,9 z m 0,-33 c 10,0 18,-4 23,-10 6,-7 9,-17 9,-30 0,-13 -3,-22 -9,-29 -5,-6 -13,-9 -23,-9 -9,0 -17,3 -22,9 -6,7 -9,16 -9,29 0,13 3,23 9,30 5,6 13,10 22,10 z m 156,33 c -11,0 -21,-2 -29,-7 -8,-4 -14,-11 -18,-19 -3,-9 -5,-20 -5,-34 v -82 h 43 v 82 c 0,6 1,10 2,14 2,4 4,7 8,8 3,2 7,3 12,3 5,0 10,-1 15,-4 4,-2 7,-6 10,-11 2,-4 3,-9 3,-15 v -77 h 44 v 139 h -41 v -28 h 2 c -4,10 -10,18 -18,23 -8,5 -17,8 -28,8 z m 190,0 c -20,0 -35,-5 -45,-15 -10,-10 -14,-24 -14,-43 v -51 h -27 v -33 h 28 v -39 h 42 v 39 h 44 v 33 h -44 v 50 c 0,8 2,14 6,18 4,4 10,6 18,6 3,0 6,-1 9,-1 3,-1 6,-2 9,-3 l 6,32 c -4,2 -9,4 -15,5 -5,1 -11,2 -17,2 z m 185,0 c -11,0 -21,-2 -29,-7 -8,-4 -14,-11 -17,-19 -4,-9 -6,-20 -6,-34 v -82 h 43 v 82 c 0,6 1,10 2,14 2,4 4,7 8,8 3,2 7,3 12,3 5,0 10,-1 15,-4 4,-2 7,-6 10,-11 2,-4 3,-9 3,-15 v -77 h 44 v 139 h -41 v -28 h 2 c -4,10 -10,18 -18,23 -8,5 -17,8 -28,8 z m 176,0 c -8,0 -16,-1 -24,-2 -8,-1 -15,-3 -21,-5 -7,-2 -12,-5 -17,-8 l 10,-29 c 5,3 10,5 16,7 5,2 11,4 17,5 6,1 12,1 18,1 9,0 15,-1 19,-3 5,-2 7,-6 7,-10 0,-3 -2,-6 -4,-8 -3,-2 -6,-3 -12,-4 l -30,-4 c -13,-2 -22,-7 -29,-14 -6,-7 -9,-15 -9,-25 0,-9 2,-17 7,-24 5,-7 13,-12 22,-16 10,-4 21,-6 34,-6 7,0 14,1 21,2 7,1 13,3 19,5 6,2 11,5 15,9 l -11,28 c -4,-3 -8,-5 -13,-7 -5,-2 -10,-4 -15,-5 -5,-1 -10,-1 -15,-1 -9,0 -16,1 -20,3 -4,3 -6,6 -6,10 0,3 1,6 4,8 2,2 5,3 10,4 l 30,5 c 14,2 24,6 30,13 7,6 10,15 10,25 0,10 -2,18 -8,25 -5,7 -12,12 -22,15 -9,4 -20,6 -33,6 z"
     id="path53"
     style="clip-rule:evenodd;fill-rule:evenodd;image-rendering:optimizeQuality;shape-rendering:geometricPrecision;text-rendering:geometricPrecision" /><path
     class="fil4"
     d="m 4706,2085 v -197 h 34 l 104,132 h -5 v -132 h 41 v 197 h -34 l -103,-132 h 4 v 132 z m 289,3 c -17,0 -32,-3 -44,-9 -12,-6 -21,-14 -28,-25 -6,-11 -9,-24 -9,-39 0,-13 3,-26 9,-37 6,-11 14,-19 25,-25 11,-7 24,-10 38,-10 14,0 26,3 36,9 10,6 18,14 23,24 6,11 9,24 9,39 v 11 h -105 v -23 h 73 l -4,4 c 0,-12 -3,-20 -8,-26 -5,-6 -13,-9 -22,-9 -7,0 -13,2 -18,5 -5,3 -9,7 -11,13 -3,6 -4,13 -4,21 v 3 c 0,10 1,18 4,24 3,6 8,10 14,13 6,3 14,4 23,4 7,0 15,-1 23,-3 7,-2 14,-5 20,-9 l 12,29 c -8,5 -16,9 -26,12 -10,2 -20,4 -30,4 z m 120,-3 -53,-139 h 43 l 32,95 h -3 l 34,-95 h 30 l 34,95 h -3 l 32,-95 h 42 l -53,139 h -36 l -38,-99 h 12 l -37,99 z m 259,3 c -9,0 -17,-1 -24,-2 -8,-1 -15,-3 -22,-5 -6,-2 -12,-5 -17,-9 l 11,-28 c 5,3 10,5 16,7 5,2 11,4 17,5 6,1 12,1 18,1 9,0 15,-1 19,-3 4,-2 6,-6 6,-10 0,-3 -1,-6 -3,-8 -3,-2 -7,-3 -12,-4 l -30,-5 c -13,-2 -22,-6 -29,-13 -6,-7 -9,-15 -9,-25 0,-9 2,-17 7,-24 5,-7 12,-12 22,-16 10,-4 21,-6 34,-6 7,0 14,1 21,2 6,1 13,3 19,5 5,2 11,5 15,8 l -11,29 c -4,-3 -8,-5 -13,-7 -5,-2 -10,-4 -15,-5 -6,-1 -11,-1 -15,-1 -9,0 -16,1 -20,3 -4,3 -6,6 -6,10 0,3 1,6 3,8 3,2 6,3 11,4 l 30,5 c 13,2 23,6 30,13 7,6 10,14 10,25 0,10 -3,18 -8,25 -5,7 -12,12 -22,15 -9,4 -21,6 -33,6 z"
     id="path55"
     style="clip-rule:evenodd;fill-rule:evenodd;image-rendering:optimizeQuality;shape-rendering:geometricPrecision;text-rendering:geometricPrecision" /><path
     class="fil4"
     d="m 8261,2095 c -11,0 -21,-1 -31,-3 -10,-1 -19,-4 -27,-7 -8,-3 -16,-6 -22,-10 l 13,-35 c 6,4 13,7 20,10 7,2 15,4 23,6 8,1 16,2 24,2 13,0 23,-2 29,-6 6,-4 9,-10 9,-16 0,-4 -1,-7 -3,-10 -2,-2 -5,-4 -9,-6 -4,-2 -10,-3 -17,-4 l -32,-7 c -18,-3 -31,-10 -40,-19 -9,-9 -13,-22 -13,-36 0,-13 3,-24 10,-33 7,-9 17,-16 29,-22 12,-5 27,-7 43,-7 9,0 18,1 26,2 9,2 17,4 24,8 7,3 14,7 19,11 l -14,34 c -7,-6 -15,-11 -25,-14 -9,-3 -20,-4 -31,-4 -8,0 -14,1 -20,3 -5,2 -10,4 -13,8 -3,3 -4,8 -4,12 0,6 2,10 6,13 4,4 11,6 20,8 l 32,6 c 19,4 33,10 42,19 9,9 14,20 14,35 0,12 -4,23 -10,32 -7,10 -17,17 -29,22 -12,5 -26,8 -43,8 z m 184,0 c -17,0 -32,-3 -44,-9 -12,-6 -21,-14 -27,-25 -7,-11 -10,-24 -10,-38 0,-14 3,-27 9,-38 6,-10 15,-19 26,-25 11,-6 23,-10 38,-10 13,0 25,3 35,9 10,6 18,14 24,25 5,10 8,23 8,38 v 11 h -105 v -23 h 73 l -4,4 c 0,-12 -3,-20 -8,-26 -5,-6 -12,-9 -22,-9 -7,0 -13,2 -18,5 -5,3 -8,7 -11,13 -3,6 -4,13 -4,21 v 3 c 0,10 1,18 4,24 3,6 8,10 14,13 6,3 14,5 24,5 7,0 14,-2 22,-4 8,-2 15,-5 21,-9 l 11,29 c -7,5 -16,9 -26,12 -10,3 -20,4 -30,4 z m 87,-3 v -139 h 41 v 35 h -2 c 3,-11 8,-20 16,-26 7,-7 17,-10 29,-11 l 15,-1 3,38 -26,2 c -11,1 -18,5 -24,10 -5,6 -8,13 -8,23 v 69 z m 170,0 -59,-139 h 46 l 36,97 h -5 l 37,-97 h 44 l -60,139 z m 112,-165 v -40 h 47 v 40 z m 2,165 v -139 h 44 v 139 z m 148,3 c -15,0 -29,-3 -40,-9 -11,-6 -20,-14 -26,-25 -6,-11 -9,-24 -9,-39 0,-14 3,-27 9,-38 6,-11 15,-19 26,-25 11,-6 25,-9 40,-9 9,0 19,2 28,5 9,2 16,6 22,11 l -12,30 c -5,-3 -10,-6 -16,-8 -6,-2 -12,-3 -18,-3 -11,0 -20,3 -26,9 -6,7 -9,16 -9,29 0,12 3,21 9,28 6,6 15,10 26,10 6,0 12,-1 18,-3 6,-3 11,-5 16,-9 l 12,31 c -6,4 -13,8 -22,11 -9,3 -19,4 -28,4 z m 143,0 c -17,0 -32,-3 -44,-9 -12,-6 -21,-14 -28,-25 -6,-11 -9,-24 -9,-38 0,-14 3,-27 9,-38 6,-10 15,-19 25,-25 11,-6 24,-10 39,-10 13,0 25,3 35,9 10,6 18,14 24,25 5,10 8,23 8,38 v 11 h -105 v -23 h 73 l -4,4 c 0,-12 -3,-20 -8,-26 -5,-6 -13,-9 -22,-9 -7,0 -13,2 -18,5 -5,3 -9,7 -11,13 -3,6 -4,13 -4,21 v 3 c 0,10 1,18 4,24 3,6 8,10 14,13 6,3 14,5 23,5 8,0 15,-2 23,-4 8,-2 14,-5 20,-9 l 12,29 c -7,5 -16,9 -26,12 -10,3 -20,4 -30,4 z m 142,0 c -8,0 -16,-1 -24,-2 -8,-1 -15,-3 -21,-5 -7,-2 -13,-5 -17,-8 l 10,-29 c 5,3 10,5 16,7 5,2 11,4 17,5 6,1 12,1 18,1 9,0 15,-1 19,-3 4,-2 7,-6 7,-10 0,-3 -2,-6 -4,-8 -3,-2 -7,-3 -12,-4 l -30,-4 c -13,-2 -22,-7 -29,-14 -6,-7 -9,-15 -9,-25 0,-9 2,-17 7,-24 5,-7 13,-12 22,-16 10,-4 21,-6 34,-6 7,0 14,1 21,2 7,1 13,3 19,5 6,2 11,5 15,9 l -11,28 c -4,-3 -8,-5 -13,-7 -5,-2 -10,-4 -15,-5 -5,-1 -10,-1 -15,-1 -9,0 -16,1 -20,3 -4,3 -6,6 -6,10 0,3 1,6 3,8 3,2 6,3 11,4 l 30,5 c 14,2 24,6 30,13 7,6 10,15 10,25 0,10 -2,18 -8,25 -5,7 -12,12 -22,15 -9,4 -20,6 -33,6 z"
     id="path57"
     style="clip-rule:evenodd;fill-rule:evenodd;image-rendering:optimizeQuality;shape-rendering:geometricPrecision;text-rendering:geometricPrecision" /><path
     class="fil4"
     d="m 10234,2111 c -10,0 -21,-1 -31,-3 -9,-1 -18,-4 -27,-7 -8,-3 -15,-6 -22,-11 l 13,-35 c 7,4 13,8 20,10 7,3 15,5 23,6 8,2 16,3 24,3 13,0 23,-2 29,-6 6,-4 9,-10 9,-17 0,-3 -1,-6 -3,-9 -2,-2 -5,-4 -9,-6 -4,-2 -10,-3 -16,-5 l -32,-6 c -19,-4 -32,-10 -41,-19 -8,-10 -13,-22 -13,-37 0,-12 4,-23 11,-32 6,-9 16,-17 28,-22 13,-5 27,-7 43,-7 9,0 18,0 27,2 8,2 16,4 23,7 8,4 14,7 19,12 l -13,33 c -8,-6 -16,-10 -26,-13 -9,-3 -19,-4 -30,-4 -8,0 -15,1 -21,3 -5,1 -10,4 -13,8 -3,3 -4,7 -4,12 0,6 2,10 6,13 4,3 11,6 21,8 l 32,6 c 18,4 32,10 41,19 9,9 14,20 14,35 0,12 -4,23 -10,32 -7,9 -16,17 -29,22 -12,5 -26,8 -43,8 z m 162,0 c -11,0 -21,-2 -29,-7 -8,-4 -13,-11 -17,-20 -4,-8 -6,-19 -6,-33 v -82 h 43 v 82 c 0,6 1,10 3,14 1,4 3,6 7,8 3,2 7,3 12,3 6,0 10,-1 15,-4 4,-2 7,-6 10,-11 2,-4 3,-10 3,-16 v -76 h 44 v 139 h -41 v -28 h 2 c -4,10 -10,17 -18,23 -8,5 -17,8 -28,8 z m 121,47 v -189 h 41 v 27 h -1 c 3,-9 9,-16 18,-22 8,-5 18,-8 30,-8 12,0 23,3 32,9 9,6 16,15 21,25 6,11 8,24 8,38 0,15 -2,27 -7,38 -5,11 -12,20 -22,26 -9,6 -20,9 -32,9 -11,0 -21,-3 -29,-8 -8,-5 -13,-12 -17,-20 h 2 v 75 z m 74,-80 c 10,0 18,-3 23,-10 6,-7 9,-17 9,-30 0,-13 -3,-23 -9,-29 -5,-7 -13,-10 -23,-10 -9,0 -17,3 -22,10 -6,6 -9,16 -9,29 0,13 3,23 9,30 5,7 13,10 22,10 z m 104,80 v -189 h 41 v 27 h -1 c 3,-9 9,-16 18,-22 9,-5 18,-8 30,-8 12,0 23,3 32,9 9,6 16,15 22,25 5,11 7,24 7,38 0,15 -2,27 -7,38 -5,11 -12,20 -22,26 -9,6 -20,9 -32,9 -11,0 -21,-3 -29,-8 -8,-5 -13,-12 -17,-20 h 2 v 75 z m 74,-80 c 10,0 18,-3 23,-10 6,-7 9,-17 9,-30 0,-13 -3,-23 -9,-29 -5,-7 -13,-10 -23,-10 -9,0 -17,3 -22,10 -6,6 -9,16 -9,29 0,13 3,23 9,30 5,7 13,10 22,10 z m 172,33 c -15,0 -28,-3 -40,-9 -11,-6 -19,-15 -25,-25 -7,-11 -10,-24 -10,-39 0,-14 3,-27 10,-38 6,-11 14,-19 25,-25 12,-6 25,-9 40,-9 15,0 28,3 39,9 11,6 20,14 26,25 6,11 9,24 9,38 0,15 -3,28 -9,39 -6,10 -15,19 -26,25 -11,6 -24,9 -39,9 z m 0,-34 c 9,0 17,-3 23,-10 5,-6 8,-16 8,-29 0,-13 -3,-22 -8,-29 -6,-6 -14,-9 -23,-9 -10,0 -17,3 -23,9 -6,7 -9,16 -9,29 0,13 3,23 9,29 6,7 13,10 23,10 z m 103,31 v -139 h 41 v 34 h -1 c 2,-11 7,-19 15,-26 7,-6 17,-9 29,-10 l 15,-1 3,38 -26,2 c -10,1 -18,4 -24,10 -5,6 -8,13 -8,23 v 69 z m 200,3 c -20,0 -35,-5 -45,-15 -9,-10 -14,-24 -14,-43 v -52 h -27 v -32 h 28 v -39 h 42 v 39 h 44 v 32 h -44 v 50 c 0,9 2,15 6,19 4,4 10,6 18,6 3,0 6,-1 9,-1 3,-1 6,-2 9,-3 l 6,32 c -4,2 -9,4 -15,5 -5,1 -11,2 -17,2 z"
     id="path59"
     style="clip-rule:evenodd;fill-rule:evenodd;image-rendering:optimizeQuality;shape-rendering:geometricPrecision;text-rendering:geometricPrecision" /><path
     class="fil4"
     d="m 6377,2089 c -21,0 -39,-4 -54,-12 -15,-8 -27,-20 -35,-35 -8,-16 -12,-34 -12,-54 0,-21 4,-39 12,-54 8,-15 20,-27 35,-35 15,-9 33,-13 54,-13 13,0 26,2 38,6 12,4 21,9 29,16 l -14,35 c -8,-6 -17,-11 -25,-14 -8,-3 -17,-4 -26,-4 -18,0 -32,5 -42,16 -10,11 -15,26 -15,47 0,20 5,35 15,46 10,11 24,16 42,16 9,0 18,-1 26,-4 8,-3 17,-7 25,-14 l 14,35 c -8,7 -17,13 -29,16 -12,4 -25,6 -38,6 z m 154,0 c -15,0 -28,-3 -39,-9 -11,-6 -20,-14 -26,-25 -6,-11 -9,-24 -9,-38 0,-15 3,-28 9,-38 6,-11 15,-20 26,-25 11,-6 24,-9 39,-9 15,0 28,3 39,9 11,5 20,14 26,25 6,10 9,23 9,38 0,14 -3,27 -9,38 -6,11 -15,19 -26,25 -11,6 -24,9 -39,9 z m 0,-33 c 10,0 17,-3 23,-10 6,-7 8,-17 8,-29 0,-13 -2,-23 -8,-29 -6,-7 -13,-10 -23,-10 -9,0 -17,3 -23,10 -5,6 -8,16 -8,29 0,12 3,22 8,29 6,7 14,10 23,10 z m 104,30 v -138 h 41 v 26 h -2 c 5,-9 12,-17 20,-22 9,-5 19,-7 29,-7 12,0 21,2 28,6 8,5 13,11 17,20 4,9 6,20 6,34 v 81 h -44 v -80 c 0,-6 -1,-11 -2,-15 -2,-4 -4,-7 -7,-9 -4,-2 -8,-3 -13,-3 -6,0 -11,1 -15,4 -5,3 -8,6 -11,11 -2,5 -4,10 -4,16 v 76 z m 243,3 c -20,0 -35,-5 -45,-15 -9,-9 -14,-24 -14,-43 v -51 h -27 v -32 h 28 v -40 h 42 v 40 h 44 v 32 h -44 v 50 c 0,8 2,14 6,18 4,4 10,6 18,6 3,0 6,0 9,-1 3,-1 6,-1 9,-2 l 6,31 c -4,3 -9,4 -15,5 -5,2 -11,2 -17,2 z m 100,0 c -10,0 -19,-2 -27,-6 -8,-4 -15,-9 -19,-16 -5,-7 -7,-14 -7,-23 0,-10 2,-18 8,-24 6,-6 14,-10 26,-13 12,-3 28,-4 48,-4 h 17 v 22 h -16 c -7,0 -13,1 -19,1 -5,1 -9,2 -12,3 -4,1 -6,3 -8,5 -1,3 -2,5 -2,8 0,6 2,10 6,13 4,3 9,5 16,5 5,0 10,-2 15,-4 4,-3 8,-6 10,-11 3,-4 5,-9 5,-15 v -31 c 0,-8 -3,-14 -7,-18 -4,-3 -12,-5 -21,-5 -8,0 -15,1 -24,4 -8,2 -17,5 -25,10 l -12,-29 c 6,-3 12,-6 20,-9 7,-2 14,-4 22,-5 8,-2 16,-2 23,-2 14,0 26,2 36,6 10,4 17,11 22,20 5,8 7,20 7,34 v 81 h -38 v -27 0 c -2,6 -4,11 -8,16 -4,4 -9,8 -15,10 -6,3 -13,4 -21,4 z m 185,0 c -15,0 -28,-3 -39,-9 -11,-6 -20,-14 -26,-25 -6,-11 -9,-24 -9,-38 0,-15 3,-28 9,-39 6,-10 15,-19 26,-25 11,-5 24,-8 39,-8 10,0 19,1 29,4 9,3 16,6 22,11 l -12,31 c -5,-4 -10,-7 -16,-9 -7,-2 -12,-3 -18,-3 -11,0 -20,3 -26,10 -6,6 -9,16 -9,28 0,12 3,21 9,28 6,7 15,10 26,10 6,0 11,-1 18,-3 6,-2 11,-5 15,-9 l 13,31 c -6,5 -14,8 -23,11 -9,3 -18,4 -28,4 z m 127,0 c -8,0 -16,0 -24,-2 -8,-1 -15,-2 -21,-5 -7,-2 -12,-5 -17,-8 l 10,-29 c 5,3 10,6 16,8 6,2 12,3 18,4 6,1 12,2 17,2 9,0 16,-1 20,-4 4,-2 6,-5 6,-9 0,-4 -1,-7 -4,-8 -3,-2 -6,-4 -11,-4 l -31,-5 c -13,-2 -22,-7 -28,-13 -7,-7 -10,-16 -10,-26 0,-9 2,-17 7,-24 6,-6 13,-12 22,-15 10,-4 21,-6 35,-6 7,0 13,0 20,1 7,2 13,3 19,5 6,3 11,5 15,9 l -11,28 c -3,-3 -8,-5 -13,-7 -4,-2 -10,-3 -15,-4 -5,-2 -10,-2 -15,-2 -9,0 -16,1 -20,4 -4,2 -6,5 -6,10 0,3 1,5 4,7 2,2 6,4 10,4 l 30,5 c 14,2 24,7 30,13 7,6 10,15 10,26 0,9 -2,17 -7,24 -6,7 -13,12 -23,16 -9,3 -20,5 -33,5 z"
     id="path129"
     style="clip-rule:evenodd;fill-rule:evenodd;image-rendering:optimizeQuality;shape-rendering:geometricPrecision;text-rendering:geometricPrecision" /><path
     class="fil2"
     d="m 2425,3634 v -197 h 79 c 22,0 41,3 56,11 16,8 28,19 36,34 8,14 12,32 12,53 0,21 -4,39 -12,53 -8,15 -20,26 -36,34 -15,8 -34,12 -56,12 z m 44,-37 h 32 c 20,0 36,-5 46,-16 10,-10 15,-25 15,-46 0,-21 -5,-36 -15,-46 -11,-11 -26,-16 -46,-16 h -32 z m 247,40 c -17,0 -31,-3 -44,-9 -12,-6 -21,-15 -27,-25 -7,-11 -10,-24 -10,-39 0,-14 3,-26 9,-37 6,-11 15,-19 26,-25 11,-7 23,-10 38,-10 14,0 25,3 35,9 10,5 18,14 24,24 5,11 8,24 8,38 v 12 h -105 v -24 h 73 l -4,5 c 0,-12 -2,-21 -8,-26 -5,-6 -12,-9 -22,-9 -7,0 -13,1 -17,5 -5,3 -9,7 -12,13 -3,6 -4,13 -4,21 v 3 c 0,10 2,17 5,23 3,7 7,11 13,14 7,3 14,4 24,4 7,0 14,-1 22,-3 8,-2 15,-5 21,-9 l 11,28 c -7,6 -16,10 -26,12 -10,3 -20,5 -30,5 z m 97,-3 v -107 h -27 v -32 h 38 l -11,10 v -7 c 0,-20 5,-35 16,-46 12,-10 29,-15 51,-17 h 13 l 3,31 -12,1 c -7,0 -12,1 -17,3 -4,2 -7,5 -8,8 -2,3 -3,8 -3,13 v 8 l -3,-4 h 100 v 139 h -44 v -107 h -53 v 107 z m 95,-165 v -40 h 46 v 40 z m 81,165 v -139 h 41 v 27 h -2 c 5,-10 11,-17 20,-22 9,-5 18,-8 29,-8 11,0 21,2 28,7 8,4 13,10 17,19 4,9 5,20 5,34 v 82 h -43 v -80 c 0,-7 -1,-12 -3,-16 -1,-4 -4,-7 -7,-9 -3,-1 -7,-2 -12,-2 -6,0 -11,1 -16,3 -4,3 -8,7 -10,11 -3,5 -4,11 -4,17 v 76 z m 172,-165 v -41 h 47 v 41 z m 2,165 v -139 h 44 v 139 z m 149,3 c -21,0 -36,-5 -45,-15 -10,-10 -15,-24 -15,-43 v -52 h -26 v -32 h 27 v -39 h 42 v 39 h 44 v 32 h -44 v 50 c 0,8 2,14 6,18 4,4 10,6 18,6 3,0 6,0 9,-1 3,0 6,-1 10,-2 l 6,32 c -5,2 -10,4 -15,5 -6,1 -12,2 -17,2 z m 50,-168 v -41 h 47 v 41 z m 2,165 v -139 h 43 v 139 z m 147,3 c -16,0 -29,-3 -40,-9 -11,-6 -20,-15 -26,-26 -6,-10 -9,-23 -9,-38 0,-14 3,-27 9,-38 6,-11 15,-19 26,-25 11,-6 24,-9 40,-9 15,0 28,3 39,9 11,6 20,14 26,25 6,11 9,24 9,38 0,15 -3,28 -9,38 -6,11 -15,20 -26,26 -11,6 -24,9 -39,9 z m 0,-34 c 9,0 17,-3 22,-10 6,-6 9,-16 9,-29 0,-13 -3,-23 -9,-29 -5,-6 -13,-10 -22,-10 -10,0 -18,4 -23,10 -6,6 -9,16 -9,29 0,13 3,23 9,29 5,7 13,10 23,10 z m 103,31 v -139 h 41 v 27 h -1 c 4,-10 11,-17 20,-22 8,-5 18,-8 29,-8 11,0 20,2 28,7 7,4 13,10 17,19 3,9 5,20 5,34 v 82 h -43 v -80 c 0,-7 -1,-12 -3,-16 -1,-4 -4,-7 -7,-9 -3,-1 -7,-2 -12,-2 -6,0 -11,1 -16,3 -4,3 -8,7 -10,11 -3,5 -4,11 -4,17 v 76 z m 323,3 c -15,0 -28,-3 -39,-9 -12,-6 -20,-15 -26,-26 -6,-10 -9,-23 -9,-38 0,-14 3,-27 9,-38 6,-11 14,-19 26,-25 11,-6 24,-9 39,-9 15,0 28,3 39,9 11,6 20,14 26,25 6,11 9,24 9,38 0,15 -3,28 -9,38 -6,11 -15,20 -26,26 -11,6 -24,9 -39,9 z m 0,-34 c 10,0 17,-3 23,-10 6,-6 8,-16 8,-29 0,-13 -2,-23 -8,-29 -6,-6 -13,-10 -23,-10 -9,0 -17,4 -23,10 -5,6 -8,16 -8,29 0,13 3,23 8,29 6,7 14,10 23,10 z m 112,31 v -107 h -26 v -32 h 39 l -13,12 v -8 c 0,-21 6,-36 17,-47 12,-10 29,-15 52,-17 h 17 l 2,31 -16,1 c -7,0 -12,1 -17,3 -4,2 -7,5 -9,8 -2,3 -3,7 -3,13 v 8 l -5,-4 h 44 v 32 h -38 v 107 z m 254,3 c -20,0 -35,-5 -45,-15 -10,-10 -15,-24 -15,-43 v -52 h -26 v -32 h 28 v -39 h 42 v 39 h 43 v 32 h -43 v 50 c 0,8 2,14 6,18 3,4 10,6 18,6 3,0 5,0 9,-1 3,0 6,-1 9,-2 l 6,32 c -4,2 -9,4 -15,5 -6,1 -11,2 -17,2 z m 66,47 30,-66 v 22 l -62,-145 h 46 l 36,97 h -5 l 37,-97 h 44 l -81,189 z m 141,0 v -189 h 41 v 27 h -1 c 3,-9 9,-17 18,-22 8,-5 18,-8 29,-8 13,0 24,3 33,9 9,6 16,14 21,25 5,11 8,24 8,38 0,15 -2,27 -7,38 -5,11 -12,20 -22,26 -9,6 -20,9 -33,9 -10,0 -20,-3 -28,-8 -8,-5 -13,-12 -17,-20 h 2 v 75 z m 74,-80 c 10,0 18,-3 23,-10 6,-7 9,-17 9,-30 0,-13 -3,-23 -9,-29 -5,-7 -13,-10 -23,-10 -9,0 -17,3 -22,10 -6,6 -9,16 -9,29 0,13 3,23 9,30 5,7 13,10 22,10 z m 172,33 c -15,0 -29,-3 -40,-9 -11,-6 -20,-15 -26,-26 -6,-10 -9,-23 -9,-38 0,-14 3,-27 9,-38 6,-11 15,-19 26,-25 11,-6 25,-9 40,-9 15,0 28,3 39,9 11,6 20,14 26,25 6,11 9,24 9,38 0,15 -3,28 -9,38 -6,11 -15,20 -26,26 -11,6 -24,9 -39,9 z m 0,-34 c 9,0 17,-3 22,-10 6,-6 9,-16 9,-29 0,-13 -3,-23 -9,-29 -5,-6 -13,-10 -22,-10 -10,0 -17,4 -23,10 -6,6 -9,16 -9,29 0,13 3,23 9,29 6,7 13,10 23,10 z m 168,84 c -12,0 -24,-1 -35,-4 -11,-3 -21,-7 -30,-13 l 12,-31 c 5,3 10,6 16,8 6,3 11,4 17,5 7,1 12,2 18,2 13,0 22,-3 29,-9 6,-5 10,-14 10,-25 v -19 0 c -3,8 -9,15 -17,20 -9,5 -18,8 -29,8 -13,0 -23,-3 -33,-8 -9,-6 -17,-14 -22,-24 -5,-11 -8,-23 -8,-36 0,-14 3,-26 8,-36 5,-11 13,-19 22,-24 10,-6 20,-9 33,-9 11,0 21,3 29,8 8,5 14,12 17,21 h -1 v -26 h 42 v 121 c 0,15 -3,28 -9,39 -6,10 -15,18 -26,24 -12,5 -26,8 -43,8 z m 3,-91 c 10,0 18,-3 23,-9 6,-7 9,-15 9,-27 0,-11 -3,-19 -9,-26 -5,-6 -13,-9 -23,-9 -9,0 -17,3 -23,9 -6,7 -9,15 -9,26 0,12 3,20 9,27 6,6 14,9 23,9 z m 111,38 v -139 h 40 v 34 h -1 c 3,-11 8,-19 15,-26 8,-6 18,-10 30,-10 l 15,-1 3,38 -26,2 c -11,1 -19,4 -24,10 -6,6 -8,13 -8,23 v 69 z m 169,3 c -10,0 -19,-2 -27,-6 -8,-4 -15,-10 -19,-16 -5,-7 -7,-15 -7,-23 0,-10 2,-18 8,-25 6,-6 14,-10 26,-13 12,-3 28,-4 48,-4 h 17 v 23 h -16 c -7,0 -13,0 -19,1 -5,0 -9,1 -12,3 -4,1 -6,3 -8,5 -1,2 -2,5 -2,8 0,5 2,9 6,12 4,3 9,5 16,5 5,0 10,-1 15,-4 4,-2 8,-6 11,-10 2,-5 4,-10 4,-16 v -31 c 0,-8 -3,-14 -7,-17 -4,-4 -12,-5 -21,-5 -8,0 -15,1 -24,3 -8,2 -17,6 -25,10 l -11,-28 c 5,-4 11,-7 19,-9 7,-3 14,-5 22,-6 8,-1 16,-2 23,-2 14,0 26,2 36,6 10,5 17,11 22,20 5,9 7,20 7,34 v 82 h -38 v -28 0 c -1,6 -4,11 -8,16 -4,5 -9,8 -15,11 -6,2 -13,4 -21,4 z m 118,47 v -189 h 41 v 27 h -2 c 4,-9 10,-17 18,-22 9,-5 19,-8 30,-8 12,0 23,3 32,9 10,6 17,14 22,25 5,11 7,24 7,38 0,15 -2,27 -7,38 -5,11 -12,20 -21,26 -9,6 -20,9 -33,9 -11,0 -20,-3 -28,-8 -8,-5 -14,-12 -17,-20 h 1 v 75 z m 74,-80 c 9,0 17,-3 23,-10 5,-7 8,-17 8,-30 0,-13 -3,-23 -8,-29 -6,-7 -14,-10 -23,-10 -10,0 -17,3 -23,10 -6,6 -9,16 -9,29 0,13 3,23 9,30 6,7 13,10 23,10 z m 104,30 v -197 h 42 v 84 h -2 c 4,-9 11,-16 19,-21 9,-5 19,-8 29,-8 12,0 21,2 28,7 7,4 13,10 17,19 4,9 6,20 6,34 v 82 h -44 v -80 c 0,-7 -1,-12 -2,-16 -2,-4 -4,-7 -8,-9 -3,-1 -7,-2 -12,-2 -6,0 -11,1 -15,3 -5,3 -8,7 -11,11 -2,5 -4,11 -4,17 v 76 z m 184,50 30,-66 v 22 l -62,-145 h 46 l 36,97 h -5 l 37,-97 h 44 l -81,189 z"
     id="path14"
     style="clip-rule:evenodd;fill-rule:evenodd;image-rendering:optimizeQuality;shape-rendering:geometricPrecision;text-rendering:geometricPrecision" /><path
     class="fil4"
     d="m 7448,7913 v -197 h 92 c 21,0 38,4 50,13 12,9 17,22 17,38 0,11 -3,21 -9,29 -6,8 -15,13 -25,16 v -2 c 8,1 15,4 21,8 6,4 10,9 14,16 3,6 5,14 5,23 0,12 -3,22 -9,30 -5,8 -13,15 -24,19 -10,5 -23,7 -37,7 z m 43,-34 h 47 c 5,0 8,0 12,-1 3,0 6,-1 9,-3 2,-1 4,-3 6,-5 2,-2 3,-4 4,-7 0,-3 1,-6 1,-9 0,-3 -1,-6 -2,-9 0,-2 -2,-5 -3,-6 -2,-2 -4,-4 -6,-5 -3,-2 -6,-3 -9,-3 -4,-1 -7,-1 -12,-1 h -47 z m 0,-83 h 43 c 10,0 18,-2 23,-6 5,-4 8,-9 8,-17 0,-8 -3,-14 -8,-18 -5,-4 -13,-6 -23,-6 h -43 z m 207,120 c -12,0 -22,-2 -29,-7 -8,-4 -14,-11 -18,-19 -4,-9 -6,-20 -6,-34 v -82 h 44 v 82 c 0,6 0,10 2,14 1,4 4,6 7,8 3,2 8,3 13,3 5,0 10,-1 14,-4 4,-2 8,-6 10,-11 3,-4 4,-10 4,-16 v -76 h 43 v 139 h -41 v -28 h 3 c -5,10 -11,18 -19,23 -7,5 -17,8 -27,8 z m 190,0 c -21,0 -36,-5 -45,-15 -10,-10 -15,-24 -15,-43 v -51 h -26 v -33 h 27 v -39 h 43 v 39 h 43 v 33 h -43 v 50 c 0,8 1,14 5,18 4,4 10,6 19,6 2,0 5,-1 8,-1 3,-1 7,-2 10,-3 l 6,32 c -5,2 -10,4 -15,5 -6,1 -11,2 -17,2 z m 111,0 c -21,0 -36,-5 -45,-15 -10,-10 -15,-24 -15,-43 v -51 h -26 v -33 h 27 v -39 h 42 v 39 h 44 v 33 h -44 v 50 c 0,8 2,14 6,18 4,4 10,6 19,6 2,0 5,-1 8,-1 3,-1 7,-2 10,-3 l 6,32 c -5,2 -10,4 -15,5 -6,1 -12,2 -17,2 z m 118,0 c -15,0 -29,-3 -40,-9 -11,-6 -20,-15 -26,-25 -6,-11 -9,-24 -9,-39 0,-14 3,-27 9,-38 6,-11 15,-19 26,-25 11,-6 25,-9 40,-9 15,0 28,3 39,9 11,6 20,14 26,25 6,11 9,24 9,38 0,15 -3,28 -9,39 -6,10 -15,19 -26,25 -11,6 -24,9 -39,9 z m 0,-33 c 9,0 17,-4 22,-11 6,-6 9,-16 9,-29 0,-13 -3,-22 -9,-29 -5,-6 -13,-9 -22,-9 -10,0 -17,3 -23,9 -6,7 -9,16 -9,29 0,13 3,23 9,29 6,7 13,11 23,11 z m 103,30 v -139 h 41 v 27 h -1 c 4,-10 11,-17 20,-22 8,-5 18,-8 29,-8 11,0 20,2 28,7 7,4 13,11 17,19 3,9 5,21 5,34 v 82 h -43 v -80 c 0,-7 -1,-12 -3,-16 -1,-3 -4,-6 -7,-8 -3,-2 -7,-3 -12,-3 -6,0 -11,1 -16,4 -4,2 -8,6 -10,11 -3,4 -4,10 -4,16 v 76 z"
     id="path155"
     style="clip-rule:evenodd;fill-rule:evenodd;image-rendering:optimizeQuality;shape-rendering:geometricPrecision;text-rendering:geometricPrecision" /><path
     class="fil2"
     d="m 2448,4471 v -197 h 34 l 104,132 h -4 v -132 h 41 v 197 h -35 l -102,-132 h 4 v 132 z m 267,3 c -11,0 -21,-3 -29,-7 -8,-4 -14,-11 -18,-20 -3,-8 -5,-19 -5,-33 v -82 h 43 v 82 c 0,5 1,10 2,14 2,4 4,6 8,8 3,2 7,3 12,3 5,0 10,-1 14,-4 5,-3 8,-6 11,-11 2,-5 3,-10 3,-16 v -76 h 44 v 139 h -41 v -28 h 2 c -4,10 -10,17 -18,23 -8,5 -17,8 -28,8 z m 121,-3 v -139 h 41 v 26 h -1 c 4,-9 11,-16 20,-21 8,-5 18,-8 29,-8 11,0 20,2 28,7 7,4 13,10 16,19 4,9 6,20 6,34 v 82 h -44 v -80 c 0,-7 0,-12 -2,-16 -2,-4 -4,-7 -7,-9 -3,-2 -7,-2 -12,-2 -6,0 -12,1 -16,3 -5,3 -8,7 -11,11 -2,5 -3,11 -3,17 v 76 z m 173,-165 v -41 h 47 v 41 z m 2,165 v -139 h 43 v 139 z m 148,3 c -20,0 -35,-5 -45,-15 -9,-10 -14,-24 -14,-43 v -52 h -27 v -32 h 28 v -39 h 42 v 39 h 44 v 32 h -44 v 50 c 0,8 2,14 6,18 4,4 10,6 18,6 3,0 6,0 9,-1 3,0 6,-1 9,-2 l 6,32 c -4,2 -9,4 -15,5 -5,1 -11,2 -17,2 z m 118,0 c -15,0 -28,-3 -39,-9 -11,-6 -20,-15 -26,-26 -6,-11 -9,-23 -9,-38 0,-14 3,-27 9,-38 6,-11 15,-19 26,-25 11,-6 24,-9 39,-9 15,0 28,3 39,9 11,6 20,14 26,25 6,11 9,24 9,38 0,15 -3,27 -9,38 -6,11 -15,20 -26,26 -11,6 -24,9 -39,9 z m 0,-34 c 10,0 17,-3 23,-10 6,-6 8,-16 8,-29 0,-13 -2,-23 -8,-29 -6,-6 -13,-10 -23,-10 -9,0 -17,4 -23,10 -5,6 -8,16 -8,29 0,13 3,23 8,29 6,7 14,10 23,10 z m 261,34 c -11,0 -21,-1 -31,-3 -10,-2 -19,-4 -27,-7 -9,-3 -16,-7 -22,-11 l 13,-35 c 6,4 13,7 20,10 7,3 14,5 22,6 8,2 16,2 25,2 13,0 22,-2 28,-6 6,-4 9,-9 9,-16 0,-3 -1,-6 -2,-9 -2,-3 -5,-5 -10,-6 -4,-2 -9,-3 -16,-5 l -32,-6 c -18,-4 -32,-10 -40,-19 -9,-10 -13,-22 -13,-37 0,-12 3,-23 10,-32 7,-10 16,-17 29,-22 12,-5 26,-8 42,-8 10,0 18,1 27,3 9,2 17,4 24,7 7,3 13,7 19,12 l -14,33 c -7,-6 -16,-10 -25,-13 -10,-3 -20,-4 -31,-4 -8,0 -15,1 -20,2 -6,2 -10,5 -13,9 -3,3 -5,7 -5,12 0,5 2,10 6,13 4,3 11,6 21,8 l 32,6 c 19,4 32,10 42,19 9,8 13,20 13,35 0,12 -3,23 -10,32 -7,9 -16,17 -28,22 -12,5 -27,8 -43,8 z m 158,0 c -10,0 -20,-2 -28,-6 -8,-4 -14,-10 -19,-16 -5,-7 -7,-15 -7,-23 0,-10 3,-18 9,-25 5,-6 14,-10 26,-13 12,-3 28,-4 48,-4 h 16 v 23 h -15 c -8,0 -14,0 -19,1 -5,0 -10,1 -13,3 -3,1 -6,3 -7,5 -2,2 -3,4 -3,8 0,5 2,9 6,12 4,3 9,5 16,5 6,0 11,-1 15,-4 5,-2 8,-6 11,-10 3,-5 4,-10 4,-16 v -31 c 0,-8 -2,-14 -7,-17 -4,-4 -11,-5 -21,-5 -7,0 -15,1 -23,3 -9,2 -17,6 -26,10 l -11,-28 c 6,-4 12,-7 19,-9 7,-3 15,-5 23,-6 7,-1 15,-2 23,-2 14,0 26,2 35,6 10,5 17,11 22,20 5,9 8,20 8,34 v 82 h -39 v -28 h 1 c -2,6 -5,11 -9,16 -4,5 -9,8 -15,11 -6,2 -12,4 -20,4 z m 117,-3 v -139 h 41 v 26 h -1 c 4,-9 11,-16 20,-21 8,-5 18,-8 29,-8 11,0 20,2 28,7 7,4 13,10 16,19 4,9 6,20 6,34 v 82 h -44 v -80 c 0,-7 0,-12 -2,-16 -1,-4 -4,-7 -7,-9 -3,-2 -7,-2 -12,-2 -6,0 -11,1 -16,3 -4,3 -8,7 -10,11 -3,5 -4,11 -4,17 v 76 z m 229,3 c -8,0 -16,-1 -24,-2 -8,-1 -15,-3 -21,-5 -6,-3 -12,-5 -17,-9 l 10,-28 c 5,3 10,5 16,7 6,2 12,4 18,5 6,1 12,1 18,1 8,0 15,-1 19,-3 4,-3 6,-6 6,-10 0,-4 -1,-6 -4,-8 -2,-2 -6,-3 -11,-4 l -31,-5 c -12,-2 -22,-6 -28,-13 -7,-7 -10,-15 -10,-25 0,-9 3,-17 8,-24 5,-7 12,-12 22,-16 9,-4 21,-6 34,-6 7,0 14,1 20,2 7,1 13,3 19,5 6,2 11,5 16,8 l -12,28 c -3,-2 -8,-5 -12,-7 -5,-2 -10,-3 -16,-4 -5,-1 -10,-2 -15,-2 -9,0 -15,2 -19,4 -5,2 -7,6 -7,10 0,3 2,6 4,8 2,2 6,3 11,4 l 30,4 c 13,3 23,7 30,13 6,7 10,15 10,26 0,10 -3,18 -8,25 -6,6 -13,12 -22,15 -10,4 -21,6 -34,6 z m 180,-3 v -37 h 46 v -124 l 20,1 -56,33 -17,-32 65,-38 h 31 v 160 h 43 v 37 z m 225,3 c -16,0 -29,-4 -40,-12 -11,-8 -20,-20 -25,-35 -6,-15 -9,-34 -9,-55 0,-22 3,-41 9,-56 5,-15 14,-26 25,-34 11,-8 24,-12 40,-12 16,0 30,4 41,12 11,8 19,19 25,34 5,15 8,34 8,55 0,22 -3,41 -9,56 -5,15 -13,27 -24,35 -11,8 -25,12 -41,12 z m 0,-36 c 11,0 19,-5 24,-16 5,-11 8,-28 8,-51 0,-22 -3,-39 -8,-49 -5,-11 -13,-16 -24,-16 -11,0 -19,5 -24,16 -5,10 -8,27 -8,50 0,22 3,39 8,50 5,10 13,16 24,16 z"
     id="path255"
     style="clip-rule:evenodd;fill-rule:evenodd;image-rendering:optimizeQuality;shape-rendering:geometricPrecision;text-rendering:geometricPrecision" /><path
     class="fil4"
     d="m 2892,10881 v -197 h 91 c 22,0 38,5 50,13 12,9 18,22 18,38 0,12 -3,21 -10,29 -6,8 -14,14 -24,16 v -2 c 8,1 15,4 20,8 6,4 11,10 14,16 4,7 5,15 5,23 0,12 -3,22 -8,30 -6,9 -14,15 -24,20 -11,4 -23,6 -38,6 z m 43,-33 h 47 c 4,0 8,-1 11,-1 4,-1 7,-2 9,-3 3,-2 5,-4 6,-6 2,-2 3,-4 4,-7 1,-2 1,-5 1,-8 0,-4 0,-7 -1,-9 -1,-3 -2,-5 -4,-7 -1,-2 -4,-4 -6,-5 -2,-1 -5,-2 -9,-3 -3,-1 -7,-1 -11,-1 h -47 z m 0,-83 h 42 c 11,0 19,-2 24,-6 5,-4 7,-10 7,-18 0,-8 -2,-14 -7,-18 -5,-3 -13,-5 -24,-5 h -42 z m 206,119 c -11,0 -21,-2 -29,-6 -8,-5 -14,-11 -17,-20 -4,-9 -6,-20 -6,-33 v -83 h 43 v 83 c 0,5 1,10 3,13 1,4 3,7 7,9 3,2 7,3 12,3 5,0 10,-2 15,-4 4,-3 7,-7 10,-11 2,-5 3,-10 3,-16 v -77 h 44 v 139 h -41 v -27 h 2 c -4,9 -10,17 -18,22 -8,6 -17,8 -28,8 z m 190,0 c -20,0 -35,-5 -45,-15 -9,-10 -14,-24 -14,-43 v -51 h -27 v -33 h 28 v -39 h 42 v 39 h 44 v 33 h -44 v 50 c 0,8 2,14 6,18 4,4 10,6 18,6 3,0 6,0 9,-1 3,-1 6,-1 9,-2 l 6,31 c -4,2 -9,4 -15,5 -5,2 -11,2 -17,2 z m 111,0 c -20,0 -35,-5 -45,-15 -9,-10 -14,-24 -14,-43 v -51 h -27 v -33 h 28 v -39 h 42 v 39 h 44 v 33 h -44 v 50 c 0,8 2,14 6,18 4,4 10,6 18,6 3,0 6,0 9,-1 3,-1 6,-1 9,-2 l 6,31 c -4,2 -9,4 -15,5 -5,2 -11,2 -17,2 z m 118,0 c -15,0 -28,-3 -39,-9 -11,-6 -20,-14 -26,-25 -6,-11 -9,-24 -9,-38 0,-15 3,-28 9,-38 6,-11 15,-20 26,-26 11,-5 24,-8 39,-8 15,0 28,3 39,8 12,6 20,15 26,26 6,10 10,23 10,38 0,14 -4,27 -10,38 -6,11 -14,19 -26,25 -11,6 -24,9 -39,9 z m 0,-33 c 10,0 17,-3 23,-10 6,-7 8,-17 8,-29 0,-13 -2,-23 -8,-29 -6,-7 -13,-10 -23,-10 -9,0 -17,3 -23,10 -5,6 -8,16 -8,29 0,12 3,22 8,29 6,7 14,10 23,10 z m 104,30 v -139 h 41 v 27 h -1 c 4,-9 11,-17 19,-22 9,-5 19,-7 29,-7 12,0 21,2 28,6 8,4 13,11 17,20 4,9 6,20 6,33 v 82 h -44 v -80 c 0,-6 -1,-11 -2,-15 -2,-4 -4,-7 -7,-9 -4,-2 -8,-3 -13,-3 -6,0 -11,1 -15,4 -5,3 -8,6 -11,11 -2,5 -4,10 -4,16 v 76 z"
     id="path93"
     style="clip-rule:evenodd;fill-rule:evenodd;image-rendering:optimizeQuality;shape-rendering:geometricPrecision;text-rendering:geometricPrecision" /><path
     class="fil4"
     d="m 5403,10881 v -197 h 91 c 22,0 39,5 50,13 12,9 18,22 18,38 0,12 -3,21 -9,29 -7,8 -15,14 -25,16 v -2 c 8,1 15,4 21,8 5,4 10,10 13,16 4,7 5,15 5,23 0,12 -2,22 -8,30 -6,9 -14,15 -24,20 -11,4 -23,6 -38,6 z m 43,-33 h 47 c 4,0 8,-1 12,-1 3,-1 6,-2 8,-3 3,-2 5,-4 7,-6 1,-2 3,-4 3,-7 1,-2 1,-5 1,-8 0,-4 0,-7 -1,-9 -1,-3 -2,-5 -4,-7 -1,-2 -3,-4 -6,-5 -2,-1 -5,-2 -8,-3 -4,-1 -8,-1 -12,-1 h -47 z m 0,-83 h 42 c 11,0 19,-2 24,-6 5,-4 7,-10 7,-18 0,-8 -2,-14 -7,-18 -5,-3 -13,-5 -24,-5 h -42 z m 206,119 c -11,0 -21,-2 -29,-6 -7,-5 -13,-11 -17,-20 -4,-9 -6,-20 -6,-33 v -83 h 43 v 83 c 0,5 1,10 3,13 1,4 4,7 7,9 3,2 7,3 12,3 6,0 11,-2 15,-4 4,-3 7,-7 10,-11 2,-5 3,-10 3,-16 v -77 h 44 v 139 h -41 v -27 h 2 c -4,9 -10,17 -18,22 -8,6 -17,8 -28,8 z m 190,0 c -20,0 -35,-5 -45,-15 -9,-10 -14,-24 -14,-43 v -51 h -27 v -33 h 28 v -39 h 42 v 39 h 44 v 33 h -44 v 50 c 0,8 2,14 6,18 4,4 10,6 18,6 3,0 6,0 9,-1 3,-1 6,-1 9,-2 l 7,31 c -5,2 -10,4 -16,5 -5,2 -11,2 -17,2 z m 111,0 c -20,0 -35,-5 -45,-15 -9,-10 -14,-24 -14,-43 v -51 h -27 v -33 h 28 v -39 h 42 v 39 h 44 v 33 h -44 v 50 c 0,8 2,14 6,18 4,4 10,6 18,6 3,0 6,0 9,-1 3,-1 6,-1 9,-2 l 7,31 c -5,2 -10,4 -16,5 -5,2 -11,2 -17,2 z m 118,0 c -15,0 -28,-3 -39,-9 -11,-6 -20,-14 -26,-25 -6,-11 -9,-24 -9,-38 0,-15 3,-28 9,-38 6,-11 15,-20 26,-26 11,-5 24,-8 39,-8 15,0 29,3 40,8 11,6 19,15 25,26 7,10 10,23 10,38 0,14 -3,27 -10,38 -6,11 -14,19 -25,25 -11,6 -25,9 -40,9 z m 0,-33 c 10,0 17,-3 23,-10 6,-7 9,-17 9,-29 0,-13 -3,-23 -9,-29 -6,-7 -13,-10 -23,-10 -9,0 -17,3 -22,10 -6,6 -9,16 -9,29 0,12 3,22 9,29 5,7 13,10 22,10 z m 104,30 v -139 h 41 v 27 h -1 c 4,-9 11,-17 19,-22 9,-5 19,-7 30,-7 11,0 20,2 28,6 7,4 13,11 16,20 4,9 6,20 6,33 v 82 h -44 v -80 c 0,-6 0,-11 -2,-15 -2,-4 -4,-7 -7,-9 -3,-2 -7,-3 -12,-3 -6,0 -12,1 -16,4 -5,3 -8,6 -11,11 -2,5 -3,10 -3,16 v 76 z"
     id="path95"
     style="clip-rule:evenodd;fill-rule:evenodd;image-rendering:optimizeQuality;shape-rendering:geometricPrecision;text-rendering:geometricPrecision" /><path
     class="fil4"
     d="m 7448,9353 v -197 h 92 c 21,0 38,5 50,14 12,9 17,21 17,37 0,12 -3,22 -9,30 -6,7 -15,13 -25,16 v -3 c 8,2 15,4 21,9 6,4 10,9 14,16 3,6 5,14 5,23 0,11 -3,21 -9,30 -5,8 -13,14 -24,19 -10,4 -23,6 -37,6 z m 43,-33 h 47 c 5,0 8,-1 12,-1 3,-1 6,-2 9,-3 2,-2 4,-3 6,-5 2,-2 3,-5 4,-7 0,-3 1,-6 1,-9 0,-3 -1,-6 -2,-9 0,-3 -2,-5 -3,-7 -2,-2 -4,-3 -6,-5 -3,-1 -6,-2 -9,-3 -4,0 -7,-1 -12,-1 h -47 z m 0,-83 h 43 c 10,0 18,-2 23,-6 5,-4 8,-10 8,-18 0,-8 -3,-13 -8,-17 -5,-4 -13,-6 -23,-6 h -43 z m 207,119 c -12,0 -22,-2 -29,-6 -8,-5 -14,-11 -18,-20 -4,-9 -6,-20 -6,-33 v -82 h 44 v 82 c 0,5 0,10 2,14 1,3 4,6 7,8 3,2 8,3 13,3 5,0 10,-2 14,-4 4,-3 8,-6 10,-11 3,-5 4,-10 4,-16 v -76 h 43 v 138 h -41 v -27 h 3 c -5,10 -11,17 -19,22 -7,6 -17,8 -27,8 z m 190,0 c -21,0 -36,-5 -45,-14 -10,-10 -15,-25 -15,-43 v -52 h -26 v -32 h 27 v -40 h 43 v 40 h 43 v 32 h -43 v 50 c 0,8 1,14 5,18 4,4 10,6 19,6 2,0 5,0 8,-1 3,0 7,-1 10,-2 l 6,31 c -5,3 -10,4 -15,6 -6,1 -11,1 -17,1 z m 111,0 c -21,0 -36,-5 -45,-14 -10,-10 -15,-25 -15,-43 v -52 h -26 v -32 h 27 v -40 h 42 v 40 h 44 v 32 h -44 v 50 c 0,8 2,14 6,18 4,4 10,6 19,6 2,0 5,0 8,-1 3,0 7,-1 10,-2 l 6,31 c -5,3 -10,4 -15,6 -6,1 -12,1 -17,1 z m 118,0 c -15,0 -29,-3 -40,-9 -11,-5 -20,-14 -26,-25 -6,-11 -9,-23 -9,-38 0,-15 3,-27 9,-38 6,-11 15,-19 26,-25 11,-6 25,-9 40,-9 15,0 28,3 39,9 11,6 20,14 26,25 6,11 9,23 9,38 0,15 -3,27 -9,38 -6,11 -15,20 -26,25 -11,6 -24,9 -39,9 z m 0,-33 c 9,0 17,-3 22,-10 6,-7 9,-16 9,-29 0,-13 -3,-23 -9,-29 -5,-7 -13,-10 -22,-10 -10,0 -17,3 -23,10 -6,6 -9,16 -9,29 0,13 3,22 9,29 6,7 13,10 23,10 z m 103,30 v -138 h 41 v 26 h -1 c 4,-9 11,-17 20,-22 8,-5 18,-7 29,-7 11,0 20,2 28,6 7,5 13,11 17,20 3,9 5,20 5,34 v 81 h -43 v -80 c 0,-6 -1,-11 -3,-15 -1,-4 -4,-7 -7,-9 -3,-2 -7,-3 -12,-3 -6,0 -11,2 -16,4 -4,3 -8,7 -10,11 -3,5 -4,10 -4,17 v 75 z"
     id="path161"
     style="clip-rule:evenodd;fill-rule:evenodd;image-rendering:optimizeQuality;shape-rendering:geometricPrecision;text-rendering:geometricPrecision" /><path
     class="fil1"
     d="m 5124,12113 v -156 c 0,-18 14,-32 32,-32 17,0 31,14 31,32 v 156 c 0,18 -14,32 -31,32 -18,0 -32,-14 -32,-32 z m 156,-142 c -10,-8 -25,-6 -33,4 -8,10 -6,25 4,33 37,30 58,74 58,121 0,85 -69,154 -153,154 -85,0 -154,-69 -154,-154 0,-47 21,-91 58,-121 11,-8 12,-22 4,-33 -8,-10 -23,-12 -33,-4 -48,39 -76,96 -76,158 0,111 90,201 201,201 110,0 200,-90 200,-201 0,-62 -28,-119 -76,-158 z"
     id="path113"
     style="clip-rule:evenodd;fill-rule:evenodd;image-rendering:optimizeQuality;shape-rendering:geometricPrecision;text-rendering:geometricPrecision" /><path
     class="fil1"
     d="m 6063,12113 v -156 c 0,-18 14,-32 31,-32 18,0 32,14 32,32 v 156 c 0,18 -14,32 -32,32 -17,0 -31,-14 -31,-32 z m 156,-142 c -11,-8 -25,-6 -33,4 -8,10 -7,25 4,33 37,30 58,74 58,121 0,85 -69,154 -154,154 -84,0 -153,-69 -153,-154 0,-47 21,-91 58,-121 10,-8 12,-22 4,-33 -8,-10 -23,-12 -33,-4 -49,39 -76,96 -76,158 0,111 90,201 200,201 111,0 201,-90 201,-201 0,-62 -28,-119 -76,-158 z"
     id="path117"
     style="clip-rule:evenodd;fill-rule:evenodd;image-rendering:optimizeQuality;shape-rendering:geometricPrecision;text-rendering:geometricPrecision" /><path
     class="fil4"
     d="m 2514,12226 v -197 h 91 c 22,0 39,5 50,14 12,9 18,21 18,37 0,12 -3,22 -9,29 -7,8 -15,14 -25,17 v -3 c 8,2 15,4 21,8 5,5 10,10 13,16 4,7 5,15 5,24 0,11 -2,21 -8,29 -6,9 -14,15 -24,20 -11,4 -23,6 -38,6 z m 43,-33 h 47 c 4,0 8,-1 12,-1 3,-1 6,-2 8,-3 3,-2 5,-4 7,-6 1,-2 3,-4 3,-7 1,-2 1,-5 1,-8 0,-4 0,-7 -1,-9 -1,-3 -2,-5 -4,-7 -1,-2 -3,-4 -6,-5 -2,-1 -5,-2 -8,-3 -4,0 -8,-1 -12,-1 h -47 z m 0,-83 h 42 c 11,0 19,-2 24,-6 5,-4 7,-10 7,-18 0,-8 -2,-14 -7,-17 -5,-4 -13,-6 -24,-6 h -42 z"
     id="path131"
     style="clip-rule:evenodd;fill-rule:evenodd;image-rendering:optimizeQuality;shape-rendering:geometricPrecision;text-rendering:geometricPrecision" /><path
     class="fil4"
     d="m 3453,12226 v -197 h 91 c 22,0 38,5 50,14 12,9 18,21 18,37 0,12 -3,22 -10,29 -6,8 -14,14 -24,17 v -3 c 8,2 15,4 20,8 6,5 11,10 14,16 4,7 5,15 5,24 0,11 -3,21 -8,29 -6,9 -14,15 -24,20 -11,4 -23,6 -38,6 z m 43,-33 h 47 c 4,0 8,-1 11,-1 4,-1 7,-2 9,-3 3,-2 5,-4 6,-6 2,-2 3,-4 4,-7 1,-2 1,-5 1,-8 0,-4 0,-7 -1,-9 -1,-3 -2,-5 -4,-7 -1,-2 -4,-4 -6,-5 -2,-1 -5,-2 -9,-3 -3,0 -7,-1 -11,-1 h -47 z m 0,-83 h 42 c 11,0 19,-2 24,-6 5,-4 7,-10 7,-18 0,-8 -2,-14 -7,-17 -5,-4 -13,-6 -24,-6 h -42 z"
     id="path133"
     style="clip-rule:evenodd;fill-rule:evenodd;image-rendering:optimizeQuality;shape-rendering:geometricPrecision;text-rendering:geometricPrecision" /><path
     class="fil2"
     d="m 2377,13405 v -196 h 79 c 22,0 41,4 56,12 16,8 28,19 36,33 8,15 12,32 12,53 0,21 -4,38 -12,53 -8,15 -20,26 -36,34 -15,7 -34,11 -56,11 z m 44,-36 h 32 c 20,0 36,-5 46,-16 10,-10 15,-25 15,-46 0,-20 -5,-36 -15,-46 -11,-10 -26,-15 -46,-15 h -32 z m 240,39 c -15,0 -28,-3 -39,-9 -11,-6 -20,-14 -26,-25 -6,-11 -9,-23 -9,-38 0,-14 3,-27 9,-38 6,-11 15,-19 26,-25 11,-6 24,-8 39,-8 16,0 29,2 40,8 11,6 19,14 26,25 6,11 9,24 9,38 0,15 -3,27 -9,38 -7,11 -15,19 -26,25 -11,6 -24,9 -40,9 z m 0,-33 c 10,0 18,-3 23,-10 6,-7 9,-16 9,-29 0,-13 -3,-22 -9,-29 -5,-6 -13,-9 -23,-9 -9,0 -17,3 -22,9 -6,7 -9,16 -9,29 0,13 3,22 9,29 5,7 13,10 22,10 z m 136,30 -53,-138 h 44 l 32,94 h -4 l 35,-94 h 29 l 35,94 h -3 l 32,-94 h 41 l -52,138 h -37 l -37,-98 h 11 l -37,98 z m 207,0 v -138 h 41 v 27 h -1 c 4,-10 11,-17 20,-22 8,-5 18,-7 29,-7 11,0 20,2 28,6 7,4 13,11 16,20 4,8 6,19 6,33 v 81 h -44 v -79 c 0,-7 0,-12 -2,-16 -2,-3 -4,-6 -7,-8 -3,-2 -7,-3 -12,-3 -6,0 -12,1 -16,4 -4,2 -8,6 -10,11 -3,4 -4,10 -4,16 v 75 z m 226,3 c -18,0 -30,-4 -39,-13 -8,-10 -12,-23 -12,-40 v -146 h 43 v 143 c 0,5 1,9 2,12 1,3 3,6 6,7 3,2 6,3 10,3 3,0 5,0 7,-1 2,0 4,0 7,-1 l 1,33 c -5,1 -9,2 -12,2 -4,1 -8,1 -13,1 z m 112,0 c -15,0 -28,-3 -40,-9 -11,-6 -19,-14 -26,-25 -6,-11 -9,-23 -9,-38 0,-14 3,-27 9,-38 7,-11 15,-19 26,-25 12,-6 25,-8 40,-8 15,0 28,2 39,8 11,6 20,14 26,25 6,11 9,24 9,38 0,15 -3,27 -9,38 -6,11 -15,19 -26,25 -11,6 -24,9 -39,9 z m 0,-33 c 9,0 17,-3 23,-10 5,-7 8,-16 8,-29 0,-13 -3,-22 -8,-29 -6,-6 -14,-9 -23,-9 -10,0 -17,3 -23,9 -6,7 -9,16 -9,29 0,13 3,22 9,29 6,7 13,10 23,10 z m 152,33 c -11,0 -20,-2 -28,-6 -8,-4 -15,-9 -19,-16 -5,-6 -7,-14 -7,-23 0,-10 3,-18 8,-24 6,-6 15,-10 27,-13 12,-3 28,-4 47,-4 h 17 v 23 h -16 c -7,0 -13,0 -18,1 -6,0 -10,1 -13,2 -4,2 -6,3 -8,6 -1,2 -2,4 -2,7 0,6 2,10 6,13 4,3 9,5 16,5 5,0 10,-2 15,-4 4,-3 8,-6 11,-11 2,-4 4,-9 4,-15 v -31 c 0,-8 -2,-14 -7,-17 -4,-3 -11,-5 -21,-5 -7,0 -15,1 -24,3 -8,3 -16,6 -25,11 l -11,-29 c 5,-3 12,-6 19,-9 7,-2 15,-4 22,-5 8,-2 16,-2 23,-2 14,0 26,2 36,6 10,4 17,10 22,19 5,9 7,20 7,34 v 81 h -38 v -27 0 c -1,6 -4,11 -8,16 -4,4 -9,8 -15,10 -6,3 -13,4 -20,4 z m 172,0 c -13,0 -24,-3 -33,-9 -9,-6 -17,-14 -22,-25 -5,-11 -7,-23 -7,-38 0,-14 2,-27 7,-38 5,-10 13,-19 22,-25 9,-5 20,-8 32,-8 11,0 21,2 29,7 8,5 13,12 17,20 h -2 v -83 h 44 v 196 h -41 v -27 h 1 c -4,10 -10,17 -18,22 -8,6 -18,8 -29,8 z m 13,-32 c 9,0 17,-4 22,-10 6,-7 9,-17 9,-30 0,-13 -3,-23 -9,-29 -5,-7 -13,-10 -22,-10 -10,0 -18,3 -23,10 -6,6 -9,16 -9,29 0,13 3,23 9,30 5,6 13,10 23,10 z"
     id="path145"
     style="clip-rule:evenodd;fill-rule:evenodd;image-rendering:optimizeQuality;shape-rendering:geometricPrecision;text-rendering:geometricPrecision" /><path
     class="fil11"
     d="m 7934,13428 c -18,0 -34,-4 -47,-13 -12,-8 -22,-21 -29,-37 -6,-15 -10,-35 -10,-57 0,-24 4,-45 12,-61 7,-17 18,-30 32,-39 15,-9 32,-13 51,-13 8,0 16,1 23,2 8,2 15,5 22,8 7,3 13,8 19,13 l -15,35 c -8,-7 -16,-12 -24,-15 -8,-2 -17,-4 -25,-4 -8,0 -16,1 -22,4 -6,3 -11,7 -16,13 -4,5 -8,12 -10,20 -2,8 -3,17 -3,28 v 16 h -2 c 2,-9 6,-17 10,-23 5,-6 12,-11 19,-14 7,-3 15,-5 24,-5 12,0 23,3 33,9 9,6 17,14 22,24 6,11 8,23 8,36 0,14 -3,27 -9,38 -6,11 -15,19 -25,25 -11,7 -24,10 -38,10 z m -2,-37 c 6,0 12,-2 16,-4 5,-3 9,-7 11,-12 3,-5 4,-11 4,-18 0,-7 -1,-13 -4,-18 -2,-5 -6,-9 -11,-12 -4,-3 -10,-4 -16,-4 -7,0 -13,1 -17,4 -5,3 -9,7 -11,12 -3,5 -4,11 -4,18 0,7 1,13 4,18 2,5 6,9 11,12 5,2 10,4 17,4 z m 176,37 c -18,0 -32,-4 -44,-13 -12,-9 -21,-21 -27,-38 -6,-16 -9,-36 -9,-60 0,-24 3,-44 9,-60 6,-16 15,-28 27,-37 12,-8 26,-12 44,-12 17,0 32,4 44,12 12,9 21,21 27,37 6,16 9,36 9,60 0,24 -3,44 -9,60 -6,17 -15,29 -27,38 -12,8 -27,13 -44,13 z m 0,-39 c 11,0 20,-6 26,-17 5,-12 8,-30 8,-55 0,-25 -3,-43 -8,-54 -6,-11 -15,-17 -26,-17 -12,0 -20,6 -26,17 -6,11 -9,29 -9,54 0,25 3,43 9,55 5,11 14,17 26,17 z m 189,45 -29,-18 124,-214 29,17 z m -31,-96 c -12,0 -22,-2 -30,-8 -9,-5 -15,-13 -20,-23 -4,-9 -6,-21 -6,-34 0,-20 5,-36 15,-48 10,-12 23,-17 41,-17 11,0 22,2 30,8 8,5 15,13 19,22 5,10 7,21 7,35 0,13 -2,25 -7,34 -4,10 -11,18 -19,23 -8,6 -19,8 -30,8 z m 0,-29 c 6,0 11,-3 14,-9 4,-5 5,-15 5,-27 0,-13 -1,-22 -5,-28 -3,-5 -8,-8 -14,-8 -6,0 -11,3 -15,8 -3,5 -5,15 -5,28 0,13 2,22 5,28 4,5 9,8 15,8 z m 157,119 c -12,0 -22,-3 -30,-8 -8,-6 -15,-13 -19,-23 -5,-10 -7,-22 -7,-35 0,-20 5,-36 15,-47 10,-12 24,-18 41,-18 12,0 22,3 30,8 8,5 15,13 19,23 5,9 7,21 7,34 0,13 -2,25 -6,35 -5,10 -11,17 -20,23 -8,5 -18,8 -30,8 z m 0,-30 c 6,0 11,-2 14,-8 4,-6 6,-15 6,-28 0,-13 -2,-22 -6,-27 -3,-6 -8,-9 -14,-9 -6,0 -11,3 -14,8 -4,6 -5,15 -5,28 0,13 1,23 5,28 3,6 8,8 14,8 z"
     id="path147"
     style="clip-rule:evenodd;fill-rule:evenodd;image-rendering:optimizeQuality;shape-rendering:geometricPrecision;text-rendering:geometricPrecision" /><polygon
     class="fil4"
     points="2477,15177 2477,15380 2653,15380 2653,15439 2734,15358 2815,15278 2734,15198 2653,15118 2653,15177 "
     id="polygon65"
     style="clip-rule:evenodd;fill-rule:evenodd;image-rendering:optimizeQuality;shape-rendering:geometricPrecision;text-rendering:geometricPrecision" /><polygon
     class="fil4"
     points="3857,15380 3857,15177 3681,15177 3681,15118 3600,15198 3520,15278 3600,15358 3681,15439 3681,15380 "
     id="polygon69"
     style="clip-rule:evenodd;fill-rule:evenodd;image-rendering:optimizeQuality;shape-rendering:geometricPrecision;text-rendering:geometricPrecision" /><polygon
     class="fil4"
     points="4938,15380 4735,15380 4735,15177 4938,15177 "
     id="polygon73"
     style="clip-rule:evenodd;fill-rule:evenodd;image-rendering:optimizeQuality;shape-rendering:geometricPrecision;text-rendering:geometricPrecision" /><polygon
     class="fil4"
     points="5908,15380 5807,15380 5807,15177 5908,15177 "
     id="polygon77"
     style="clip-rule:evenodd;fill-rule:evenodd;image-rendering:optimizeQuality;shape-rendering:geometricPrecision;text-rendering:geometricPrecision" /><polygon
     class="fil4"
     points="6096,15380 5995,15380 5995,15177 6096,15177 "
     id="polygon79"
     style="clip-rule:evenodd;fill-rule:evenodd;image-rendering:optimizeQuality;shape-rendering:geometricPrecision;text-rendering:geometricPrecision" /><polygon
     class="fil2"
     points="8363,15300 8220,15383 8076,15466 8076,15300 8076,15134 8220,15217 "
     id="polygon83"
     style="clip-rule:evenodd;fill-rule:evenodd;image-rendering:optimizeQuality;shape-rendering:geometricPrecision;text-rendering:geometricPrecision" /><polygon
     class="fil4"
     points="7244,15300 7100,15383 6957,15466 6957,15300 6957,15134 7100,15217 "
     id="polygon87"
     style="clip-rule:evenodd;fill-rule:evenodd;image-rendering:optimizeQuality;shape-rendering:geometricPrecision;text-rendering:geometricPrecision" /><path
     class="fil13"
     d="m 14031,12837 v -33 h 38 v 33 z m 2,133 v -112 h 35 v 112 z"
     id="path249"
     style="clip-rule:evenodd;fill-rule:evenodd;image-rendering:optimizeQuality;shape-rendering:geometricPrecision;text-rendering:geometricPrecision" /><path
     class="fil12"
     d="m 13442,13466 v -125 h 28 v 125 z m 56,0 v -125 h 21 l 66,84 h -3 v -84 h 26 v 125 h -22 l -65,-83 h 3 v 83 z m 138,0 v -125 h 86 v 23 h -58 v 29 h 54 v 23 h -54 v 50 z m 162,2 c -9,0 -18,-1 -25,-4 -8,-4 -14,-8 -20,-14 -5,-5 -10,-12 -13,-20 -3,-8 -4,-17 -4,-26 0,-10 1,-19 4,-27 3,-8 8,-14 13,-20 6,-6 12,-10 20,-13 7,-3 16,-5 25,-5 10,0 18,2 26,5 7,3 14,7 19,13 6,5 10,12 13,20 3,8 4,17 4,26 0,10 -1,19 -4,27 -3,8 -7,15 -13,21 -5,5 -12,10 -19,13 -8,3 -16,4 -26,4 z m 0,-24 c 7,0 13,-2 18,-5 5,-3 9,-8 11,-14 3,-6 4,-13 4,-21 0,-9 -1,-16 -3,-22 -3,-6 -7,-11 -12,-14 -5,-3 -11,-5 -18,-5 -7,0 -13,2 -18,5 -5,3 -8,8 -11,14 -3,6 -4,13 -4,22 0,8 1,15 4,21 3,6 6,11 11,14 5,3 11,5 18,5 z m 87,22 v -125 h 57 c 15,0 25,4 33,10 8,7 12,16 12,28 0,8 -2,14 -5,19 -3,5 -7,10 -13,13 -6,3 -12,4 -20,5 l 1,-2 h 5 c 4,1 8,2 11,4 3,2 6,6 8,10 l 20,38 h -30 l -21,-39 c -1,-2 -3,-3 -4,-5 -2,-1 -4,-2 -6,-3 -2,0 -4,0 -6,0 h -14 v 47 z m 28,-68 h 25 c 7,0 12,-1 16,-4 4,-3 5,-8 5,-13 0,-6 -1,-11 -5,-13 -4,-3 -9,-5 -16,-5 h -25 z m 99,68 v -125 h 26 l 43,79 h -4 l 42,-79 h 26 v 125 h -26 v -82 h 2 l -34,63 h -17 l -34,-63 h 2 v 82 z m 146,0 58,-125 h 23 l 57,125 h -28 l -15,-35 11,9 h -74 l 11,-9 -14,35 z m 69,-96 -23,55 -5,-7 h 56 l -5,7 z m 98,96 v -101 h -41 v -24 h 111 v 24 h -41 v 101 z m 86,0 v -125 h 28 v 125 z m 115,2 c -10,0 -18,-1 -26,-4 -7,-4 -14,-8 -19,-14 -6,-5 -10,-12 -13,-20 -3,-8 -5,-17 -5,-26 0,-10 2,-19 5,-27 3,-8 7,-14 13,-20 5,-6 12,-10 19,-13 8,-3 16,-5 26,-5 9,0 18,2 25,5 8,3 14,7 20,13 5,5 10,12 12,20 3,8 5,17 5,26 0,10 -2,19 -5,27 -2,8 -7,15 -12,21 -6,5 -12,10 -20,13 -7,3 -16,4 -25,4 z m 0,-24 c 7,0 13,-2 18,-5 4,-3 8,-8 11,-14 3,-6 4,-13 4,-21 0,-9 -1,-16 -4,-22 -3,-6 -6,-11 -11,-14 -5,-3 -11,-5 -18,-5 -7,0 -13,2 -18,5 -5,3 -9,8 -12,14 -2,6 -3,13 -3,22 0,8 1,15 3,21 3,6 7,11 12,14 5,3 11,5 18,5 z m 86,22 v -125 h 21 l 66,84 h -3 v -84 h 27 v 125 h -22 l -65,-83 h 2 v 83 z"
     id="path243"
     style="clip-rule:evenodd;fill-rule:evenodd;image-rendering:optimizeQuality;shape-rendering:geometricPrecision;text-rendering:geometricPrecision" /><path
     class="fil4"
     d="m 17360,13726 v -167 h -65 v -39 h 175 v 39 h -66 v 167 z m 130,-172 v -42 h 47 v 42 z m 2,172 v -145 h 43 v 145 z m 79,52 v -197 h 41 v 28 h -1 c 3,-10 9,-17 18,-23 8,-5 18,-8 30,-8 12,0 23,3 32,9 9,7 16,15 21,26 5,12 8,25 8,40 0,15 -2,28 -7,40 -5,11 -12,20 -22,26 -9,7 -20,10 -32,10 -11,0 -21,-3 -29,-8 -8,-6 -13,-13 -17,-21 h 2 v 78 z m 74,-83 c 10,0 18,-4 23,-11 6,-7 9,-17 9,-31 0,-14 -3,-24 -9,-31 -5,-6 -13,-10 -23,-10 -9,0 -17,4 -22,10 -6,7 -9,17 -9,31 0,14 3,24 9,31 5,7 13,11 22,11 z m 193,31 v -38 h 46 v -130 l 21,1 -56,35 -17,-34 65,-40 h 31 v 168 h 43 v 38 z"
     id="path223"
     style="clip-rule:evenodd;fill-rule:evenodd;image-rendering:optimizeQuality;shape-rendering:geometricPrecision;text-rendering:geometricPrecision" /><path
     class="fil4"
     d="m 17362,14634 v -167 h -65 v -38 h 174 v 38 h -65 v 167 z m 130,-171 v -43 h 46 v 43 z m 1,171 v -144 h 44 v 144 z m 80,53 v -197 h 41 v 28 h -1 c 3,-10 9,-17 18,-23 8,-6 18,-8 29,-8 13,0 24,3 33,9 9,6 16,15 21,26 5,11 8,25 8,40 0,15 -3,28 -8,39 -5,12 -12,21 -21,27 -9,6 -20,9 -33,9 -10,0 -20,-2 -28,-8 -8,-5 -14,-12 -17,-20 h 2 v 78 z m 74,-84 c 10,0 18,-3 23,-10 6,-7 8,-18 8,-31 0,-14 -2,-24 -8,-31 -5,-7 -13,-10 -23,-10 -9,0 -17,3 -23,10 -5,7 -8,17 -8,31 0,13 3,24 8,31 6,7 14,10 23,10 z m 187,31 v -33 l 63,-68 c 5,-6 9,-12 13,-17 3,-4 5,-9 7,-13 1,-5 2,-9 2,-13 0,-9 -3,-15 -8,-20 -6,-4 -13,-7 -23,-7 -8,0 -16,2 -24,5 -9,3 -17,8 -24,15 l -15,-34 c 9,-7 19,-13 31,-17 13,-4 25,-6 38,-6 14,0 27,2 37,7 10,4 18,11 23,20 5,9 8,20 8,32 0,6 -1,12 -2,18 -2,6 -4,12 -7,18 -3,5 -6,11 -11,17 -4,6 -10,12 -16,18 l -44,48 v -7 h 87 v 37 z"
     id="path225"
     style="clip-rule:evenodd;fill-rule:evenodd;image-rendering:optimizeQuality;shape-rendering:geometricPrecision;text-rendering:geometricPrecision" /><path
     class="fil4"
     d="m 17362,15541 v -167 h -65 v -39 h 174 v 39 h -65 v 167 z m 130,-172 v -42 h 46 v 42 z m 1,172 v -145 h 44 v 145 z m 80,52 v -197 h 41 v 28 h -1 c 3,-9 9,-17 18,-22 8,-6 18,-9 29,-9 13,0 24,3 33,10 9,6 16,14 21,26 5,11 8,24 8,39 0,15 -3,29 -8,40 -5,11 -12,20 -21,26 -9,7 -20,10 -33,10 -10,0 -20,-3 -28,-8 -8,-5 -14,-12 -17,-21 h 2 v 78 z m 74,-83 c 10,0 18,-4 23,-11 6,-7 8,-17 8,-31 0,-13 -2,-24 -8,-30 -5,-7 -13,-11 -23,-11 -9,0 -17,4 -23,11 -5,6 -8,17 -8,30 0,14 3,24 8,31 6,7 14,11 23,11 z m 246,34 c -9,0 -18,-1 -27,-3 -8,-2 -17,-4 -24,-8 -8,-3 -14,-7 -19,-12 l 14,-34 c 8,6 17,11 26,14 10,3 19,5 29,5 7,0 13,-1 18,-3 5,-2 9,-5 11,-8 3,-4 5,-9 5,-15 0,-8 -3,-14 -9,-18 -5,-5 -13,-7 -23,-7 h -34 v -36 h 29 c 6,0 12,-1 16,-3 5,-2 8,-5 11,-9 2,-4 4,-8 4,-14 0,-8 -3,-13 -8,-17 -5,-4 -12,-6 -22,-6 -9,0 -18,1 -26,5 -9,3 -17,8 -24,14 l -14,-33 c 8,-8 18,-14 30,-18 13,-4 25,-6 38,-6 14,0 26,2 36,7 11,4 18,10 24,19 5,8 8,18 8,29 0,12 -3,22 -9,31 -7,8 -15,14 -26,17 v -2 c 8,2 15,5 21,10 6,4 11,10 14,17 4,7 5,15 5,24 0,12 -3,23 -9,32 -6,9 -14,16 -25,21 -11,5 -25,7 -40,7 z"
     id="path227"
     style="clip-rule:evenodd;fill-rule:evenodd;image-rendering:optimizeQuality;shape-rendering:geometricPrecision;text-rendering:geometricPrecision" /><path
     class="fil4"
     d="m 17079,12898 v -206 h 79 c 22,0 41,4 56,12 16,8 28,20 36,35 8,16 12,34 12,56 0,22 -4,40 -12,56 -8,15 -20,27 -36,35 -15,8 -34,12 -56,12 z m 44,-38 h 32 c 20,0 36,-6 46,-17 10,-10 15,-27 15,-48 0,-22 -5,-38 -15,-48 -11,-11 -26,-17 -46,-17 h -32 z m 173,38 v -145 h 40 v 36 h -1 c 3,-11 8,-20 16,-27 7,-7 17,-10 29,-11 l 15,-1 3,39 -26,3 c -11,1 -19,4 -24,10 -5,6 -8,14 -8,24 v 72 z m 188,3 c -15,0 -29,-3 -40,-9 -11,-7 -20,-15 -26,-27 -6,-11 -9,-24 -9,-39 0,-16 3,-29 9,-40 6,-12 15,-20 26,-27 11,-6 25,-9 40,-9 15,0 28,3 39,9 11,7 20,15 26,27 6,11 9,24 9,40 0,15 -3,28 -9,39 -6,12 -15,20 -26,27 -11,6 -24,9 -39,9 z m 0,-35 c 9,0 17,-3 22,-10 6,-7 9,-17 9,-31 0,-13 -3,-23 -9,-30 -5,-7 -13,-10 -22,-10 -10,0 -17,3 -23,10 -6,7 -9,17 -9,30 0,14 3,24 9,31 6,7 13,10 23,10 z m 103,84 v -197 h 41 v 28 h -1 c 3,-9 9,-17 18,-22 9,-6 18,-9 30,-9 12,0 23,3 32,10 9,6 16,15 22,26 5,11 7,24 7,40 0,14 -2,28 -7,39 -5,11 -12,20 -22,27 -9,6 -20,9 -32,9 -11,0 -21,-3 -29,-8 -8,-5 -13,-12 -17,-21 h 2 v 78 z m 74,-83 c 10,0 18,-4 23,-11 6,-7 9,-17 9,-31 0,-13 -3,-24 -9,-30 -5,-7 -13,-11 -23,-11 -9,0 -17,4 -22,11 -6,6 -9,17 -9,30 0,14 3,24 9,31 5,7 13,11 22,11 z m 156,34 c -18,0 -31,-5 -39,-14 -8,-10 -13,-24 -13,-42 v -153 h 44 v 150 c 0,5 1,9 2,13 1,3 3,6 6,7 3,2 6,3 10,3 3,0 5,0 7,0 2,-1 4,-1 7,-2 v 34 c -4,1 -8,2 -11,3 -4,1 -9,1 -13,1 z m 44,-175 v -42 h 47 v 42 z m 2,172 v -145 h 43 v 145 z m 134,3 c -8,0 -16,-1 -24,-2 -8,-1 -15,-3 -21,-5 -7,-3 -12,-6 -17,-9 l 10,-30 c 5,3 10,6 16,8 6,2 11,4 18,5 6,1 11,1 17,1 9,0 15,-1 20,-3 4,-3 6,-6 6,-10 0,-4 -2,-7 -4,-9 -3,-2 -6,-3 -11,-4 l -31,-5 c -13,-2 -22,-7 -29,-14 -6,-7 -9,-16 -9,-26 0,-10 2,-18 7,-25 5,-7 13,-13 22,-17 10,-4 21,-6 35,-6 6,0 13,1 20,2 7,1 13,3 19,5 6,2 11,5 15,9 l -11,29 c -4,-2 -8,-5 -13,-7 -5,-2 -10,-4 -15,-5 -5,-1 -10,-1 -15,-1 -9,0 -16,1 -20,4 -4,2 -6,6 -6,10 0,3 1,6 4,8 2,2 6,4 10,4 l 30,5 c 14,3 24,7 30,14 7,6 10,15 10,26 0,10 -2,19 -8,26 -5,7 -12,13 -22,16 -9,4 -20,6 -33,6 z m 158,0 c -20,0 -35,-5 -45,-15 -10,-11 -15,-26 -15,-45 v -54 h -26 v -34 h 28 v -41 h 42 v 41 h 43 v 34 h -43 v 52 c 0,9 2,15 6,19 4,4 10,6 18,6 3,0 6,0 9,-1 3,0 6,-1 9,-2 l 6,33 c -4,2 -9,4 -15,5 -6,1 -11,2 -17,2 z"
     id="path229"
     style="clip-rule:evenodd;fill-rule:evenodd;image-rendering:optimizeQuality;shape-rendering:geometricPrecision;text-rendering:geometricPrecision" /><path
     class="fil6"
     d="m 21972,14292 c -23,0 -43,-5 -60,-16 -16,-11 -29,-27 -37,-48 -9,-20 -13,-45 -13,-74 0,-31 5,-58 15,-79 9,-22 23,-39 42,-50 18,-12 40,-18 65,-18 10,0 20,2 30,4 10,2 19,6 28,10 9,4 17,10 24,16 l -19,45 c -10,-8 -20,-14 -31,-18 -10,-4 -21,-6 -32,-6 -11,0 -20,2 -28,6 -8,3 -15,9 -21,16 -6,7 -10,16 -13,26 -3,11 -4,23 -4,37 v 20 h -2 c 2,-12 7,-22 13,-30 7,-8 14,-14 24,-18 9,-4 20,-6 31,-6 16,0 30,4 42,11 12,8 22,18 29,32 7,13 10,29 10,46 0,18 -4,34 -12,49 -7,14 -18,25 -32,33 -14,8 -30,12 -49,12 z m -3,-47 c 8,0 16,-2 22,-6 6,-4 11,-9 14,-15 3,-7 5,-15 5,-24 0,-8 -2,-16 -5,-22 -3,-7 -8,-12 -14,-16 -6,-4 -14,-6 -22,-6 -8,0 -15,2 -22,6 -6,4 -10,9 -14,16 -3,6 -5,14 -5,22 0,9 2,17 5,24 4,6 8,11 15,15 6,4 13,6 21,6 z m 227,47 c -22,0 -41,-5 -57,-16 -15,-11 -27,-28 -34,-49 -8,-21 -12,-47 -12,-78 0,-31 4,-56 12,-77 7,-22 19,-37 34,-48 16,-11 35,-17 57,-17 22,0 41,6 57,17 15,11 27,26 34,48 8,21 12,46 12,77 0,30 -4,56 -12,78 -8,21 -19,37 -34,48 -16,12 -35,17 -57,17 z m 0,-50 c 15,0 26,-7 33,-22 8,-15 11,-39 11,-71 0,-32 -3,-55 -11,-70 -7,-14 -18,-21 -33,-21 -15,0 -26,7 -33,21 -8,15 -12,38 -12,70 0,32 4,56 11,71 8,15 19,22 34,22 z m 243,58 -37,-23 159,-277 38,22 z m -40,-124 c -15,0 -28,-3 -38,-10 -11,-7 -20,-17 -25,-29 -6,-13 -9,-28 -9,-45 0,-26 7,-47 19,-62 13,-15 31,-23 53,-23 15,0 28,4 39,11 11,7 19,16 25,29 6,13 9,27 9,45 0,17 -3,32 -9,45 -6,12 -14,22 -25,29 -11,7 -24,10 -39,10 z m 0,-37 c 8,0 15,-4 19,-11 4,-8 7,-20 7,-36 0,-17 -3,-29 -7,-36 -5,-7 -11,-11 -19,-11 -7,0 -14,4 -18,11 -5,7 -7,19 -7,36 0,17 2,29 7,36 4,7 11,11 18,11 z m 203,153 c -15,0 -28,-3 -39,-10 -11,-7 -19,-17 -25,-30 -6,-12 -9,-27 -9,-45 0,-26 7,-46 20,-61 13,-15 30,-23 53,-23 15,0 28,4 38,11 11,6 19,16 25,29 6,12 9,27 9,44 0,18 -3,33 -9,45 -5,13 -14,23 -24,30 -11,7 -24,10 -39,10 z m 0,-38 c 8,0 14,-3 18,-11 5,-7 7,-19 7,-36 0,-16 -2,-28 -7,-35 -4,-7 -10,-11 -18,-11 -8,0 -14,4 -19,10 -4,7 -6,19 -6,36 0,17 2,29 6,37 5,7 11,10 19,10 z"
     id="path51"
     style="clip-rule:evenodd;fill-rule:evenodd;image-rendering:optimizeQuality;shape-rendering:geometricPrecision;text-rendering:geometricPrecision" /><polygon
     class="fil4"
     points="19064,12882 18996,12787 18929,12692 19064,12692 19200,12692 19132,12787 "
     id="polygon203"
     style="clip-rule:evenodd;fill-rule:evenodd;image-rendering:optimizeQuality;shape-rendering:geometricPrecision;text-rendering:geometricPrecision" /><polygon
     class="fil4"
     points="16029,8174 15996,8194 15986,8175 16025,8153 16043,8153 16043,8247 16068,8247 16068,8268 15990,8268 15990,8247 16017,8247 16017,8174 "
     id="polygon24"
     transform="translate(-16.5,-0.49999996)"
     style="clip-rule:evenodd;fill-rule:evenodd;image-rendering:optimizeQuality;shape-rendering:geometricPrecision;text-rendering:geometricPrecision" /><path
     class="fil4"
     d="m 17038,8270 c -6,0 -11,0 -16,-1 -5,-1 -10,-3 -15,-5 -4,-2 -8,-4 -11,-7 l 8,-19 c 5,4 10,6 16,8 5,2 11,3 17,3 4,0 7,-1 10,-2 3,-1 6,-3 7,-5 2,-2 3,-5 3,-8 0,-4 -2,-8 -5,-10 -3,-3 -8,-4 -14,-4 h -20 v -20 h 17 c 4,0 7,-1 10,-2 2,-1 4,-3 6,-5 1,-2 2,-5 2,-8 0,-4 -1,-7 -4,-10 -3,-2 -8,-3 -13,-3 -6,0 -11,1 -16,3 -5,1 -9,4 -14,8 l -8,-19 c 5,-4 11,-7 18,-10 7,-2 15,-3 22,-3 8,0 16,1 21,3 6,3 11,6 14,11 3,5 5,10 5,17 0,7 -2,12 -6,17 -3,5 -8,8 -15,10 v -1 c 5,1 9,3 13,5 4,3 6,6 8,10 2,4 3,8 3,13 0,7 -2,13 -5,18 -4,6 -9,9 -15,12 -7,3 -14,4 -23,4 z"
     id="path26"
     style="clip-rule:evenodd;fill-rule:evenodd;image-rendering:optimizeQuality;shape-rendering:geometricPrecision;text-rendering:geometricPrecision" /><path
     class="fil4"
     d="m 17488,8268 v -20 h -50 v -19 l 51,-76 h 23 v 75 h 15 v 20 h -15 v 20 z m 0,-40 v -45 h 3 l -33,50 -1,-5 z"
     id="path28"
     style="clip-rule:evenodd;fill-rule:evenodd;image-rendering:optimizeQuality;shape-rendering:geometricPrecision;text-rendering:geometricPrecision" /><path
     class="fil4"
     d="m 16472,8269 v -19 l 37,-38 c 3,-4 5,-7 7,-10 2,-2 4,-5 4,-7 1,-3 2,-5 2,-8 0,-5 -2,-8 -5,-11 -3,-2 -8,-4 -14,-4 -4,0 -9,1 -14,3 -5,2 -9,5 -14,9 l -8,-19 c 5,-5 11,-8 18,-10 7,-3 14,-4 22,-4 8,0 16,1 22,4 6,3 10,7 13,12 3,5 5,11 5,18 0,3 0,7 -1,10 -1,3 -2,7 -4,10 -2,3 -4,6 -7,9 -2,4 -5,7 -9,11 l -26,27 v -4 h 51 v 21 z"
     id="path125"
     style="clip-rule:evenodd;fill-rule:evenodd;image-rendering:optimizeQuality;shape-rendering:geometricPrecision;text-rendering:geometricPrecision" /></g>
</svg>
