<?xml version="1.0" encoding="UTF-8" standalone="no"?>
<!-- Creator: CorelDRAW X7 -->

<svg
   xml:space="preserve"
   width="264.583mm"
   height="176.389mm"
   version="1.1"
   style="shape-rendering:geometricPrecision; text-rendering:geometricPrecision; image-rendering:optimizeQuality; fill-rule:evenodd; clip-rule:evenodd"
   viewBox="0 0 26458 17639"
   id="svg273"
   sodipodi:docname="svg_16.svg"
   inkscape:version="1.1.2 (0a00cf5339, 2022-02-04)"
   xmlns:inkscape="http://www.inkscape.org/namespaces/inkscape"
   xmlns:sodipodi="http://sodipodi.sourceforge.net/DTD/sodipodi-0.dtd"
   xmlns="http://www.w3.org/2000/svg"
   xmlns:svg="http://www.w3.org/2000/svg"><sodipodi:namedview
   id="namedview275"
   pagecolor="#ffffff"
   bordercolor="#666666"
   borderopacity="1.0"
   inkscape:pageshadow="2"
   inkscape:pageopacity="0.0"
   inkscape:pagecheckerboard="0"
   inkscape:document-units="mm"
   showgrid="false"
   inkscape:zoom="0.7901913"
   inkscape:cx="537.21169"
   inkscape:cy="404.33247"
   inkscape:window-width="1920"
   inkscape:window-height="1022"
   inkscape:window-x="0"
   inkscape:window-y="0"
   inkscape:window-maximized="1"
   inkscape:current-layer="layer1" />
 <defs
   id="defs4">
  <style
   type="text/css"
   id="style2">
   <![CDATA[
    .str0 {stroke:#FEFEFE;stroke-width:35.28}
    .str1 {stroke:#1F1F1F;stroke-width:29.92;stroke-linecap:round;stroke-linejoin:round}
    .fil10 {fill:none;fill-rule:nonzero}
    .fil1 {fill:#FEFEFE}
    .fil0 {fill:#151829}
    .fil2 {fill:#2C304A}
    .fil7 {fill:#5794FD}
    .fil13 {fill:#F1900E}
    .fil12 {fill:#F3A73C}
    .fil8 {fill:#FEFEFE}
    .fil9 {fill:#030303;fill-rule:nonzero}
    .fil11 {fill:#1F1F1F;fill-rule:nonzero}
    .fil6 {fill:#2C304A;fill-rule:nonzero}
    .fil5 {fill:#5794FD;fill-rule:nonzero}
    .fil4 {fill:#F1900E;fill-rule:nonzero}
    .fil3 {fill:#FEFEFE;fill-rule:nonzero}
   ]]>
  </style>
 
   
   
   
   
   
  </defs>
 <g
   inkscape:groupmode="layer"
   id="layer1"
   inkscape:label="Layer 1"
   sodipodi:insensitive="true"><rect
     class="fil0"
     x="716"
     y="330"
     width="25022"
     height="17003"
     id="rect7"
     style="clip-rule:evenodd;fill-rule:evenodd;image-rendering:optimizeQuality;shape-rendering:geometricPrecision;text-rendering:geometricPrecision" /></g><g
   inkscape:groupmode="layer"
   id="layer2"
   inkscape:label="Layer 2"
   style="display:inline"><rect
     class="fil8"
     x="2037"
     y="4057"
     width="6645"
     height="891"
     id="rect47"
     style="clip-rule:evenodd;fill-rule:evenodd;image-rendering:optimizeQuality;shape-rendering:geometricPrecision;text-rendering:geometricPrecision" /><rect
     class="fil13"
     x="5619"
     y="7686"
     width="3070"
     height="732"
     id="rect178"
     style="clip-rule:evenodd;fill-rule:evenodd;image-rendering:optimizeQuality;shape-rendering:geometricPrecision;text-rendering:geometricPrecision" /><rect
     class="fil7"
     x="2048"
     y="7686"
     width="3070"
     height="732"
     id="rect182"
     style="clip-rule:evenodd;fill-rule:evenodd;image-rendering:optimizeQuality;shape-rendering:geometricPrecision;text-rendering:geometricPrecision" /><rect
     class="fil8"
     x="2037"
     y="9146"
     width="6645"
     height="891"
     id="rect103"
     style="clip-rule:evenodd;fill-rule:evenodd;image-rendering:optimizeQuality;shape-rendering:geometricPrecision;text-rendering:geometricPrecision" /><rect
     class="fil1"
     x="9464"
     y="4634"
     width="15021"
     height="7360"
     id="rect9"
     style="clip-rule:evenodd;fill-rule:evenodd;image-rendering:optimizeQuality;shape-rendering:geometricPrecision;text-rendering:geometricPrecision" /><rect
     class="fil2"
     x="2037"
     y="12935"
     width="6645"
     height="744"
     id="rect75"
     style="clip-rule:evenodd;fill-rule:evenodd;image-rendering:optimizeQuality;shape-rendering:geometricPrecision;text-rendering:geometricPrecision" /><path
     class="fil5"
     d="m 3245,15172 c 0,265 -215,479 -479,479 -265,0 -479,-214 -479,-479 0,-264 214,-479 479,-479 264,0 479,215 479,479 z"
     id="path49"
     style="clip-rule:evenodd;fill-rule:evenodd;image-rendering:optimizeQuality;shape-rendering:geometricPrecision;text-rendering:geometricPrecision" /><path
     class="fil4"
     d="m 4537,15172 c 0,265 -214,479 -479,479 -264,0 -479,-214 -479,-479 0,-264 215,-479 479,-479 265,0 479,215 479,479 z"
     id="path51"
     style="clip-rule:evenodd;fill-rule:evenodd;image-rendering:optimizeQuality;shape-rendering:geometricPrecision;text-rendering:geometricPrecision" /><path
     class="fil5"
     d="m 5893,15172 c 0,265 -215,479 -479,479 -265,0 -479,-214 -479,-479 0,-264 214,-479 479,-479 264,0 479,215 479,479 z"
     id="path53"
     style="clip-rule:evenodd;fill-rule:evenodd;image-rendering:optimizeQuality;shape-rendering:geometricPrecision;text-rendering:geometricPrecision" /><path
     class="fil5"
     d="m 7169,15172 c 0,265 -215,479 -479,479 -265,0 -480,-214 -480,-479 0,-264 215,-479 480,-479 264,0 479,215 479,479 z"
     id="path55"
     style="clip-rule:evenodd;fill-rule:evenodd;image-rendering:optimizeQuality;shape-rendering:geometricPrecision;text-rendering:geometricPrecision" /><path
     class="fil5"
     d="m 8404,15172 c 0,265 -215,479 -479,479 -265,0 -479,-214 -479,-479 0,-264 214,-479 479,-479 264,0 479,215 479,479 z"
     id="path57"
     style="clip-rule:evenodd;fill-rule:evenodd;image-rendering:optimizeQuality;shape-rendering:geometricPrecision;text-rendering:geometricPrecision" /><path
     class="fil5"
     d="m 5382,11316 c 0,224 -181,406 -406,406 -224,0 -406,-182 -406,-406 0,-225 182,-407 406,-407 225,0 406,182 406,407 z"
     id="path97"
     style="clip-rule:evenodd;fill-rule:evenodd;image-rendering:optimizeQuality;shape-rendering:geometricPrecision;text-rendering:geometricPrecision" /><path
     class="fil4"
     d="m 6478,11316 c 0,224 -181,406 -406,406 -224,0 -406,-182 -406,-406 0,-225 182,-407 406,-407 225,0 406,182 406,407 z"
     id="path99"
     style="clip-rule:evenodd;fill-rule:evenodd;image-rendering:optimizeQuality;shape-rendering:geometricPrecision;text-rendering:geometricPrecision" /><rect
     class="fil2"
     x="9451"
     y="12540"
     width="2834"
     height="3532"
     id="rect115"
     style="clip-rule:evenodd;fill-rule:evenodd;image-rendering:optimizeQuality;shape-rendering:geometricPrecision;text-rendering:geometricPrecision" /><rect
     class="fil13"
     x="3114"
     y="10881"
     width="875"
     height="812"
     id="rect186"
     style="clip-rule:evenodd;fill-rule:evenodd;image-rendering:optimizeQuality;shape-rendering:geometricPrecision;text-rendering:geometricPrecision" /><rect
     class="fil7"
     x="2030"
     y="10881"
     width="875"
     height="812"
     id="rect190"
     style="clip-rule:evenodd;fill-rule:evenodd;image-rendering:optimizeQuality;shape-rendering:geometricPrecision;text-rendering:geometricPrecision" /><rect
     class="fil7"
     x="7152"
     y="10973"
     width="1546"
     height="665"
     rx="344"
     ry="328"
     id="rect33"
     style="clip-rule:evenodd;fill-rule:evenodd;image-rendering:optimizeQuality;shape-rendering:geometricPrecision;text-rendering:geometricPrecision" /><rect
     class="fil2"
     x="13062"
     y="12540"
     width="2872"
     height="3532"
     id="rect264"
     style="clip-rule:evenodd;fill-rule:evenodd;image-rendering:optimizeQuality;shape-rendering:geometricPrecision;text-rendering:geometricPrecision" /><rect
     class="fil2"
     x="21017"
     y="12538"
     width="3541"
     height="3530"
     id="rect137"
     style="clip-rule:evenodd;fill-rule:evenodd;image-rendering:optimizeQuality;shape-rendering:geometricPrecision;text-rendering:geometricPrecision" /><rect
     class="fil2"
     x="16569"
     y="12538"
     width="3870"
     height="3530"
     id="rect154"
     style="clip-rule:evenodd;fill-rule:evenodd;image-rendering:optimizeQuality;shape-rendering:geometricPrecision;text-rendering:geometricPrecision" /><rect
     class="fil7"
     x="16680"
     y="13490"
     width="3624"
     height="2447"
     id="rect162"
     style="shape-rendering:geometricPrecision;text-rendering:geometricPrecision;image-rendering:optimizeQuality;fill-rule:evenodd;clip-rule:evenodd;display:inline" /><rect
     class="fil7"
     x="16680"
     y="12651"
     width="3624"
     height="743"
     id="rect156"
     style="shape-rendering:geometricPrecision;text-rendering:geometricPrecision;image-rendering:optimizeQuality;fill-rule:evenodd;clip-rule:evenodd;display:inline" /></g><g
   inkscape:groupmode="layer"
   id="layer3"
   inkscape:label="Layer 3"
   style="display:inline"><polygon
     class="fil11"
     points="2410,4589 2410,4503 2410,4416 2335,4460 2261,4503 2335,4546 "
     id="polygon111"
     style="clip-rule:evenodd;fill-rule:evenodd;image-rendering:optimizeQuality;shape-rendering:geometricPrecision;text-rendering:geometricPrecision" /><polygon
     class="fil11"
     points="8305,4589 8305,4503 8305,4416 8380,4460 8455,4503 8380,4546 "
     id="polygon113"
     style="clip-rule:evenodd;fill-rule:evenodd;image-rendering:optimizeQuality;shape-rendering:geometricPrecision;text-rendering:geometricPrecision" /><rect
     class="fil2"
     x="1914"
     y="1523"
     width="22578"
     height="1256"
     id="rect11"
     style="clip-rule:evenodd;fill-rule:evenodd;image-rendering:optimizeQuality;shape-rendering:geometricPrecision;text-rendering:geometricPrecision" /><rect
     class="fil2"
     x="16253"
     y="8873"
     width="197"
     height="197"
     id="rect143"
     style="clip-rule:evenodd;fill-rule:evenodd;image-rendering:optimizeQuality;shape-rendering:geometricPrecision;text-rendering:geometricPrecision" /><rect
     class="fil2"
     x="16559"
     y="8873"
     width="197"
     height="197"
     id="rect145"
     style="clip-rule:evenodd;fill-rule:evenodd;image-rendering:optimizeQuality;shape-rendering:geometricPrecision;text-rendering:geometricPrecision" /><rect
     class="fil2"
     x="16872"
     y="8873"
     width="197"
     height="197"
     id="rect147"
     style="clip-rule:evenodd;fill-rule:evenodd;image-rendering:optimizeQuality;shape-rendering:geometricPrecision;text-rendering:geometricPrecision" /><rect
     class="fil2"
     x="17181"
     y="8873"
     width="197"
     height="197"
     id="rect149"
     style="clip-rule:evenodd;fill-rule:evenodd;image-rendering:optimizeQuality;shape-rendering:geometricPrecision;text-rendering:geometricPrecision" /><path
     class="fil6"
     d="m 7770,11305 c 0,139 -112,251 -251,251 -139,0 -252,-112 -252,-251 0,-139 113,-252 252,-252 139,0 251,113 251,252 z"
     id="path35"
     style="clip-rule:evenodd;fill-rule:evenodd;image-rendering:optimizeQuality;shape-rendering:geometricPrecision;text-rendering:geometricPrecision" /><polygon
     class="fil5"
     points="9660,12812 9956,12812 9956,15858 9660,15858 "
     id="polygon117"
     style="clip-rule:evenodd;fill-rule:evenodd;image-rendering:optimizeQuality;shape-rendering:geometricPrecision;text-rendering:geometricPrecision" /><polygon
     class="fil5"
     points="10176,12812 10472,12812 10472,15858 10176,15858 "
     id="polygon121"
     style="clip-rule:evenodd;fill-rule:evenodd;image-rendering:optimizeQuality;shape-rendering:geometricPrecision;text-rendering:geometricPrecision" /><polygon
     class="fil5"
     points="10691,12812 10987,12812 10987,15858 10691,15858 "
     id="polygon125"
     style="clip-rule:evenodd;fill-rule:evenodd;image-rendering:optimizeQuality;shape-rendering:geometricPrecision;text-rendering:geometricPrecision" /><polygon
     class="fil5"
     points="11207,12812 11503,12812 11503,15858 11207,15858 "
     id="polygon129"
     style="clip-rule:evenodd;fill-rule:evenodd;image-rendering:optimizeQuality;shape-rendering:geometricPrecision;text-rendering:geometricPrecision" /><polygon
     class="fil5"
     points="11723,12812 12018,12812 12018,15858 11723,15858 "
     id="polygon133"
     style="clip-rule:evenodd;fill-rule:evenodd;image-rendering:optimizeQuality;shape-rendering:geometricPrecision;text-rendering:geometricPrecision" /><rect
     class="fil7"
     x="13189"
     y="13911"
     width="2619"
     height="2026"
     id="rect266"
     style="clip-rule:evenodd;fill-rule:evenodd;image-rendering:optimizeQuality;shape-rendering:geometricPrecision;text-rendering:geometricPrecision" /><path
     class="fil4"
     d="m 21162,12677 v 3251 h 3251 v -3251 z m 2764,2765 v 0 h -2278 v -2278 h 2278 z"
     id="path139"
     style="clip-rule:evenodd;fill-rule:evenodd;image-rendering:optimizeQuality;shape-rendering:geometricPrecision;text-rendering:geometricPrecision" /><polygon
     class="fil6"
     points="20196,15816 20086,15816 20086,13634 20196,13634 "
     id="polygon166"
     style="shape-rendering:geometricPrecision;text-rendering:geometricPrecision;image-rendering:optimizeQuality;fill-rule:evenodd;clip-rule:evenodd;display:inline" /><rect
     class="fil2"
     x="16786"
     y="13637"
     width="3184"
     height="2160"
     id="rect164"
     style="shape-rendering:geometricPrecision;text-rendering:geometricPrecision;image-rendering:optimizeQuality;fill-rule:evenodd;clip-rule:evenodd;display:inline" /></g><g
   inkscape:groupmode="layer"
   id="layer4"
   inkscape:label="Layer 4"
   style="display:inline"><path
     class="fil5 str0"
     d="m 24165,2144 c 0,169 -137,306 -306,306 -169,0 -306,-137 -306,-306 0,-169 137,-306 306,-306 169,0 306,137 306,306 z"
     id="path27"
     style="clip-rule:evenodd;fill-rule:evenodd;image-rendering:optimizeQuality;shape-rendering:geometricPrecision;text-rendering:geometricPrecision" /><rect
     class="fil8"
     x="15512"
     y="1872"
     width="6156"
     height="544"
     id="rect39"
     style="clip-rule:evenodd;fill-rule:evenodd;image-rendering:optimizeQuality;shape-rendering:geometricPrecision;text-rendering:geometricPrecision" /><path
     class="fil4"
     d="m 5807,1660 h 1624 50 v 50 873 50 h -50 -1624 -50 v -50 -873 -50 z m 1574,100 H 5857 v 773 h 1524 z"
     id="path25"
     style="clip-rule:evenodd;fill-rule:evenodd;image-rendering:optimizeQuality;shape-rendering:geometricPrecision;text-rendering:geometricPrecision" /><rect
     class="fil12"
     x="17500"
     y="8873"
     width="197"
     height="197"
     id="rect151"
     style="clip-rule:evenodd;fill-rule:evenodd;image-rendering:optimizeQuality;shape-rendering:geometricPrecision;text-rendering:geometricPrecision" /><polygon
     class="fil4"
     points="2150,13099 2499,13099 2499,13502 2150,13502 "
     id="polygon77"
     style="clip-rule:evenodd;fill-rule:evenodd;image-rendering:optimizeQuality;shape-rendering:geometricPrecision;text-rendering:geometricPrecision" /><polygon
     class="fil4"
     points="2590,13099 2939,13099 2939,13502 2590,13502 "
     id="polygon79"
     style="clip-rule:evenodd;fill-rule:evenodd;image-rendering:optimizeQuality;shape-rendering:geometricPrecision;text-rendering:geometricPrecision" /><polygon
     class="fil4"
     points="3030,13099 3378,13099 3378,13502 3030,13502 "
     id="polygon81"
     style="clip-rule:evenodd;fill-rule:evenodd;image-rendering:optimizeQuality;shape-rendering:geometricPrecision;text-rendering:geometricPrecision" /><polygon
     class="fil4"
     points="3469,13099 3818,13099 3818,13502 3469,13502 "
     id="polygon83"
     style="clip-rule:evenodd;fill-rule:evenodd;image-rendering:optimizeQuality;shape-rendering:geometricPrecision;text-rendering:geometricPrecision" /><polygon
     class="fil4"
     points="3919,13099 4268,13099 4268,13502 3919,13502 "
     id="polygon85"
     style="clip-rule:evenodd;fill-rule:evenodd;image-rendering:optimizeQuality;shape-rendering:geometricPrecision;text-rendering:geometricPrecision" /><polygon
     class="fil5"
     points="4359,13099 4708,13099 4708,13502 4359,13502 "
     id="polygon87"
     style="clip-rule:evenodd;fill-rule:evenodd;image-rendering:optimizeQuality;shape-rendering:geometricPrecision;text-rendering:geometricPrecision" /><polygon
     class="fil5"
     points="4799,13099 5147,13099 5147,13502 4799,13502 "
     id="polygon89"
     style="clip-rule:evenodd;fill-rule:evenodd;image-rendering:optimizeQuality;shape-rendering:geometricPrecision;text-rendering:geometricPrecision" /><polygon
     class="fil5"
     points="5238,13099 5587,13099 5587,13502 5238,13502 "
     id="polygon91"
     style="clip-rule:evenodd;fill-rule:evenodd;image-rendering:optimizeQuality;shape-rendering:geometricPrecision;text-rendering:geometricPrecision" /><polygon
     class="fil5"
     points="5673,13099 6021,13099 6021,13502 5673,13502 "
     id="polygon93"
     style="clip-rule:evenodd;fill-rule:evenodd;image-rendering:optimizeQuality;shape-rendering:geometricPrecision;text-rendering:geometricPrecision" /><polygon
     class="fil5"
     points="6112,13099 6461,13099 6461,13502 6112,13502 "
     id="polygon95"
     style="clip-rule:evenodd;fill-rule:evenodd;image-rendering:optimizeQuality;shape-rendering:geometricPrecision;text-rendering:geometricPrecision" /><polygon
     class="fil5"
     points="6544,13099 6893,13099 6893,13502 6544,13502 "
     id="polygon105"
     style="clip-rule:evenodd;fill-rule:evenodd;image-rendering:optimizeQuality;shape-rendering:geometricPrecision;text-rendering:geometricPrecision" /><polygon
     class="fil5"
     points="6978,13099 7327,13099 7327,13502 6978,13502 "
     id="polygon107"
     style="clip-rule:evenodd;fill-rule:evenodd;image-rendering:optimizeQuality;shape-rendering:geometricPrecision;text-rendering:geometricPrecision" /><polygon
     class="fil5"
     points="7418,13099 7767,13099 7767,13502 7418,13502 "
     id="polygon109"
     style="clip-rule:evenodd;fill-rule:evenodd;image-rendering:optimizeQuality;shape-rendering:geometricPrecision;text-rendering:geometricPrecision" /><path
     class="fil4"
     d="m 8584,11305 c 0,139 -113,251 -252,251 -139,0 -251,-112 -251,-251 0,-139 112,-252 251,-252 139,0 252,113 252,252 z"
     id="path37"
     style="clip-rule:evenodd;fill-rule:evenodd;image-rendering:optimizeQuality;shape-rendering:geometricPrecision;text-rendering:geometricPrecision" /><polygon
     class="fil4"
     points="9660,13749 9956,13749 9956,15858 9660,15858 "
     id="polygon119"
     style="clip-rule:evenodd;fill-rule:evenodd;image-rendering:optimizeQuality;shape-rendering:geometricPrecision;text-rendering:geometricPrecision" /><polygon
     class="fil4"
     points="10176,13361 10472,13361 10472,15858 10176,15858 "
     id="polygon123"
     style="clip-rule:evenodd;fill-rule:evenodd;image-rendering:optimizeQuality;shape-rendering:geometricPrecision;text-rendering:geometricPrecision" /><polygon
     class="fil4"
     points="10691,14925 10987,14925 10987,15858 10691,15858 "
     id="polygon127"
     style="clip-rule:evenodd;fill-rule:evenodd;image-rendering:optimizeQuality;shape-rendering:geometricPrecision;text-rendering:geometricPrecision" /><polygon
     class="fil4"
     points="11207,13934 11503,13934 11503,15858 11207,15858 "
     id="polygon131"
     style="clip-rule:evenodd;fill-rule:evenodd;image-rendering:optimizeQuality;shape-rendering:geometricPrecision;text-rendering:geometricPrecision" /><polygon
     class="fil4"
     points="11723,13399 12018,13399 12018,15858 11723,15858 "
     id="polygon135"
     style="clip-rule:evenodd;fill-rule:evenodd;image-rendering:optimizeQuality;shape-rendering:geometricPrecision;text-rendering:geometricPrecision" /><path
     class="fil4"
     d="m 14661,13078 c 0,110 -90,199 -200,199 -110,0 -200,-89 -200,-199 0,-111 90,-200 200,-200 110,0 200,89 200,200 z"
     id="path268"
     style="clip-rule:evenodd;fill-rule:evenodd;image-rendering:optimizeQuality;shape-rendering:geometricPrecision;text-rendering:geometricPrecision" /><polygon
     class="fil5"
     points="22787,13164 23926,13164 23926,14988 24413,14988 24413,12677 22787,12677 "
     id="polygon141"
     style="clip-rule:evenodd;fill-rule:evenodd;image-rendering:optimizeQuality;shape-rendering:geometricPrecision;text-rendering:geometricPrecision" /><polygon
     class="fil4"
     points="20086,14497 20196,14497 20196,14896 20086,14896 "
     id="polygon168"
     style="shape-rendering:geometricPrecision;text-rendering:geometricPrecision;image-rendering:optimizeQuality;fill-rule:evenodd;clip-rule:evenodd;display:inline" /><rect
     class="fil13"
     x="16786"
     y="14319"
     width="3184"
     height="700"
     id="rect170"
     style="shape-rendering:geometricPrecision;text-rendering:geometricPrecision;image-rendering:optimizeQuality;fill-rule:evenodd;clip-rule:evenodd;display:inline" /></g><g
   inkscape:groupmode="layer"
   id="layer5"
   inkscape:label="Layer 5"
   style="display:inline"><path
     class="fil9"
     d="m 16171,2180 c 0,15 -5,27 -16,36 -11,8 -26,12 -45,12 -19,0 -35,-3 -47,-9 v -26 c 8,4 16,7 25,9 8,2 16,3 24,3 11,0 19,-2 24,-6 5,-4 8,-10 8,-17 0,-6 -2,-12 -7,-16 -5,-4 -15,-10 -30,-16 -15,-6 -26,-13 -32,-21 -7,-8 -10,-18 -10,-29 0,-14 5,-25 15,-33 10,-8 24,-12 41,-12 16,0 32,3 48,10 l -9,23 c -15,-6 -28,-10 -40,-10 -9,0 -16,2 -21,6 -4,4 -6,9 -6,16 0,4 1,8 2,11 2,3 5,6 9,9 5,3 12,6 23,11 13,5 22,10 28,14 5,5 10,10 12,15 3,6 4,13 4,20 z m 86,48 c -20,0 -36,-5 -47,-17 -11,-12 -17,-28 -17,-48 0,-21 6,-37 16,-49 10,-12 25,-18 43,-18 17,0 30,5 40,15 9,11 14,25 14,43 v 14 h -85 c 1,13 4,22 10,29 7,7 16,10 27,10 8,0 15,-1 21,-2 7,-2 14,-4 21,-7 v 22 c -7,3 -13,5 -20,6 -7,2 -15,2 -23,2 z m -5,-111 c -9,0 -16,2 -21,8 -5,5 -8,13 -9,24 h 58 c 0,-11 -3,-19 -8,-24 -5,-6 -12,-8 -20,-8 z m 165,109 -5,-18 h -1 c -6,8 -13,13 -19,16 -6,3 -14,4 -24,4 -12,0 -22,-3 -29,-10 -7,-7 -11,-16 -11,-29 0,-13 5,-23 15,-29 10,-7 25,-11 45,-11 l 22,-1 v -7 c 0,-8 -2,-14 -6,-18 -4,-4 -10,-6 -18,-6 -6,0 -13,1 -19,3 -6,2 -11,4 -17,6 l -9,-19 c 7,-4 15,-6 23,-8 8,-2 16,-3 23,-3 17,0 29,4 37,11 8,7 12,18 12,33 v 86 z m -40,-18 c 10,0 17,-3 23,-9 6,-5 9,-13 9,-23 v -11 l -16,1 c -13,0 -22,2 -28,6 -6,4 -9,10 -9,18 0,5 2,10 5,13 4,3 9,5 16,5 z m 162,-112 c 6,0 10,0 14,1 l -3,25 c -4,-1 -8,-1 -12,-1 -11,0 -20,4 -26,11 -7,7 -11,16 -11,27 v 67 h -27 v -128 h 22 l 3,23 h 2 c 4,-8 9,-14 16,-18 7,-5 14,-7 22,-7 z m 84,132 c -19,0 -34,-5 -44,-17 -10,-11 -15,-27 -15,-48 0,-22 5,-38 16,-50 10,-11 25,-17 45,-17 14,0 26,2 37,7 l -9,22 c -11,-4 -21,-6 -28,-6 -22,0 -33,14 -33,44 0,14 3,25 8,32 6,7 14,11 24,11 12,0 24,-3 35,-9 v 23 c -5,3 -11,5 -16,6 -6,2 -12,2 -20,2 z m 178,-2 h -27 v -79 c 0,-9 -2,-17 -6,-22 -4,-4 -11,-7 -19,-7 -12,0 -20,4 -25,10 -6,7 -8,19 -8,35 v 63 h -27 v -180 h 27 v 46 c 0,7 -1,15 -2,23 h 2 c 4,-6 9,-11 15,-14 7,-3 15,-5 23,-5 31,0 47,16 47,47 z"
     id="path41"
     style="clip-rule:evenodd;fill-rule:evenodd;image-rendering:optimizeQuality;shape-rendering:geometricPrecision;text-rendering:geometricPrecision" /><g
     id="g1245"
     style="clip-rule:evenodd;fill-rule:evenodd;image-rendering:optimizeQuality;shape-rendering:geometricPrecision;text-rendering:geometricPrecision"><path
       class="fil10 str1"
       d="m 15857,2170 c -31,31 -80,31 -110,0 -30,-30 -30,-79 0,-109 30,-31 79,-31 110,0 30,30 30,79 0,109"
       id="path43" /><line
       class="fil10 str1"
       x1="15683"
       y1="2234"
       x2="15747"
       y2="2170"
       id="line45" /></g><path
     class="fil3"
     d="m 2678,2252 -14,-47 h -72 l -15,47 h -45 l 70,-198 h 51 l 71,198 z m -24,-82 c -13,-43 -21,-67 -22,-72 -2,-6 -3,-10 -4,-14 -3,12 -12,40 -26,86 z m 175,-72 c 18,0 32,7 42,21 11,14 16,33 16,58 0,25 -6,44 -16,58 -11,13 -25,20 -43,20 -17,0 -31,-6 -42,-19 h -2 l -7,16 h -32 v -210 h 41 v 49 c 0,6 0,16 -1,30 h 1 c 10,-15 24,-23 43,-23 z m -13,33 c -10,0 -18,3 -22,10 -5,6 -7,16 -8,31 v 4 c 0,16 3,28 8,35 5,7 12,11 23,11 8,0 15,-4 20,-12 5,-8 7,-19 7,-34 0,-15 -2,-26 -7,-34 -5,-7 -12,-11 -21,-11 z m 138,45 c 0,15 2,27 7,34 5,8 13,12 24,12 11,0 19,-4 24,-11 5,-8 7,-19 7,-35 0,-14 -2,-26 -7,-33 -5,-8 -13,-11 -24,-11 -11,0 -19,3 -24,11 -5,7 -7,18 -7,33 z m 104,1 c 0,24 -6,43 -19,57 -13,14 -31,21 -55,21 -14,0 -27,-3 -38,-9 -11,-7 -20,-16 -26,-28 -6,-12 -9,-26 -9,-41 0,-25 7,-44 20,-58 13,-14 31,-21 54,-21 15,0 28,3 39,10 11,6 19,15 25,27 6,12 9,26 9,42 z m 142,75 -6,-19 h -2 c -5,7 -11,13 -19,16 -8,4 -17,6 -28,6 -18,0 -31,-5 -40,-14 -9,-10 -13,-23 -13,-41 v -99 h 41 v 88 c 0,11 2,20 6,25 3,6 10,8 18,8 12,0 20,-4 25,-11 5,-8 8,-21 8,-39 v -71 h 41 v 151 z m 138,-30 c 8,0 16,-1 26,-5 v 31 c -10,5 -23,7 -38,7 -16,0 -28,-4 -36,-12 -7,-9 -11,-21 -11,-38 v -73 h -20 v -17 l 23,-14 12,-32 h 26 v 32 h 43 v 31 h -43 v 73 c 0,6 2,10 5,13 4,3 8,4 13,4 z m 236,30 -5,-19 h -3 c -4,7 -10,13 -18,16 -9,4 -18,6 -28,6 -18,0 -31,-5 -40,-14 -9,-10 -14,-23 -14,-41 v -99 h 41 v 88 c 0,11 2,20 6,25 4,6 10,8 19,8 11,0 20,-4 25,-11 5,-8 8,-21 8,-39 v -71 h 41 v 151 z m 181,-44 c 0,15 -6,27 -16,35 -11,8 -27,12 -49,12 -11,0 -20,-1 -28,-2 -8,-2 -15,-4 -22,-7 v -34 c 8,4 17,7 26,9 10,3 18,4 26,4 15,0 22,-4 22,-13 0,-3 -1,-6 -3,-8 -2,-2 -5,-4 -10,-7 -5,-2 -12,-5 -20,-9 -11,-5 -20,-9 -25,-13 -6,-5 -10,-9 -12,-15 -3,-5 -4,-12 -4,-20 0,-13 5,-23 16,-31 10,-7 25,-11 44,-11 18,0 36,4 53,12 l -12,30 c -8,-3 -15,-6 -22,-8 -6,-2 -13,-3 -20,-3 -12,0 -18,3 -18,10 0,3 2,7 6,9 4,3 12,7 26,12 11,5 20,10 26,14 5,4 9,9 12,14 2,6 4,12 4,20 z"
     id="path13"
     style="clip-rule:evenodd;fill-rule:evenodd;image-rendering:optimizeQuality;shape-rendering:geometricPrecision;text-rendering:geometricPrecision" /><path
     class="fil3"
     d="m 4755,2245 h -53 l -87,-149 h -1 c 2,26 3,45 3,56 v 93 h -38 v -198 h 53 l 86,149 h 1 c -1,-26 -2,-44 -2,-55 v -94 h 38 z m 109,-124 c -9,0 -15,2 -20,8 -5,6 -8,13 -9,24 h 58 c 0,-11 -3,-18 -8,-24 -5,-6 -12,-8 -21,-8 z m 6,127 c -24,0 -43,-7 -57,-20 -14,-13 -21,-32 -21,-57 0,-25 7,-45 19,-59 13,-14 31,-21 53,-21 21,0 38,6 50,19 12,12 18,28 18,50 v 20 h -98 c 1,12 4,21 11,28 6,6 15,9 27,9 9,0 18,-1 26,-2 8,-2 16,-5 25,-10 v 32 c -7,4 -15,7 -23,9 -8,1 -18,2 -30,2 z m 214,-3 -11,-53 -16,-66 h -1 l -28,119 h -44 l -43,-151 h 41 l 17,67 c 3,12 6,29 9,50 h 1 c 0,-7 2,-18 5,-33 l 2,-11 18,-73 h 46 l 18,73 c 0,2 1,5 1,8 1,4 2,8 3,13 0,4 1,8 2,13 0,4 0,7 1,10 v 0 c 1,-7 3,-16 5,-27 2,-11 3,-19 4,-23 l 18,-67 h 41 l -44,151 z m 219,-44 c 0,15 -6,27 -16,35 -11,8 -27,12 -49,12 -11,0 -20,-1 -28,-2 -8,-2 -15,-4 -22,-7 v -34 c 8,4 17,7 26,9 10,3 18,4 26,4 15,0 22,-4 22,-13 0,-3 -1,-6 -3,-8 -2,-2 -5,-4 -10,-7 -5,-2 -12,-5 -20,-9 -11,-5 -20,-9 -25,-13 -6,-5 -10,-9 -12,-15 -3,-5 -4,-12 -4,-20 0,-13 5,-23 16,-31 10,-7 25,-11 44,-11 18,0 36,4 53,12 l -12,30 c -8,-3 -15,-6 -22,-8 -6,-2 -13,-3 -20,-3 -12,0 -18,3 -18,10 0,3 2,7 6,9 4,3 12,7 26,12 11,5 20,10 26,14 5,4 9,9 12,14 2,6 4,12 4,20 z"
     id="path15"
     style="clip-rule:evenodd;fill-rule:evenodd;image-rendering:optimizeQuality;shape-rendering:geometricPrecision;text-rendering:geometricPrecision" /><path
     class="fil3"
     d="m 8152,2198 c 0,17 -6,31 -19,42 -13,10 -31,15 -54,15 -21,0 -40,-4 -56,-12 v -39 c 13,6 25,10 34,13 9,2 18,4 25,4 10,0 17,-2 22,-6 4,-3 7,-8 7,-15 0,-4 -1,-8 -3,-11 -2,-3 -6,-6 -10,-8 -4,-3 -13,-8 -26,-14 -12,-6 -21,-11 -27,-16 -6,-6 -11,-12 -14,-19 -4,-7 -6,-15 -6,-24 0,-17 6,-31 18,-41 12,-10 28,-15 49,-15 11,0 20,1 30,3 9,3 19,6 29,11 l -13,32 c -11,-4 -20,-7 -27,-9 -7,-1 -13,-2 -20,-2 -8,0 -14,1 -18,5 -5,4 -7,9 -7,15 0,3 1,7 3,9 2,3 4,6 8,8 4,3 13,8 27,14 18,9 31,18 38,27 7,9 10,20 10,33 z m 95,-70 c -8,0 -15,2 -20,8 -5,6 -8,13 -9,24 h 58 c 0,-11 -3,-18 -8,-24 -5,-6 -12,-8 -21,-8 z m 6,127 c -24,0 -43,-7 -57,-20 -14,-13 -21,-32 -21,-57 0,-25 7,-45 19,-59 13,-14 31,-21 53,-21 22,0 38,6 50,19 12,12 18,29 18,50 v 20 h -98 c 1,12 4,21 11,28 6,6 15,9 27,9 9,0 18,-1 26,-2 8,-2 17,-5 25,-9 v 32 c -7,3 -15,6 -23,8 -8,1 -18,2 -30,2 z m 180,-157 c 6,0 10,1 14,1 l -3,39 c -4,-1 -8,-1 -12,-1 -14,0 -24,3 -31,10 -8,7 -11,16 -11,28 v 77 h -41 v -151 h 31 l 6,26 h 2 c 5,-9 11,-16 19,-21 8,-5 17,-8 26,-8 z m 77,154 -57,-151 h 43 l 29,86 c 3,11 6,22 6,31 h 1 c 1,-8 3,-19 6,-31 l 29,-86 h 44 l -58,151 z m 120,-190 c 0,-14 8,-20 23,-20 15,0 22,6 22,20 0,6 -2,11 -5,15 -4,3 -10,5 -17,5 -15,0 -23,-7 -23,-20 z m 43,190 h -41 v -151 h 41 z m 105,3 c -47,0 -70,-26 -70,-77 0,-26 6,-46 19,-59 13,-14 31,-21 55,-21 17,0 33,4 47,11 l -12,31 c -7,-2 -13,-4 -18,-6 -6,-2 -11,-2 -17,-2 -22,0 -32,15 -32,45 0,30 10,45 32,45 8,0 15,-1 22,-4 7,-2 13,-5 20,-9 v 35 c -6,4 -13,7 -20,9 -7,1 -15,2 -26,2 z m 144,-127 c -9,0 -16,2 -21,8 -4,6 -7,13 -8,24 h 58 c 0,-11 -3,-18 -8,-24 -5,-6 -12,-8 -21,-8 z m 6,127 c -24,0 -44,-7 -57,-20 -14,-13 -21,-32 -21,-57 0,-25 7,-45 19,-59 13,-14 30,-21 53,-21 21,0 38,6 50,19 12,12 18,29 18,50 v 20 h -98 c 0,12 4,21 10,28 7,6 16,9 28,9 9,0 18,-1 26,-2 8,-2 16,-5 25,-9 v 32 c -7,3 -15,6 -23,8 -8,1 -18,2 -30,2 z m 201,-47 c 0,15 -6,27 -16,35 -11,8 -27,12 -49,12 -11,0 -20,-1 -28,-2 -8,-2 -15,-4 -22,-7 v -34 c 8,4 17,7 26,9 10,3 18,4 26,4 15,0 22,-4 22,-13 0,-3 -1,-6 -3,-8 -2,-2 -5,-4 -10,-7 -5,-2 -12,-5 -20,-9 -11,-5 -20,-9 -25,-13 -6,-5 -10,-9 -12,-15 -3,-5 -4,-12 -4,-20 0,-13 5,-23 16,-31 10,-7 25,-11 44,-11 18,0 36,4 53,12 l -12,30 c -8,-3 -15,-6 -22,-8 -6,-2 -13,-3 -20,-3 -12,0 -18,3 -18,10 0,3 2,7 6,9 4,3 12,7 26,12 11,5 20,10 26,14 5,4 9,9 12,14 2,6 4,12 4,20 z"
     id="path17"
     style="clip-rule:evenodd;fill-rule:evenodd;image-rendering:optimizeQuality;shape-rendering:geometricPrecision;text-rendering:geometricPrecision" /><path
     class="fil3"
     d="m 10110,2213 c 0,18 -7,32 -19,42 -13,11 -31,16 -54,16 -21,0 -40,-4 -56,-12 v -39 c 13,6 25,10 34,13 9,2 17,3 25,3 9,0 16,-2 21,-5 5,-4 8,-9 8,-16 0,-4 -1,-7 -3,-10 -3,-3 -6,-6 -10,-9 -4,-3 -13,-7 -26,-13 -12,-6 -21,-11 -27,-17 -6,-5 -11,-11 -14,-18 -4,-7 -6,-15 -6,-24 0,-18 6,-32 18,-42 12,-10 28,-15 49,-15 10,0 20,2 30,4 9,2 19,6 29,10 l -14,33 c -10,-4 -19,-7 -26,-9 -7,-2 -13,-3 -20,-3 -8,0 -14,2 -18,6 -5,4 -7,8 -7,14 0,4 1,7 3,10 1,3 4,5 8,8 4,3 13,7 27,14 18,9 31,18 38,27 6,8 10,19 10,32 z m 140,55 -6,-19 h -2 c -4,7 -11,12 -19,16 -8,4 -17,6 -28,6 -17,0 -31,-5 -40,-14 -9,-10 -13,-24 -13,-42 v -98 h 41 v 88 c 0,11 2,19 6,25 4,5 10,8 18,8 12,0 20,-4 25,-12 5,-7 8,-20 8,-38 v -71 h 41 v 151 z m 158,3 c -18,0 -32,-7 -42,-19 h -2 c 1,12 2,19 2,21 v 62 h -41 v -218 h 33 l 6,19 h 2 c 10,-15 24,-22 43,-22 18,0 32,7 42,21 10,13 15,33 15,57 0,16 -2,30 -7,42 -5,12 -11,21 -20,28 -9,6 -19,9 -31,9 z m -12,-124 c -10,0 -18,3 -23,9 -4,7 -7,17 -7,31 v 5 c 0,16 2,28 7,35 5,7 13,10 23,10 19,0 28,-15 28,-45 0,-15 -2,-26 -7,-34 -4,-7 -12,-11 -21,-11 z m 187,124 c -17,0 -31,-7 -42,-19 h -2 c 2,12 2,19 2,21 v 62 h -41 v -218 h 34 l 6,19 h 1 c 10,-15 24,-22 43,-22 18,0 32,7 42,21 11,13 16,33 16,57 0,16 -3,30 -8,42 -4,12 -11,21 -20,28 -9,6 -19,9 -31,9 z m -12,-124 c -10,0 -17,3 -22,9 -5,7 -7,17 -8,31 v 5 c 0,16 3,28 8,35 5,7 12,10 23,10 18,0 27,-15 27,-45 0,-15 -2,-26 -6,-34 -5,-7 -12,-11 -22,-11 z m 138,45 c 0,15 2,26 7,34 5,8 13,12 24,12 11,0 19,-4 24,-12 5,-7 7,-19 7,-34 0,-15 -2,-26 -7,-34 -5,-7 -13,-11 -24,-11 -11,0 -19,4 -24,11 -5,8 -7,19 -7,34 z m 104,0 c 0,25 -6,44 -19,58 -13,14 -31,21 -55,21 -14,0 -27,-3 -38,-10 -11,-6 -20,-15 -26,-27 -6,-12 -9,-26 -9,-42 0,-25 7,-44 20,-57 13,-14 31,-21 54,-21 15,0 28,3 39,9 11,7 19,16 25,28 6,11 9,25 9,41 z m 119,-78 c 5,0 10,0 14,1 l -3,39 c -4,-1 -8,-1 -13,-1 -13,0 -23,3 -30,10 -8,6 -11,16 -11,28 v 77 h -42 v -151 h 32 l 6,25 h 2 c 4,-8 11,-15 19,-20 8,-5 16,-8 26,-8 z m 105,124 c 7,0 16,-2 26,-5 v 31 c -10,5 -23,7 -38,7 -16,0 -28,-4 -36,-13 -7,-8 -11,-21 -11,-37 v -73 h -20 v -18 l 23,-14 12,-31 h 26 v 32 h 42 v 31 h -42 v 73 c 0,6 2,10 5,13 3,3 8,4 13,4 z"
     id="path19"
     style="clip-rule:evenodd;fill-rule:evenodd;image-rendering:optimizeQuality;shape-rendering:geometricPrecision;text-rendering:geometricPrecision" /><path
     class="fil3"
     d="m 6227,2081 c -15,0 -28,6 -36,18 -9,12 -13,28 -13,49 0,45 16,67 49,67 14,0 31,-4 51,-11 v 35 c -16,7 -35,11 -55,11 -28,0 -50,-9 -66,-27 -15,-17 -22,-42 -22,-75 0,-20 3,-38 11,-54 7,-15 18,-27 32,-36 14,-8 30,-12 49,-12 20,0 39,5 58,14 l -13,34 c -8,-3 -15,-6 -23,-9 -7,-3 -14,-4 -22,-4 z m 123,90 c 0,15 2,26 7,34 5,7 13,11 24,11 11,0 19,-3 24,-11 5,-8 7,-19 7,-34 0,-15 -2,-26 -7,-34 -5,-7 -13,-11 -24,-11 -11,0 -19,4 -24,11 -5,8 -7,19 -7,34 z m 104,0 c 0,25 -6,44 -19,58 -13,14 -31,21 -55,21 -14,0 -27,-4 -38,-10 -11,-6 -20,-15 -26,-27 -6,-12 -8,-26 -8,-42 0,-25 6,-44 19,-58 13,-13 31,-20 54,-20 15,0 28,3 39,9 11,6 19,16 25,27 6,12 9,26 9,42 z m 174,76 h -41 v -89 c 0,-10 -2,-19 -6,-24 -4,-6 -10,-8 -19,-8 -11,0 -19,3 -25,11 -5,8 -7,21 -7,39 v 71 h -42 v -152 h 32 l 5,20 h 3 c 4,-7 11,-13 19,-17 8,-3 17,-5 27,-5 18,0 31,4 40,14 9,9 14,23 14,41 z m 106,-30 c 8,0 16,-2 26,-5 v 31 c -10,4 -23,7 -38,7 -16,0 -28,-5 -36,-13 -7,-8 -11,-21 -11,-37 v -74 h -20 v -17 l 23,-14 12,-32 h 26 v 32 h 43 v 31 h -43 v 73 c 0,6 2,11 5,13 4,3 8,5 13,5 z m 153,30 -8,-21 h -1 c -7,9 -14,15 -21,19 -8,3 -17,5 -29,5 -15,0 -26,-5 -35,-13 -8,-8 -12,-20 -12,-35 0,-16 6,-28 17,-36 11,-8 28,-12 51,-13 h 26 v -7 c 0,-15 -8,-23 -24,-23 -12,0 -26,4 -42,11 l -14,-28 c 17,-9 37,-14 58,-14 20,0 36,5 47,14 11,8 16,22 16,40 v 101 z m -12,-70 h -16 c -12,1 -21,3 -27,7 -6,4 -9,10 -9,18 0,12 7,17 20,17 10,0 18,-2 23,-8 6,-5 9,-13 9,-22 z m 145,73 c -47,0 -71,-26 -71,-78 0,-26 7,-45 19,-59 13,-14 32,-20 56,-20 17,0 33,3 47,10 l -13,32 c -6,-3 -12,-5 -18,-7 -5,-1 -11,-2 -16,-2 -22,0 -33,15 -33,46 0,29 11,44 33,44 7,0 15,-1 22,-3 6,-2 13,-6 20,-10 v 35 c -7,5 -14,8 -20,9 -7,2 -16,3 -26,3 z m 145,-33 c 7,0 16,-2 26,-5 v 31 c -11,4 -23,7 -38,7 -17,0 -29,-5 -36,-13 -8,-8 -12,-21 -12,-37 v -74 h -19 v -17 l 22,-14 12,-32 h 27 v 32 h 42 v 31 h -42 v 73 c 0,6 1,11 5,13 3,3 7,5 13,5 z"
     id="path21"
     style="clip-rule:evenodd;fill-rule:evenodd;image-rendering:optimizeQuality;shape-rendering:geometricPrecision;text-rendering:geometricPrecision" /><g
     id="g1407"
     style="clip-rule:evenodd;fill-rule:evenodd;image-rendering:optimizeQuality;shape-rendering:geometricPrecision;text-rendering:geometricPrecision"><path
       class="fil6"
       d="m 23939,2029 c 0,44 -36,79 -80,79 -44,0 -79,-35 -79,-79 0,-44 35,-80 79,-80 44,0 80,36 80,80 z"
       id="path29" /><path
       class="fil6"
       d="m 23859,2154 c -80,0 -145,64 -145,144 h 290 c 0,-80 -65,-144 -145,-144 z"
       id="path31" /></g><path
     class="fil6"
     d="m 6696,7951 h 61 c 28,0 49,4 61,12 13,8 19,21 19,38 0,12 -2,22 -8,29 -5,8 -13,12 -22,14 v 1 c 12,3 21,8 27,16 6,8 8,18 8,31 0,18 -6,32 -19,42 -13,10 -31,15 -53,15 h -74 z m 42,78 h 24 c 11,0 20,-1 25,-5 5,-3 7,-9 7,-17 0,-8 -2,-13 -8,-17 -6,-3 -14,-5 -26,-5 h -22 z m 0,34 v 51 h 27 c 12,0 20,-2 26,-6 5,-5 8,-11 8,-21 0,-16 -12,-24 -35,-24 z m 248,86 -6,-19 h -2 c -4,7 -11,12 -19,16 -8,4 -17,6 -27,6 -18,0 -32,-5 -41,-15 -9,-9 -13,-23 -13,-41 v -98 h 41 v 88 c 0,11 2,19 6,25 4,5 10,8 18,8 12,0 20,-4 25,-12 6,-8 8,-20 8,-38 v -71 h 41 v 151 z m 139,-30 c 7,0 15,-2 26,-5 v 31 c -11,4 -23,7 -38,7 -17,0 -29,-4 -36,-13 -8,-8 -12,-21 -12,-37 v -73 h -19 v -18 l 22,-14 12,-32 h 27 v 33 h 42 v 31 h -42 v 73 c 0,5 1,10 5,13 3,2 7,4 13,4 z m 120,0 c 7,0 16,-2 26,-5 v 31 c -10,4 -23,7 -38,7 -16,0 -29,-4 -36,-13 -8,-8 -11,-21 -11,-37 v -73 h -20 v -18 l 23,-14 12,-32 h 26 v 33 h 42 v 31 h -42 v 73 c 0,5 2,10 5,13 3,2 8,4 13,4 z m 89,-46 c 0,15 3,26 8,34 5,8 13,12 24,12 11,0 19,-4 24,-12 4,-8 7,-19 7,-34 0,-15 -3,-26 -8,-34 -4,-7 -12,-11 -23,-11 -11,0 -19,4 -24,11 -5,8 -8,19 -8,34 z m 105,0 c 0,25 -6,44 -19,58 -13,14 -32,21 -55,21 -14,0 -27,-3 -38,-10 -11,-6 -20,-15 -26,-27 -6,-12 -9,-26 -9,-42 0,-25 7,-44 20,-58 13,-13 31,-20 54,-20 15,0 27,3 39,9 11,7 19,16 25,28 6,11 9,25 9,41 z m 174,76 h -41 v -88 c 0,-11 -2,-20 -6,-25 -4,-5 -10,-8 -19,-8 -11,0 -20,4 -25,11 -5,8 -8,21 -8,39 v 71 h -41 v -151 h 32 l 5,19 h 3 c 4,-7 11,-13 19,-17 8,-3 17,-5 27,-5 18,0 31,5 40,14 9,10 14,23 14,41 z"
     id="path180"
     style="clip-rule:evenodd;fill-rule:evenodd;image-rendering:optimizeQuality;shape-rendering:geometricPrecision;text-rendering:geometricPrecision" /><path
     class="fil6"
     d="m 3124,7950 h 62 c 28,0 48,4 61,12 13,8 19,21 19,38 0,12 -3,22 -8,29 -6,8 -13,12 -22,14 v 1 c 12,3 21,8 27,16 5,8 8,18 8,30 0,19 -6,33 -19,43 -14,10 -31,15 -54,15 h -74 z m 42,78 h 25 c 11,0 19,-1 24,-5 5,-3 8,-9 8,-17 0,-8 -3,-13 -8,-17 -6,-3 -15,-5 -27,-5 h -22 z m 0,34 v 51 h 28 c 11,0 20,-2 25,-6 6,-5 8,-12 8,-21 0,-16 -11,-24 -35,-24 z m 249,86 -6,-19 h -2 c -5,7 -11,12 -19,16 -8,4 -17,6 -28,6 -18,0 -31,-5 -40,-15 -9,-9 -13,-23 -13,-41 v -98 h 41 v 88 c 0,11 2,19 6,24 3,6 10,9 18,9 12,0 20,-4 25,-12 5,-8 8,-20 8,-38 v -71 h 41 v 151 z m 138,-30 c 8,0 16,-2 26,-5 v 31 c -10,4 -23,7 -38,7 -16,0 -28,-4 -36,-13 -7,-8 -11,-21 -11,-37 v -73 h -20 v -18 l 23,-14 12,-32 h 26 v 33 h 43 v 31 h -43 v 72 c 0,6 2,11 5,13 4,3 8,5 13,5 z m 121,0 c 7,0 16,-2 26,-5 v 31 c -11,4 -23,7 -38,7 -17,0 -29,-4 -36,-13 -8,-8 -12,-21 -12,-37 v -73 h -19 v -18 l 22,-14 12,-32 h 27 v 33 h 42 v 31 h -42 v 72 c 0,6 1,11 5,13 3,3 7,5 13,5 z m 89,-46 c 0,15 3,26 7,34 5,8 13,11 25,11 11,0 18,-3 23,-11 5,-8 7,-19 7,-34 0,-15 -2,-26 -7,-34 -5,-7 -13,-11 -24,-11 -11,0 -19,4 -24,11 -4,8 -7,19 -7,34 z m 105,0 c 0,25 -7,44 -20,58 -13,14 -31,21 -54,21 -15,0 -27,-4 -38,-10 -12,-6 -20,-15 -26,-27 -6,-12 -9,-26 -9,-42 0,-25 6,-44 19,-58 13,-13 31,-20 55,-20 14,0 27,3 38,9 11,7 20,16 26,27 6,12 9,26 9,42 z m 174,76 h -42 v -89 c 0,-10 -2,-19 -6,-24 -3,-6 -10,-8 -18,-8 -12,0 -20,4 -25,11 -5,8 -8,21 -8,39 v 71 h -41 v -151 h 31 l 6,19 h 2 c 5,-7 11,-13 19,-17 8,-3 18,-5 28,-5 17,0 31,4 40,14 9,10 14,23 14,41 z"
     id="path184"
     style="clip-rule:evenodd;fill-rule:evenodd;image-rendering:optimizeQuality;shape-rendering:geometricPrecision;text-rendering:geometricPrecision" /><path
     class="fil3"
     d="m 2439,12650 c 0,32 -9,57 -28,74 -18,18 -45,26 -81,26 h -56 v -198 h 62 c 33,0 58,9 76,26 18,17 27,41 27,72 z m -44,1 c 0,-43 -19,-64 -56,-64 h -23 v 129 h 18 c 41,0 61,-22 61,-65 z m 115,23 c 0,15 3,27 8,34 5,8 13,12 24,12 11,0 19,-4 24,-12 5,-7 7,-18 7,-34 0,-15 -2,-26 -7,-33 -5,-8 -13,-11 -24,-11 -11,0 -19,3 -24,11 -5,7 -8,18 -8,33 z m 106,1 c 0,24 -7,43 -20,57 -13,14 -31,21 -55,21 -14,0 -27,-3 -38,-9 -11,-7 -20,-16 -26,-28 -6,-12 -9,-26 -9,-41 0,-25 6,-44 19,-58 13,-14 32,-21 55,-21 15,0 28,3 39,10 11,6 20,15 26,27 6,12 9,26 9,42 z m 154,75 -12,-53 -16,-66 h -1 l -28,119 h -44 l -44,-151 h 42 l 17,67 c 3,12 6,29 9,50 h 1 c 0,-7 2,-18 5,-33 l 2,-11 19,-73 h 45 l 18,73 c 1,2 1,5 2,8 1,4 1,8 2,13 1,4 1,8 2,13 1,4 1,7 1,10 h 1 c 1,-7 2,-16 4,-27 2,-11 4,-19 5,-23 l 18,-67 h 41 l -44,151 z m 254,0 h -42 v -88 c 0,-11 -2,-19 -6,-25 -3,-5 -10,-8 -18,-8 -12,0 -20,4 -25,12 -6,8 -8,20 -8,38 v 71 h -42 v -151 h 32 l 6,19 h 2 c 5,-7 11,-12 19,-16 8,-4 17,-6 28,-6 17,0 31,5 40,15 9,9 14,23 14,41 z m 84,0 h -41 v -210 h 41 z m 77,-76 c 0,15 2,27 7,34 5,8 13,12 25,12 11,0 19,-4 23,-12 5,-7 8,-18 8,-34 0,-15 -3,-26 -8,-33 -5,-8 -13,-11 -24,-11 -11,0 -19,3 -24,11 -5,7 -7,18 -7,33 z m 105,1 c 0,24 -6,43 -19,57 -13,14 -32,21 -55,21 -15,0 -27,-3 -39,-9 -11,-7 -19,-16 -25,-28 -6,-12 -9,-26 -9,-41 0,-25 6,-44 19,-58 13,-14 31,-21 55,-21 14,0 27,3 39,10 11,6 19,15 25,27 6,12 9,26 9,42 z m 131,75 -8,-20 h -1 c -7,9 -14,15 -21,18 -8,3 -17,5 -29,5 -15,0 -26,-4 -35,-12 -8,-9 -12,-20 -12,-36 0,-16 5,-28 17,-35 11,-8 28,-12 51,-13 l 26,-1 v -7 c 0,-15 -8,-23 -24,-23 -12,0 -26,4 -43,11 l -13,-27 c 17,-10 37,-14 58,-14 20,0 36,4 47,13 11,9 16,23 16,41 v 100 z m -12,-70 -16,1 c -12,0 -21,2 -27,6 -6,4 -9,10 -9,18 0,12 7,18 20,18 10,0 18,-3 23,-8 6,-6 9,-13 9,-22 z m 132,73 c -17,0 -32,-7 -42,-21 -10,-13 -15,-32 -15,-57 0,-25 5,-44 15,-58 11,-14 25,-21 44,-21 19,0 33,8 43,22 h 2 c -2,-11 -3,-21 -3,-30 v -48 h 41 v 210 h -32 l -8,-19 h -1 c -10,15 -24,22 -44,22 z m 15,-33 c 11,0 18,-3 23,-9 5,-6 8,-17 8,-31 v -5 c 0,-16 -2,-28 -7,-35 -5,-7 -13,-10 -25,-10 -9,0 -16,4 -21,11 -5,8 -8,20 -8,35 0,14 3,26 8,33 5,7 12,11 22,11 z"
     id="path23"
     style="clip-rule:evenodd;fill-rule:evenodd;image-rendering:optimizeQuality;shape-rendering:geometricPrecision;text-rendering:geometricPrecision" /><path
     class="fil3"
     d="m 7976,13332 c 0,-77 32,-116 95,-116 10,0 18,1 25,2 v 27 c -7,-2 -15,-3 -24,-3 -21,0 -37,5 -48,17 -10,11 -16,29 -17,55 h 2 c 4,-8 10,-13 18,-17 7,-4 16,-6 27,-6 18,0 32,5 42,16 10,11 15,26 15,45 0,21 -6,37 -18,49 -11,12 -27,18 -47,18 -14,0 -27,-3 -37,-10 -11,-7 -19,-17 -24,-30 -6,-13 -9,-29 -9,-47 z m 69,61 c 11,0 20,-4 26,-11 6,-7 8,-17 8,-30 0,-11 -2,-20 -8,-27 -5,-6 -14,-9 -25,-9 -7,0 -13,1 -19,4 -6,3 -10,7 -14,12 -3,5 -5,10 -5,16 0,12 4,23 11,32 7,9 16,13 26,13 z m 223,-75 c 0,34 -5,59 -16,76 -11,17 -28,25 -51,25 -22,0 -39,-8 -50,-26 -12,-17 -17,-42 -17,-75 0,-35 5,-61 16,-78 11,-16 28,-25 51,-25 22,0 39,9 50,26 12,18 17,43 17,77 z m -102,-1 c 0,27 3,47 8,58 6,12 15,18 27,18 12,0 21,-6 27,-18 5,-12 8,-31 8,-58 0,-26 -3,-45 -8,-57 -6,-12 -15,-18 -27,-18 -12,0 -21,6 -27,18 -5,11 -8,30 -8,57 z m 152,-39 c 0,13 1,23 4,30 2,6 7,10 13,10 12,0 18,-14 18,-40 0,-27 -6,-40 -18,-40 -6,0 -11,3 -13,10 -3,6 -4,16 -4,30 z m 61,0 c 0,20 -4,36 -11,46 -8,11 -19,16 -33,16 -14,0 -25,-5 -32,-16 -8,-11 -12,-26 -12,-46 0,-42 15,-62 44,-62 14,0 25,5 32,16 8,10 12,26 12,46 z m 68,79 c 0,13 1,23 4,30 2,7 7,10 13,10 12,0 17,-13 17,-40 0,-27 -5,-40 -17,-40 -6,0 -11,3 -13,10 -3,6 -4,16 -4,30 z m 61,0 c 0,21 -4,36 -12,47 -7,10 -18,15 -32,15 -14,0 -25,-5 -32,-16 -8,-11 -12,-26 -12,-46 0,-41 15,-62 44,-62 14,0 24,5 32,16 8,11 12,26 12,46 z m -40,-139 -110,198 h -27 l 110,-198 z"
     id="path101"
     style="clip-rule:evenodd;fill-rule:evenodd;image-rendering:optimizeQuality;shape-rendering:geometricPrecision;text-rendering:geometricPrecision" /><polygon
     class="fil6"
     points="7822,15013 7960,15093 8097,15172 7960,15252 7822,15331 7822,15172 "
     id="polygon59"
     style="clip-rule:evenodd;fill-rule:evenodd;image-rendering:optimizeQuality;shape-rendering:geometricPrecision;text-rendering:geometricPrecision" /><polygon
     class="fil6"
     points="5511,15270 5316,15270 5316,15075 5511,15075 "
     id="polygon61"
     style="clip-rule:evenodd;fill-rule:evenodd;image-rendering:optimizeQuality;shape-rendering:geometricPrecision;text-rendering:geometricPrecision" /><polygon
     class="fil6"
     points="3838,15031 3960,15102 4082,15172 3960,15243 3838,15313 3838,15172 "
     id="polygon63"
     style="clip-rule:evenodd;fill-rule:evenodd;image-rendering:optimizeQuality;shape-rendering:geometricPrecision;text-rendering:geometricPrecision" /><polygon
     class="fil6"
     points="4082,15031 4204,15102 4326,15172 4204,15243 4082,15313 4082,15172 "
     id="polygon65"
     style="clip-rule:evenodd;fill-rule:evenodd;image-rendering:optimizeQuality;shape-rendering:geometricPrecision;text-rendering:geometricPrecision" /><polygon
     class="fil6"
     points="2951,15031 2829,15102 2707,15172 2829,15243 2951,15313 2951,15172 "
     id="polygon67"
     style="clip-rule:evenodd;fill-rule:evenodd;image-rendering:optimizeQuality;shape-rendering:geometricPrecision;text-rendering:geometricPrecision" /><polygon
     class="fil6"
     points="2707,15031 2585,15102 2463,15172 2585,15243 2707,15313 2707,15172 "
     id="polygon69"
     style="clip-rule:evenodd;fill-rule:evenodd;image-rendering:optimizeQuality;shape-rendering:geometricPrecision;text-rendering:geometricPrecision" /><polygon
     class="fil6"
     points="6648,15270 6551,15270 6551,15075 6648,15075 "
     id="polygon71"
     style="clip-rule:evenodd;fill-rule:evenodd;image-rendering:optimizeQuality;shape-rendering:geometricPrecision;text-rendering:geometricPrecision" /><polygon
     class="fil6"
     points="6828,15270 6731,15270 6731,15075 6828,15075 "
     id="polygon73"
     style="clip-rule:evenodd;fill-rule:evenodd;image-rendering:optimizeQuality;shape-rendering:geometricPrecision;text-rendering:geometricPrecision" /><path
     class="fil6"
     d="m 3471,11177 h 68 c 31,0 54,4 68,13 14,9 21,23 21,42 0,14 -3,24 -9,33 -6,8 -15,13 -25,15 v 1 c 14,4 24,9 30,18 6,8 10,20 10,34 0,20 -8,35 -22,47 -15,11 -34,17 -59,17 h -82 z m 46,87 h 27 c 13,0 22,-2 28,-6 5,-4 8,-10 8,-19 0,-9 -3,-15 -9,-19 -6,-3 -16,-5 -29,-5 h -25 z m 0,37 v 57 h 30 c 13,0 23,-2 29,-7 6,-5 9,-13 9,-23 0,-18 -13,-27 -39,-27 z"
     id="path188"
     style="clip-rule:evenodd;fill-rule:evenodd;image-rendering:optimizeQuality;shape-rendering:geometricPrecision;text-rendering:geometricPrecision" /><path
     class="fil6"
     d="m 2386,11177 h 68 c 32,0 54,4 68,13 14,9 21,23 21,42 0,14 -3,24 -9,33 -6,8 -14,13 -24,15 v 1 c 13,4 24,9 30,18 6,8 9,20 9,34 0,20 -7,35 -22,47 -14,11 -34,17 -59,17 h -82 z m 47,87 h 27 c 12,0 21,-2 27,-6 6,-4 9,-10 9,-19 0,-9 -4,-15 -10,-19 -6,-3 -16,-5 -29,-5 h -24 z m 0,37 v 57 h 30 c 13,0 22,-2 28,-7 7,-5 10,-13 10,-23 0,-18 -13,-27 -40,-27 z"
     id="path192"
     style="clip-rule:evenodd;fill-rule:evenodd;image-rendering:optimizeQuality;shape-rendering:geometricPrecision;text-rendering:geometricPrecision" /><g
     id="on-off-button_1228.svg"
     style="clip-rule:evenodd;fill-rule:evenodd;image-rendering:optimizeQuality;shape-rendering:geometricPrecision;text-rendering:geometricPrecision">
   <g
   id="g196">
    <path
   class="fil2"
   d="m 6044,11303 v -140 c 0,-16 13,-28 28,-28 16,0 28,12 28,28 v 140 c 0,15 -12,28 -28,28 -15,0 -28,-13 -28,-28 z m 139,-127 c -9,-7 -22,-6 -29,3 -7,9 -6,23 3,30 34,26 53,66 53,108 0,76 -62,138 -138,138 -76,0 -137,-62 -137,-138 0,-42 19,-82 52,-108 9,-7 11,-21 3,-30 -7,-9 -20,-10 -29,-3 -44,34 -69,86 -69,141 0,99 81,180 180,180 99,0 180,-81 180,-180 0,-55 -25,-107 -69,-141 z"
   id="path194" />
   </g>
   <g
   id="g198">
   </g>
   <g
   id="g200">
   </g>
   <g
   id="g202">
   </g>
   <g
   id="g204">
   </g>
   <g
   id="g206">
   </g>
   <g
   id="g208">
   </g>
   <g
   id="g210">
   </g>
   <g
   id="g212">
   </g>
   <g
   id="g214">
   </g>
   <g
   id="g216">
   </g>
   <g
   id="g218">
   </g>
   <g
   id="g220">
   </g>
   <g
   id="g222">
   </g>
   <g
   id="g224">
   </g>
   <g
   id="g226">
   </g>
  </g><g
     id="on-off-button_1228.svg_0"
     style="clip-rule:evenodd;fill-rule:evenodd;image-rendering:optimizeQuality;shape-rendering:geometricPrecision;text-rendering:geometricPrecision">
   <g
   id="g231">
    <path
   class="fil2"
   d="m 4948,11303 v -140 c 0,-16 13,-28 28,-28 16,0 28,12 28,28 v 140 c 0,15 -12,28 -28,28 -15,0 -28,-13 -28,-28 z m 139,-127 c -9,-7 -22,-6 -29,3 -7,9 -6,23 3,30 34,26 53,66 53,108 0,76 -62,138 -138,138 -76,0 -137,-62 -137,-138 0,-42 19,-82 52,-108 9,-7 11,-21 3,-30 -7,-9 -20,-10 -29,-3 -44,34 -69,86 -69,141 0,99 81,180 180,180 99,0 180,-81 180,-180 0,-55 -25,-107 -69,-141 z"
   id="path229" />
   </g>
   <g
   id="g233">
   </g>
   <g
   id="g235">
   </g>
   <g
   id="g237">
   </g>
   <g
   id="g239">
   </g>
   <g
   id="g241">
   </g>
   <g
   id="g243">
   </g>
   <g
   id="g245">
   </g>
   <g
   id="g247">
   </g>
   <g
   id="g249">
   </g>
   <g
   id="g251">
   </g>
   <g
   id="g253">
   </g>
   <g
   id="g255">
   </g>
   <g
   id="g257">
   </g>
   <g
   id="g259">
   </g>
   <g
   id="g261">
   </g>
  </g><path
     class="fil3"
     d="m 14443,13015 c 0,-6 2,-11 6,-15 4,-5 9,-7 15,-7 6,0 12,2 16,6 4,5 6,10 6,16 0,6 -2,11 -6,15 -5,4 -10,6 -16,6 -6,0 -11,-2 -15,-6 -4,-4 -6,-9 -6,-15 z m 2,145 v -111 h 39 v 111 z"
     id="path270"
     style="clip-rule:evenodd;fill-rule:evenodd;image-rendering:optimizeQuality;shape-rendering:geometricPrecision;text-rendering:geometricPrecision" /><polygon
     class="fil6"
     points="19695,12958 19628,13052 19560,13146 19493,13052 19426,12958 19560,12958 "
     id="polygon158"
     style="clip-rule:evenodd;fill-rule:evenodd;image-rendering:optimizeQuality;shape-rendering:geometricPrecision;text-rendering:geometricPrecision" /><path
     class="fil6"
     d="m 17779,13023 c 0,33 -9,58 -28,75 -18,18 -45,26 -80,26 h -56 v -198 h 62 c 32,0 57,9 75,26 18,17 27,41 27,71 z m -44,1 c 0,-42 -18,-63 -56,-63 h -22 v 129 h 18 c 40,0 60,-22 60,-66 z m 166,-54 c 6,0 11,1 14,1 l -3,39 c -3,-1 -7,-1 -12,-1 -13,0 -23,3 -31,10 -7,7 -11,16 -11,28 v 77 h -41 v -151 h 31 l 6,25 h 2 c 5,-8 11,-15 19,-20 8,-5 17,-8 26,-8 z m 69,78 c 0,15 3,27 8,34 4,8 12,12 24,12 11,0 18,-4 23,-12 5,-7 8,-19 8,-34 0,-15 -3,-26 -8,-33 -5,-8 -13,-12 -24,-12 -11,0 -19,4 -24,12 -4,7 -7,18 -7,33 z m 105,0 c 0,25 -7,44 -20,58 -13,14 -31,21 -54,21 -14,0 -27,-3 -38,-9 -12,-7 -20,-16 -26,-28 -6,-12 -9,-26 -9,-42 0,-24 7,-44 19,-57 13,-14 31,-21 55,-21 14,0 27,3 38,10 11,6 20,15 26,27 6,12 9,26 9,41 z m 117,79 c -18,0 -32,-6 -42,-19 h -2 c 2,12 2,20 2,22 v 61 h -41 v -218 h 34 l 5,20 h 2 c 10,-15 24,-23 43,-23 18,0 32,7 42,21 10,14 15,33 15,57 0,17 -2,31 -7,43 -4,11 -11,21 -20,27 -9,6 -19,9 -31,9 z m -12,-124 c -10,0 -18,3 -22,10 -5,6 -8,16 -8,31 v 4 c 0,16 3,28 7,35 5,7 13,11 23,11 19,0 28,-16 28,-46 0,-15 -2,-26 -7,-34 -4,-7 -11,-11 -21,-11 z m 224,124 c -17,0 -31,-7 -42,-21 -10,-13 -15,-33 -15,-57 0,-25 5,-44 16,-58 10,-14 24,-21 43,-21 19,0 33,8 43,22 h 1 c -2,-11 -3,-21 -3,-30 v -48 h 42 v 210 h -32 l -8,-19 h -2 c -9,15 -23,22 -43,22 z m 15,-33 c 11,0 18,-3 23,-9 5,-6 8,-17 8,-31 v -5 c 0,-16 -2,-28 -7,-35 -5,-7 -13,-10 -25,-10 -9,0 -16,4 -21,11 -5,8 -8,20 -8,34 0,15 3,26 8,34 5,7 12,11 22,11 z m 146,-46 c 0,15 2,27 7,34 5,8 13,12 24,12 11,0 19,-4 24,-12 5,-7 7,-19 7,-34 0,-15 -2,-26 -7,-33 -5,-8 -13,-12 -24,-12 -11,0 -19,4 -24,12 -5,7 -7,18 -7,33 z m 104,0 c 0,25 -6,44 -19,58 -13,14 -31,21 -54,21 -15,0 -28,-3 -39,-9 -11,-7 -19,-16 -25,-28 -6,-12 -9,-26 -9,-42 0,-24 6,-44 19,-57 13,-14 31,-21 55,-21 14,0 27,3 38,10 11,6 20,15 26,27 5,12 8,26 8,41 z m 153,76 -11,-53 -16,-67 h -1 l -27,120 h -45 l -43,-151 h 41 l 18,67 c 3,12 5,29 8,50 h 1 c 0,-7 2,-18 5,-33 l 2,-11 19,-73 h 45 l 18,73 c 0,2 1,4 2,8 0,4 1,8 2,13 1,4 1,8 2,13 0,4 1,7 1,10 h 1 c 0,-7 2,-16 4,-27 2,-11 4,-19 4,-23 l 19,-67 h 40 l -44,151 z m 253,0 h -41 v -88 c 0,-11 -2,-19 -6,-25 -4,-5 -10,-8 -19,-8 -11,0 -19,4 -25,12 -5,7 -7,20 -7,38 v 71 h -42 v -151 h 32 l 6,19 h 2 c 4,-7 11,-13 19,-16 8,-4 17,-6 27,-6 18,0 31,5 40,14 10,10 14,24 14,42 z"
     id="path160"
     style="clip-rule:evenodd;fill-rule:evenodd;image-rendering:optimizeQuality;shape-rendering:geometricPrecision;text-rendering:geometricPrecision" /><path
     class="fil3"
     d="m 18142,14742 h -33 v -178 h -58 v -29 h 149 v 29 h -58 z m 117,0 h -32 v -156 h 32 z m -34,-198 c 0,-6 2,-10 5,-14 3,-3 7,-4 13,-4 6,0 10,1 13,4 3,4 5,8 5,14 0,6 -2,10 -5,14 -3,3 -7,4 -13,4 -6,0 -10,-1 -13,-4 -3,-4 -5,-8 -5,-14 z m 155,201 c -19,0 -33,-8 -44,-22 h -2 c 1,13 2,21 2,24 v 64 h -32 v -225 h 26 c 1,2 2,9 5,20 h 1 c 10,-15 25,-23 45,-23 19,0 33,7 43,21 11,14 16,34 16,59 0,26 -5,46 -16,60 -10,14 -25,22 -44,22 z m -7,-135 c -13,0 -22,4 -28,11 -6,8 -9,20 -9,37 v 5 c 0,19 3,33 9,42 6,8 15,12 28,12 11,0 20,-4 26,-14 5,-9 8,-23 8,-40 0,-17 -3,-31 -8,-40 -6,-9 -15,-13 -26,-13 z m 300,132 h -134 v -25 l 51,-54 c 15,-16 25,-27 30,-34 5,-7 8,-13 10,-19 3,-6 4,-12 4,-19 0,-10 -3,-17 -8,-22 -6,-6 -13,-8 -23,-8 -7,0 -14,1 -22,4 -7,3 -15,8 -24,16 l -17,-22 c 11,-10 21,-17 32,-21 10,-4 21,-6 33,-6 18,0 33,5 44,15 11,10 17,24 17,41 0,9 -2,18 -5,26 -3,9 -8,17 -15,26 -6,9 -17,21 -33,36 l -34,35 v 1 h 94 z"
     id="path172"
     style="clip-rule:evenodd;fill-rule:evenodd;image-rendering:optimizeQuality;shape-rendering:geometricPrecision;text-rendering:geometricPrecision" /><path
     class="fil3"
     d="m 18142,15499 h -32 v -178 h -59 v -29 h 150 v 29 h -59 z m 118,0 h -32 v -156 h 32 z m -34,-198 c 0,-6 1,-10 5,-13 3,-4 7,-5 13,-5 6,0 10,1 13,5 3,3 5,7 5,13 0,6 -2,10 -5,14 -3,3 -7,4 -13,4 -6,0 -10,-1 -13,-4 -4,-4 -5,-8 -5,-14 z m 156,201 c -19,0 -34,-8 -45,-22 h -1 c 1,13 1,21 1,24 v 64 h -32 v -225 h 26 c 1,2 3,9 5,20 h 1 c 10,-15 25,-23 45,-23 19,0 34,7 44,21 11,14 16,34 16,59 0,26 -5,46 -16,60 -11,14 -25,22 -44,22 z m -8,-135 c -13,0 -22,4 -28,11 -6,8 -9,20 -9,37 v 5 c 0,19 3,33 9,42 6,8 15,12 29,12 11,0 19,-4 25,-14 6,-9 9,-22 9,-40 0,-17 -3,-31 -9,-40 -6,-9 -14,-13 -26,-13 z m 294,-27 c 0,13 -4,24 -11,32 -7,9 -18,15 -31,18 v 1 c 16,2 28,7 36,16 8,8 12,19 12,32 0,20 -7,36 -20,46 -14,11 -33,17 -58,17 -22,0 -41,-4 -56,-12 v -29 c 9,4 18,8 27,10 9,2 19,3 27,3 16,0 27,-3 35,-8 7,-6 11,-16 11,-28 0,-11 -4,-19 -12,-24 -9,-5 -22,-8 -40,-8 h -17 v -27 h 17 c 32,0 48,-11 48,-34 0,-9 -3,-16 -9,-21 -5,-4 -13,-7 -24,-7 -8,0 -15,1 -22,3 -7,3 -15,7 -25,13 l -15,-23 c 18,-14 39,-21 63,-21 20,0 36,5 47,14 11,9 17,21 17,37 z"
     id="path174"
     style="clip-rule:evenodd;fill-rule:evenodd;image-rendering:optimizeQuality;shape-rendering:geometricPrecision;text-rendering:geometricPrecision" /><path
     class="fil3"
     d="m 18142,14082 h -33 v -178 h -58 v -29 h 149 v 29 h -58 z m 117,0 h -32 v -156 h 32 z m -34,-198 c 0,-5 2,-10 5,-13 3,-3 7,-5 13,-5 6,0 10,2 13,5 3,3 5,8 5,13 0,6 -2,11 -5,14 -3,3 -7,5 -13,5 -6,0 -10,-2 -13,-5 -3,-3 -5,-8 -5,-14 z m 155,201 c -19,0 -33,-7 -44,-22 h -2 c 1,14 2,22 2,24 v 64 h -32 v -225 h 26 c 1,3 2,10 5,21 h 1 c 10,-16 25,-24 45,-24 19,0 33,7 43,21 11,14 16,34 16,60 0,25 -5,45 -16,59 -10,15 -25,22 -44,22 z m -7,-135 c -13,0 -22,4 -28,12 -6,7 -9,20 -9,37 v 5 c 0,19 3,32 9,41 6,8 15,13 28,13 11,0 20,-5 26,-14 5,-10 8,-23 8,-41 0,-17 -3,-30 -8,-39 -6,-9 -15,-14 -26,-14 z m 259,132 h -32 v -133 c 0,-16 1,-29 1,-38 -2,2 -4,5 -7,7 -3,3 -14,12 -31,26 l -16,-21 58,-48 h 27 z"
     id="path176"
     style="clip-rule:evenodd;fill-rule:evenodd;image-rendering:optimizeQuality;shape-rendering:geometricPrecision;text-rendering:geometricPrecision" /></g>
</svg>
