<?xml version="1.0" encoding="UTF-8" standalone="no"?>
<!-- Creator: CorelDRAW X7 -->

<svg
   xml:space="preserve"
   width="264.583mm"
   height="176.389mm"
   version="1.1"
   style="shape-rendering:geometricPrecision; text-rendering:geometricPrecision; image-rendering:optimizeQuality; fill-rule:evenodd; clip-rule:evenodd"
   viewBox="0 0 26458 17639"
   id="svg258"
   sodipodi:docname="svg_21.svg"
   inkscape:version="1.1.2 (0a00cf5339, 2022-02-04)"
   xmlns:inkscape="http://www.inkscape.org/namespaces/inkscape"
   xmlns:sodipodi="http://sodipodi.sourceforge.net/DTD/sodipodi-0.dtd"
   xmlns="http://www.w3.org/2000/svg"
   xmlns:svg="http://www.w3.org/2000/svg"><sodipodi:namedview
   id="namedview260"
   pagecolor="#ffffff"
   bordercolor="#666666"
   borderopacity="1.0"
   inkscape:pageshadow="2"
   inkscape:pageopacity="0.0"
   inkscape:pagecheckerboard="0"
   inkscape:document-units="mm"
   showgrid="false"
   inkscape:zoom="0.7901913"
   inkscape:cx="533.41514"
   inkscape:cy="346.11872"
   inkscape:window-width="1920"
   inkscape:window-height="1022"
   inkscape:window-x="0"
   inkscape:window-y="0"
   inkscape:window-maximized="1"
   inkscape:current-layer="layer1" />
 <defs
   id="defs7">
  <style
   type="text/css"
   id="style2">
   <![CDATA[
    .str7 {stroke:#FEFEFE;stroke-width:7.62}
    .str8 {stroke:#36291C;stroke-width:54.08}
    .str1 {stroke:#F2E2C2;stroke-width:31.33}
    .str12 {stroke:#B93E49;stroke-width:336.26}
    .str14 {stroke:#36291C;stroke-width:336.26}
    .str9 {stroke:#36291C;stroke-width:26.6}
    .str11 {stroke:#36291C;stroke-width:26.6}
    .str4 {stroke:#36291C;stroke-width:47.49}
    .str3 {stroke:#36291C;stroke-width:47.49}
    .str10 {stroke:#36291C;stroke-width:47.49}
    .str5 {stroke:#36291C;stroke-width:47.49}
    .str6 {stroke:#36291C;stroke-width:47.49}
    .str0 {stroke:#36291C;stroke-width:53.21}
    .str13 {stroke:#36291C;stroke-width:84.07}
    .str2 {stroke:#F2E2C2;stroke-width:30.38;stroke-linecap:round;stroke-linejoin:round}
    .fil11 {fill:none}
    .fil5 {fill:none;fill-rule:nonzero}
    .fil0 {fill:#36291C}
    .fil12 {fill:#85684C}
    .fil8 {fill:#B93E49}
    .fil1 {fill:#F2E2C2}
    .fil10 {fill:#0D6D7E;fill-rule:nonzero}
    .fil4 {fill:#36291C;fill-rule:nonzero}
    .fil2 {fill:#85684C;fill-rule:nonzero}
    .fil7 {fill:#B93E49;fill-rule:nonzero}
    .fil6 {fill:#EDF0D9;fill-rule:nonzero}
    .fil3 {fill:#F2E2C2;fill-rule:nonzero}
    .fil9 {fill:#F5EDC1;fill-rule:nonzero}
    .fil13 {fill:#F7EEC1;fill-rule:nonzero}
    .fil14 {fill:#FEFEFE;fill-rule:nonzero}
   ]]>
  </style>
   <clipPath
   id="id0"
   style="clip-rule:nonzero">
    <path
   d="M24705 2410c0,81 -66,146 -146,146l-22612 0c-80,0 -146,-65 -146,-146l0 -978c0,-81 66,-146 146,-146l22612 0c80,0 146,65 146,146l0 978z"
   id="path4" />
   </clipPath>
 </defs>
 <g
   inkscape:groupmode="layer"
   id="layer1"
   inkscape:label="Layer 1"
   sodipodi:insensitive="true"
   style="display:inline"><rect
     class="fil0"
     x="594"
     y="86"
     width="25412"
     height="17247"
     id="rect10"
     style="clip-rule:evenodd;fill-rule:evenodd;image-rendering:optimizeQuality;shape-rendering:geometricPrecision;text-rendering:geometricPrecision" /><rect
     class="fil1"
     x="988"
     y="442"
     width="24674"
     height="16522"
     rx="167"
     ry="167"
     id="rect12"
     style="clip-rule:evenodd;fill-rule:evenodd;image-rendering:optimizeQuality;shape-rendering:geometricPrecision;text-rendering:geometricPrecision" /></g><g
   inkscape:groupmode="layer"
   id="layer2"
   inkscape:label="Layer 2"
   style="display:inline"><path
     class="fil4"
     d="m 24705,2410 c 0,81 -66,146 -146,146 H 1947 c -80,0 -146,-65 -146,-146 v -978 c 0,-81 66,-146 146,-146 h 22612 c 80,0 146,65 146,146 z"
     id="path32"
     style="clip-rule:evenodd;fill-rule:evenodd;image-rendering:optimizeQuality;shape-rendering:geometricPrecision;text-rendering:geometricPrecision" /><g
     id="g251"
     style="clip-rule:evenodd;fill-rule:evenodd;image-rendering:optimizeQuality;shape-rendering:geometricPrecision;text-rendering:geometricPrecision">
   <path
   class="fil4"
   d="M 8485,3941 H 2140 v -47 h 6345 v 0 z m 199,152 h -48 v 0 -8 -8 l -1,-7 -2,-8 -1,-7 -2,-7 -3,-7 -2,-7 -4,-7 -3,-6 -4,-7 -3,-6 -5,-6 -4,-5 -5,-6 -5,-5 -5,-5 -6,-5 -6,-5 -6,-4 -6,-4 -6,-3 -7,-4 -6,-3 -7,-3 -7,-2 -7,-2 -8,-2 -7,-1 -8,-1 -7,-1 h -8 v -47 h 10 l 10,1 10,1 10,2 10,2 9,3 9,3 9,3 9,4 9,5 8,5 8,5 8,5 7,6 8,7 7,6 6,7 6,7 6,8 6,8 5,8 5,8 4,9 4,8 4,9 3,10 3,9 2,10 2,10 1,10 1,10 z m -48,435 v -435 h 48 v 435 0 z m -151,199 v -48 0 h 8 l 7,-1 8,-1 7,-1 8,-2 7,-2 7,-2 7,-3 6,-3 7,-3 6,-4 6,-4 6,-4 6,-5 6,-4 5,-5 5,-6 5,-5 4,-6 5,-6 3,-6 4,-6 3,-7 4,-7 2,-7 3,-7 2,-7 1,-7 2,-7 1,-8 v -8 -7 h 48 v 10 l -1,10 -1,10 -2,10 -2,9 -3,10 -3,9 -4,9 -4,9 -4,8 -5,9 -5,8 -6,7 -6,8 -6,7 -6,7 -7,7 -8,6 -7,6 -8,5 -8,6 -8,4 -9,5 -9,4 -9,3 -9,4 -9,2 -10,2 -10,2 -10,2 h -10 z m -6345,-48 h 6345 v 48 H 2140 v 0 z m -199,-151 h 47 v 0 l 1,7 v 8 l 1,8 2,7 1,7 2,7 3,7 2,7 3,7 4,7 3,6 4,6 5,6 4,6 5,5 5,6 5,5 6,4 6,5 5,4 7,4 6,4 7,3 6,3 7,3 7,2 7,2 8,2 7,1 8,1 7,1 h 8 v 48 l -10,-1 h -10 l -10,-2 -10,-2 -10,-2 -9,-2 -9,-4 -9,-3 -9,-4 -9,-5 -8,-4 -8,-6 -8,-5 -7,-6 -8,-6 -7,-7 -6,-7 -6,-7 -6,-8 -6,-7 -5,-8 -5,-9 -4,-8 -4,-9 -4,-9 -3,-9 -3,-10 -2,-9 -2,-10 -1,-10 -1,-10 z m 47,-435 v 435 h -47 v -435 0 z m 152,-199 v 47 0 h -8 l -7,1 -8,1 -7,1 -8,2 -7,2 -7,2 -7,3 -6,3 -7,4 -6,3 -7,4 -5,4 -6,5 -6,5 -5,5 -5,5 -5,6 -4,5 -5,6 -4,6 -3,7 -4,6 -3,7 -2,7 -3,7 -2,7 -1,7 -2,8 -1,7 v 8 l -1,8 h -47 v -10 l 1,-10 1,-10 2,-10 2,-10 3,-9 3,-10 4,-9 4,-8 4,-9 5,-8 5,-8 6,-8 6,-8 6,-7 6,-7 7,-6 8,-7 7,-6 8,-5 8,-5 8,-5 9,-5 9,-4 9,-3 9,-3 9,-3 10,-2 10,-2 10,-1 10,-1 z"
   id="path249" />
  </g><rect
     class="fil11 str5"
     x="1965"
     y="7394"
     width="6695"
     height="785"
     rx="175"
     ry="175"
     id="rect137"
     style="clip-rule:evenodd;display:inline;fill-rule:evenodd;image-rendering:optimizeQuality;shape-rendering:geometricPrecision;text-rendering:geometricPrecision" /><rect
     class="fil1 str6"
     x="1965"
     y="8845"
     width="6695"
     height="785"
     rx="175"
     ry="175"
     id="rect143"
     style="clip-rule:evenodd;display:inline;fill-rule:evenodd;image-rendering:optimizeQuality;shape-rendering:geometricPrecision;text-rendering:geometricPrecision" /><polygon
     class="fil4"
     points="6807,9654 6807,8821 6860,8821 6860,9654 "
     id="polygon181"
     style="clip-rule:evenodd;display:inline;fill-rule:evenodd;image-rendering:optimizeQuality;shape-rendering:geometricPrecision;text-rendering:geometricPrecision" /><path
     class="fil0"
     d="m 2140,10385 h 2015 c 96,0 175,79 175,176 v 434 c 0,97 -79,176 -175,176 H 2140 c -96,0 -175,-79 -175,-176 v -434 c 0,-97 79,-176 175,-176 z"
     id="path75"
     style="clip-rule:evenodd;fill-rule:evenodd;image-rendering:optimizeQuality;shape-rendering:geometricPrecision;text-rendering:geometricPrecision" /><path
     class="fil8"
     d="m 4720,10385 h 2015 c 96,0 175,79 175,176 v 434 c 0,97 -79,176 -175,176 H 4720 c -96,0 -175,-79 -175,-176 v -434 c 0,-97 79,-176 175,-176 z"
     id="path77"
     style="clip-rule:evenodd;fill-rule:evenodd;image-rendering:optimizeQuality;shape-rendering:geometricPrecision;text-rendering:geometricPrecision" /><path
     class="fil0"
     d="m 4731,11739 h 476 c 96,0 175,79 175,175 v 435 c 0,96 -79,175 -175,175 h -476 c -96,0 -175,-79 -175,-175 v -435 c 0,-96 79,-175 175,-175 z"
     id="path97"
     style="clip-rule:evenodd;fill-rule:evenodd;image-rendering:optimizeQuality;shape-rendering:geometricPrecision;text-rendering:geometricPrecision" /><path
     class="fil8"
     d="m 5677,11739 h 476 c 96,0 175,79 175,175 v 435 c 0,96 -79,175 -175,175 h -476 c -97,0 -176,-79 -176,-175 v -435 c 0,-96 79,-175 176,-175 z"
     id="path101"
     style="clip-rule:evenodd;fill-rule:evenodd;image-rendering:optimizeQuality;shape-rendering:geometricPrecision;text-rendering:geometricPrecision" /><path
     class="fil0"
     d="m 2153,11739 h 476 c 96,0 175,79 175,175 v 435 c 0,96 -79,175 -175,175 h -476 c -97,0 -176,-79 -176,-175 v -435 c 0,-96 79,-175 176,-175 z"
     id="path105"
     style="clip-rule:evenodd;fill-rule:evenodd;image-rendering:optimizeQuality;shape-rendering:geometricPrecision;text-rendering:geometricPrecision" /><path
     class="fil8"
     d="m 3098,11739 h 476 c 97,0 176,79 176,175 v 435 c 0,96 -79,175 -176,175 h -476 c -96,0 -175,-79 -175,-175 v -435 c 0,-96 79,-175 175,-175 z"
     id="path107"
     style="clip-rule:evenodd;fill-rule:evenodd;image-rendering:optimizeQuality;shape-rendering:geometricPrecision;text-rendering:geometricPrecision" /><path
     class="fil5 str0"
     d="m 8461,15305 c 0,245 -198,443 -443,443 -245,0 -443,-198 -443,-443 0,-244 198,-443 443,-443 245,0 443,199 443,443"
     id="path67"
     style="clip-rule:evenodd;fill-rule:evenodd;image-rendering:optimizeQuality;shape-rendering:geometricPrecision;text-rendering:geometricPrecision" /><path
     class="fil4"
     d="m 2843,15305 c 0,245 -198,443 -443,443 -245,0 -443,-198 -443,-443 0,-244 198,-443 443,-443 245,0 443,199 443,443 z"
     id="path49"
     style="clip-rule:evenodd;fill-rule:evenodd;image-rendering:optimizeQuality;shape-rendering:geometricPrecision;text-rendering:geometricPrecision" /><path
     class="fil4"
     d="m 3967,15305 c 0,245 -199,443 -443,443 -245,0 -443,-198 -443,-443 0,-244 198,-443 443,-443 244,0 443,199 443,443 z"
     id="path53"
     style="clip-rule:evenodd;fill-rule:evenodd;image-rendering:optimizeQuality;shape-rendering:geometricPrecision;text-rendering:geometricPrecision" /><path
     class="fil4"
     d="m 6214,15305 c 0,245 -199,443 -443,443 -245,0 -443,-198 -443,-443 0,-244 198,-443 443,-443 244,0 443,199 443,443 z"
     id="path61"
     style="clip-rule:evenodd;fill-rule:evenodd;image-rendering:optimizeQuality;shape-rendering:geometricPrecision;text-rendering:geometricPrecision" /><path
     class="fil4"
     d="m 7337,15305 c 0,245 -198,443 -443,443 -244,0 -443,-198 -443,-443 0,-244 199,-443 443,-443 245,0 443,199 443,443 z"
     id="path71"
     style="clip-rule:evenodd;fill-rule:evenodd;image-rendering:optimizeQuality;shape-rendering:geometricPrecision;text-rendering:geometricPrecision" /><path
     class="fil7"
     d="m 5090,15305 c 0,245 -198,443 -443,443 -244,0 -443,-198 -443,-443 0,-244 199,-443 443,-443 245,0 443,199 443,443 z"
     id="path57"
     style="clip-rule:evenodd;fill-rule:evenodd;image-rendering:optimizeQuality;shape-rendering:geometricPrecision;text-rendering:geometricPrecision" /><path
     class="fil11 str3"
     d="m 2140,13652 h 6345 c 96,0 175,79 175,175 v 218 c 0,96 -79,175 -175,175 H 2140 c -96,0 -175,-79 -175,-175 v -218 c 0,-96 79,-175 175,-175 z"
     id="path125"
     style="clip-rule:evenodd;fill-rule:evenodd;image-rendering:optimizeQuality;shape-rendering:geometricPrecision;text-rendering:geometricPrecision" /><path
     class="fil11 str8"
     d="m 7343,11852 h 1128 c 110,0 200,89 200,199 v 248 c 0,110 -90,199 -200,199 H 7343 c -110,0 -200,-89 -200,-199 v -248 c 0,-110 90,-199 200,-199 z"
     id="path221"
     style="clip-rule:evenodd;fill-rule:evenodd;image-rendering:optimizeQuality;shape-rendering:geometricPrecision;text-rendering:geometricPrecision" /><path
     class="fil2"
     d="m 15904,8025 v 0 c 88,0 160,72 160,160 0,88 -72,160 -160,160 -88,0 -160,-72 -160,-160 0,-88 72,-160 160,-160 z"
     id="path14"
     style="clip-rule:evenodd;fill-rule:evenodd;image-rendering:optimizeQuality;shape-rendering:geometricPrecision;text-rendering:geometricPrecision" /><path
     class="fil2"
     d="m 16935,8025 v 0 c 88,0 160,72 160,160 0,88 -72,160 -160,160 -88,0 -160,-72 -160,-160 0,-88 72,-160 160,-160 z"
     id="path16"
     style="clip-rule:evenodd;fill-rule:evenodd;image-rendering:optimizeQuality;shape-rendering:geometricPrecision;text-rendering:geometricPrecision" /><path
     class="fil2"
     d="m 17384,8025 v 0 c 88,0 159,72 159,160 0,88 -71,160 -159,160 -89,0 -160,-72 -160,-160 0,-88 71,-160 160,-160 z"
     id="path18"
     style="clip-rule:evenodd;fill-rule:evenodd;image-rendering:optimizeQuality;shape-rendering:geometricPrecision;text-rendering:geometricPrecision" /><g
     id="g95"
     style="clip-rule:evenodd;fill-rule:evenodd;image-rendering:optimizeQuality;shape-rendering:geometricPrecision;text-rendering:geometricPrecision">
   <path
   class="fil4"
   d="M 23634,8678 H 9657 v -48 h 13977 v 0 z m 202,151 h -48 v 0 l -1,-8 v -7 l -1,-8 -2,-7 -1,-8 -2,-7 -3,-7 -3,-7 -3,-6 -3,-7 -4,-6 -4,-6 -4,-6 -5,-6 -4,-6 -5,-5 -6,-5 -5,-5 -6,-4 -6,-4 -6,-4 -7,-4 -6,-3 -7,-3 -7,-3 -7,-3 -7,-2 -8,-1 -7,-2 -8,-1 h -8 -8 v -48 h 11 l 10,1 10,1 10,2 10,2 9,3 10,3 9,4 9,4 8,4 9,5 8,5 8,6 7,5 8,7 7,6 6,7 7,7 6,8 5,8 6,8 4,8 5,9 4,9 4,9 3,9 3,9 2,10 2,10 1,10 1,10 z m -48,2908 V 8829 h 48 v 2908 0 z m -154,199 v -47 0 l 8,-1 h 8 l 8,-1 7,-2 8,-1 7,-2 7,-3 7,-2 7,-3 6,-4 7,-3 6,-4 6,-5 6,-4 5,-5 6,-5 5,-5 4,-6 5,-5 4,-6 4,-7 4,-6 3,-6 3,-7 3,-7 3,-7 2,-7 1,-7 2,-8 1,-7 v -8 l 1,-8 h 48 v 10 l -1,10 -1,10 -2,10 -2,10 -3,9 -3,10 -4,9 -4,8 -5,9 -4,8 -6,8 -5,8 -6,8 -7,7 -6,7 -7,6 -8,7 -7,6 -8,5 -8,5 -9,5 -8,5 -9,4 -9,3 -10,3 -9,3 -10,2 -10,2 -10,1 -10,1 z m -13977,-47 h 13977 v 47 H 9657 v 0 z m -201,-152 h 48 v 0 8 l 1,8 1,7 1,8 2,7 2,7 2,7 3,7 3,7 3,6 4,6 4,7 4,6 5,5 5,6 5,5 5,5 6,5 6,4 6,5 6,4 6,3 7,4 7,3 7,2 7,3 7,2 7,1 8,2 7,1 h 8 l 8,1 v 47 h -10 l -10,-1 -11,-1 -9,-2 -10,-2 -10,-3 -9,-3 -9,-3 -9,-4 -9,-5 -8,-5 -8,-5 -8,-5 -8,-6 -7,-7 -7,-6 -7,-7 -6,-7 -6,-8 -6,-8 -5,-8 -5,-8 -4,-9 -5,-8 -3,-9 -3,-10 -3,-9 -2,-10 -2,-10 -1,-10 -1,-10 z m 48,-2908 v 2908 h -48 v -2908 0 z m 153,-199 v 48 0 h -8 -8 l -7,1 -8,2 -7,1 -7,2 -7,3 -7,3 -7,3 -7,3 -6,4 -6,4 -6,4 -6,4 -6,5 -5,5 -5,5 -5,6 -5,6 -4,6 -4,6 -4,6 -3,7 -3,6 -3,7 -2,7 -2,7 -2,8 -1,7 -1,8 -1,7 v 8 h -48 v -10 l 1,-10 1,-10 2,-10 2,-10 3,-9 3,-9 3,-9 5,-9 4,-9 5,-8 5,-8 6,-8 6,-8 6,-7 7,-7 7,-6 7,-7 8,-5 8,-6 8,-5 8,-5 9,-4 9,-4 9,-4 9,-3 10,-3 10,-2 9,-2 11,-1 10,-1 z"
   id="path93" />
  </g><path
     class="fil11 str4"
     d="m 9657,12444 h 2398 c 96,0 175,79 175,175 v 3031 c 0,96 -79,175 -175,175 H 9657 c -97,0 -176,-79 -176,-175 v -3031 c 0,-96 79,-175 176,-175 z"
     id="path135"
     style="clip-rule:evenodd;fill-rule:evenodd;image-rendering:optimizeQuality;shape-rendering:geometricPrecision;text-rendering:geometricPrecision" /><line
     class="fil5 str9"
     x1="12965"
     y1="13738"
     x2="14921"
     y2="13738"
     id="line223"
     style="clip-rule:evenodd;fill-rule:evenodd;image-rendering:optimizeQuality;shape-rendering:geometricPrecision;text-rendering:geometricPrecision" /><path
     class="fil11 str10"
     d="m 12895,12444 h 2133 c 96,0 175,79 175,175 v 3031 c 0,96 -79,175 -175,175 h -2133 c -96,0 -175,-79 -175,-175 v -3031 c 0,-96 79,-175 175,-175 z"
     id="path225"
     style="clip-rule:evenodd;fill-rule:evenodd;image-rendering:optimizeQuality;shape-rendering:geometricPrecision;text-rendering:geometricPrecision" /><path
     class="fil4"
     d="m 14132,12896 c 0,112 -91,203 -203,203 -112,0 -203,-91 -203,-203 0,-112 91,-202 203,-202 112,0 203,90 203,202 z"
     id="path227"
     style="clip-rule:evenodd;fill-rule:evenodd;image-rendering:optimizeQuality;shape-rendering:geometricPrecision;text-rendering:geometricPrecision" /><line
     class="fil5 str11"
     x1="12965"
     y1="15448"
     x2="14921"
     y2="15448"
     id="line231"
     style="clip-rule:evenodd;fill-rule:evenodd;image-rendering:optimizeQuality;shape-rendering:geometricPrecision;text-rendering:geometricPrecision" /><g
     id="g195"
     style="clip-rule:evenodd;fill-rule:evenodd;image-rendering:optimizeQuality;shape-rendering:geometricPrecision;text-rendering:geometricPrecision">
   <path
   class="fil12"
   d="m 15838,13301 h 3401 c 61,0 110,50 110,110 v 498 c 0,60 -49,110 -110,110 h -3401 c -60,0 -110,-50 -110,-110 v -498 c 0,-60 50,-110 110,-110 z"
   id="path191" />
   <path
   id="path193"
   class="fil5 str7"
   d="m 15838,13301 h 3401 c 61,0 110,50 110,110 v 498 c 0,60 -49,110 -110,110 h -3401 c -60,0 -110,-50 -110,-110 v -498 c 0,-60 50,-110 110,-110 z" />
  </g><g
     id="g207"
     style="clip-rule:evenodd;fill-rule:evenodd;image-rendering:optimizeQuality;shape-rendering:geometricPrecision;text-rendering:geometricPrecision">
   <path
   class="fil12"
   d="m 15838,15130 h 3401 c 61,0 110,49 110,110 v 497 c 0,61 -49,110 -110,110 h -3401 c -60,0 -110,-49 -110,-110 v -497 c 0,-61 50,-110 110,-110 z"
   id="path203" />
   <path
   id="path205"
   class="fil5 str7"
   d="m 15838,15130 h 3401 c 61,0 110,49 110,110 v 497 c 0,61 -49,110 -110,110 h -3401 c -60,0 -110,-49 -110,-110 v -497 c 0,-61 50,-110 110,-110 z" />
  </g><path
     class="fil0"
     d="m 19618,12446 h 44 c 18,0 33,15 33,34 v 3343 c 0,19 -15,35 -33,35 h -44 c -18,0 -33,-16 -33,-35 v -3343 c 0,-19 15,-34 33,-34 z"
     id="path217"
     style="clip-rule:evenodd;fill-rule:evenodd;image-rendering:optimizeQuality;shape-rendering:geometricPrecision;text-rendering:geometricPrecision" /><path
     class="fil5 str13"
     d="m 23880,14169 c 0,923 -749,1672 -1672,1672 -924,0 -1672,-749 -1672,-1672 0,-924 748,-1672 1672,-1672 923,0 1672,748 1672,1672"
     id="path241"
     style="clip-rule:evenodd;fill-rule:evenodd;image-rendering:optimizeQuality;shape-rendering:geometricPrecision;text-rendering:geometricPrecision" /><path
     class="fil4"
     d="m 22869,14169 c 0,365 -296,661 -661,661 -365,0 -662,-296 -662,-661 0,-366 297,-662 662,-662 365,0 661,296 661,662 z"
     id="path245"
     style="clip-rule:evenodd;fill-rule:evenodd;image-rendering:optimizeQuality;shape-rendering:geometricPrecision;text-rendering:geometricPrecision" /></g><g
   inkscape:groupmode="layer"
   id="layer3"
   inkscape:label="Layer 3"
   style="display:inline"><g
     style="clip-rule:evenodd;fill-rule:evenodd;image-rendering:optimizeQuality;shape-rendering:geometricPrecision;text-rendering:geometricPrecision"
     clip-path="url(#id0)"
     id="g37">
   <g
   id="g35">
    <path
   id="1"
   class="fil2"
   d="m 23243,1212 h 1275 c 158,0 286,134 286,299 v 765 c 0,166 -128,300 -286,300 h -1275 z" />
   </g>
  </g><path
     class="fil1 str1"
     d="m 16837,1658 h 4699 c 64,0 116,52 116,115 v 287 c 0,64 -52,116 -116,116 h -4699 c -63,0 -115,-52 -115,-116 v -287 c 0,-63 52,-115 115,-115 z"
     id="path83"
     style="clip-rule:evenodd;fill-rule:evenodd;image-rendering:optimizeQuality;shape-rendering:geometricPrecision;text-rendering:geometricPrecision" /><path
     class="fil4"
     d="m 6818,7397 h 1679 c 93,0 168,77 168,172 v 438 c 0,95 -75,172 -168,172 H 6818 Z"
     id="path139"
     style="clip-rule:evenodd;display:inline;fill-rule:evenodd;image-rendering:optimizeQuality;shape-rendering:geometricPrecision;text-rendering:geometricPrecision" /><path
     class="fil7"
     d="m 6809,8821 h 1684 c 95,0 192,82 192,182 v 469 c 0,101 -97,182 -192,182 H 6809 Z"
     id="path145"
     style="clip-rule:evenodd;display:inline;fill-rule:evenodd;image-rendering:optimizeQuality;shape-rendering:geometricPrecision;text-rendering:geometricPrecision" /><path
     class="fil0"
     d="m 4120,13773 h 4344 c 34,0 61,27 61,60 v 216 c 0,34 -27,61 -61,61 H 4120 c -34,0 -61,-27 -61,-61 v -216 c 0,-33 27,-60 61,-60 z"
     id="path127"
     style="clip-rule:evenodd;fill-rule:evenodd;image-rendering:optimizeQuality;shape-rendering:geometricPrecision;text-rendering:geometricPrecision" /><path
     class="fil7"
     d="m 8502,12170 c 0,123 -100,223 -223,223 -122,0 -222,-100 -222,-223 0,-123 100,-222 222,-222 123,0 223,99 223,222 z"
     id="path235"
     style="clip-rule:evenodd;fill-rule:evenodd;image-rendering:optimizeQuality;shape-rendering:geometricPrecision;text-rendering:geometricPrecision" /><path
     class="fil7"
     d="m 16406,8025 v 0 c 89,0 160,72 160,160 0,88 -71,160 -160,160 -88,0 -160,-72 -160,-160 0,-88 72,-160 160,-160 z"
     id="path109"
     style="clip-rule:evenodd;fill-rule:evenodd;image-rendering:optimizeQuality;shape-rendering:geometricPrecision;text-rendering:geometricPrecision" /><rect
     class="fil0"
     x="9840"
     y="12669"
     width="157"
     height="1648"
     rx="47"
     ry="46"
     id="rect149"
     style="clip-rule:evenodd;fill-rule:evenodd;image-rendering:optimizeQuality;shape-rendering:geometricPrecision;text-rendering:geometricPrecision" /><rect
     class="fil0"
     x="10194"
     y="12669"
     width="157"
     height="1648"
     rx="47"
     ry="46"
     id="rect153"
     style="clip-rule:evenodd;fill-rule:evenodd;image-rendering:optimizeQuality;shape-rendering:geometricPrecision;text-rendering:geometricPrecision" /><path
     class="fil0"
     d="m 10612,12669 h 63 c 26,0 47,21 47,47 v 1978 c 0,25 -21,46 -47,46 h -63 c -25,0 -47,-21 -47,-46 v -1978 c 0,-26 22,-47 47,-47 z"
     id="path157"
     style="clip-rule:evenodd;fill-rule:evenodd;image-rendering:optimizeQuality;shape-rendering:geometricPrecision;text-rendering:geometricPrecision" /><rect
     class="fil0"
     x="10937"
     y="12669"
     width="157"
     height="1648"
     rx="47"
     ry="46"
     id="rect161"
     style="clip-rule:evenodd;fill-rule:evenodd;image-rendering:optimizeQuality;shape-rendering:geometricPrecision;text-rendering:geometricPrecision" /><path
     class="fil0"
     d="m 11373,12669 h 63 c 26,0 47,21 47,47 v 1978 c 0,25 -21,46 -47,46 h -63 c -26,0 -47,-21 -47,-46 v -1978 c 0,-26 21,-47 47,-47 z"
     id="path169"
     style="clip-rule:evenodd;fill-rule:evenodd;image-rendering:optimizeQuality;shape-rendering:geometricPrecision;text-rendering:geometricPrecision" /><rect
     class="fil0"
     x="11697"
     y="12669"
     width="157"
     height="1648"
     rx="47"
     ry="46"
     id="rect173"
     style="clip-rule:evenodd;fill-rule:evenodd;image-rendering:optimizeQuality;shape-rendering:geometricPrecision;text-rendering:geometricPrecision" /><g
     id="g187"
     style="clip-rule:evenodd;fill-rule:evenodd;image-rendering:optimizeQuality;shape-rendering:geometricPrecision;text-rendering:geometricPrecision">
   <path
   class="fil0"
   d="m 15838,12438 h 3401 c 61,0 110,49 110,110 v 497 c 0,61 -49,110 -110,110 h -3401 c -60,0 -110,-49 -110,-110 v -497 c 0,-61 50,-110 110,-110 z"
   id="path183" />
   <path
   id="path185"
   class="fil5 str7"
   d="m 15838,12438 h 3401 c 61,0 110,49 110,110 v 497 c 0,61 -49,110 -110,110 h -3401 c -60,0 -110,-49 -110,-110 v -497 c 0,-61 50,-110 110,-110 z" />
  </g><g
     id="g201"
     style="clip-rule:evenodd;fill-rule:evenodd;image-rendering:optimizeQuality;shape-rendering:geometricPrecision;text-rendering:geometricPrecision">
   <path
   class="fil8"
   d="m 15838,14217 h 3401 c 61,0 110,49 110,110 v 497 c 0,60 -49,110 -110,110 h -3401 c -60,0 -110,-50 -110,-110 v -497 c 0,-61 50,-110 110,-110 z"
   id="path197" />
   <path
   id="path199"
   class="fil5 str7"
   d="m 15838,14217 h 3401 c 61,0 110,49 110,110 v 497 c 0,60 -49,110 -110,110 h -3401 c -60,0 -110,-50 -110,-110 v -497 c 0,-61 50,-110 110,-110 z" />
  </g><path
     class="fil8"
     d="m 19618,12447 h 44 c 18,0 33,15 33,34 v 485 c 0,19 -15,34 -33,34 h -44 c -18,0 -33,-15 -33,-34 v -485 c 0,-19 15,-34 33,-34 z"
     id="path219"
     style="clip-rule:evenodd;fill-rule:evenodd;image-rendering:optimizeQuality;shape-rendering:geometricPrecision;text-rendering:geometricPrecision" /><path
     class="fil5 str12"
     d="m 22182,13005 c 643,0 1164,521 1164,1164 0,643 -521,1164 -1164,1164"
     id="path239"
     style="clip-rule:evenodd;fill-rule:evenodd;image-rendering:optimizeQuality;shape-rendering:geometricPrecision;text-rendering:geometricPrecision" /></g><g
   inkscape:groupmode="layer"
   id="layer4"
   inkscape:label="Layer 4"
   style="display:inline"><path
     class="fil8"
     d="m 23807,1638 h 343 c 69,0 126,57 126,126 v 314 c 0,69 -57,126 -126,126 h -343 c -69,0 -126,-57 -126,-126 v -314 c 0,-69 57,-126 126,-126 z"
     id="path121"
     style="clip-rule:evenodd;fill-rule:evenodd;image-rendering:optimizeQuality;shape-rendering:geometricPrecision;text-rendering:geometricPrecision" /><path
     class="fil7"
     d="m 17307,1658 h -478 c -59,0 -107,50 -107,112 v 287 c 0,62 48,112 107,112 h 478 z"
     id="path85"
     style="clip-rule:evenodd;fill-rule:evenodd;image-rendering:optimizeQuality;shape-rendering:geometricPrecision;text-rendering:geometricPrecision" /><path
     class="fil8"
     d="m 5885,1638 h 1551 c 54,0 98,39 98,87 v 392 c 0,47 -44,87 -98,87 H 5885 c -53,0 -97,-40 -97,-87 v -392 c 0,-48 44,-87 97,-87 z"
     id="path113"
     style="clip-rule:evenodd;fill-rule:evenodd;image-rendering:optimizeQuality;shape-rendering:geometricPrecision;text-rendering:geometricPrecision" /><path
     class="fil8"
     d="m 2142,13773 h 4344 c 34,0 62,27 62,60 v 216 c 0,34 -28,61 -62,61 H 2142 c -33,0 -61,-27 -61,-61 v -216 c 0,-33 28,-60 61,-60 z"
     id="path129"
     style="clip-rule:evenodd;fill-rule:evenodd;image-rendering:optimizeQuality;shape-rendering:geometricPrecision;text-rendering:geometricPrecision" /><path
     class="fil4"
     d="m 7752,12170 c 0,123 -100,223 -222,223 -123,0 -223,-100 -223,-223 0,-123 100,-222 223,-222 122,0 222,99 222,222 z"
     id="path233"
     style="clip-rule:evenodd;fill-rule:evenodd;image-rendering:optimizeQuality;shape-rendering:geometricPrecision;text-rendering:geometricPrecision" /><rect
     class="fil8"
     x="9840"
     y="14059"
     width="157"
     height="1486"
     rx="47"
     ry="41"
     id="rect151"
     style="clip-rule:evenodd;fill-rule:evenodd;image-rendering:optimizeQuality;shape-rendering:geometricPrecision;text-rendering:geometricPrecision" /><path
     class="fil8"
     d="m 10241,13447 h 63 c 26,0 47,21 47,46 v 2006 c 0,26 -21,47 -47,47 h -63 c -26,0 -47,-21 -47,-47 v -2006 c 0,-25 21,-46 47,-46 z"
     id="path155"
     style="clip-rule:evenodd;fill-rule:evenodd;image-rendering:optimizeQuality;shape-rendering:geometricPrecision;text-rendering:geometricPrecision" /><path
     class="fil8"
     d="m 10612,14397 h 63 c 26,0 47,21 47,46 v 1056 c 0,26 -21,47 -47,47 h -63 c -25,0 -47,-21 -47,-47 v -1056 c 0,-25 22,-46 47,-46 z"
     id="path159"
     style="clip-rule:evenodd;fill-rule:evenodd;image-rendering:optimizeQuality;shape-rendering:geometricPrecision;text-rendering:geometricPrecision" /><rect
     class="fil8"
     x="10937"
     y="14059"
     width="157"
     height="1486"
     rx="47"
     ry="41"
     id="rect163"
     style="clip-rule:evenodd;fill-rule:evenodd;image-rendering:optimizeQuality;shape-rendering:geometricPrecision;text-rendering:geometricPrecision" /><path
     class="fil8"
     d="m 11373,14397 h 63 c 26,0 47,21 47,46 v 1056 c 0,26 -21,47 -47,47 h -63 c -26,0 -47,-21 -47,-47 v -1056 c 0,-25 21,-46 47,-46 z"
     id="path171"
     style="clip-rule:evenodd;fill-rule:evenodd;image-rendering:optimizeQuality;shape-rendering:geometricPrecision;text-rendering:geometricPrecision" /><rect
     class="fil8"
     x="11697"
     y="14059"
     width="157"
     height="1486"
     rx="47"
     ry="41"
     id="rect175"
     style="clip-rule:evenodd;fill-rule:evenodd;image-rendering:optimizeQuality;shape-rendering:geometricPrecision;text-rendering:geometricPrecision" /><path
     class="fil5 str14"
     d="m 22182,13005 c -643,0 -1164,521 -1164,1164 0,643 521,1164 1164,1164"
     id="path243"
     style="clip-rule:evenodd;fill-rule:evenodd;image-rendering:optimizeQuality;shape-rendering:geometricPrecision;text-rendering:geometricPrecision" /></g><g
   inkscape:groupmode="layer"
   id="layer5"
   inkscape:label="Layer 5"
   style="display:inline"><g
     id="g1225"
     style="clip-rule:evenodd;fill-rule:evenodd;image-rendering:optimizeQuality;shape-rendering:geometricPrecision;text-rendering:geometricPrecision"><path
       class="fil1"
       d="m 23978,1949 c 54,0 98,-45 98,-101 0,-55 -44,-100 -98,-100 -55,0 -99,45 -99,100 0,56 44,101 99,101 z m 0,-25 c 40,0 73,-34 73,-76 0,-41 -33,-75 -73,-75 -41,0 -74,34 -74,75 0,42 33,76 74,76 z"
       id="path177" /><path
       class="fil1"
       d="m 24111,2066 c -73,-75 -192,-75 -265,0 -4,5 -12,5 -17,0 -5,-5 -5,-13 0,-18 83,-84 217,-84 299,0 5,5 5,13 0,18 -5,5 -12,5 -17,0 z"
       id="path179" /></g><g
     id="g1236"
     style="clip-rule:evenodd;fill-rule:evenodd;image-rendering:optimizeQuality;shape-rendering:geometricPrecision;text-rendering:geometricPrecision"><path
       class="fil5 str2"
       d="m 17091,1948 c -31,31 -80,31 -111,0 -31,-31 -31,-80 0,-111 31,-31 80,-31 111,0 31,31 31,80 0,111"
       id="path87" /><line
       class="fil5 str2"
       x1="16915"
       y1="2013"
       x2="16980"
       y2="1948"
       id="line89" /></g><path
     class="fil7"
     d="m 17770,1954 c 0,-7 -2,-12 -5,-15 -3,-3 -9,-7 -18,-10 -16,-6 -27,-13 -34,-22 -7,-8 -11,-17 -11,-28 0,-14 5,-24 14,-33 10,-8 22,-12 37,-12 9,0 18,2 26,6 7,5 13,10 17,18 4,7 6,16 6,25 h -32 c 0,-7 -1,-13 -4,-17 -3,-3 -8,-5 -14,-5 -6,0 -10,1 -13,5 -3,3 -5,7 -5,13 0,4 2,8 5,12 4,3 10,7 19,11 15,5 27,12 34,20 7,9 10,19 10,32 0,13 -4,24 -13,32 -9,8 -21,12 -36,12 -10,0 -19,-3 -28,-7 -8,-4 -15,-10 -20,-18 -4,-8 -7,-17 -7,-28 h 32 c 0,9 2,16 6,20 3,4 9,6 17,6 11,0 17,-5 17,-17 z m 100,44 c -16,0 -28,-5 -37,-15 -9,-9 -14,-23 -14,-40 v -10 c 0,-18 4,-33 13,-43 8,-10 19,-15 35,-15 14,0 26,5 33,14 8,10 11,24 12,42 v 16 h -62 c 1,8 2,15 6,19 3,4 9,6 16,6 10,0 19,-3 26,-11 l 12,19 c -4,5 -10,10 -17,13 -7,3 -15,5 -23,5 z m -20,-73 h 31 v -3 c 0,-7 -1,-12 -3,-16 -2,-4 -6,-5 -12,-5 -5,0 -9,2 -11,5 -3,4 -4,11 -5,19 z m 135,70 c -1,-1 -2,-4 -3,-9 -5,8 -13,12 -22,12 -10,0 -18,-4 -25,-10 -6,-7 -9,-15 -9,-26 0,-12 4,-22 11,-28 8,-7 20,-11 34,-11 h 10 v -9 c 0,-6 -1,-9 -3,-11 -2,-3 -4,-4 -8,-4 -8,0 -11,5 -11,14 h -31 c 0,-11 4,-20 12,-27 8,-7 19,-11 31,-11 13,0 23,4 30,10 7,7 11,17 11,29 v 56 c 0,10 1,18 4,23 v 2 z m -18,-22 c 3,0 6,0 9,-2 2,-1 4,-3 5,-5 v -24 h -8 c -5,0 -9,1 -12,5 -3,3 -4,8 -4,13 0,9 3,13 10,13 z m 125,-66 -10,-1 c -8,0 -14,4 -17,11 v 78 h -31 v -118 h 29 l 1,13 c 5,-10 12,-15 20,-15 4,0 7,1 9,2 z m 57,65 c 9,0 13,-6 13,-18 h 29 c 0,13 -4,24 -11,32 -8,8 -18,12 -31,12 -15,0 -26,-5 -34,-15 -8,-9 -12,-23 -13,-41 v -10 c 0,-18 4,-32 12,-42 8,-10 20,-15 35,-15 13,0 23,4 31,12 7,8 11,20 11,34 h -29 c 0,-6 -1,-11 -3,-15 -2,-4 -5,-5 -10,-5 -6,0 -10,2 -12,5 -2,4 -3,12 -4,23 v 12 c 0,9 1,16 2,20 1,4 2,7 4,8 3,2 6,3 10,3 z m 90,-84 c 7,-9 15,-13 25,-13 10,0 19,4 24,12 6,7 9,18 9,33 v 75 h -31 v -75 c 0,-7 -1,-12 -4,-15 -2,-3 -5,-4 -10,-4 -6,0 -10,2 -13,7 v 87 h -31 v -167 h 31 z"
     id="path91"
     style="clip-rule:evenodd;fill-rule:evenodd;image-rendering:optimizeQuality;shape-rendering:geometricPrecision;text-rendering:geometricPrecision" /><path
     class="fil6"
     d="m 2552,1981 h -55 l -11,41 h -42 l 62,-201 h 37 l 63,201 h -43 z m -46,-34 h 37 l -18,-71 z m 233,5 c 0,24 -4,42 -12,54 -7,12 -19,18 -36,18 -13,0 -23,-5 -31,-17 l -1,15 h -36 v -212 h 39 v 75 c 7,-10 17,-15 29,-15 16,0 28,6 36,18 8,12 12,30 12,53 z m -39,-10 c 0,-16 -1,-26 -4,-32 -3,-5 -9,-8 -16,-8 -8,0 -14,4 -18,11 v 69 c 3,7 9,10 18,10 7,0 13,-2 15,-7 3,-5 5,-14 5,-29 z m 58,0 c 0,-22 5,-40 16,-53 10,-12 25,-19 44,-19 19,0 34,7 44,19 11,13 16,31 16,54 v 9 c 0,23 -5,41 -15,53 -11,13 -26,19 -45,19 -19,0 -34,-6 -44,-19 -11,-13 -16,-30 -16,-53 z m 39,10 c 0,27 7,40 21,40 13,0 20,-11 21,-33 l 1,-17 c 0,-13 -2,-23 -6,-30 -4,-7 -9,-10 -16,-10 -7,0 -12,3 -15,10 -4,7 -6,17 -6,30 z m 179,56 c -8,11 -19,16 -33,16 -14,0 -24,-4 -31,-14 -7,-9 -11,-23 -11,-41 v -96 h 39 v 98 c 1,14 5,21 15,21 9,0 15,-4 19,-11 v -108 h 39 v 149 h -36 z m 110,-172 v 37 h 20 v 29 h -20 v 74 c 0,6 1,10 3,12 1,2 4,3 9,3 4,0 7,0 9,-1 v 31 c -7,2 -14,3 -22,3 -25,0 -37,-14 -38,-43 v -79 h -17 v -29 h 17 v -37 z m 180,172 c -9,11 -19,16 -33,16 -14,0 -24,-4 -31,-14 -7,-9 -11,-23 -11,-41 v -96 h 39 v 98 c 1,14 5,21 15,21 9,0 15,-4 19,-11 v -108 h 39 v 149 h -36 z m 131,-26 c 0,-4 -2,-7 -5,-9 -3,-3 -10,-7 -21,-12 -16,-6 -27,-13 -33,-20 -6,-7 -9,-16 -9,-26 0,-13 5,-24 14,-32 9,-9 22,-13 37,-13 17,0 30,4 39,13 10,8 15,20 15,34 h -39 c 0,-12 -5,-18 -15,-18 -4,0 -7,1 -10,3 -3,3 -4,7 -4,11 0,3 1,6 4,9 3,2 10,6 21,11 16,6 27,12 34,19 6,7 10,17 10,28 0,14 -5,24 -15,32 -10,8 -23,12 -40,12 -11,0 -20,-2 -29,-6 -8,-4 -14,-10 -19,-18 -5,-7 -7,-16 -7,-24 h 37 c 0,6 2,11 5,15 2,3 7,5 14,5 11,0 16,-5 16,-14 z"
     id="path41"
     style="clip-rule:evenodd;fill-rule:evenodd;image-rendering:optimizeQuality;shape-rendering:geometricPrecision;text-rendering:geometricPrecision" /><path
     class="fil6"
     d="m 4650,2014 h -41 l -59,-131 v 131 h -40 v -200 h 40 l 60,132 v -132 h 40 z m 91,3 c -20,0 -36,-6 -47,-18 -11,-12 -17,-29 -17,-51 v -12 c 0,-23 5,-41 15,-54 11,-13 25,-19 45,-19 18,0 32,6 42,18 9,12 14,30 14,53 v 19 h -77 c 0,11 3,19 7,24 4,6 11,8 20,8 13,0 24,-4 33,-13 l 15,23 c -5,7 -12,12 -21,16 -9,4 -19,6 -29,6 z m -25,-91 h 39 v -4 c 0,-9 -2,-15 -4,-20 -3,-5 -8,-7 -15,-7 -6,0 -11,2 -14,7 -4,5 -5,13 -6,24 z m 208,23 13,-83 h 37 l -31,148 h -32 l -21,-86 -21,86 h -32 l -31,-148 h 37 l 13,83 20,-83 h 28 z m 135,26 c 0,-4 -1,-7 -5,-10 -3,-2 -10,-6 -21,-11 -16,-6 -27,-13 -33,-20 -6,-7 -9,-16 -9,-26 0,-13 5,-24 14,-32 10,-9 22,-13 38,-13 16,0 29,4 39,13 10,8 15,19 15,34 h -39 c 0,-13 -5,-19 -15,-19 -5,0 -8,2 -11,4 -2,3 -4,6 -4,11 0,3 2,6 5,9 3,2 10,6 21,11 15,5 27,12 33,19 7,7 10,17 10,28 0,13 -5,24 -15,32 -10,8 -23,12 -39,12 -11,0 -21,-2 -29,-6 -9,-4 -15,-10 -20,-18 -4,-8 -7,-16 -7,-25 h 37 c 0,7 2,12 5,16 3,3 8,5 15,5 10,0 15,-5 15,-14 z"
     id="path43"
     style="clip-rule:evenodd;fill-rule:evenodd;image-rendering:optimizeQuality;shape-rendering:geometricPrecision;text-rendering:geometricPrecision" /><path
     class="fil6"
     d="m 8103,1969 c 0,-8 -2,-14 -6,-18 -4,-5 -12,-9 -23,-13 -20,-8 -34,-17 -43,-27 -9,-10 -13,-23 -13,-36 0,-17 6,-31 18,-41 12,-10 27,-15 45,-15 13,0 24,2 33,7 10,6 17,13 22,22 6,10 8,20 8,33 h -40 c 0,-10 -2,-17 -6,-22 -4,-5 -10,-7 -17,-7 -7,0 -13,2 -17,6 -4,4 -6,10 -6,17 0,5 2,10 7,15 4,4 12,9 23,14 20,7 34,15 43,26 9,10 13,23 13,39 0,17 -6,31 -17,41 -11,9 -26,14 -45,14 -13,0 -25,-2 -35,-8 -11,-5 -19,-13 -25,-22 -6,-10 -9,-22 -9,-36 h 40 c 0,12 3,20 7,26 5,5 12,7 22,7 14,0 21,-7 21,-22 z m 126,55 c -20,0 -35,-6 -47,-18 -11,-11 -16,-28 -16,-51 v -11 c 0,-24 5,-42 15,-55 10,-13 25,-19 44,-19 19,0 33,6 42,18 10,12 15,30 15,53 v 19 h -78 c 1,11 3,19 8,25 4,5 11,7 20,7 13,0 23,-4 32,-13 l 15,23 c -4,7 -11,12 -20,16 -9,4 -19,6 -30,6 z m -24,-91 h 38 v -3 c 0,-9 -1,-16 -4,-21 -3,-5 -7,-7 -14,-7 -7,0 -12,3 -15,8 -3,4 -5,12 -5,23 z m 172,-23 -13,-1 c -10,0 -18,5 -21,14 v 99 h -39 v -149 h 36 l 1,16 c 7,-13 15,-19 26,-19 4,0 8,1 11,2 z m 71,57 19,-94 h 41 l -41,149 h -37 l -41,-149 h 40 z m 119,55 h -39 v -149 h 39 z m -41,-188 c 0,-6 2,-11 6,-15 4,-4 9,-6 15,-6 7,0 12,2 15,6 4,4 6,9 6,15 0,6 -2,11 -5,15 -4,4 -9,6 -16,6 -6,0 -12,-2 -15,-6 -4,-4 -6,-9 -6,-15 z m 125,158 c 11,0 17,-7 17,-22 h 36 c 0,16 -5,29 -15,39 -9,10 -22,15 -38,15 -19,0 -33,-6 -43,-18 -10,-11 -16,-29 -16,-52 v -12 c 0,-23 5,-41 15,-53 10,-13 25,-19 44,-19 17,0 29,5 39,15 9,10 14,25 14,43 h -36 c 0,-8 -2,-15 -4,-19 -3,-5 -7,-7 -13,-7 -7,0 -12,3 -15,7 -3,5 -5,15 -5,29 v 15 c 0,12 1,20 2,25 1,5 3,9 6,11 3,2 7,3 12,3 z m 136,32 c -20,0 -36,-6 -47,-18 -11,-11 -17,-28 -17,-51 v -11 c 0,-24 5,-42 15,-55 11,-13 25,-19 45,-19 18,0 32,6 42,18 9,12 14,30 14,53 v 19 h -77 c 0,11 3,19 7,25 4,5 11,7 20,7 13,0 24,-4 33,-13 l 15,23 c -5,7 -12,12 -21,16 -9,4 -19,6 -29,6 z m -25,-91 h 39 v -3 c 0,-9 -2,-16 -4,-21 -3,-5 -8,-7 -15,-7 -7,0 -11,3 -15,8 -3,4 -4,12 -5,23 z m 165,49 c 0,-4 -2,-7 -5,-9 -3,-3 -10,-7 -21,-12 -16,-6 -27,-13 -33,-20 -6,-7 -9,-16 -9,-26 0,-13 5,-24 14,-32 10,-9 22,-13 37,-13 17,0 30,4 40,13 9,8 14,20 14,34 h -39 c 0,-12 -5,-18 -15,-18 -4,0 -7,1 -10,3 -3,3 -4,7 -4,11 0,3 2,6 5,9 2,2 9,6 20,11 16,6 27,12 34,19 6,7 10,17 10,28 0,14 -5,24 -15,32 -10,8 -23,12 -40,12 -10,0 -20,-2 -28,-6 -9,-4 -15,-10 -20,-18 -5,-7 -7,-16 -7,-24 h 37 c 0,6 2,11 5,15 3,3 7,5 14,5 11,0 16,-5 16,-14 z"
     id="path45"
     style="clip-rule:evenodd;fill-rule:evenodd;image-rendering:optimizeQuality;shape-rendering:geometricPrecision;text-rendering:geometricPrecision" /><path
     class="fil6"
     d="m 10091,1985 c 0,-8 -2,-14 -6,-19 -4,-4 -12,-8 -23,-13 -20,-7 -34,-16 -43,-26 -9,-10 -13,-23 -13,-37 0,-16 6,-30 18,-40 12,-10 27,-16 45,-16 12,0 23,3 33,8 10,5 17,13 22,22 5,10 8,20 8,32 h -40 c 0,-9 -2,-16 -6,-21 -4,-5 -10,-7 -17,-7 -8,0 -13,2 -17,6 -4,4 -6,10 -6,17 0,5 2,10 7,15 4,4 12,9 23,14 20,7 34,15 43,26 8,10 13,23 13,39 0,17 -6,31 -17,41 -11,9 -26,14 -45,14 -13,0 -25,-2 -35,-8 -11,-5 -19,-13 -25,-23 -6,-9 -9,-21 -9,-35 h 40 c 0,12 3,20 7,26 5,5 12,7 22,7 14,0 21,-7 21,-22 z m 139,39 c -8,11 -19,16 -33,16 -13,0 -24,-4 -31,-14 -7,-9 -10,-23 -10,-41 v -96 h 39 v 97 c 0,15 5,22 14,22 9,0 15,-4 19,-11 v -108 h 40 v 148 h -37 z m 181,-56 c 0,23 -4,41 -12,54 -8,12 -20,18 -36,18 -12,0 -21,-5 -29,-14 v 69 h -39 v -206 h 36 l 2,13 c 7,-11 17,-16 30,-16 16,0 28,6 36,17 8,12 12,30 12,53 z m -39,-10 c 0,-15 -1,-25 -4,-31 -3,-6 -9,-9 -16,-9 -8,0 -14,3 -18,10 v 70 c 4,7 10,10 18,10 8,0 13,-3 16,-10 3,-6 4,-16 4,-30 z m 179,10 c 0,23 -4,41 -12,54 -8,12 -20,18 -36,18 -12,0 -22,-5 -29,-14 v 69 h -39 v -206 h 36 l 1,13 c 8,-11 18,-16 31,-16 15,0 27,6 35,17 8,12 12,30 13,53 z m -39,-10 c 0,-15 -2,-25 -5,-31 -3,-6 -8,-9 -16,-9 -8,0 -14,3 -17,10 v 70 c 3,7 9,10 17,10 8,0 13,-3 16,-10 3,-6 5,-16 5,-30 z m 58,0 c 0,-22 5,-40 16,-53 10,-13 25,-19 44,-19 19,0 34,6 44,19 11,13 16,31 16,54 v 9 c 0,23 -5,40 -16,53 -10,13 -25,19 -44,19 -19,0 -34,-6 -44,-19 -11,-13 -16,-30 -16,-53 z m 39,10 c 0,27 7,40 21,40 13,0 20,-11 21,-33 v -17 c 0,-13 -2,-23 -5,-30 -4,-7 -9,-10 -16,-10 -7,0 -12,3 -16,10 -3,7 -5,17 -5,30 z m 179,-42 -13,-1 c -11,0 -18,5 -22,14 v 98 h -39 v -148 h 37 l 1,16 c 6,-13 15,-19 25,-19 5,0 8,1 11,2 z m 72,-74 v 37 h 20 v 29 h -20 v 74 c 0,6 0,10 2,12 2,2 5,3 9,3 4,0 7,0 10,-1 l -1,31 c -6,2 -13,3 -21,3 -25,0 -38,-14 -38,-43 v -79 h -17 v -29 h 17 v -37 z"
     id="path47"
     style="clip-rule:evenodd;fill-rule:evenodd;image-rendering:optimizeQuality;shape-rendering:geometricPrecision;text-rendering:geometricPrecision" /><path
     class="fil3"
     d="m 6372,1954 c -1,23 -7,41 -19,52 -12,12 -29,18 -50,18 -23,0 -40,-8 -52,-22 -12,-15 -18,-37 -18,-64 v -34 c 0,-28 6,-49 19,-64 12,-15 29,-22 51,-22 22,0 39,6 50,18 12,12 18,30 19,53 h -40 c 0,-14 -3,-24 -7,-29 -4,-6 -11,-8 -22,-8 -10,0 -18,3 -22,11 -5,7 -7,20 -8,37 v 38 c 0,20 3,34 7,41 4,8 12,11 23,11 11,0 18,-2 22,-7 4,-6 6,-15 7,-29 z m 19,-12 c 0,-23 5,-40 16,-53 10,-13 25,-19 44,-19 19,0 34,6 44,19 11,13 16,30 16,53 v 10 c 0,22 -5,40 -16,53 -10,12 -25,19 -44,19 -19,0 -34,-7 -44,-19 -11,-13 -16,-31 -16,-54 z m 39,10 c 0,26 7,40 21,40 13,0 20,-11 21,-34 v -16 c 0,-14 -1,-24 -5,-30 -4,-7 -9,-10 -16,-10 -7,0 -12,3 -16,10 -3,6 -5,16 -5,30 z m 141,-80 1,15 c 9,-12 20,-17 34,-17 26,0 39,17 40,53 v 98 h -39 v -95 c 0,-9 -1,-15 -4,-19 -2,-3 -7,-5 -13,-5 -7,0 -13,3 -17,11 v 108 h -39 v -149 z m 148,-36 v 36 h 20 v 30 h -20 v 74 c 0,5 1,9 2,12 2,2 5,3 10,3 4,0 7,0 9,-1 v 30 c -7,3 -14,4 -22,4 -25,0 -38,-15 -38,-43 v -79 h -17 v -30 h 17 v -36 z m 112,185 c -1,-2 -2,-6 -3,-11 -7,9 -17,14 -29,14 -12,0 -22,-4 -31,-13 -8,-8 -12,-19 -12,-32 0,-15 5,-27 15,-36 10,-8 24,-13 43,-13 h 12 v -12 c 0,-6 -1,-11 -4,-14 -2,-3 -5,-4 -10,-4 -9,0 -14,6 -14,17 h -39 c 0,-14 5,-25 15,-34 11,-9 24,-13 39,-13 17,0 29,4 38,12 9,9 14,21 14,37 v 70 c 0,12 2,22 5,30 v 2 z m -23,-28 c 4,0 8,0 11,-2 3,-2 5,-4 7,-6 v -32 h -10 c -6,0 -11,3 -15,7 -4,4 -6,10 -6,17 0,11 4,16 13,16 z m 139,-1 c 11,0 17,-8 17,-22 h 36 c 0,16 -5,29 -15,39 -9,10 -22,15 -38,15 -19,0 -33,-6 -43,-18 -10,-12 -16,-30 -16,-53 v -12 c 0,-23 5,-41 15,-53 10,-12 25,-18 44,-18 17,0 29,5 39,15 9,10 14,24 14,43 h -36 c 0,-9 -2,-15 -4,-20 -3,-4 -7,-6 -13,-6 -7,0 -12,2 -15,7 -3,5 -5,14 -5,28 v 15 c 0,12 1,21 2,26 1,5 3,8 6,10 3,3 7,4 12,4 z m 121,-156 v 36 h 20 v 30 h -20 v 74 c 0,5 0,9 2,12 2,2 5,3 9,3 4,0 7,0 9,-1 v 30 c -6,3 -14,4 -21,4 -25,0 -38,-15 -38,-43 v -79 h -17 v -30 h 17 v -36 z"
     id="path115"
     style="clip-rule:evenodd;fill-rule:evenodd;image-rendering:optimizeQuality;shape-rendering:geometricPrecision;text-rendering:geometricPrecision" /><path
     class="fil4"
     d="m 2425,3575 v -201 h 53 c 24,0 42,8 56,23 14,15 21,35 22,61 v 32 c 0,27 -7,47 -21,62 -14,15 -33,23 -58,23 z m 41,-167 v 133 h 12 c 13,0 23,-3 28,-10 6,-8 9,-20 9,-37 v -35 c 0,-19 -3,-32 -8,-39 -5,-7 -14,-11 -26,-12 z m 177,169 c -20,0 -36,-5 -47,-17 -11,-12 -17,-29 -17,-52 v -11 c 0,-24 5,-42 16,-55 10,-12 25,-19 44,-19 18,0 33,6 42,18 9,12 14,30 14,53 v 19 h -77 c 1,11 3,20 7,25 5,5 11,7 20,7 13,0 24,-4 33,-13 l 15,23 c -5,7 -12,12 -21,16 -9,4 -19,6 -29,6 z m -25,-91 h 39 v -3 c 0,-9 -1,-16 -4,-21 -3,-4 -8,-7 -14,-7 -7,0 -12,3 -15,8 -3,5 -5,12 -6,23 z m 107,89 v -120 h -18 v -29 h 18 v -7 c 0,-18 6,-33 16,-43 10,-10 24,-15 42,-15 11,0 24,2 40,8 l -6,33 c -11,-4 -21,-6 -31,-6 -14,0 -22,8 -22,23 v 7 h 23 v 29 h -23 v 120 z m 116,0 h -39 v -149 h 39 z m 66,-149 1,15 c 9,-12 20,-18 34,-18 26,0 39,18 40,54 v 98 h -39 v -96 c 0,-8 -2,-14 -4,-18 -3,-4 -7,-6 -13,-6 -7,0 -13,4 -17,11 v 109 h -39 v -149 z m 143,149 h -39 v -149 h 39 z m -40,-188 c 0,-6 2,-11 5,-15 4,-4 9,-6 16,-6 6,0 11,2 15,6 4,4 6,9 6,15 0,6 -2,11 -6,15 -4,4 -9,6 -15,6 -7,0 -12,-2 -16,-6 -3,-4 -5,-9 -5,-15 z m 116,2 v 37 h 20 v 29 h -20 v 74 c 0,6 1,10 2,12 2,2 5,4 9,4 4,0 7,-1 10,-1 l -1,30 c -6,2 -13,3 -21,3 -25,0 -38,-14 -38,-43 v -79 h -17 v -29 h 17 v -37 z m 82,186 h -39 v -149 h 39 z m -41,-188 c 0,-6 2,-11 6,-15 4,-4 9,-6 15,-6 7,0 12,2 16,6 3,4 5,9 5,15 0,6 -2,11 -5,15 -4,4 -9,6 -16,6 -6,0 -11,-2 -15,-6 -4,-4 -6,-9 -6,-15 z m 66,109 c 0,-23 6,-41 16,-54 11,-12 26,-19 45,-19 19,0 33,7 44,19 11,13 16,31 16,54 v 9 c 0,23 -5,41 -16,53 -10,13 -25,19 -44,19 -19,0 -34,-6 -45,-19 -10,-12 -16,-30 -16,-53 z m 40,9 c 0,27 7,40 21,40 13,0 20,-11 21,-33 v -16 c 0,-14 -2,-24 -5,-31 -4,-6 -10,-10 -16,-10 -7,0 -12,4 -16,10 -4,7 -5,17 -5,31 z m 141,-79 1,15 c 9,-12 20,-18 34,-18 26,0 39,18 40,54 v 98 h -39 v -96 c 0,-8 -2,-14 -4,-18 -3,-4 -7,-6 -13,-6 -7,0 -13,4 -17,11 v 109 h -39 v -149 z m 163,70 c 0,-23 5,-41 16,-54 11,-12 25,-19 44,-19 19,0 34,7 45,19 10,13 15,31 15,54 v 9 c 0,23 -5,41 -15,53 -11,13 -26,19 -45,19 -19,0 -34,-6 -44,-19 -11,-12 -16,-30 -16,-53 z m 39,9 c 0,27 7,40 21,40 14,0 21,-11 22,-33 v -16 c 0,-14 -2,-24 -6,-31 -4,-6 -9,-10 -16,-10 -6,0 -12,4 -15,10 -4,7 -6,17 -6,31 z m 115,70 v -120 h -18 v -29 h 18 v -13 c 0,-17 4,-29 13,-39 8,-9 20,-13 35,-13 5,0 11,1 18,2 l -1,31 c -2,-1 -5,-1 -9,-1 -12,0 -17,7 -17,21 v 12 h 23 v 29 h -23 v 120 z m 193,-186 v 37 h 20 v 29 h -20 v 74 c 0,6 1,10 2,12 2,2 5,4 10,4 3,0 6,-1 9,-1 v 30 c -7,2 -14,3 -22,3 -25,0 -38,-14 -38,-43 v -79 h -17 v -29 h 17 v -37 z m 89,121 20,-84 h 41 l -49,171 c -7,25 -21,38 -41,38 -5,0 -10,-1 -16,-3 v -30 h 4 c 7,0 11,-1 14,-4 3,-2 6,-6 7,-12 l 3,-10 -43,-150 h 42 z m 194,-5 c 0,23 -4,41 -12,54 -8,12 -20,18 -36,18 -12,0 -22,-4 -29,-14 v 69 h -39 v -206 h 36 l 1,14 c 8,-11 18,-17 31,-17 16,0 27,6 35,18 8,11 13,29 13,53 z m -39,-10 c 0,-14 -2,-25 -5,-31 -3,-6 -8,-9 -16,-9 -8,0 -14,4 -17,10 v 71 c 3,6 9,9 17,9 8,0 14,-3 17,-9 2,-7 4,-17 4,-31 z m 58,1 c 0,-23 5,-41 16,-54 10,-12 25,-19 44,-19 19,0 34,7 44,19 11,13 16,31 16,54 v 9 c 0,23 -5,41 -16,53 -10,13 -25,19 -44,19 -19,0 -34,-6 -44,-19 -11,-12 -16,-30 -16,-53 z m 39,9 c 0,27 7,40 21,40 13,0 20,-11 21,-33 l 1,-16 c 0,-14 -2,-24 -6,-31 -4,-6 -9,-10 -16,-10 -7,0 -12,4 -16,10 -3,7 -5,17 -5,31 z m 101,-9 c 0,-25 4,-43 13,-55 9,-12 21,-18 37,-18 13,0 24,6 31,16 l 2,-13 h 35 v 149 c 0,19 -6,33 -16,43 -11,10 -26,15 -46,15 -8,0 -17,-1 -26,-5 -9,-3 -15,-7 -20,-12 l 13,-27 c 4,4 9,7 15,9 5,3 11,4 16,4 9,0 15,-2 19,-6 4,-4 6,-11 6,-20 v -13 c -8,10 -17,14 -29,14 -16,0 -28,-6 -37,-18 -9,-12 -13,-30 -13,-52 z m 39,10 c 0,13 1,24 5,30 4,6 9,9 17,9 8,0 14,-3 18,-8 v -72 c -4,-7 -10,-10 -18,-10 -7,0 -13,3 -17,10 -4,6 -5,17 -5,31 z m 180,-43 -12,-1 c -11,0 -18,5 -22,14 v 99 h -39 v -149 h 37 l 1,16 c 6,-13 14,-19 25,-19 5,0 8,1 11,2 z m 87,112 c -1,-3 -2,-6 -3,-12 -7,10 -17,14 -29,14 -12,0 -23,-4 -31,-12 -8,-8 -12,-19 -12,-32 0,-16 5,-28 15,-36 10,-9 24,-13 43,-13 h 12 v -12 c 0,-7 -1,-12 -4,-14 -2,-3 -5,-4 -10,-4 -10,0 -14,5 -14,17 h -39 c 0,-14 5,-26 15,-34 11,-9 24,-14 39,-14 17,0 29,4 38,13 9,8 14,21 14,36 v 70 c 0,13 2,23 5,30 v 3 z m -23,-28 c 4,0 8,-1 11,-3 3,-1 5,-3 7,-6 v -31 h -10 c -6,0 -11,2 -15,6 -4,5 -6,10 -6,17 0,12 4,17 13,17 z m 201,-42 c 0,23 -4,41 -12,54 -8,12 -20,18 -36,18 -12,0 -22,-4 -29,-14 v 69 h -39 v -206 h 36 l 1,14 c 7,-11 18,-17 30,-17 16,0 28,6 36,18 8,11 12,29 13,53 z m -39,-10 c 0,-14 -2,-25 -5,-31 -3,-6 -8,-9 -16,-9 -8,0 -14,4 -17,10 v 71 c 3,6 9,9 17,9 8,0 13,-3 16,-9 3,-7 5,-17 5,-31 z m 100,-56 c 9,-11 19,-16 31,-16 14,0 24,5 31,15 7,9 11,23 11,42 v 95 h -39 v -95 c 0,-9 -2,-15 -4,-19 -3,-4 -7,-6 -13,-6 -8,0 -13,4 -17,10 v 110 h -39 v -211 h 39 z m 148,71 20,-84 h 42 l -49,171 c -8,25 -21,38 -42,38 -4,0 -10,-1 -16,-3 v -30 h 5 c 6,0 11,-1 14,-4 3,-2 5,-6 7,-12 l 3,-10 -43,-150 h 42 z"
     id="path253"
     style="clip-rule:evenodd;fill-rule:evenodd;image-rendering:optimizeQuality;shape-rendering:geometricPrecision;text-rendering:geometricPrecision" /><path
     class="fil7"
     d="m 2678,4345 h -21 v 73 h -40 v -200 h 65 c 20,0 35,5 46,15 11,11 17,26 17,45 0,27 -10,46 -29,56 l 35,82 v 2 h -43 z m -21,-34 h 23 c 8,0 15,-3 19,-8 4,-5 6,-12 6,-21 0,-21 -8,-31 -24,-31 h -24 z m 109,28 c 0,-23 6,-41 16,-53 11,-13 26,-20 44,-20 19,0 34,7 45,20 10,12 16,30 16,53 v 9 c 0,23 -5,41 -16,54 -11,12 -25,19 -44,19 -19,0 -34,-7 -45,-20 -10,-12 -16,-30 -16,-53 z m 39,9 c 0,27 7,41 22,41 13,0 20,-12 21,-34 v -16 c 0,-14 -2,-24 -6,-31 -3,-6 -9,-10 -16,-10 -6,0 -11,4 -15,10 -4,7 -6,17 -6,31 z m 222,0 c 0,24 -4,43 -12,55 -7,12 -19,18 -36,18 -13,0 -23,-6 -31,-18 l -1,15 h -36 v -211 h 39 v 74 c 7,-10 17,-15 29,-15 16,0 28,6 36,18 8,12 12,30 12,53 z m -39,-10 c 0,-15 -2,-26 -5,-31 -3,-6 -8,-9 -15,-9 -8,0 -14,4 -18,12 v 68 c 3,7 9,11 18,11 7,0 12,-3 15,-8 3,-5 5,-14 5,-28 z m 58,1 c 0,-23 5,-41 16,-53 10,-13 25,-20 44,-20 19,0 34,7 44,20 11,12 16,30 16,53 v 9 c 0,23 -5,41 -16,54 -10,12 -25,19 -44,19 -19,0 -34,-7 -44,-20 -11,-12 -16,-30 -16,-53 z m 39,9 c 0,27 7,41 21,41 13,0 20,-12 21,-34 l 1,-16 c 0,-14 -2,-24 -6,-31 -4,-6 -9,-10 -16,-10 -7,0 -12,4 -16,10 -3,7 -5,17 -5,31 z m 151,-115 v 36 h 20 v 29 h -20 v 74 c 0,6 0,10 2,12 2,3 5,4 9,4 4,0 7,-1 9,-1 v 30 c -6,2 -14,4 -21,4 -25,0 -38,-15 -38,-44 v -79 h -18 v -29 h 18 v -36 z m 32,106 c 0,-23 6,-41 16,-53 11,-13 26,-20 44,-20 19,0 34,7 45,20 10,12 16,30 16,53 v 9 c 0,23 -6,41 -16,54 -11,12 -25,19 -44,19 -19,0 -34,-7 -45,-20 -10,-12 -16,-30 -16,-53 z m 39,9 c 0,27 7,41 22,41 13,0 20,-12 21,-34 v -16 c 0,-14 -2,-24 -6,-31 -4,-6 -9,-10 -16,-10 -6,0 -11,4 -15,10 -4,7 -6,17 -6,31 z m 257,17 c 0,-8 -2,-14 -6,-18 -4,-4 -12,-9 -23,-13 -20,-8 -34,-17 -43,-27 -9,-10 -13,-22 -13,-36 0,-17 6,-31 18,-41 12,-10 27,-15 45,-15 12,0 23,2 33,8 10,5 17,12 22,22 5,9 8,20 8,32 h -40 c 0,-10 -2,-17 -6,-22 -4,-5 -10,-7 -18,-7 -7,0 -12,2 -16,6 -4,4 -6,10 -6,17 0,6 2,11 7,15 4,4 12,9 23,14 20,7 34,16 43,26 8,10 13,23 13,39 0,17 -6,31 -17,41 -11,10 -26,15 -45,15 -13,0 -25,-3 -35,-8 -11,-6 -19,-13 -25,-23 -6,-10 -9,-22 -9,-35 h 40 c 0,11 3,20 7,25 4,5 12,8 22,8 14,0 21,-8 21,-23 z m 107,53 h -39 v -211 h 39 z m 100,0 c -1,-2 -2,-6 -3,-12 -7,10 -16,15 -28,15 -13,0 -23,-4 -31,-13 -8,-8 -13,-19 -13,-32 0,-15 5,-27 15,-36 10,-9 25,-13 43,-13 h 12 v -12 c 0,-7 -1,-11 -3,-14 -3,-3 -6,-4 -10,-4 -10,0 -15,5 -15,17 h -39 c 0,-14 5,-25 16,-34 10,-9 23,-14 39,-14 16,0 29,5 38,13 9,9 13,21 13,36 v 70 c 0,13 2,23 6,30 v 3 z m -23,-28 c 5,0 8,-1 11,-2 3,-2 6,-4 7,-7 v -31 h -9 c -7,0 -12,2 -16,7 -4,4 -5,10 -5,17 0,11 4,16 12,16 z m 201,-42 c 0,24 -4,43 -11,55 -8,12 -20,18 -37,18 -13,0 -23,-6 -31,-18 l -1,15 h -36 v -211 h 39 v 74 c 7,-10 17,-15 29,-15 17,0 29,6 36,18 8,12 12,30 12,53 z m -39,-10 c 0,-15 -1,-26 -4,-31 -3,-6 -9,-9 -16,-9 -8,0 -14,4 -18,12 v 68 c 4,7 10,11 18,11 8,0 13,-3 16,-8 3,-5 4,-14 4,-28 z"
     id="path255"
     style="clip-rule:evenodd;fill-rule:evenodd;image-rendering:optimizeQuality;shape-rendering:geometricPrecision;text-rendering:geometricPrecision" /><path
     class="fil3"
     d="m 2789,10876 v -200 h 62 c 21,0 37,4 48,14 10,9 16,22 16,40 0,11 -2,19 -7,27 -4,7 -11,12 -18,16 9,2 16,7 20,15 5,8 8,18 8,29 0,19 -6,34 -16,44 -11,10 -26,15 -47,15 z m 40,-87 v 53 h 26 c 8,0 13,-2 17,-6 4,-5 5,-11 5,-20 0,-18 -6,-27 -19,-27 z m 0,-30 h 21 c 16,0 24,-8 24,-24 0,-9 -2,-16 -5,-20 -4,-4 -10,-6 -18,-6 h -22 z m 189,103 c -8,11 -19,17 -32,17 -14,0 -24,-5 -31,-14 -7,-10 -11,-24 -11,-42 v -96 h 39 v 98 c 0,14 5,22 14,22 9,0 16,-4 20,-12 v -108 h 39 v 149 h -37 z m 111,-171 v 36 h 20 v 29 h -20 v 74 c 0,6 1,10 2,12 2,3 5,4 10,4 3,0 6,-1 9,-1 l -1,30 c -6,2 -13,4 -21,4 -25,0 -38,-15 -38,-44 v -79 h -17 v -29 h 17 v -36 z m 86,0 v 36 h 20 v 29 h -20 v 74 c 0,6 1,10 3,12 1,3 4,4 9,4 4,0 7,-1 9,-1 v 30 c -7,2 -14,4 -21,4 -26,0 -38,-15 -39,-44 v -79 h -17 v -29 h 17 v -36 z m 33,106 c 0,-23 5,-41 16,-53 11,-13 25,-20 44,-20 19,0 34,7 44,20 11,12 16,30 16,53 v 9 c 0,23 -5,41 -15,54 -11,12 -26,19 -45,19 -19,0 -34,-7 -44,-20 -11,-12 -16,-30 -16,-53 z m 39,9 c 0,27 7,41 21,41 13,0 21,-12 22,-34 v -16 c 0,-14 -2,-24 -6,-31 -4,-6 -9,-10 -16,-10 -7,0 -12,4 -15,10 -4,7 -6,17 -6,31 z m 141,-79 1,15 c 9,-12 21,-18 35,-18 25,0 38,18 39,54 v 98 h -39 v -95 c 0,-9 -1,-15 -4,-19 -2,-4 -7,-6 -13,-6 -7,0 -12,4 -16,11 v 109 h -39 v -149 z"
     id="path79"
     style="clip-rule:evenodd;fill-rule:evenodd;image-rendering:optimizeQuality;shape-rendering:geometricPrecision;text-rendering:geometricPrecision" /><path
     class="fil3"
     d="m 5369,10876 v -200 h 62 c 21,0 37,4 48,14 11,9 16,22 16,40 0,11 -2,19 -7,27 -4,7 -10,12 -18,16 9,2 16,7 21,15 4,8 7,18 7,29 0,19 -5,34 -16,44 -11,10 -26,15 -47,15 z m 41,-87 v 53 h 25 c 8,0 13,-2 17,-6 4,-5 6,-11 6,-20 0,-18 -7,-27 -20,-27 z m 0,-30 h 21 c 15,0 23,-8 23,-24 0,-9 -1,-16 -5,-20 -4,-4 -10,-6 -18,-6 h -21 z m 188,103 c -8,11 -19,17 -32,17 -14,0 -24,-5 -31,-14 -7,-10 -11,-24 -11,-42 v -96 h 39 v 98 c 0,14 5,22 15,22 8,0 15,-4 19,-12 v -108 h 39 v 149 h -37 z m 111,-171 v 36 h 20 v 29 h -20 v 74 c 0,6 1,10 2,12 2,3 5,4 10,4 3,0 7,-1 9,-1 v 30 c -7,2 -14,4 -22,4 -25,0 -38,-15 -38,-44 v -79 h -17 v -29 h 17 v -36 z m 86,0 v 36 h 20 v 29 h -20 v 74 c 0,6 1,10 3,12 1,3 5,4 9,4 4,0 7,-1 9,-1 v 30 c -7,2 -14,4 -21,4 -25,0 -38,-15 -38,-44 v -79 h -18 v -29 h 18 v -36 z m 33,106 c 0,-23 5,-41 16,-53 11,-13 25,-20 44,-20 19,0 34,7 45,20 10,12 16,30 16,53 v 9 c 0,23 -6,41 -16,54 -11,12 -26,19 -44,19 -20,0 -34,-7 -45,-20 -11,-12 -16,-30 -16,-53 z m 39,9 c 0,27 7,41 22,41 13,0 20,-12 21,-34 v -16 c 0,-14 -2,-24 -6,-31 -4,-6 -9,-10 -16,-10 -6,0 -12,4 -15,10 -4,7 -6,17 -6,31 z m 141,-79 1,15 c 9,-12 21,-18 35,-18 25,0 39,18 39,54 v 98 h -39 v -95 c 0,-9 -1,-15 -4,-19 -2,-4 -6,-6 -13,-6 -7,0 -12,4 -16,11 v 109 h -39 v -149 z"
     id="path81"
     style="clip-rule:evenodd;fill-rule:evenodd;image-rendering:optimizeQuality;shape-rendering:geometricPrecision;text-rendering:geometricPrecision" /><path
     class="fil1"
     d="m 4937,12117 v -158 c 0,-17 15,-31 32,-31 17,0 32,14 32,31 v 158 c 0,18 -15,32 -32,32 -17,0 -32,-14 -32,-32 z m 157,-143 c -10,-8 -25,-6 -33,4 -8,10 -6,25 4,33 37,30 59,74 59,122 0,85 -70,155 -155,155 -85,0 -155,-70 -155,-155 0,-48 22,-92 59,-122 10,-8 12,-23 4,-33 -8,-10 -23,-12 -33,-4 -49,39 -77,97 -77,159 0,112 90,202 202,202 111,0 202,-90 202,-202 0,-62 -28,-120 -77,-159 z"
     id="path99"
     style="clip-rule:evenodd;fill-rule:evenodd;image-rendering:optimizeQuality;shape-rendering:geometricPrecision;text-rendering:geometricPrecision" /><path
     class="fil1"
     d="m 5883,12117 v -158 c 0,-17 14,-31 32,-31 17,0 31,14 31,31 v 158 c 0,18 -14,32 -31,32 -18,0 -32,-14 -32,-32 z m 157,-143 c -10,-8 -25,-6 -33,4 -8,10 -7,25 4,33 37,30 59,74 59,122 0,85 -70,155 -155,155 -86,0 -155,-70 -155,-155 0,-48 21,-92 59,-122 10,-8 12,-23 4,-33 -8,-10 -23,-12 -34,-4 -49,39 -77,97 -77,159 0,112 91,202 203,202 111,0 202,-90 202,-202 0,-62 -28,-120 -77,-159 z"
     id="path103"
     style="clip-rule:evenodd;fill-rule:evenodd;image-rendering:optimizeQuality;shape-rendering:geometricPrecision;text-rendering:geometricPrecision" /><path
     class="fil9"
     d="m 2324,12231 v -200 h 62 c 21,0 37,4 48,14 11,9 16,23 16,40 0,11 -2,19 -7,27 -4,7 -10,12 -18,16 9,2 16,8 21,15 4,8 7,18 7,29 0,19 -5,34 -16,44 -11,10 -26,15 -47,15 z m 41,-87 v 53 h 25 c 8,0 13,-2 17,-6 4,-5 6,-11 6,-20 0,-17 -7,-27 -20,-27 z m 0,-30 h 21 c 15,0 23,-8 23,-24 0,-9 -1,-16 -5,-20 -4,-4 -10,-6 -18,-6 h -21 z"
     id="path117"
     style="clip-rule:evenodd;fill-rule:evenodd;image-rendering:optimizeQuality;shape-rendering:geometricPrecision;text-rendering:geometricPrecision" /><path
     class="fil3"
     d="m 3270,12231 v -200 h 62 c 21,0 37,4 47,14 11,9 17,23 17,40 0,11 -3,19 -7,27 -5,7 -11,12 -18,16 9,2 15,8 20,15 5,8 8,18 8,29 0,19 -6,34 -16,44 -11,10 -27,15 -47,15 z m 40,-87 v 53 h 26 c 7,0 13,-2 17,-6 3,-5 5,-11 5,-20 0,-17 -6,-27 -19,-27 z m 0,-30 h 21 c 16,0 24,-8 24,-24 0,-9 -2,-16 -5,-20 -4,-4 -10,-6 -18,-6 h -22 z"
     id="path119"
     style="clip-rule:evenodd;fill-rule:evenodd;image-rendering:optimizeQuality;shape-rendering:geometricPrecision;text-rendering:geometricPrecision" /><path
     class="fil3"
     d="m 7379,7885 v -200 h 62 c 21,0 37,5 48,14 11,10 16,23 16,41 0,10 -2,19 -7,26 -4,8 -10,13 -18,16 9,3 16,8 21,16 4,8 7,17 7,29 0,19 -5,34 -16,44 -11,9 -26,14 -47,14 z m 41,-87 v 54 h 25 c 8,0 13,-2 17,-7 4,-4 6,-11 6,-19 0,-18 -7,-27 -20,-28 z m 0,-29 h 21 c 16,0 23,-8 23,-25 0,-9 -1,-15 -5,-19 -4,-4 -10,-6 -18,-6 h -21 z m 188,103 c -8,11 -19,16 -32,16 -14,0 -24,-4 -31,-14 -7,-9 -11,-23 -11,-41 v -96 h 39 v 97 c 0,15 5,22 15,22 8,0 15,-4 19,-11 v -108 h 39 v 148 h -37 z m 111,-172 v 37 h 20 v 29 h -20 v 74 c 0,6 1,10 2,12 2,2 5,3 10,3 3,0 7,0 9,-1 v 31 c -7,2 -14,3 -22,3 -25,0 -38,-14 -38,-43 v -79 h -17 v -29 h 17 v -37 z m 86,0 v 37 h 20 v 29 h -20 v 74 c 0,6 1,10 3,12 2,2 5,3 9,3 4,0 7,0 9,-1 v 31 c -6,2 -14,3 -21,3 -25,0 -38,-14 -38,-43 v -79 h -18 v -29 h 18 v -37 z m 33,106 c 0,-22 5,-40 16,-53 11,-13 25,-19 44,-19 19,0 34,6 45,19 10,13 16,31 16,54 v 9 c 0,23 -6,40 -16,53 -11,13 -26,19 -44,19 -20,0 -34,-6 -45,-19 -11,-13 -16,-30 -16,-53 z m 39,10 c 0,27 7,40 22,40 13,0 20,-11 21,-33 v -17 c 0,-13 -2,-23 -6,-30 -4,-7 -9,-10 -16,-10 -6,0 -12,3 -15,10 -4,7 -6,17 -6,30 z m 141,-79 1,14 c 9,-11 21,-17 35,-17 25,0 39,18 39,54 v 97 h -39 v -95 c 0,-8 -1,-14 -3,-18 -3,-4 -7,-6 -14,-6 -7,0 -12,4 -16,11 v 108 h -39 v -148 z"
     id="path141"
     style="clip-rule:evenodd;fill-rule:evenodd;image-rendering:optimizeQuality;shape-rendering:geometricPrecision;text-rendering:geometricPrecision" /><path
     class="fil3"
     d="m 7379,9337 v -200 h 62 c 21,0 37,4 48,13 11,10 16,23 16,41 0,11 -2,19 -7,27 -4,7 -10,12 -18,16 9,2 16,7 21,15 4,8 7,17 7,29 0,19 -5,34 -16,44 -11,10 -26,15 -47,15 z m 41,-87 v 53 h 25 c 8,0 13,-2 17,-7 4,-4 6,-10 6,-19 0,-18 -7,-27 -20,-27 z m 0,-30 h 21 c 16,0 23,-8 23,-24 0,-9 -1,-16 -5,-20 -4,-4 -10,-6 -18,-6 h -21 z m 188,103 c -8,11 -19,17 -32,17 -14,0 -24,-5 -31,-15 -7,-9 -11,-23 -11,-41 v -96 h 39 v 98 c 0,14 5,21 15,21 8,0 15,-3 19,-11 v -108 h 39 v 149 h -37 z m 111,-172 v 37 h 20 v 29 h -20 v 74 c 0,6 1,10 2,12 2,3 5,4 10,4 3,0 7,-1 9,-1 v 30 c -7,2 -14,4 -22,4 -25,0 -38,-15 -38,-44 v -79 h -17 v -29 h 17 v -37 z m 86,0 v 37 h 20 v 29 h -20 v 74 c 0,6 1,10 3,12 2,3 5,4 9,4 4,0 7,-1 9,-1 v 30 c -6,2 -14,4 -21,4 -25,0 -38,-15 -38,-44 v -79 h -18 v -29 h 18 v -37 z m 33,107 c 0,-23 5,-41 16,-54 11,-12 25,-19 44,-19 19,0 34,7 45,19 10,13 16,31 16,54 v 9 c 0,23 -6,41 -16,53 -11,13 -26,20 -44,20 -20,0 -34,-7 -45,-20 -11,-12 -16,-30 -16,-53 z m 39,9 c 0,27 7,40 22,40 13,0 20,-11 21,-33 v -16 c 0,-14 -2,-24 -6,-31 -4,-6 -9,-10 -16,-10 -6,0 -12,4 -15,10 -4,7 -6,17 -6,31 z m 141,-79 1,15 c 9,-12 21,-18 35,-18 25,0 39,18 39,54 v 98 h -39 v -95 c 0,-9 -1,-15 -3,-19 -3,-4 -7,-6 -14,-6 -7,0 -12,4 -16,11 v 109 h -39 v -149 z"
     id="path147"
     style="clip-rule:evenodd;fill-rule:evenodd;image-rendering:optimizeQuality;shape-rendering:geometricPrecision;text-rendering:geometricPrecision" /><path
     class="fil4"
     d="m 2327,13418 v -198 h 53 c 23,0 42,7 56,22 14,14 21,35 21,60 v 33 c 0,26 -7,46 -21,61 -13,15 -33,22 -57,22 z m 41,-165 v 132 h 12 c 13,0 23,-3 28,-10 6,-7 9,-20 9,-37 v -34 c 0,-19 -3,-32 -8,-39 -5,-8 -14,-12 -27,-12 z m 112,87 c 0,-23 5,-40 16,-53 10,-13 25,-19 44,-19 19,0 34,6 44,19 11,13 16,30 16,53 v 9 c 0,23 -5,41 -16,53 -10,13 -25,19 -44,19 -19,0 -34,-6 -44,-19 -11,-13 -16,-30 -16,-53 z m 39,10 c 0,26 7,39 21,39 13,0 20,-11 21,-33 l 1,-16 c 0,-14 -2,-24 -6,-30 -4,-7 -9,-10 -16,-10 -7,0 -12,3 -16,10 -3,6 -5,16 -5,30 z m 214,4 13,-83 h 37 l -30,147 h -33 l -21,-85 -21,85 h -32 l -31,-147 h 37 l 14,83 19,-83 h 28 z m 105,-83 1,14 c 9,-11 21,-17 35,-17 25,0 38,18 39,53 v 97 h -39 v -94 c 0,-9 -1,-15 -4,-18 -2,-4 -7,-6 -13,-6 -7,0 -12,3 -16,11 v 107 h -39 v -147 z m 144,147 h -39 v -209 h 39 z m 26,-78 c 0,-23 5,-40 16,-53 10,-13 25,-19 44,-19 19,0 33,6 44,19 11,13 16,30 16,53 v 9 c 0,23 -5,41 -16,53 -10,13 -25,19 -44,19 -19,0 -34,-6 -44,-19 -11,-13 -16,-30 -16,-53 z m 39,10 c 0,26 7,39 21,39 13,0 20,-11 21,-33 v -16 c 0,-14 -2,-24 -5,-30 -4,-7 -9,-10 -16,-10 -7,0 -12,3 -16,10 -3,6 -5,16 -5,30 z m 176,68 c -1,-2 -2,-6 -3,-11 -7,9 -17,14 -29,14 -12,0 -23,-4 -31,-12 -8,-8 -12,-19 -12,-32 0,-15 5,-27 15,-36 10,-8 24,-13 43,-13 h 12 v -12 c 0,-6 -1,-11 -4,-14 -2,-3 -5,-4 -10,-4 -10,0 -14,6 -14,17 h -39 c 0,-14 5,-25 15,-34 10,-9 24,-13 39,-13 17,0 29,4 38,13 9,8 14,20 14,36 v 69 c 0,13 2,23 5,30 v 2 z m -23,-27 c 4,0 8,-1 11,-3 3,-1 5,-3 7,-6 v -31 h -10 c -6,0 -11,2 -15,7 -4,4 -6,9 -6,17 0,11 4,16 13,16 z m 80,-51 c 0,-24 4,-42 12,-54 8,-12 20,-18 36,-18 11,0 21,5 28,15 v -74 h 40 v 209 h -36 l -1,-15 c -8,12 -19,18 -31,18 -16,0 -28,-6 -36,-18 -8,-11 -12,-29 -12,-52 z m 39,10 c 0,14 1,25 4,31 3,5 9,8 16,8 8,0 14,-3 17,-10 v -68 c -3,-7 -9,-11 -17,-11 -7,0 -12,3 -15,8 -4,6 -5,17 -5,31 z"
     id="path131"
     style="clip-rule:evenodd;fill-rule:evenodd;image-rendering:optimizeQuality;shape-rendering:geometricPrecision;text-rendering:geometricPrecision" /><path
     class="fil4"
     d="m 7783,13195 v 36 h -2 c -16,0 -29,5 -38,14 -9,9 -15,22 -17,39 9,-10 21,-15 34,-15 16,0 28,7 38,20 9,13 14,31 14,54 0,14 -3,27 -8,38 -6,11 -13,20 -23,27 -9,6 -20,9 -33,9 -19,0 -35,-8 -47,-24 -12,-15 -18,-37 -18,-63 v -16 c 0,-24 4,-45 12,-63 7,-18 18,-32 32,-41 14,-10 31,-15 50,-15 z m -36,109 c -5,0 -10,1 -14,5 -3,3 -6,7 -8,12 v 15 c 0,16 2,27 6,35 5,7 10,11 17,11 6,0 12,-3 16,-11 4,-7 6,-16 6,-28 0,-12 -2,-21 -6,-28 -5,-8 -10,-11 -17,-11 z m 216,20 c 0,30 -6,53 -16,69 -11,16 -27,24 -47,24 -20,0 -35,-8 -46,-23 -11,-16 -17,-38 -17,-66 v -41 c 0,-30 5,-53 16,-69 11,-16 26,-24 47,-24 20,0 36,8 46,24 11,15 17,38 17,67 z m -42,-44 c 0,-17 -2,-30 -5,-38 -4,-9 -9,-13 -16,-13 -14,0 -21,16 -21,47 v 54 c 0,18 2,31 5,39 3,9 9,13 16,13 7,0 12,-4 15,-12 4,-8 5,-20 6,-37 z m 70,-41 c 0,-13 4,-24 11,-32 8,-9 18,-13 30,-13 12,0 22,4 30,12 7,9 11,20 11,34 v 10 c 0,14 -4,25 -11,33 -8,8 -17,12 -30,12 -12,0 -22,-4 -29,-12 -8,-8 -12,-19 -12,-33 z m 28,12 c 0,6 1,11 4,14 2,4 5,6 9,6 4,0 7,-2 10,-6 2,-4 3,-9 3,-15 v -11 c 0,-6 -1,-11 -3,-15 -3,-4 -6,-5 -10,-5 -4,0 -7,1 -10,5 -2,4 -3,9 -3,15 z m 58,110 c 0,-14 4,-24 11,-33 8,-8 17,-12 30,-12 12,0 22,4 29,12 8,8 11,19 11,34 v 10 c 0,14 -3,25 -10,33 -8,8 -18,12 -30,12 -13,0 -23,-4 -30,-12 -7,-9 -11,-19 -11,-33 z m 28,12 c 0,5 1,10 3,14 3,4 6,6 10,6 8,0 12,-6 13,-18 v -14 c 0,-6 -1,-11 -4,-15 -2,-4 -5,-5 -9,-5 -9,0 -13,7 -13,23 z m -65,25 -20,-11 89,-170 20,11 z"
     id="path133"
     style="clip-rule:evenodd;fill-rule:evenodd;image-rendering:optimizeQuality;shape-rendering:geometricPrecision;text-rendering:geometricPrecision" /><polygon
     class="fil3"
     points="2611,15305 2529,15225 2448,15144 2448,15203 2270,15203 2270,15408 2448,15408 2448,15467 2529,15386 "
     id="polygon51"
     style="clip-rule:evenodd;fill-rule:evenodd;image-rendering:optimizeQuality;shape-rendering:geometricPrecision;text-rendering:geometricPrecision" /><polygon
     class="fil3"
     points="3321,15305 3402,15386 3483,15467 3483,15408 3661,15408 3661,15203 3483,15203 3483,15144 3402,15225 "
     id="polygon55"
     style="clip-rule:evenodd;fill-rule:evenodd;image-rendering:optimizeQuality;shape-rendering:geometricPrecision;text-rendering:geometricPrecision" /><polygon
     class="fil3"
     points="4749,15408 4545,15408 4545,15203 4749,15203 "
     id="polygon59"
     style="clip-rule:evenodd;fill-rule:evenodd;image-rendering:optimizeQuality;shape-rendering:geometricPrecision;text-rendering:geometricPrecision" /><polygon
     class="fil3"
     points="5727,15408 5625,15408 5625,15203 5727,15203 "
     id="polygon63"
     style="clip-rule:evenodd;fill-rule:evenodd;image-rendering:optimizeQuality;shape-rendering:geometricPrecision;text-rendering:geometricPrecision" /><polygon
     class="fil3"
     points="5917,15408 5814,15408 5814,15203 5917,15203 "
     id="polygon65"
     style="clip-rule:evenodd;fill-rule:evenodd;image-rendering:optimizeQuality;shape-rendering:geometricPrecision;text-rendering:geometricPrecision" /><polygon
     class="fil4"
     points="7911,15494 7911,15327 7911,15160 8056,15243 8200,15327 8056,15411 "
     id="polygon69"
     style="clip-rule:evenodd;fill-rule:evenodd;image-rendering:optimizeQuality;shape-rendering:geometricPrecision;text-rendering:geometricPrecision" /><polygon
     class="fil3"
     points="6783,15494 6783,15327 6783,15160 6928,15243 7073,15327 6928,15411 "
     id="polygon73"
     style="clip-rule:evenodd;fill-rule:evenodd;image-rendering:optimizeQuality;shape-rendering:geometricPrecision;text-rendering:geometricPrecision" /><polygon
     class="fil3"
     points="15904,8154 15881,8162 15881,8143 15924,8126 15927,8126 15927,8244 15904,8244 "
     id="polygon20"
     style="clip-rule:evenodd;fill-rule:evenodd;image-rendering:optimizeQuality;shape-rendering:geometricPrecision;text-rendering:geometricPrecision" /><path
     class="fil3"
     d="m 16923,8174 h 11 c 4,0 7,-1 9,-4 2,-3 3,-7 3,-12 0,-5 -1,-8 -3,-11 -2,-2 -5,-4 -8,-4 -4,0 -6,1 -8,4 -2,3 -3,6 -3,9 h -23 c 0,-6 1,-11 4,-16 3,-5 7,-9 12,-11 5,-3 11,-5 17,-5 11,0 19,3 25,9 7,6 10,14 10,25 0,5 -2,10 -4,15 -3,4 -7,8 -11,10 5,3 9,6 12,11 3,5 4,10 4,17 0,10 -3,19 -10,25 -7,6 -15,9 -26,9 -10,0 -18,-3 -25,-9 -6,-6 -9,-14 -9,-24 h 23 c 0,4 1,7 3,10 2,3 5,5 9,5 3,0 7,-2 9,-5 2,-3 3,-7 3,-12 0,-11 -4,-17 -13,-17 h -11 z"
     id="path22"
     style="clip-rule:evenodd;fill-rule:evenodd;image-rendering:optimizeQuality;shape-rendering:geometricPrecision;text-rendering:geometricPrecision" /><path
     class="fil3"
     d="m 17410,8199 h 10 v 19 h -10 v 26 h -23 v -26 h -39 l -1,-15 40,-77 h 23 z m -41,0 h 18 v -39 1 z"
     id="path24"
     style="clip-rule:evenodd;fill-rule:evenodd;image-rendering:optimizeQuality;shape-rendering:geometricPrecision;text-rendering:geometricPrecision" /><path
     class="fil3"
     d="m 16442,8244 h -69 v -16 l 32,-41 c 4,-5 7,-10 8,-14 2,-5 3,-9 3,-13 0,-5 -1,-9 -2,-12 -2,-3 -5,-4 -8,-4 -4,0 -7,1 -9,5 -2,3 -3,8 -3,15 h -23 c 0,-8 1,-14 4,-20 3,-6 7,-11 13,-14 5,-4 11,-5 18,-5 11,0 19,3 25,8 6,6 8,15 8,25 0,7 -1,14 -4,20 -4,7 -9,16 -18,26 l -15,21 h 40 z"
     id="path111"
     style="clip-rule:evenodd;fill-rule:evenodd;image-rendering:optimizeQuality;shape-rendering:geometricPrecision;text-rendering:geometricPrecision" /><path
     class="fil13"
     d="m 13910,12846 v -33 h 38 v 33 z m 2,134 v -113 h 35 v 113 z"
     id="path229"
     style="clip-rule:evenodd;fill-rule:evenodd;image-rendering:optimizeQuality;shape-rendering:geometricPrecision;text-rendering:geometricPrecision" /><path
     class="fil4"
     d="m 13476,13480 h -26 v -127 h 26 z m 110,0 h -26 l -37,-83 v 83 h -26 v -127 h 26 l 37,83 v -83 h 26 z m 86,-52 h -40 v 52 h -25 v -127 h 70 v 21 h -45 v 33 h 40 z m 109,0 c 0,17 -4,30 -12,40 -8,9 -19,14 -34,14 -14,0 -25,-5 -33,-14 -8,-10 -13,-23 -13,-39 v -22 c 0,-18 4,-31 12,-41 9,-10 20,-15 34,-15 14,0 25,5 33,15 9,9 13,23 13,40 z m -26,-21 c 0,-12 -1,-20 -5,-26 -3,-5 -8,-8 -15,-8 -7,0 -12,2 -15,8 -3,5 -5,13 -5,24 v 23 c 0,11 2,19 5,24 3,6 8,8 15,8 7,0 12,-2 15,-7 3,-5 5,-13 5,-24 z m 83,27 h -13 v 46 h -26 v -127 h 41 c 13,0 23,3 30,10 7,7 10,16 10,28 0,17 -6,29 -18,36 l 22,52 v 1 h -27 z m -13,-22 h 15 c 5,0 8,-1 11,-5 3,-3 4,-8 4,-13 0,-13 -5,-20 -15,-20 h -15 z m 107,-59 23,92 24,-92 h 34 v 127 h -26 v -34 l 2,-53 -25,87 h -17 l -26,-87 3,53 v 34 h -26 v -127 z m 164,101 h -35 l -7,26 h -27 l 39,-127 h 24 l 40,127 h -28 z m -30,-21 h 24 l -12,-46 z m 147,-59 h -31 v 106 h -26 v -106 h -31 v -21 h 88 z m 42,106 h -26 v -127 h 26 z m 111,-52 c 0,17 -4,30 -12,40 -8,9 -20,14 -34,14 -14,0 -25,-5 -33,-14 -9,-10 -13,-23 -13,-39 v -22 c 0,-18 4,-31 12,-41 8,-10 20,-15 34,-15 14,0 25,5 33,15 9,9 13,23 13,40 z m -26,-21 c 0,-12 -2,-20 -5,-26 -3,-5 -8,-8 -15,-8 -7,0 -12,2 -15,8 -3,5 -5,13 -5,24 v 23 c 0,11 2,19 5,24 3,6 8,8 15,8 7,0 12,-2 15,-7 3,-5 5,-13 5,-24 z m 133,73 h -26 l -37,-83 v 83 h -26 v -127 h 26 l 37,83 v -83 h 26 z"
     id="path237"
     style="clip-rule:evenodd;fill-rule:evenodd;image-rendering:optimizeQuality;shape-rendering:geometricPrecision;text-rendering:geometricPrecision" /><polygon
     class="fil3"
     points="18844,12700 18980,12700 19117,12700 19049,12796 18980,12891 18912,12796 "
     id="polygon189"
     style="clip-rule:evenodd;fill-rule:evenodd;image-rendering:optimizeQuality;shape-rendering:geometricPrecision;text-rendering:geometricPrecision" /><path
     class="fil3"
     d="m 17402,13568 h -50 v 173 h -40 v -173 h -49 v -35 h 139 z m 62,173 h -39 v -155 h 39 z m -41,-195 c 0,-7 2,-12 6,-16 4,-4 9,-6 15,-6 6,0 12,2 15,6 4,4 6,9 6,16 0,6 -2,11 -5,15 -4,5 -9,7 -16,7 -6,0 -12,-2 -15,-7 -4,-4 -6,-9 -6,-15 z m 187,123 c 0,24 -4,43 -12,56 -8,13 -20,19 -36,19 -12,0 -22,-5 -29,-15 v 72 h -39 v -215 h 36 l 1,14 c 8,-11 18,-17 31,-17 15,0 27,6 35,18 8,12 13,31 13,56 z m -39,-11 c 0,-15 -2,-26 -5,-32 -3,-6 -8,-9 -16,-9 -8,0 -14,3 -17,10 v 74 c 3,6 9,10 17,10 8,0 13,-4 16,-11 3,-6 5,-17 5,-32 z m 212,83 h -39 v -159 l -38,15 v -34 l 73,-31 h 4 z"
     id="path209"
     style="clip-rule:evenodd;fill-rule:evenodd;image-rendering:optimizeQuality;shape-rendering:geometricPrecision;text-rendering:geometricPrecision" /><path
     class="fil3"
     d="m 17403,14483 h -49 v 174 h -41 v -174 h -48 v -35 h 138 z m 63,174 h -40 v -155 h 40 z m -41,-196 c 0,-6 2,-11 5,-16 4,-4 9,-6 16,-6 6,0 11,2 15,6 4,5 6,10 6,16 0,6 -2,12 -6,16 -3,4 -9,6 -15,6 -7,0 -12,-2 -16,-6 -3,-4 -5,-10 -5,-16 z m 187,123 c 0,24 -4,43 -12,56 -9,13 -20,20 -36,20 -12,0 -22,-6 -29,-16 v 72 h -39 v -214 h 36 l 1,14 c 7,-12 18,-17 30,-17 16,0 28,6 36,18 8,12 12,30 13,55 z m -39,-10 c 0,-15 -2,-26 -5,-32 -3,-7 -8,-10 -16,-10 -8,0 -14,4 -17,11 v 73 c 3,7 9,10 17,10 8,0 13,-3 16,-10 3,-7 5,-18 5,-32 z m 244,83 h -118 v -29 l 54,-72 c 7,-10 12,-19 15,-26 3,-8 5,-15 5,-22 0,-9 -1,-16 -4,-22 -4,-5 -8,-8 -14,-8 -6,0 -11,4 -15,10 -4,6 -5,15 -5,26 h -39 c 0,-13 2,-25 7,-35 5,-11 12,-19 22,-25 9,-6 19,-9 31,-9 18,0 32,5 42,15 9,11 14,25 14,44 0,12 -2,24 -8,36 -5,12 -15,27 -30,45 l -25,38 h 68 z"
     id="path211"
     style="clip-rule:evenodd;fill-rule:evenodd;image-rendering:optimizeQuality;shape-rendering:geometricPrecision;text-rendering:geometricPrecision" /><path
     class="fil3"
     d="m 17403,15396 h -49 v 174 h -41 v -174 h -48 v -35 h 138 z m 63,174 h -40 v -155 h 40 z m -41,-196 c 0,-6 2,-11 5,-15 4,-4 9,-6 16,-6 6,0 11,2 15,6 4,4 6,9 6,15 0,7 -2,12 -6,16 -3,4 -9,6 -15,6 -7,0 -12,-2 -16,-6 -3,-4 -5,-9 -5,-16 z m 187,123 c 0,25 -4,43 -12,56 -9,13 -20,20 -36,20 -12,0 -22,-5 -29,-16 v 72 h -39 v -214 h 36 l 1,14 c 7,-11 18,-17 30,-17 16,0 28,6 36,18 8,12 12,30 13,55 z m -39,-10 c 0,-15 -2,-26 -5,-32 -3,-7 -8,-10 -16,-10 -8,0 -14,4 -17,11 v 73 c 3,7 9,10 17,10 8,0 13,-3 16,-10 3,-7 5,-17 5,-32 z m 161,-40 h 18 c 8,0 13,-3 16,-8 3,-5 5,-12 5,-21 0,-8 -2,-15 -5,-19 -3,-5 -8,-7 -14,-7 -5,0 -10,2 -13,6 -4,5 -5,10 -5,17 h -39 c 0,-11 2,-21 7,-29 5,-9 12,-16 20,-20 9,-5 19,-8 29,-8 18,0 33,5 43,16 11,11 16,25 16,44 0,9 -2,18 -7,26 -5,8 -11,14 -19,18 10,5 17,11 21,19 5,9 7,19 7,30 0,19 -5,34 -17,45 -11,11 -26,17 -44,17 -17,0 -31,-6 -42,-17 -11,-11 -16,-25 -16,-43 h 39 c 0,7 2,14 6,19 3,5 8,7 14,7 7,0 12,-2 16,-8 4,-5 6,-12 6,-20 0,-21 -8,-31 -23,-32 h -19 z"
     id="path213"
     style="clip-rule:evenodd;fill-rule:evenodd;image-rendering:optimizeQuality;shape-rendering:geometricPrecision;text-rendering:geometricPrecision" /><path
     class="fil9"
     d="m 17103,12907 v -208 h 53 c 23,0 42,7 56,23 13,15 21,37 21,64 v 33 c 0,28 -7,49 -21,65 -14,16 -33,23 -57,23 z m 40,-173 v 138 h 12 c 14,0 23,-3 29,-11 5,-7 8,-20 8,-38 v -36 c 0,-20 -2,-33 -7,-41 -6,-8 -15,-12 -27,-12 z m 190,57 -13,-1 c -10,0 -17,5 -21,15 v 102 h -39 v -155 h 37 l 1,17 c 6,-13 14,-20 25,-20 5,0 8,1 11,2 z m 11,34 c 0,-24 5,-42 16,-56 10,-13 25,-20 44,-20 19,0 34,7 44,20 11,14 16,32 16,56 v 10 c 0,24 -5,42 -16,55 -10,14 -25,20 -44,20 -19,0 -34,-6 -44,-20 -11,-13 -16,-32 -16,-55 z m 39,10 c 0,28 7,42 21,42 13,0 20,-12 21,-35 l 1,-17 c 0,-14 -2,-25 -6,-32 -4,-7 -9,-10 -16,-10 -7,0 -12,3 -16,10 -3,7 -5,18 -5,32 z m 221,0 c 0,24 -4,43 -12,56 -8,13 -20,19 -36,19 -12,0 -21,-5 -29,-15 v 72 h -39 v -215 h 36 l 2,15 c 7,-12 17,-18 30,-18 16,0 28,6 36,18 8,13 12,31 12,56 z m -38,-11 c 0,-15 -2,-25 -5,-32 -3,-6 -9,-9 -16,-9 -8,0 -14,3 -18,10 v 74 c 4,6 10,10 18,10 8,0 13,-4 16,-10 3,-7 5,-18 5,-32 z m 103,83 h -39 v -220 h 39 z m 71,0 h -39 v -155 h 39 z m -41,-195 c 0,-6 2,-12 6,-16 3,-4 9,-6 15,-6 6,0 11,2 15,6 4,4 6,10 6,16 0,6 -2,11 -6,16 -3,4 -9,6 -15,6 -7,0 -12,-2 -15,-6 -4,-5 -6,-10 -6,-16 z m 137,154 c 0,-4 -2,-7 -5,-10 -3,-3 -10,-7 -21,-11 -16,-7 -27,-14 -33,-22 -6,-7 -9,-16 -9,-27 0,-13 4,-24 14,-33 9,-9 22,-14 37,-14 16,0 29,5 39,14 10,8 15,20 15,35 h -39 c 0,-13 -5,-19 -15,-19 -4,0 -8,1 -10,4 -3,3 -4,7 -4,11 0,4 1,7 4,9 3,3 10,7 21,12 16,6 27,13 34,20 6,8 9,17 9,29 0,14 -5,25 -15,34 -10,8 -23,12 -39,12 -11,0 -20,-2 -29,-6 -8,-5 -15,-11 -19,-19 -5,-8 -7,-16 -7,-26 h 37 c 0,7 1,13 4,16 3,4 8,6 15,6 10,0 16,-5 16,-15 z m 107,-152 v 38 h 20 v 31 h -20 v 77 c 0,6 1,10 2,13 2,2 5,3 9,3 4,0 7,0 10,-1 l -1,31 c -6,3 -13,4 -21,4 -25,0 -38,-15 -38,-45 v -82 h -17 v -31 h 17 v -38 z"
     id="path215"
     style="clip-rule:evenodd;fill-rule:evenodd;image-rendering:optimizeQuality;shape-rendering:geometricPrecision;text-rendering:geometricPrecision" /><path
     class="fil14"
     d="m 22031,14024 v 47 h -3 c -21,0 -37,6 -49,18 -12,12 -19,29 -22,51 12,-13 27,-20 44,-20 20,0 36,9 48,26 13,17 19,41 19,69 0,19 -4,35 -11,50 -7,15 -16,26 -29,35 -12,8 -26,12 -42,12 -25,0 -46,-10 -61,-31 -15,-20 -23,-48 -23,-82 v -21 c 0,-31 5,-58 15,-81 9,-23 23,-41 41,-54 19,-12 40,-18 64,-19 z m -47,141 c -7,0 -13,2 -17,7 -5,4 -8,9 -11,16 v 20 c 0,20 3,34 8,44 5,10 12,15 21,15 8,0 15,-5 21,-14 5,-10 8,-22 8,-37 0,-15 -3,-27 -9,-37 -5,-9 -12,-14 -21,-14 z m 278,27 c 0,39 -7,68 -21,89 -14,21 -34,31 -60,31 -26,0 -45,-10 -59,-30 -14,-20 -22,-49 -22,-86 v -53 c 0,-39 7,-68 21,-89 14,-20 34,-31 60,-31 26,0 46,10 60,31 14,20 21,49 21,87 z m -55,-57 c 0,-22 -2,-39 -6,-50 -4,-11 -11,-17 -20,-17 -18,0 -26,21 -27,61 v 70 c 0,23 2,40 6,51 5,11 12,17 21,17 9,0 15,-5 20,-16 4,-10 6,-26 6,-47 z m 92,-54 c 0,-17 4,-31 14,-42 9,-10 22,-16 38,-16 16,0 29,6 38,16 10,11 14,25 14,43 v 14 c 0,18 -4,32 -14,42 -9,11 -22,16 -38,16 -15,0 -28,-5 -38,-16 -9,-10 -14,-25 -14,-43 z m 35,15 c 0,8 2,15 5,19 3,5 7,7 12,7 5,0 9,-2 12,-7 3,-5 5,-11 5,-19 v -15 c 0,-7 -2,-14 -5,-19 -3,-5 -7,-7 -12,-7 -5,0 -9,2 -12,7 -3,5 -5,12 -5,20 z m 75,143 c 0,-17 5,-31 14,-42 10,-10 22,-16 38,-16 16,0 29,5 38,16 10,10 15,25 15,43 v 14 c 0,17 -5,31 -14,42 -10,11 -22,16 -39,16 -16,0 -29,-5 -38,-16 -9,-11 -14,-25 -14,-43 z m 35,15 c 0,8 2,14 5,19 4,5 8,7 12,7 11,0 17,-8 17,-23 v -18 c 0,-8 -1,-14 -4,-19 -4,-5 -8,-7 -13,-7 -11,0 -17,10 -17,30 z m -83,33 -26,-15 115,-219 26,15 z"
     id="path247"
     style="clip-rule:evenodd;fill-rule:evenodd;image-rendering:optimizeQuality;shape-rendering:geometricPrecision;text-rendering:geometricPrecision" /></g>
</svg>
