<?xml version="1.0" encoding="UTF-8" standalone="no"?>
<!-- Creator: CorelDRAW X7 -->

<svg
   xml:space="preserve"
   width="264.583mm"
   height="176.389mm"
   version="1.1"
   style="shape-rendering:geometricPrecision; text-rendering:geometricPrecision; image-rendering:optimizeQuality; fill-rule:evenodd; clip-rule:evenodd"
   viewBox="0 0 26458 17639"
   id="svg256"
   sodipodi:docname="svg_20.svg"
   inkscape:version="1.1.2 (0a00cf5339, 2022-02-04)"
   xmlns:inkscape="http://www.inkscape.org/namespaces/inkscape"
   xmlns:sodipodi="http://sodipodi.sourceforge.net/DTD/sodipodi-0.dtd"
   xmlns="http://www.w3.org/2000/svg"
   xmlns:svg="http://www.w3.org/2000/svg"><sodipodi:namedview
   id="namedview258"
   pagecolor="#ffffff"
   bordercolor="#666666"
   borderopacity="1.0"
   inkscape:pageshadow="2"
   inkscape:pageopacity="0.0"
   inkscape:pagecheckerboard="0"
   inkscape:document-units="mm"
   showgrid="false"
   inkscape:zoom="0.7901913"
   inkscape:cx="451.15658"
   inkscape:cy="373.96008"
   inkscape:window-width="1920"
   inkscape:window-height="1022"
   inkscape:window-x="0"
   inkscape:window-y="0"
   inkscape:window-maximized="1"
   inkscape:current-layer="layer1" />
 <defs
   id="defs7">
  <style
   type="text/css"
   id="style2">
   <![CDATA[
    .str8 {stroke:#FEFEFE;stroke-width:7.62}
    .str2 {stroke:#EDF0D9;stroke-width:31.09}
    .str12 {stroke:#45573A;stroke-width:26.4}
    .str10 {stroke:#45573A;stroke-width:26.4}
    .str13 {stroke:#45573A;stroke-width:333.74}
    .str15 {stroke:#E6B451;stroke-width:333.74}
    .str5 {stroke:#45573A;stroke-width:47.13}
    .str11 {stroke:#45573A;stroke-width:47.13}
    .str4 {stroke:#45573A;stroke-width:47.13}
    .str6 {stroke:#45573A;stroke-width:47.13}
    .str7 {stroke:#45573A;stroke-width:47.13}
    .str0 {stroke:#45573A;stroke-width:47.13}
    .str14 {stroke:#919A71;stroke-width:83.44}
    .str1 {stroke:#45573A;stroke-width:52.81}
    .str9 {stroke:#45573A;stroke-width:53.67}
    .str3 {stroke:#45573A;stroke-width:30.15;stroke-linecap:round;stroke-linejoin:round}
    .fil7 {fill:none}
    .fil5 {fill:none;fill-rule:nonzero}
    .fil0 {fill:#45573A}
    .fil13 {fill:#919A71}
    .fil10 {fill:#E6B451}
    .fil1 {fill:#EDF0D9}
    .fil11 {fill:#F5EDC1}
    .fil12 {fill:#0D6D7E;fill-rule:nonzero}
    .fil2 {fill:#45573A;fill-rule:nonzero}
    .fil4 {fill:#919A71;fill-rule:nonzero}
    .fil8 {fill:#E6B451;fill-rule:nonzero}
    .fil6 {fill:#EDF0D9;fill-rule:nonzero}
    .fil3 {fill:#F5EDC1;fill-rule:nonzero}
    .fil14 {fill:#F7EEC1;fill-rule:nonzero}
    .fil9 {fill:white;fill-rule:nonzero}
   ]]>
  </style>
   <clipPath
   id="id0"
   style="clip-rule:nonzero">
    <path
   d="M24743 2478c0,80 -65,144 -145,144l-22443 0c-79,0 -144,-64 -144,-144l0 -972c0,-80 65,-144 144,-144l22443 0c80,0 145,64 145,144l0 972z"
   id="path4" />
   </clipPath>
 </defs>
 <g
   inkscape:groupmode="layer"
   id="layer1"
   inkscape:label="Layer 1"
   sodipodi:insensitive="true"
   style="display:inline"><rect
     class="fil0"
     x="813"
     y="171"
     width="25222"
     height="17118"
     id="rect10"
     style="clip-rule:evenodd;fill-rule:evenodd;image-rendering:optimizeQuality;shape-rendering:geometricPrecision;text-rendering:geometricPrecision" /><rect
     class="fil1"
     x="1203"
     y="524"
     width="24489"
     height="16398"
     rx="166"
     ry="166"
     id="rect12"
     style="clip-rule:evenodd;fill-rule:evenodd;image-rendering:optimizeQuality;shape-rendering:geometricPrecision;text-rendering:geometricPrecision" /></g><g
   inkscape:groupmode="layer"
   id="layer2"
   inkscape:label="Layer 2"
   style="display:inline"><g
     id="g103"
     style="clip-rule:evenodd;fill-rule:evenodd;image-rendering:optimizeQuality;shape-rendering:geometricPrecision;text-rendering:geometricPrecision">
   <path
   class="fil2"
   d="M 23680,8698 H 9808 v -47 h 13872 v 0 z m 200,150 h -48 v 0 -7 -8 l -1,-7 -2,-8 -1,-7 -2,-7 -3,-7 -3,-7 -3,-7 -3,-6 -4,-6 -4,-7 -4,-5 -4,-6 -5,-6 -5,-5 -6,-5 -5,-5 -6,-4 -6,-4 -6,-4 -6,-4 -7,-3 -7,-3 -7,-3 -7,-2 -7,-2 -7,-2 -8,-1 -7,-1 -8,-1 h -8 v -47 h 11 l 10,1 10,1 10,2 9,2 10,3 9,3 9,3 9,4 9,5 8,4 8,6 8,5 7,6 8,6 7,7 6,7 6,7 6,7 6,8 5,8 5,8 4,9 4,9 4,9 3,9 3,9 2,10 2,9 1,10 1,10 z m -48,2887 V 8848 h 48 v 2887 0 z m -152,197 v -47 0 h 8 l 8,-1 7,-1 8,-1 7,-2 7,-2 7,-2 7,-3 7,-3 7,-3 6,-4 6,-4 6,-4 6,-4 5,-5 6,-5 5,-5 5,-6 4,-6 4,-5 4,-7 4,-6 3,-6 3,-7 3,-7 3,-7 2,-7 1,-7 2,-8 1,-7 v -8 -7 h 48 v 10 l -1,10 -1,10 -2,9 -2,10 -3,9 -3,9 -4,9 -4,9 -4,9 -5,8 -5,8 -6,8 -6,7 -6,7 -6,7 -7,7 -8,6 -7,6 -8,5 -8,6 -8,4 -9,5 -9,4 -9,3 -9,3 -10,3 -9,2 -10,2 -10,1 -10,1 z m -13872,-47 h 13872 v 47 H 9808 v 0 z m -200,-150 h 48 v 0 7 8 l 1,7 2,8 1,7 2,7 3,7 3,7 3,7 3,6 4,6 4,7 4,5 4,6 5,6 5,5 6,5 5,5 6,4 6,4 6,4 6,4 7,3 7,3 7,3 7,2 7,2 7,2 8,1 7,1 8,1 h 8 v 47 h -11 l -10,-1 -10,-1 -10,-2 -9,-2 -10,-3 -9,-3 -9,-3 -9,-4 -8,-5 -9,-4 -8,-6 -8,-5 -7,-6 -8,-6 -7,-7 -6,-7 -6,-7 -6,-7 -6,-8 -5,-8 -5,-8 -4,-9 -4,-9 -4,-9 -3,-9 -3,-9 -2,-10 -2,-9 -1,-10 -1,-10 z m 48,-2887 v 2887 h -48 v -2887 0 z m 152,-197 v 47 0 h -8 l -8,1 -7,1 -8,1 -7,2 -7,2 -7,2 -7,3 -7,3 -7,3 -6,4 -6,4 -6,4 -6,4 -5,5 -6,5 -5,5 -5,6 -4,6 -4,5 -4,7 -4,6 -3,6 -3,7 -3,7 -3,7 -2,7 -1,7 -2,8 -1,7 v 8 7 h -48 v -10 l 1,-10 1,-10 2,-9 2,-10 3,-9 3,-9 4,-9 4,-9 4,-9 5,-8 5,-8 6,-8 6,-7 6,-7 6,-7 7,-7 8,-6 7,-6 8,-5 8,-6 9,-4 8,-5 9,-4 9,-3 9,-3 10,-3 9,-2 10,-2 10,-1 10,-1 z"
   id="path101" />
  </g><path
     class="fil2"
     d="m 24743,2478 c 0,80 -65,144 -145,144 H 2155 c -79,0 -144,-64 -144,-144 v -972 c 0,-80 65,-144 144,-144 h 22443 c 80,0 145,64 145,144 z"
     id="path36"
     style="clip-rule:evenodd;fill-rule:evenodd;image-rendering:optimizeQuality;shape-rendering:geometricPrecision;text-rendering:geometricPrecision" /><rect
     class="fil7 str0"
     x="2173"
     y="3974"
     width="6645"
     height="779"
     rx="174"
     ry="174"
     id="rect55"
     style="clip-rule:evenodd;fill-rule:evenodd;image-rendering:optimizeQuality;shape-rendering:geometricPrecision;text-rendering:geometricPrecision" /><rect
     class="fil7 str6"
     x="2173"
     y="7424"
     width="6645"
     height="779"
     rx="174"
     ry="174"
     id="rect145"
     style="clip-rule:evenodd;fill-rule:evenodd;image-rendering:optimizeQuality;shape-rendering:geometricPrecision;text-rendering:geometricPrecision" /><rect
     class="fil7 str7"
     x="2173"
     y="8864"
     width="6645"
     height="779"
     rx="174"
     ry="174"
     id="rect151"
     style="clip-rule:evenodd;fill-rule:evenodd;image-rendering:optimizeQuality;shape-rendering:geometricPrecision;text-rendering:geometricPrecision" /><polygon
     class="fil2"
     points="6979,9667 6979,8841 7032,8841 7032,9667 "
     id="polygon189"
     style="clip-rule:evenodd;fill-rule:evenodd;image-rendering:optimizeQuality;shape-rendering:geometricPrecision;text-rendering:geometricPrecision" /><path
     class="fil0"
     d="m 2347,10393 h 2000 c 95,0 174,78 174,174 v 432 c 0,95 -79,174 -174,174 H 2347 c -96,0 -174,-79 -174,-174 v -432 c 0,-96 78,-174 174,-174 z"
     id="path83"
     style="clip-rule:evenodd;fill-rule:evenodd;image-rendering:optimizeQuality;shape-rendering:geometricPrecision;text-rendering:geometricPrecision" /><path
     class="fil10"
     d="m 4908,10393 h 1999 c 96,0 174,78 174,174 v 432 c 0,95 -78,174 -174,174 H 4908 c -96,0 -174,-79 -174,-174 v -432 c 0,-96 78,-174 174,-174 z"
     id="path85"
     style="clip-rule:evenodd;fill-rule:evenodd;image-rendering:optimizeQuality;shape-rendering:geometricPrecision;text-rendering:geometricPrecision" /><path
     class="fil0"
     d="m 4918,11736 h 473 c 96,0 174,79 174,174 v 432 c 0,96 -78,174 -174,174 h -473 c -95,0 -174,-78 -174,-174 v -432 c 0,-95 79,-174 174,-174 z"
     id="path105"
     style="clip-rule:evenodd;fill-rule:evenodd;image-rendering:optimizeQuality;shape-rendering:geometricPrecision;text-rendering:geometricPrecision" /><path
     class="fil10"
     d="m 5857,11736 h 473 c 95,0 174,79 174,174 v 432 c 0,96 -79,174 -174,174 h -473 c -96,0 -174,-78 -174,-174 v -432 c 0,-95 78,-174 174,-174 z"
     id="path109"
     style="clip-rule:evenodd;fill-rule:evenodd;image-rendering:optimizeQuality;shape-rendering:geometricPrecision;text-rendering:geometricPrecision" /><path
     class="fil0"
     d="m 2360,11736 h 472 c 96,0 174,79 174,174 v 432 c 0,96 -78,174 -174,174 h -472 c -96,0 -174,-78 -174,-174 v -432 c 0,-95 78,-174 174,-174 z"
     id="path113"
     style="clip-rule:evenodd;fill-rule:evenodd;image-rendering:optimizeQuality;shape-rendering:geometricPrecision;text-rendering:geometricPrecision" /><path
     class="fil10"
     d="m 3298,11736 h 473 c 95,0 174,79 174,174 v 432 c 0,96 -79,174 -174,174 h -473 c -95,0 -174,-78 -174,-174 v -432 c 0,-95 79,-174 174,-174 z"
     id="path115"
     style="clip-rule:evenodd;fill-rule:evenodd;image-rendering:optimizeQuality;shape-rendering:geometricPrecision;text-rendering:geometricPrecision" /><path
     class="fil2"
     d="m 16008,8050 v 0 c 87,0 159,71 159,159 0,88 -72,159 -159,159 -88,0 -159,-71 -159,-159 0,-88 71,-159 159,-159 z"
     id="path18"
     style="clip-rule:evenodd;fill-rule:evenodd;image-rendering:optimizeQuality;shape-rendering:geometricPrecision;text-rendering:geometricPrecision" /><path
     class="fil2"
     d="m 17031,8050 v 0 c 88,0 159,71 159,159 0,88 -71,159 -159,159 -88,0 -159,-71 -159,-159 0,-88 71,-159 159,-159 z"
     id="path20"
     style="clip-rule:evenodd;fill-rule:evenodd;image-rendering:optimizeQuality;shape-rendering:geometricPrecision;text-rendering:geometricPrecision" /><path
     class="fil2"
     d="m 17476,8050 v 0 c 88,0 159,71 159,159 0,88 -71,159 -159,159 -87,0 -158,-71 -158,-159 0,-88 71,-159 158,-159 z"
     id="path22"
     style="clip-rule:evenodd;fill-rule:evenodd;image-rendering:optimizeQuality;shape-rendering:geometricPrecision;text-rendering:geometricPrecision" /><path
     class="fil7 str4"
     d="m 2347,13635 h 6297 c 96,0 174,79 174,174 v 216 c 0,96 -78,174 -174,174 H 2347 c -96,0 -174,-78 -174,-174 v -216 c 0,-95 78,-174 174,-174 z"
     id="path133"
     style="clip-rule:evenodd;fill-rule:evenodd;image-rendering:optimizeQuality;shape-rendering:geometricPrecision;text-rendering:geometricPrecision" /><path
     class="fil2"
     d="m 3045,15276 c 0,243 -197,440 -440,440 -243,0 -440,-197 -440,-440 0,-243 197,-439 440,-439 243,0 440,196 440,439 z"
     id="path57"
     style="clip-rule:evenodd;fill-rule:evenodd;image-rendering:optimizeQuality;shape-rendering:geometricPrecision;text-rendering:geometricPrecision" /><path
     class="fil2"
     d="m 4160,15276 c 0,243 -197,440 -440,440 -243,0 -440,-197 -440,-440 0,-243 197,-439 440,-439 243,0 440,196 440,439 z"
     id="path61"
     style="clip-rule:evenodd;fill-rule:evenodd;image-rendering:optimizeQuality;shape-rendering:geometricPrecision;text-rendering:geometricPrecision" /><path
     class="fil8"
     d="m 5275,15276 c 0,243 -197,440 -440,440 -243,0 -439,-197 -439,-440 0,-243 196,-439 439,-439 243,0 440,196 440,439 z"
     id="path65"
     style="clip-rule:evenodd;fill-rule:evenodd;image-rendering:optimizeQuality;shape-rendering:geometricPrecision;text-rendering:geometricPrecision" /><path
     class="fil2"
     d="m 6390,15276 c 0,243 -197,440 -439,440 -243,0 -440,-197 -440,-440 0,-243 197,-439 440,-439 242,0 439,196 439,439 z"
     id="path69"
     style="clip-rule:evenodd;fill-rule:evenodd;image-rendering:optimizeQuality;shape-rendering:geometricPrecision;text-rendering:geometricPrecision" /><path
     class="fil5 str1"
     d="m 8621,15276 c 0,243 -197,440 -440,440 -243,0 -440,-197 -440,-440 0,-243 197,-439 440,-439 243,0 440,196 440,439"
     id="path75"
     style="clip-rule:evenodd;fill-rule:evenodd;image-rendering:optimizeQuality;shape-rendering:geometricPrecision;text-rendering:geometricPrecision" /><path
     class="fil2"
     d="m 7505,15276 c 0,243 -196,440 -439,440 -243,0 -440,-197 -440,-440 0,-243 197,-439 440,-439 243,0 439,196 439,439 z"
     id="path79"
     style="clip-rule:evenodd;fill-rule:evenodd;image-rendering:optimizeQuality;shape-rendering:geometricPrecision;text-rendering:geometricPrecision" /><path
     class="fil7 str9"
     d="m 7511,11848 h 1120 c 109,0 198,89 198,198 v 246 c 0,109 -89,198 -198,198 H 7511 c -109,0 -198,-89 -198,-198 v -246 c 0,-109 89,-198 198,-198 z"
     id="path229"
     style="clip-rule:evenodd;fill-rule:evenodd;image-rendering:optimizeQuality;shape-rendering:geometricPrecision;text-rendering:geometricPrecision" /><path
     class="fil7 str5"
     d="m 9807,12436 h 2381 c 95,0 174,79 174,174 v 3008 c 0,96 -79,174 -174,174 H 9807 c -95,0 -174,-78 -174,-174 v -3008 c 0,-95 79,-174 174,-174 z"
     id="path143"
     style="clip-rule:evenodd;fill-rule:evenodd;image-rendering:optimizeQuality;shape-rendering:geometricPrecision;text-rendering:geometricPrecision" /><path
     class="fil7 str11"
     d="m 13021,12436 h 2117 c 96,0 174,79 174,174 v 3008 c 0,96 -78,174 -174,174 h -2117 c -95,0 -174,-78 -174,-174 v -3008 c 0,-95 79,-174 174,-174 z"
     id="path233"
     style="clip-rule:evenodd;fill-rule:evenodd;image-rendering:optimizeQuality;shape-rendering:geometricPrecision;text-rendering:geometricPrecision" /><line
     class="fil5 str10"
     x1="13091"
     y1="13720"
     x2="15033"
     y2="13720"
     id="line231"
     style="clip-rule:evenodd;fill-rule:evenodd;image-rendering:optimizeQuality;shape-rendering:geometricPrecision;text-rendering:geometricPrecision" /><path
     class="fil2"
     d="m 14249,12885 c 0,111 -90,202 -201,202 -111,0 -201,-91 -201,-202 0,-111 90,-201 201,-201 111,0 201,90 201,201 z"
     id="path235"
     style="clip-rule:evenodd;fill-rule:evenodd;image-rendering:optimizeQuality;shape-rendering:geometricPrecision;text-rendering:geometricPrecision" /><line
     class="fil5 str12"
     x1="13091"
     y1="15418"
     x2="15033"
     y2="15418"
     id="line239"
     style="clip-rule:evenodd;fill-rule:evenodd;image-rendering:optimizeQuality;shape-rendering:geometricPrecision;text-rendering:geometricPrecision" /><path
     class="fil10"
     d="m 19694,12438 h 44 c 18,0 32,16 32,34 v 3318 c 0,19 -14,34 -32,34 h -44 c -18,0 -32,-15 -32,-34 v -3318 c 0,-18 14,-34 32,-34 z"
     id="path225"
     style="clip-rule:evenodd;fill-rule:evenodd;image-rendering:optimizeQuality;shape-rendering:geometricPrecision;text-rendering:geometricPrecision" /><g
     id="g203"
     style="clip-rule:evenodd;fill-rule:evenodd;image-rendering:optimizeQuality;shape-rendering:geometricPrecision;text-rendering:geometricPrecision">
   <path
   class="fil13"
   d="m 15943,13287 h 3375 c 60,0 109,49 109,109 v 494 c 0,60 -49,109 -109,109 h -3375 c -61,0 -110,-49 -110,-109 v -494 c 0,-60 49,-109 110,-109 z"
   id="path199" />
   <path
   id="path201"
   class="fil5 str8"
   d="m 15943,13287 h 3375 c 60,0 109,49 109,109 v 494 c 0,60 -49,109 -109,109 h -3375 c -61,0 -110,-49 -110,-109 v -494 c 0,-60 49,-109 110,-109 z" />
  </g><g
     id="g215"
     style="clip-rule:evenodd;fill-rule:evenodd;image-rendering:optimizeQuality;shape-rendering:geometricPrecision;text-rendering:geometricPrecision">
   <path
   class="fil13"
   d="m 15943,15102 h 3375 c 60,0 109,49 109,109 v 494 c 0,60 -49,109 -109,109 h -3375 c -61,0 -110,-49 -110,-109 v -494 c 0,-60 49,-109 110,-109 z"
   id="path211" />
   <path
   id="path213"
   class="fil5 str8"
   d="m 15943,15102 h 3375 c 60,0 109,49 109,109 v 494 c 0,60 -49,109 -109,109 h -3375 c -61,0 -110,-49 -110,-109 v -494 c 0,-60 49,-109 110,-109 z" />
  </g><path
     class="fil5 str14"
     d="m 23924,14148 c 0,917 -743,1660 -1659,1660 -917,0 -1660,-743 -1660,-1660 0,-916 743,-1660 1660,-1660 916,0 1659,744 1659,1660"
     id="path251"
     style="clip-rule:evenodd;fill-rule:evenodd;image-rendering:optimizeQuality;shape-rendering:geometricPrecision;text-rendering:geometricPrecision" /><path
     class="fil2"
     d="m 22921,14148 c 0,363 -294,657 -656,657 -363,0 -657,-294 -657,-657 0,-363 294,-657 657,-657 362,0 656,294 656,657 z"
     id="path45"
     style="clip-rule:evenodd;fill-rule:evenodd;image-rendering:optimizeQuality;shape-rendering:geometricPrecision;text-rendering:geometricPrecision" /></g><g
   inkscape:groupmode="layer"
   id="layer3"
   inkscape:label="Layer 3"
   style="display:inline"><g
     style="clip-rule:evenodd;fill-rule:evenodd;image-rendering:optimizeQuality;shape-rendering:geometricPrecision;text-rendering:geometricPrecision"
     clip-path="url(#id0)"
     id="g41">
   <g
   id="g39">
    <path
   id="1"
   class="fil4"
   d="m 23292,1288 h 1265 c 157,0 284,133 284,298 v 759 c 0,164 -127,297 -284,297 h -1265 z" />
   </g>
  </g><path
     class="fil1 str2"
     d="m 16934,1731 h 4664 c 63,0 114,51 114,114 v 285 c 0,63 -51,115 -114,115 h -4664 c -63,0 -114,-52 -114,-115 v -285 c 0,-63 51,-114 114,-114 z"
     id="path91"
     style="clip-rule:evenodd;fill-rule:evenodd;image-rendering:optimizeQuality;shape-rendering:geometricPrecision;text-rendering:geometricPrecision" /><path
     class="fil2"
     d="m 6989,7427 h 1667 c 92,0 167,76 167,170 v 435 c 0,95 -75,171 -167,171 H 6989 Z"
     id="path147"
     style="clip-rule:evenodd;fill-rule:evenodd;image-rendering:optimizeQuality;shape-rendering:geometricPrecision;text-rendering:geometricPrecision" /><path
     class="fil8"
     d="m 6981,8840 h 1672 c 93,0 190,81 190,181 v 466 c 0,99 -97,180 -190,180 H 6981 Z"
     id="path153"
     style="clip-rule:evenodd;fill-rule:evenodd;image-rendering:optimizeQuality;shape-rendering:geometricPrecision;text-rendering:geometricPrecision" /><path
     class="fil8"
     d="m 16506,8050 v 0 c 88,0 159,71 159,159 0,88 -71,159 -159,159 -87,0 -158,-71 -158,-159 0,-88 71,-159 158,-159 z"
     id="path117"
     style="clip-rule:evenodd;fill-rule:evenodd;image-rendering:optimizeQuality;shape-rendering:geometricPrecision;text-rendering:geometricPrecision" /><path
     class="fil10"
     d="m 4312,13755 h 4312 c 33,0 60,27 60,60 v 215 c 0,33 -27,60 -60,60 H 4312 c -33,0 -61,-27 -61,-60 v -215 c 0,-33 28,-60 61,-60 z"
     id="path135"
     style="clip-rule:evenodd;fill-rule:evenodd;image-rendering:optimizeQuality;shape-rendering:geometricPrecision;text-rendering:geometricPrecision" /><a
     id="a1574"
     style="clip-rule:evenodd;fill-rule:evenodd;image-rendering:optimizeQuality;shape-rendering:geometricPrecision;text-rendering:geometricPrecision"><path
       class="fil8"
       d="m 8661,12164 c 0,122 -99,221 -221,221 -122,0 -220,-99 -220,-221 0,-121 98,-220 220,-220 122,0 221,99 221,220 z"
       id="path245" /></a><rect
     class="fil10"
     x="9990"
     y="12660"
     width="155"
     height="1636"
     rx="47"
     ry="45"
     id="rect157"
     style="clip-rule:evenodd;fill-rule:evenodd;image-rendering:optimizeQuality;shape-rendering:geometricPrecision;text-rendering:geometricPrecision" /><rect
     class="fil10"
     x="10341"
     y="12660"
     width="155"
     height="1636"
     rx="47"
     ry="45"
     id="rect161"
     style="clip-rule:evenodd;fill-rule:evenodd;image-rendering:optimizeQuality;shape-rendering:geometricPrecision;text-rendering:geometricPrecision" /><path
     class="fil10"
     d="m 10756,12660 h 62 c 26,0 47,20 47,46 v 1963 c 0,26 -21,46 -47,46 h -62 c -26,0 -47,-20 -47,-46 v -1963 c 0,-26 21,-46 47,-46 z"
     id="path165"
     style="clip-rule:evenodd;fill-rule:evenodd;image-rendering:optimizeQuality;shape-rendering:geometricPrecision;text-rendering:geometricPrecision" /><rect
     class="fil10"
     x="11078"
     y="12660"
     width="155"
     height="1636"
     rx="47"
     ry="45"
     id="rect169"
     style="clip-rule:evenodd;fill-rule:evenodd;image-rendering:optimizeQuality;shape-rendering:geometricPrecision;text-rendering:geometricPrecision" /><path
     class="fil10"
     d="m 11511,12660 h 62 c 26,0 47,20 47,46 v 1963 c 0,26 -21,46 -47,46 h -62 c -26,0 -47,-20 -47,-46 v -1963 c 0,-26 21,-46 47,-46 z"
     id="path177"
     style="clip-rule:evenodd;fill-rule:evenodd;image-rendering:optimizeQuality;shape-rendering:geometricPrecision;text-rendering:geometricPrecision" /><rect
     class="fil10"
     x="11833"
     y="12660"
     width="155"
     height="1636"
     rx="47"
     ry="45"
     id="rect181"
     style="clip-rule:evenodd;fill-rule:evenodd;image-rendering:optimizeQuality;shape-rendering:geometricPrecision;text-rendering:geometricPrecision" /><path
     class="fil0"
     d="m 19694,12439 h 44 c 18,0 32,15 32,34 v 481 c 0,19 -14,34 -32,34 h -44 c -18,0 -32,-15 -32,-34 v -481 c 0,-19 14,-34 32,-34 z"
     id="path227"
     style="clip-rule:evenodd;fill-rule:evenodd;image-rendering:optimizeQuality;shape-rendering:geometricPrecision;text-rendering:geometricPrecision" /><g
     id="g209"
     style="clip-rule:evenodd;fill-rule:evenodd;image-rendering:optimizeQuality;shape-rendering:geometricPrecision;text-rendering:geometricPrecision">
   <path
   class="fil10"
   d="m 15943,14196 h 3375 c 60,0 109,49 109,109 v 493 c 0,60 -49,110 -109,110 h -3375 c -61,0 -110,-50 -110,-110 v -493 c 0,-60 49,-109 110,-109 z"
   id="path205" />
   <path
   id="path207"
   class="fil5 str8"
   d="m 15943,14196 h 3375 c 60,0 109,49 109,109 v 493 c 0,60 -49,110 -109,110 h -3375 c -61,0 -110,-50 -110,-110 v -493 c 0,-60 49,-109 110,-109 z" />
  </g><g
     id="g195"
     style="clip-rule:evenodd;fill-rule:evenodd;image-rendering:optimizeQuality;shape-rendering:geometricPrecision;text-rendering:geometricPrecision">
   <path
   class="fil0"
   d="m 15943,12430 h 3375 c 60,0 109,49 109,109 v 494 c 0,60 -49,109 -109,109 h -3375 c -61,0 -110,-49 -110,-109 v -494 c 0,-60 49,-109 110,-109 z"
   id="path191" />
   <path
   id="path193"
   class="fil5 str8"
   d="m 15943,12430 h 3375 c 60,0 109,49 109,109 v 494 c 0,60 -49,109 -109,109 h -3375 c -61,0 -110,-49 -110,-109 v -494 c 0,-60 49,-109 110,-109 z" />
  </g><path
     class="fil5 str15"
     d="m 22239,12993 c -638,0 -1155,517 -1155,1155 0,638 517,1156 1155,1156"
     id="path253"
     style="clip-rule:evenodd;fill-rule:evenodd;image-rendering:optimizeQuality;shape-rendering:geometricPrecision;text-rendering:geometricPrecision" /></g><g
   inkscape:groupmode="layer"
   id="layer4"
   inkscape:label="Layer 4"
   style="display:inline"><path
     class="fil10"
     d="m 23852,1711 h 340 c 69,0 125,57 125,126 v 310 c 0,69 -56,126 -125,126 h -340 c -69,0 -126,-57 -126,-126 v -310 c 0,-69 57,-126 126,-126 z"
     id="path129"
     style="clip-rule:evenodd;fill-rule:evenodd;image-rendering:optimizeQuality;shape-rendering:geometricPrecision;text-rendering:geometricPrecision" /><path
     class="fil8"
     d="m 17401,1731 h -475 c -59,0 -106,50 -106,111 v 285 c 0,62 47,112 106,112 h 475 z"
     id="path93"
     style="clip-rule:evenodd;fill-rule:evenodd;image-rendering:optimizeQuality;shape-rendering:geometricPrecision;text-rendering:geometricPrecision" /><path
     class="fil10"
     d="m 6064,1711 h 1539 c 54,0 97,39 97,87 v 388 c 0,48 -43,86 -97,86 H 6064 c -53,0 -97,-38 -97,-86 v -388 c 0,-48 44,-87 97,-87 z"
     id="path121"
     style="clip-rule:evenodd;fill-rule:evenodd;image-rendering:optimizeQuality;shape-rendering:geometricPrecision;text-rendering:geometricPrecision" /><path
     class="fil0"
     d="m 2349,13755 h 4312 c 33,0 61,27 61,60 v 215 c 0,33 -28,60 -61,60 H 2349 c -33,0 -60,-27 -60,-60 v -215 c 0,-33 27,-60 60,-60 z"
     id="path137"
     style="clip-rule:evenodd;fill-rule:evenodd;image-rendering:optimizeQuality;shape-rendering:geometricPrecision;text-rendering:geometricPrecision" /><path
     class="fil2"
     d="m 7917,12164 c 0,122 -99,221 -221,221 -122,0 -221,-99 -221,-221 0,-121 99,-220 221,-220 122,0 221,99 221,220 z"
     id="path243"
     style="clip-rule:evenodd;fill-rule:evenodd;image-rendering:optimizeQuality;shape-rendering:geometricPrecision;text-rendering:geometricPrecision" /><rect
     class="fil0"
     x="9990"
     y="14040"
     width="155"
     height="1475"
     rx="47"
     ry="41"
     id="rect159"
     style="clip-rule:evenodd;fill-rule:evenodd;image-rendering:optimizeQuality;shape-rendering:geometricPrecision;text-rendering:geometricPrecision" /><path
     class="fil0"
     d="m 10388,13431 h 61 c 26,0 47,21 47,47 v 1991 c 0,25 -21,46 -47,46 h -61 c -26,0 -47,-21 -47,-46 v -1991 c 0,-26 21,-47 47,-47 z"
     id="path163"
     style="clip-rule:evenodd;fill-rule:evenodd;image-rendering:optimizeQuality;shape-rendering:geometricPrecision;text-rendering:geometricPrecision" /><path
     class="fil0"
     d="m 10756,14374 h 62 c 26,0 47,21 47,47 v 1048 c 0,25 -21,46 -47,46 h -62 c -26,0 -47,-21 -47,-46 v -1048 c 0,-26 21,-47 47,-47 z"
     id="path167"
     style="clip-rule:evenodd;fill-rule:evenodd;image-rendering:optimizeQuality;shape-rendering:geometricPrecision;text-rendering:geometricPrecision" /><rect
     class="fil0"
     x="11078"
     y="14040"
     width="155"
     height="1475"
     rx="47"
     ry="41"
     id="rect171"
     style="clip-rule:evenodd;fill-rule:evenodd;image-rendering:optimizeQuality;shape-rendering:geometricPrecision;text-rendering:geometricPrecision" /><path
     class="fil0"
     d="m 11511,14374 h 62 c 26,0 47,21 47,47 v 1048 c 0,25 -21,46 -47,46 h -62 c -26,0 -47,-21 -47,-46 v -1048 c 0,-26 21,-47 47,-47 z"
     id="path179"
     style="clip-rule:evenodd;fill-rule:evenodd;image-rendering:optimizeQuality;shape-rendering:geometricPrecision;text-rendering:geometricPrecision" /><rect
     class="fil0"
     x="11833"
     y="14040"
     width="155"
     height="1475"
     rx="47"
     ry="41"
     id="rect183"
     style="clip-rule:evenodd;fill-rule:evenodd;image-rendering:optimizeQuality;shape-rendering:geometricPrecision;text-rendering:geometricPrecision" /><path
     class="fil5 str13"
     d="m 22239,12993 c 638,0 1155,517 1155,1155 0,638 -517,1156 -1155,1156"
     id="path249"
     style="clip-rule:evenodd;fill-rule:evenodd;image-rendering:optimizeQuality;shape-rendering:geometricPrecision;text-rendering:geometricPrecision" /></g><g
   inkscape:groupmode="layer"
   id="layer5"
   inkscape:label="Layer 5"
   style="display:inline"><path
     class="fil2"
     d="m 2424,3633 v -197 h 79 c 23,0 41,4 57,12 15,8 27,19 35,33 9,15 13,33 13,54 0,21 -4,38 -13,53 -8,15 -20,26 -35,34 -16,7 -35,11 -57,11 z m 44,-36 h 32 c 21,0 36,-5 46,-16 11,-10 16,-26 16,-46 0,-21 -5,-36 -16,-47 -10,-10 -25,-15 -46,-15 h -32 z m 248,39 c -17,0 -32,-3 -44,-9 -12,-6 -21,-14 -28,-25 -6,-11 -9,-23 -9,-38 0,-14 3,-26 9,-37 6,-11 14,-19 25,-26 11,-6 24,-9 38,-9 14,0 26,3 36,8 10,6 18,14 23,25 6,11 9,23 9,38 v 11 h -105 v -23 h 73 l -4,4 c 0,-11 -3,-20 -8,-26 -5,-5 -13,-8 -22,-8 -7,0 -13,1 -18,4 -5,3 -9,8 -11,14 -3,5 -4,12 -4,21 v 3 c 0,9 1,17 4,23 3,6 8,11 14,14 6,3 14,4 23,4 7,0 15,-1 23,-3 7,-2 14,-5 20,-10 l 12,29 c -8,5 -16,9 -26,12 -10,3 -20,4 -30,4 z m 96,-3 v -106 h -26 v -32 h 38 l -12,10 v -7 c 0,-20 6,-36 17,-46 11,-10 28,-16 51,-17 l 13,-1 2,32 -12,1 c -6,0 -12,1 -16,3 -4,2 -7,4 -9,8 -2,3 -3,7 -3,13 v 8 l -3,-4 h 100 v 138 h -43 v -106 h -53 v 106 z m 95,-165 v -39 h 46 v 39 z m 81,165 v -138 h 41 v 26 h -1 c 4,-9 11,-17 19,-22 9,-5 19,-7 30,-7 11,0 20,2 27,6 8,5 14,11 17,20 4,9 6,20 6,34 v 81 h -44 v -80 c 0,-6 -1,-11 -2,-15 -2,-4 -4,-7 -7,-9 -3,-2 -8,-3 -13,-3 -6,0 -11,2 -15,4 -5,3 -8,6 -11,11 -2,5 -3,10 -3,17 v 75 z m 172,-164 v -41 h 47 v 41 z m 2,164 v -138 h 44 v 138 z m 149,3 c -20,0 -35,-5 -45,-14 -10,-10 -15,-25 -15,-43 v -52 h -26 v -32 h 28 v -40 h 42 v 40 h 43 v 32 h -43 v 50 c 0,8 2,14 6,18 4,4 10,6 18,6 3,0 6,0 9,-1 3,0 6,-1 9,-2 l 6,31 c -4,3 -9,4 -15,6 -6,1 -11,1 -17,1 z m 50,-167 v -41 h 47 v 41 z m 2,164 v -138 h 44 v 138 z m 147,3 c -15,0 -28,-3 -39,-9 -12,-6 -20,-14 -26,-25 -6,-11 -9,-23 -9,-38 0,-15 3,-27 9,-38 6,-11 14,-19 26,-25 11,-6 24,-9 39,-9 15,0 28,3 39,9 11,6 20,14 26,25 6,11 9,23 9,38 0,15 -3,27 -9,38 -6,11 -15,19 -26,25 -11,6 -24,9 -39,9 z m 0,-33 c 9,0 17,-3 23,-10 5,-7 8,-16 8,-29 0,-13 -3,-23 -8,-29 -6,-7 -14,-10 -23,-10 -10,0 -17,3 -23,10 -6,6 -8,16 -8,29 0,13 2,22 8,29 6,7 13,10 23,10 z m 104,30 v -138 h 41 v 26 h -2 c 5,-9 11,-17 20,-22 9,-5 18,-7 29,-7 11,0 21,2 28,6 8,5 13,11 17,20 4,9 5,20 5,34 v 81 h -43 v -80 c 0,-6 -1,-11 -2,-15 -2,-4 -4,-7 -8,-9 -3,-2 -7,-3 -12,-3 -6,0 -11,2 -16,4 -4,3 -8,6 -10,11 -3,5 -4,10 -4,17 v 75 z m 322,3 c -15,0 -28,-3 -39,-9 -11,-6 -20,-14 -26,-25 -6,-11 -9,-23 -9,-38 0,-15 3,-27 9,-38 6,-11 15,-19 26,-25 11,-6 24,-9 39,-9 15,0 29,3 40,9 11,6 19,14 25,25 7,11 10,23 10,38 0,15 -3,27 -10,38 -6,11 -14,19 -25,25 -11,6 -25,9 -40,9 z m 0,-33 c 10,0 17,-3 23,-10 6,-7 9,-16 9,-29 0,-13 -3,-23 -9,-29 -6,-7 -13,-10 -23,-10 -9,0 -17,3 -22,10 -6,6 -9,16 -9,29 0,13 3,22 9,29 5,7 13,10 22,10 z m 113,30 v -106 h -27 v -32 h 39 l -12,12 v -9 c 0,-20 5,-36 17,-46 11,-10 28,-16 51,-17 l 17,-1 3,32 -17,1 c -7,0 -12,1 -16,3 -4,2 -7,4 -9,8 -2,3 -3,7 -3,13 v 7 l -5,-3 h 43 v 32 h -38 v 106 z m 253,3 c -20,0 -35,-5 -45,-14 -10,-10 -14,-25 -14,-43 v -52 h -27 v -32 h 28 v -40 h 42 v 40 h 44 v 32 h -44 v 50 c 0,8 2,14 6,18 4,4 10,6 18,6 3,0 6,0 9,-1 3,0 6,-1 9,-2 l 6,31 c -4,3 -9,4 -15,6 -5,1 -11,1 -17,1 z m 66,48 30,-66 v 22 l -62,-145 h 46 l 36,97 h -5 l 37,-97 h 44 l -81,189 z m 141,0 v -189 h 41 v 27 h -1 c 4,-10 9,-17 18,-22 9,-5 18,-8 30,-8 12,0 23,3 32,9 9,6 17,14 22,25 5,11 7,23 7,38 0,14 -2,27 -7,38 -5,11 -12,19 -21,25 -10,6 -21,9 -33,9 -11,0 -21,-2 -29,-7 -8,-5 -13,-12 -17,-20 h 2 v 75 z m 75,-80 c 9,0 17,-4 22,-11 6,-6 9,-16 9,-29 0,-13 -3,-23 -9,-30 -5,-6 -13,-9 -22,-9 -10,0 -18,3 -23,9 -6,7 -9,17 -9,30 0,13 3,23 9,29 5,7 13,11 23,11 z m 171,32 c -15,0 -28,-3 -40,-9 -11,-6 -19,-14 -25,-25 -6,-11 -9,-23 -9,-38 0,-15 3,-27 9,-38 6,-11 14,-19 25,-25 12,-6 25,-9 40,-9 15,0 28,3 39,9 11,6 20,14 26,25 6,11 9,23 9,38 0,15 -3,27 -9,38 -6,11 -15,19 -26,25 -11,6 -24,9 -39,9 z m 0,-33 c 9,0 17,-3 23,-10 5,-7 8,-16 8,-29 0,-13 -3,-23 -8,-29 -6,-7 -14,-10 -23,-10 -10,0 -17,3 -23,10 -6,6 -8,16 -8,29 0,13 2,22 8,29 6,7 13,10 23,10 z m 169,84 c -13,0 -25,-2 -36,-5 -11,-2 -21,-6 -29,-12 l 11,-31 c 5,3 10,6 16,8 6,2 12,4 18,5 6,1 11,1 17,1 13,0 23,-2 29,-8 6,-6 10,-14 10,-25 v -20 h 1 c -4,9 -10,16 -18,21 -9,5 -18,8 -29,8 -12,0 -23,-3 -33,-9 -9,-5 -16,-13 -22,-24 -5,-10 -7,-22 -7,-36 0,-13 2,-25 7,-36 6,-10 13,-18 22,-24 10,-5 21,-8 33,-8 11,0 21,3 29,8 8,5 14,12 17,20 h -1 v -25 h 42 v 120 c 0,16 -3,29 -9,39 -6,11 -15,19 -26,24 -12,6 -26,9 -42,9 z m 2,-91 c 10,0 18,-3 24,-9 5,-7 8,-16 8,-27 0,-11 -3,-20 -8,-26 -6,-6 -14,-10 -24,-10 -9,0 -17,4 -23,10 -6,6 -8,15 -8,26 0,11 2,20 8,27 6,6 14,9 23,9 z m 111,37 v -138 h 40 v 34 h -1 c 3,-11 8,-20 15,-26 8,-6 18,-10 30,-11 l 15,-1 3,38 -26,3 c -11,1 -19,4 -24,10 -5,5 -8,13 -8,22 v 69 z m 169,3 c -10,0 -19,-2 -27,-6 -8,-4 -15,-9 -19,-16 -5,-6 -7,-14 -7,-23 0,-10 3,-18 8,-24 6,-6 15,-10 27,-13 12,-3 27,-4 47,-4 h 17 v 22 h -16 c -7,0 -13,1 -18,1 -6,1 -10,2 -13,3 -4,2 -6,3 -8,5 -1,3 -2,5 -2,8 0,6 2,10 6,13 4,3 9,5 16,5 5,0 10,-1 15,-4 4,-3 8,-6 11,-11 2,-4 4,-9 4,-15 v -31 c 0,-8 -3,-14 -7,-17 -4,-4 -11,-6 -21,-6 -8,0 -15,2 -24,4 -8,2 -16,6 -25,10 l -11,-29 c 5,-3 12,-6 19,-8 7,-3 14,-5 22,-6 8,-1 16,-2 23,-2 14,0 26,2 36,6 10,4 17,11 22,20 5,8 7,20 7,34 v 81 h -38 v -27 0 c -1,6 -4,11 -8,16 -4,4 -9,8 -15,10 -6,3 -13,4 -21,4 z m 118,48 v -189 h 41 v 27 h -2 c 4,-10 10,-17 18,-22 9,-5 19,-8 30,-8 12,0 23,3 33,9 9,6 16,14 21,25 5,11 7,23 7,38 0,14 -2,27 -7,38 -5,11 -12,19 -21,25 -9,6 -20,9 -33,9 -11,0 -20,-2 -28,-7 -8,-5 -14,-12 -17,-20 h 1 v 75 z m 74,-80 c 10,0 17,-4 23,-11 5,-6 8,-16 8,-29 0,-13 -3,-23 -8,-30 -6,-6 -13,-9 -23,-9 -10,0 -17,3 -23,9 -6,7 -8,17 -8,30 0,13 2,23 8,29 6,7 13,11 23,11 z m 104,29 v -197 h 42 v 84 h -2 c 4,-9 11,-16 19,-21 9,-5 19,-7 29,-7 12,0 21,2 28,6 8,5 13,11 17,20 4,9 6,20 6,34 v 81 h -44 v -80 c 0,-6 -1,-11 -2,-15 -2,-4 -4,-7 -8,-9 -3,-2 -7,-3 -12,-3 -6,0 -11,2 -15,4 -5,3 -8,6 -11,11 -2,5 -4,10 -4,17 v 75 z m 184,51 30,-66 v 22 l -62,-145 h 46 l 37,97 h -6 l 37,-97 h 44 l -81,189 z"
     id="path14"
     style="clip-rule:evenodd;fill-rule:evenodd;image-rendering:optimizeQuality;shape-rendering:geometricPrecision;text-rendering:geometricPrecision" /><path
     class="fil6"
     d="m 2645,2092 90,-197 h 37 l 90,197 h -45 l -23,-55 18,14 h -117 l 18,-14 -24,55 z m 108,-151 -36,85 -7,-10 h 87 l -7,10 -36,-85 z m 213,154 c -11,0 -21,-3 -29,-8 -9,-5 -14,-13 -18,-22 h 1 v 27 h -40 v -197 h 43 v 83 h -2 c 4,-8 9,-15 17,-20 8,-5 18,-8 29,-8 12,0 23,3 32,9 10,6 17,15 22,26 5,10 7,23 7,38 0,14 -2,27 -7,38 -5,11 -13,19 -22,25 -9,6 -20,9 -33,9 z m -12,-33 c 9,0 17,-3 22,-10 6,-7 9,-16 9,-29 0,-14 -3,-24 -9,-30 -5,-7 -13,-10 -22,-10 -10,0 -18,3 -23,10 -6,6 -9,16 -9,30 0,13 3,22 9,29 5,7 13,10 23,10 z m 171,33 c -15,0 -28,-3 -40,-9 -11,-6 -19,-14 -25,-25 -6,-11 -9,-24 -9,-38 0,-15 3,-28 9,-39 6,-11 14,-19 25,-25 12,-6 25,-9 40,-9 15,0 28,3 39,9 11,6 20,14 26,25 6,11 9,24 9,39 0,14 -3,27 -9,38 -6,11 -15,19 -26,25 -11,6 -24,9 -39,9 z m 0,-33 c 9,0 17,-4 23,-10 5,-7 8,-17 8,-30 0,-13 -3,-22 -8,-29 -6,-6 -14,-9 -23,-9 -10,0 -17,3 -23,9 -6,7 -8,16 -8,29 0,13 2,23 8,30 6,6 13,10 23,10 z m 156,33 c -12,0 -22,-2 -30,-7 -7,-4 -13,-11 -17,-19 -4,-9 -6,-20 -6,-34 v -82 h 44 v 82 c 0,6 0,10 2,14 1,4 4,7 7,8 3,2 7,3 12,3 6,0 11,-1 15,-4 4,-2 8,-6 10,-11 2,-4 4,-10 4,-15 v -77 h 43 v 139 h -41 v -28 h 2 c -4,10 -10,18 -18,23 -8,5 -17,8 -27,8 z m 190,0 c -21,0 -36,-5 -45,-15 -10,-10 -15,-24 -15,-43 v -51 h -27 v -33 h 28 v -39 h 42 v 39 h 44 v 33 h -44 v 50 c 0,8 2,14 6,18 4,4 10,6 18,6 3,0 6,-1 9,-1 3,-1 6,-2 10,-3 l 6,32 c -5,2 -10,4 -15,5 -6,1 -12,2 -17,2 z m 185,0 c -12,0 -22,-2 -30,-7 -7,-4 -13,-11 -17,-19 -4,-9 -6,-20 -6,-34 v -82 h 44 v 82 c 0,6 0,10 2,14 1,4 4,7 7,8 3,2 7,3 12,3 6,0 11,-1 15,-4 4,-2 8,-6 10,-11 2,-4 4,-10 4,-15 v -77 h 43 v 139 h -41 v -28 h 2 c -4,10 -10,18 -18,23 -8,5 -17,8 -27,8 z m 175,0 c -8,0 -16,-1 -24,-2 -8,-1 -15,-3 -21,-5 -7,-2 -12,-5 -17,-8 l 10,-29 c 5,3 10,5 16,7 6,2 12,4 18,5 6,1 12,1 17,1 9,0 16,-1 20,-3 4,-2 6,-6 6,-10 0,-3 -1,-6 -4,-8 -2,-2 -6,-3 -11,-4 l -31,-4 c -12,-3 -22,-7 -28,-14 -7,-7 -10,-15 -10,-25 0,-9 3,-17 8,-24 5,-7 12,-12 22,-16 9,-4 21,-6 34,-6 7,0 13,1 20,2 7,1 13,3 19,5 6,2 11,5 16,9 l -12,28 c -3,-3 -8,-5 -13,-7 -4,-2 -9,-4 -15,-5 -5,-1 -10,-1 -15,-1 -9,0 -15,1 -20,3 -4,3 -6,6 -6,10 0,3 1,6 4,8 2,2 6,3 11,4 l 29,5 c 14,2 24,6 31,13 6,6 9,15 9,25 0,10 -2,18 -7,25 -6,7 -13,12 -22,15 -10,4 -21,6 -34,6 z"
     id="path47"
     style="clip-rule:evenodd;fill-rule:evenodd;image-rendering:optimizeQuality;shape-rendering:geometricPrecision;text-rendering:geometricPrecision" /><path
     class="fil6"
     d="m 4705,2085 v -197 h 34 l 104,132 h -5 v -132 h 42 v 197 h -35 l -103,-132 h 5 v 132 z m 289,3 c -17,0 -32,-3 -44,-9 -12,-6 -21,-14 -28,-25 -6,-11 -9,-24 -9,-39 0,-14 3,-26 9,-37 6,-11 15,-19 25,-25 11,-7 24,-10 39,-10 13,0 25,3 35,9 10,6 18,14 24,24 5,11 8,24 8,39 v 11 h -105 v -23 h 73 l -4,4 c 0,-12 -3,-20 -8,-26 -5,-6 -13,-9 -22,-9 -7,0 -13,2 -18,5 -5,3 -9,7 -11,13 -3,6 -4,13 -4,21 v 3 c 0,10 1,18 4,24 3,6 8,10 14,13 6,3 14,4 23,4 8,0 15,-1 23,-3 8,-2 14,-5 20,-9 l 12,29 c -7,5 -16,9 -26,12 -10,2 -20,4 -30,4 z m 120,-3 -53,-139 h 43 l 32,95 h -3 l 34,-95 h 30 l 34,95 h -3 l 33,-95 h 41 l -53,139 h -36 l -38,-99 h 12 l -37,99 z m 259,3 c -9,0 -17,-1 -24,-2 -8,-1 -15,-3 -22,-5 -6,-2 -12,-5 -16,-9 l 10,-28 c 5,3 10,5 16,7 5,2 11,4 17,5 6,1 12,1 18,1 9,0 15,-1 19,-3 4,-2 6,-6 6,-10 0,-3 -1,-6 -3,-8 -3,-2 -7,-3 -12,-4 l -30,-5 c -13,-2 -22,-6 -29,-13 -6,-7 -9,-15 -9,-25 0,-9 2,-17 7,-24 5,-7 13,-12 22,-16 10,-4 21,-6 34,-6 7,0 14,1 21,2 6,1 13,3 19,5 5,2 11,5 15,8 l -11,29 c -4,-3 -8,-6 -13,-7 -5,-2 -10,-4 -15,-5 -5,-1 -10,-1 -15,-1 -9,0 -16,1 -20,3 -4,3 -6,6 -6,10 0,3 1,6 3,8 3,2 6,3 11,4 l 30,5 c 13,2 23,6 30,13 7,6 10,14 10,25 0,10 -3,18 -8,25 -5,7 -12,12 -22,15 -9,4 -20,6 -33,6 z"
     id="path49"
     style="clip-rule:evenodd;fill-rule:evenodd;image-rendering:optimizeQuality;shape-rendering:geometricPrecision;text-rendering:geometricPrecision" /><path
     class="fil6"
     d="m 8260,2095 c -11,0 -21,-1 -31,-3 -10,-1 -19,-4 -27,-7 -9,-3 -16,-6 -22,-11 l 13,-34 c 6,3 13,7 20,9 7,3 14,5 22,7 8,1 16,2 25,2 13,0 22,-2 28,-6 6,-4 9,-10 9,-16 0,-4 -1,-7 -2,-10 -2,-2 -5,-4 -10,-6 -4,-2 -9,-3 -16,-4 l -32,-7 c -18,-3 -32,-10 -40,-19 -9,-9 -13,-22 -13,-37 0,-12 3,-23 10,-32 7,-9 16,-16 29,-22 12,-5 26,-7 42,-7 10,0 18,1 27,2 9,2 17,4 24,8 7,3 13,7 19,11 l -14,34 c -7,-6 -16,-11 -25,-14 -10,-3 -20,-4 -31,-4 -8,0 -15,1 -20,3 -6,2 -10,4 -13,8 -3,3 -5,8 -5,12 0,6 2,10 6,13 4,4 11,6 21,8 l 32,6 c 19,4 32,10 42,19 9,9 13,20 13,35 0,12 -3,23 -10,32 -7,10 -16,17 -28,22 -12,5 -27,8 -43,8 z m 184,0 c -17,0 -32,-3 -44,-9 -12,-6 -21,-14 -28,-25 -6,-11 -9,-24 -9,-38 0,-14 3,-27 9,-38 6,-10 14,-19 25,-25 11,-6 24,-10 38,-10 14,0 26,3 36,9 10,6 18,14 23,25 6,10 9,23 9,38 v 11 h -105 v -23 h 73 l -4,4 c 0,-12 -3,-20 -8,-26 -5,-6 -13,-9 -22,-9 -7,0 -13,2 -18,5 -5,3 -9,7 -11,13 -3,6 -4,13 -4,21 v 3 c 0,10 1,18 4,24 3,6 8,10 14,13 6,3 14,4 23,4 7,0 15,-1 23,-3 7,-2 14,-5 20,-9 l 12,29 c -8,5 -16,9 -26,12 -10,2 -20,4 -30,4 z m 87,-3 v -139 h 40 v 35 h -1 c 3,-11 8,-20 15,-26 8,-7 18,-10 30,-11 l 15,-1 3,38 -26,2 c -11,1 -19,5 -24,10 -6,6 -8,13 -8,23 v 69 z m 170,0 -60,-139 h 46 l 37,97 h -6 l 38,-97 h 44 l -60,139 z m 112,-165 v -40 h 47 v 40 z m 2,165 v -139 h 43 v 139 z m 147,3 c -15,0 -28,-3 -39,-9 -11,-6 -20,-14 -26,-25 -6,-11 -9,-24 -9,-39 0,-14 3,-27 9,-38 6,-11 15,-19 26,-25 11,-6 24,-9 39,-9 10,0 19,2 28,4 9,3 17,7 22,12 l -12,30 c -4,-3 -10,-6 -16,-8 -6,-2 -12,-3 -17,-3 -11,0 -20,3 -26,9 -6,7 -10,16 -10,29 0,12 4,21 10,28 6,6 15,10 26,10 5,0 11,-1 17,-3 6,-3 12,-5 16,-9 l 12,31 c -5,4 -13,8 -22,11 -9,2 -18,4 -28,4 z m 143,0 c -17,0 -31,-3 -43,-9 -12,-6 -22,-14 -28,-25 -6,-11 -10,-24 -10,-38 0,-14 3,-27 10,-38 6,-10 14,-19 25,-25 11,-6 24,-10 38,-10 14,0 26,3 36,9 10,6 17,14 23,25 6,10 8,23 8,38 v 11 h -104 v -23 h 72 l -4,4 c 0,-12 -2,-20 -7,-26 -6,-6 -13,-9 -22,-9 -7,0 -13,2 -18,5 -5,3 -9,7 -12,13 -2,6 -4,13 -4,21 v 3 c 0,10 2,18 5,24 3,6 7,10 14,13 6,3 14,4 23,4 7,0 15,-1 22,-3 8,-2 15,-5 21,-9 l 11,29 c -7,5 -16,9 -26,12 -10,2 -20,4 -30,4 z m 142,0 c -8,0 -16,-1 -24,-2 -7,-1 -15,-3 -21,-5 -6,-2 -12,-5 -17,-8 l 10,-29 c 5,3 11,5 16,7 6,2 12,4 18,5 6,1 12,1 18,1 8,0 15,-1 19,-3 4,-2 6,-6 6,-10 0,-3 -1,-6 -4,-8 -2,-2 -6,-3 -11,-4 l -31,-4 c -12,-3 -22,-7 -28,-14 -7,-7 -10,-15 -10,-25 0,-9 3,-17 8,-24 5,-7 12,-12 22,-16 9,-4 21,-6 34,-6 7,0 14,1 20,2 7,1 13,3 19,5 6,2 11,5 16,9 l -11,28 c -4,-3 -9,-5 -13,-7 -5,-2 -10,-4 -16,-5 -5,-1 -10,-1 -15,-1 -9,0 -15,1 -19,3 -4,3 -7,6 -7,10 0,3 2,6 4,8 2,2 6,3 11,4 l 30,5 c 13,2 23,6 30,13 6,6 10,15 10,25 0,10 -3,18 -8,25 -5,7 -13,12 -22,15 -10,4 -21,6 -34,6 z"
     id="path51"
     style="clip-rule:evenodd;fill-rule:evenodd;image-rendering:optimizeQuality;shape-rendering:geometricPrecision;text-rendering:geometricPrecision" /><path
     class="fil6"
     d="m 10233,2111 c -11,0 -21,-1 -31,-3 -10,-1 -19,-4 -27,-7 -9,-3 -16,-6 -22,-11 l 13,-35 c 6,4 13,8 20,10 7,3 14,5 22,6 8,2 16,3 25,3 13,0 22,-2 28,-6 6,-4 9,-10 9,-17 0,-3 -1,-6 -2,-9 -2,-2 -5,-5 -10,-6 -4,-2 -9,-3 -16,-5 l -32,-6 c -18,-4 -32,-10 -40,-19 -9,-10 -13,-22 -13,-37 0,-12 3,-23 10,-32 7,-9 16,-17 29,-22 12,-5 26,-7 42,-7 9,0 18,0 27,2 9,2 16,4 24,7 7,3 13,7 18,12 l -13,33 c -7,-6 -16,-10 -25,-13 -10,-3 -20,-4 -31,-4 -8,0 -15,1 -20,3 -6,1 -10,4 -13,8 -3,3 -5,7 -5,12 0,6 2,10 6,13 4,3 11,6 21,8 l 32,6 c 18,4 32,10 41,19 10,8 14,20 14,35 0,12 -3,23 -10,32 -7,9 -16,17 -28,22 -12,5 -27,8 -43,8 z m 162,0 c -12,0 -22,-2 -29,-7 -8,-4 -14,-11 -18,-20 -4,-8 -6,-19 -6,-33 v -82 h 44 v 82 c 0,6 0,10 2,14 1,4 4,6 7,8 3,2 7,3 13,3 5,0 10,-1 14,-4 4,-2 8,-6 10,-11 3,-4 4,-10 4,-16 v -76 h 43 v 139 h -41 v -28 h 2 c -4,10 -10,17 -18,23 -8,5 -17,8 -27,8 z m 121,47 v -189 h 40 v 27 h -1 c 4,-9 10,-16 18,-22 9,-5 19,-8 30,-8 12,0 23,3 32,9 10,6 17,14 22,25 5,11 7,24 7,38 0,15 -2,27 -7,38 -5,11 -12,20 -21,26 -10,6 -20,9 -33,9 -11,0 -20,-3 -28,-8 -8,-5 -14,-12 -17,-20 h 1 v 75 z m 74,-80 c 9,0 17,-3 23,-10 5,-7 8,-17 8,-30 0,-13 -3,-23 -8,-29 -6,-7 -14,-10 -23,-10 -10,0 -17,3 -23,10 -6,6 -9,16 -9,29 0,13 3,23 9,30 6,7 13,10 23,10 z m 104,80 v -189 h 40 v 27 h -1 c 4,-9 10,-16 18,-22 9,-5 19,-8 30,-8 12,0 23,3 32,9 10,6 17,14 22,25 5,11 7,24 7,38 0,15 -2,27 -7,38 -5,11 -12,20 -21,26 -10,6 -20,9 -33,9 -11,0 -20,-3 -28,-8 -8,-5 -14,-12 -17,-20 h 1 v 75 z m 74,-80 c 9,0 17,-3 23,-10 5,-7 8,-17 8,-30 0,-13 -3,-23 -8,-29 -6,-7 -14,-10 -23,-10 -10,0 -17,3 -23,10 -6,6 -9,16 -9,29 0,13 3,23 9,30 6,7 13,10 23,10 z m 171,33 c -15,0 -28,-3 -39,-9 -12,-6 -20,-15 -26,-26 -6,-10 -9,-23 -9,-38 0,-14 3,-27 9,-38 6,-11 14,-19 26,-25 11,-6 24,-9 39,-9 15,0 28,3 39,9 11,6 20,14 26,25 6,11 9,24 9,38 0,15 -3,28 -9,38 -6,11 -15,20 -26,26 -11,6 -24,9 -39,9 z m 0,-34 c 10,0 17,-3 23,-10 5,-6 8,-16 8,-29 0,-13 -3,-22 -8,-29 -6,-6 -13,-10 -23,-10 -9,0 -17,4 -23,10 -5,7 -8,16 -8,29 0,13 3,23 8,29 6,7 14,10 23,10 z m 104,31 v -139 h 40 v 34 h -1 c 2,-11 7,-19 15,-26 8,-6 17,-9 30,-10 l 14,-1 3,38 -26,2 c -10,1 -18,4 -23,10 -6,6 -8,13 -8,23 v 69 z m 199,3 c -20,0 -35,-5 -45,-15 -9,-10 -14,-24 -14,-43 v -52 h -27 v -32 h 28 v -39 h 42 v 39 h 44 v 32 h -44 v 50 c 0,8 2,14 6,18 4,4 10,6 18,6 3,0 6,0 9,0 3,-1 6,-2 9,-3 l 7,32 c -5,2 -10,4 -15,5 -6,1 -12,2 -18,2 z"
     id="path53"
     style="clip-rule:evenodd;fill-rule:evenodd;image-rendering:optimizeQuality;shape-rendering:geometricPrecision;text-rendering:geometricPrecision" /><path
     class="fil3"
     d="m 2891,10880 v -197 h 91 c 22,0 39,4 51,13 11,9 17,22 17,38 0,11 -3,21 -9,29 -6,8 -15,13 -25,16 v -2 c 8,1 15,4 21,8 6,4 10,9 14,16 3,6 5,14 5,23 0,12 -3,22 -9,30 -5,8 -13,15 -24,19 -10,5 -23,7 -37,7 z m 43,-34 h 47 c 5,0 8,0 12,-1 3,0 6,-1 9,-3 2,-1 4,-3 6,-5 2,-2 3,-4 4,-7 0,-3 1,-5 1,-9 0,-3 -1,-6 -2,-9 0,-2 -2,-4 -3,-6 -2,-2 -4,-4 -7,-5 -2,-2 -5,-3 -8,-3 -4,-1 -7,-1 -12,-1 h -47 z m 0,-83 h 43 c 10,0 18,-2 23,-6 5,-4 8,-9 8,-17 0,-8 -3,-14 -8,-18 -5,-4 -13,-6 -23,-6 h -43 z m 207,120 c -12,0 -22,-2 -29,-7 -8,-4 -14,-11 -18,-19 -4,-9 -6,-20 -6,-34 v -82 h 44 v 82 c 0,6 0,10 2,14 1,4 4,7 7,8 3,2 7,3 12,3 6,0 11,-1 15,-4 4,-2 8,-6 10,-11 3,-4 4,-10 4,-16 v -76 h 43 v 139 h -41 v -28 h 2 c -4,10 -10,18 -18,23 -8,5 -17,8 -27,8 z m 190,0 c -21,0 -36,-5 -45,-15 -10,-10 -15,-24 -15,-43 v -51 h -26 v -33 h 27 v -39 h 42 v 39 h 44 v 33 h -44 v 50 c 0,8 2,14 6,18 4,4 10,6 18,6 3,0 6,-1 9,-1 3,-1 6,-2 10,-3 l 6,32 c -5,2 -10,4 -15,5 -6,1 -12,2 -17,2 z m 111,0 c -21,0 -36,-5 -45,-15 -10,-10 -15,-24 -15,-43 v -51 h -26 v -33 h 27 v -39 h 42 v 39 h 44 v 33 h -44 v 50 c 0,8 2,14 6,18 4,4 10,6 18,6 3,0 6,-1 9,-1 3,-1 6,-2 10,-3 l 6,32 c -5,2 -10,4 -15,5 -6,1 -12,2 -17,2 z m 118,0 c -16,0 -29,-3 -40,-9 -11,-6 -20,-15 -26,-25 -6,-11 -9,-24 -9,-39 0,-14 3,-27 9,-38 6,-11 15,-19 26,-25 11,-6 24,-9 40,-9 15,0 28,3 39,9 11,6 19,14 26,25 6,11 9,24 9,38 0,15 -3,28 -9,39 -7,10 -15,19 -26,25 -11,6 -24,9 -39,9 z m 0,-33 c 9,0 17,-4 22,-10 6,-7 9,-17 9,-30 0,-13 -3,-22 -9,-29 -5,-6 -13,-9 -22,-9 -10,0 -18,3 -23,9 -6,7 -9,16 -9,29 0,13 3,23 9,30 5,6 13,10 23,10 z m 103,30 v -139 h 41 v 27 h -1 c 4,-10 11,-17 20,-22 8,-5 18,-8 29,-8 11,0 20,2 28,7 7,4 13,11 16,19 4,9 6,21 6,34 v 82 h -44 v -80 c 0,-7 0,-12 -2,-16 -1,-3 -4,-6 -7,-8 -3,-2 -7,-3 -12,-3 -6,0 -11,1 -16,4 -4,2 -8,6 -10,11 -3,4 -4,10 -4,16 v 76 z"
     id="path87"
     style="clip-rule:evenodd;fill-rule:evenodd;image-rendering:optimizeQuality;shape-rendering:geometricPrecision;text-rendering:geometricPrecision" /><path
     class="fil2"
     d="m 5452,10880 v -197 h 91 c 22,0 39,4 50,13 12,9 18,22 18,38 0,11 -3,21 -9,29 -7,8 -15,13 -25,16 v -2 c 8,1 15,4 21,8 6,4 10,9 13,16 4,6 5,14 5,23 0,12 -2,22 -8,30 -5,8 -14,15 -24,19 -11,5 -23,7 -38,7 z m 43,-34 h 47 c 4,0 8,0 12,-1 3,0 6,-1 8,-3 3,-1 5,-3 7,-5 1,-2 3,-4 3,-7 1,-3 1,-5 1,-9 0,-3 0,-6 -1,-9 -1,-2 -2,-4 -4,-6 -1,-2 -3,-4 -6,-5 -2,-2 -5,-3 -8,-3 -4,-1 -8,-1 -12,-1 h -47 z m 0,-83 h 42 c 11,0 19,-2 24,-6 5,-4 7,-9 7,-17 0,-8 -2,-14 -7,-18 -5,-4 -13,-6 -24,-6 h -42 z m 206,120 c -11,0 -21,-2 -29,-7 -7,-4 -13,-11 -17,-19 -4,-9 -6,-20 -6,-34 v -82 h 44 v 82 c 0,6 0,10 2,14 1,4 4,7 7,8 3,2 7,3 12,3 6,0 11,-1 15,-4 4,-2 7,-6 10,-11 2,-4 4,-10 4,-16 v -76 h 43 v 139 h -41 v -28 h 2 c -4,10 -10,18 -18,23 -8,5 -17,8 -28,8 z m 190,0 c -20,0 -35,-5 -45,-15 -9,-10 -14,-24 -14,-43 v -51 h -27 v -33 h 28 v -39 h 42 v 39 h 44 v 33 h -44 v 50 c 0,8 2,14 6,18 4,4 10,6 18,6 3,0 6,-1 9,-1 3,-1 6,-2 9,-3 l 7,32 c -5,2 -10,4 -15,5 -6,1 -12,2 -18,2 z m 111,0 c -20,0 -35,-5 -45,-15 -9,-10 -14,-24 -14,-43 v -51 h -27 v -33 h 28 v -39 h 42 v 39 h 44 v 33 h -44 v 50 c 0,8 2,14 6,18 4,4 10,6 18,6 3,0 6,-1 9,-1 3,-1 6,-2 9,-3 l 7,32 c -5,2 -10,4 -16,5 -5,1 -11,2 -17,2 z m 118,0 c -15,0 -28,-3 -39,-9 -11,-6 -20,-15 -26,-25 -6,-11 -9,-24 -9,-39 0,-14 3,-27 9,-38 6,-11 15,-19 26,-25 11,-6 24,-9 39,-9 15,0 29,3 40,9 11,6 19,14 25,25 7,11 10,24 10,38 0,15 -3,28 -10,39 -6,10 -14,19 -25,25 -11,6 -25,9 -40,9 z m 0,-33 c 10,0 17,-4 23,-10 6,-7 9,-17 9,-30 0,-13 -3,-22 -9,-29 -6,-6 -13,-9 -23,-9 -9,0 -17,3 -22,9 -6,7 -9,16 -9,29 0,13 3,23 9,30 5,6 13,10 22,10 z m 104,30 v -139 h 41 v 27 h -1 c 4,-10 11,-17 19,-22 9,-5 19,-8 30,-8 11,0 20,2 28,7 7,4 13,11 16,19 4,9 6,21 6,34 v 82 h -44 v -80 c 0,-7 -1,-12 -2,-16 -2,-3 -4,-6 -7,-8 -3,-2 -7,-3 -13,-3 -5,0 -11,1 -15,4 -5,2 -8,6 -11,11 -2,4 -3,10 -3,16 v 76 z"
     id="path89"
     style="clip-rule:evenodd;fill-rule:evenodd;image-rendering:optimizeQuality;shape-rendering:geometricPrecision;text-rendering:geometricPrecision" /><path
     class="fil2"
     d="m 17786,2068 c -9,0 -17,0 -25,-2 -7,-1 -15,-3 -21,-5 -7,-3 -13,-6 -18,-9 l 11,-28 c 5,3 10,6 16,8 5,2 11,4 18,5 6,1 12,2 19,2 10,0 18,-2 23,-5 4,-3 7,-7 7,-13 0,-3 -1,-5 -2,-7 -2,-2 -4,-4 -8,-5 -3,-2 -7,-3 -13,-4 l -25,-5 c -15,-3 -25,-8 -32,-15 -7,-8 -10,-17 -10,-29 0,-10 2,-18 8,-26 5,-7 13,-13 23,-17 9,-4 21,-6 33,-6 8,0 15,1 22,2 6,1 13,3 18,6 6,2 11,5 15,9 l -10,27 c -6,-5 -13,-9 -21,-11 -7,-2 -15,-3 -24,-3 -6,0 -11,0 -16,2 -4,1 -8,3 -10,6 -3,3 -4,6 -4,10 0,4 2,8 5,10 3,3 9,5 16,7 l 26,4 c 15,3 26,8 33,15 7,7 11,16 11,28 0,10 -3,18 -8,26 -6,7 -13,13 -23,17 -10,4 -21,6 -34,6 z m 146,0 c -14,0 -25,-2 -35,-7 -9,-5 -17,-11 -22,-20 -5,-8 -7,-19 -7,-30 0,-11 2,-21 7,-30 5,-8 11,-15 20,-20 9,-5 19,-7 30,-7 11,0 21,2 29,6 8,5 14,11 18,20 5,8 7,18 7,30 v 9 h -83 v -18 h 57 l -3,3 c 0,-9 -2,-16 -6,-21 -4,-4 -10,-7 -18,-7 -5,0 -10,2 -14,4 -4,3 -7,6 -9,11 -2,4 -3,10 -3,16 v 3 c 0,7 1,14 4,18 2,5 6,9 11,11 5,2 11,4 18,4 6,0 12,-1 18,-3 6,-2 12,-4 16,-7 l 9,22 c -5,5 -12,8 -20,10 -8,2 -16,3 -24,3 z m 107,0 c -8,0 -15,-1 -21,-5 -7,-3 -12,-7 -16,-12 -3,-6 -5,-12 -5,-18 0,-8 2,-15 6,-20 5,-4 12,-8 21,-10 10,-2 23,-3 38,-3 h 13 v 17 h -12 c -6,0 -11,1 -15,1 -4,1 -7,2 -10,3 -3,1 -5,2 -6,4 -1,1 -2,3 -2,6 0,4 2,8 5,10 3,3 7,4 13,4 4,0 8,-1 12,-3 3,-2 6,-5 8,-9 2,-3 3,-7 3,-12 v -25 c 0,-6 -1,-11 -5,-13 -3,-3 -9,-4 -17,-4 -6,0 -12,1 -18,2 -7,2 -14,5 -21,9 l -9,-23 c 5,-3 10,-5 16,-7 5,-2 11,-4 17,-5 7,-1 13,-1 19,-1 11,0 20,1 28,5 8,3 14,8 17,15 4,7 6,16 6,27 v 65 h -30 v -22 0 c -1,5 -3,9 -7,13 -3,3 -7,6 -11,8 -5,2 -10,3 -17,3 z m 93,-2 v -110 h 32 v 27 0 c 2,-9 6,-15 12,-21 6,-5 13,-7 23,-8 l 12,-1 2,30 -20,2 c -9,1 -15,4 -19,8 -5,5 -7,11 -7,18 v 55 z m 150,2 c -12,0 -23,-2 -32,-7 -9,-5 -15,-11 -20,-20 -5,-9 -8,-19 -8,-30 0,-12 3,-22 8,-31 5,-8 11,-15 20,-20 9,-4 20,-6 32,-6 7,0 15,1 22,3 7,2 13,5 17,9 l -9,24 c -4,-3 -8,-5 -13,-7 -5,-2 -9,-2 -14,-2 -9,0 -15,2 -20,7 -5,6 -8,13 -8,23 0,9 3,17 8,22 5,6 11,8 20,8 5,0 9,-1 14,-2 5,-2 9,-4 13,-7 l 9,24 c -4,4 -10,7 -17,9 -7,2 -15,3 -22,3 z m 57,-2 v -157 h 33 v 67 h -1 c 3,-7 8,-12 15,-16 7,-4 14,-6 23,-6 9,0 16,1 22,5 6,3 10,8 13,15 3,7 5,16 5,27 v 65 h -35 v -64 c 0,-5 0,-9 -2,-12 -1,-3 -3,-5 -5,-7 -3,-1 -6,-2 -10,-2 -5,0 -9,1 -12,3 -4,2 -7,5 -9,9 -2,4 -3,8 -3,13 v 60 z"
     id="path99"
     style="clip-rule:evenodd;fill-rule:evenodd;image-rendering:optimizeQuality;shape-rendering:geometricPrecision;text-rendering:geometricPrecision" /><path
     class="fil2"
     d="m 6376,2089 c -21,0 -39,-4 -54,-12 -15,-8 -27,-20 -35,-35 -8,-16 -12,-34 -12,-54 0,-21 4,-39 12,-54 8,-16 20,-27 35,-35 15,-9 33,-13 54,-13 13,0 26,2 38,6 11,4 21,9 29,16 l -14,35 c -8,-6 -17,-11 -25,-14 -8,-3 -17,-4 -27,-4 -17,0 -31,5 -41,16 -10,11 -15,26 -15,47 0,20 5,35 15,46 10,11 24,16 41,16 10,0 19,-1 27,-4 8,-3 17,-7 25,-14 l 14,35 c -8,7 -18,12 -29,16 -12,4 -25,6 -38,6 z m 154,0 c -15,0 -28,-3 -39,-9 -12,-6 -20,-14 -26,-25 -6,-11 -9,-24 -9,-38 0,-15 3,-28 9,-38 6,-11 14,-20 26,-25 11,-6 24,-9 39,-9 15,0 28,3 39,9 11,5 20,14 26,25 6,10 9,23 9,38 0,14 -3,27 -9,38 -6,11 -15,19 -26,25 -11,6 -24,9 -39,9 z m 0,-33 c 10,0 17,-3 23,-10 5,-7 8,-17 8,-29 0,-13 -3,-23 -8,-29 -6,-7 -13,-10 -23,-10 -9,0 -17,3 -23,10 -5,6 -8,16 -8,29 0,12 3,22 8,29 6,7 14,10 23,10 z m 104,30 v -138 h 41 v 26 h -2 c 5,-9 11,-17 20,-22 9,-5 18,-7 29,-7 11,0 21,2 28,6 8,4 13,11 17,20 4,9 6,20 6,34 v 81 h -44 v -80 c 0,-6 -1,-11 -2,-15 -2,-4 -4,-7 -8,-9 -3,-2 -7,-3 -12,-3 -6,0 -11,1 -15,4 -5,3 -8,6 -11,11 -2,5 -4,10 -4,16 v 76 z m 243,3 c -20,0 -35,-5 -45,-15 -10,-9 -14,-24 -14,-43 v -51 h -27 v -32 h 28 v -40 h 42 v 40 h 43 v 32 h -43 v 50 c 0,8 2,14 6,18 4,4 10,6 18,6 3,0 6,0 9,-1 3,-1 6,-1 9,-2 l 6,31 c -4,2 -9,4 -15,5 -5,2 -11,2 -17,2 z m 100,0 c -10,0 -19,-2 -27,-6 -9,-4 -15,-9 -20,-16 -4,-7 -7,-14 -7,-23 0,-10 3,-18 9,-24 5,-6 14,-10 26,-13 12,-3 28,-4 48,-4 h 16 v 22 h -15 c -7,0 -13,1 -19,1 -5,1 -9,2 -13,3 -3,1 -5,3 -7,5 -2,2 -2,5 -2,8 0,6 2,10 6,13 3,3 9,5 15,5 6,0 11,-2 16,-4 4,-3 8,-6 10,-11 3,-4 4,-10 4,-15 v -31 c 0,-8 -2,-14 -6,-18 -5,-3 -12,-5 -22,-5 -7,0 -15,1 -23,4 -8,2 -17,5 -25,10 l -12,-29 c 6,-3 12,-6 19,-9 8,-2 15,-4 23,-5 8,-2 15,-2 23,-2 14,0 26,2 36,6 9,4 17,11 22,19 5,9 7,21 7,35 v 81 h -39 v -28 h 1 c -2,7 -5,12 -9,17 -4,4 -8,8 -14,10 -6,3 -13,4 -21,4 z m 185,0 c -15,0 -28,-3 -39,-9 -11,-6 -20,-14 -26,-25 -6,-11 -10,-24 -10,-38 0,-15 4,-28 10,-39 6,-11 15,-19 26,-25 11,-5 24,-8 39,-8 10,0 19,1 28,4 9,3 17,6 22,11 l -12,31 c -4,-4 -10,-7 -16,-9 -6,-2 -12,-3 -17,-3 -11,0 -20,3 -26,10 -7,6 -10,16 -10,28 0,12 3,21 10,28 6,7 15,10 26,10 5,0 11,-1 17,-3 6,-2 12,-5 16,-9 l 12,31 c -5,5 -13,8 -22,11 -9,3 -18,4 -28,4 z m 142,0 c -20,0 -35,-5 -45,-15 -10,-9 -14,-24 -14,-43 v -51 h -27 v -32 h 28 v -40 h 42 v 40 h 43 v 32 h -43 v 50 c 0,8 2,14 6,18 4,4 10,6 18,6 3,0 6,0 9,-1 3,-1 6,-1 9,-2 l 6,31 c -4,2 -9,4 -15,5 -5,2 -11,2 -17,2 z"
     id="path123"
     style="clip-rule:evenodd;fill-rule:evenodd;image-rendering:optimizeQuality;shape-rendering:geometricPrecision;text-rendering:geometricPrecision" /><path
     class="fil3"
     d="m 7447,7912 v -197 h 91 c 22,0 39,4 50,13 12,9 18,22 18,38 0,11 -3,21 -9,29 -7,8 -15,13 -25,16 v -2 c 8,1 15,4 21,8 5,4 10,9 13,16 4,7 5,14 5,23 0,12 -2,22 -8,30 -5,8 -14,15 -24,19 -11,5 -23,7 -38,7 z m 43,-34 h 47 c 4,0 8,0 12,-1 3,0 6,-1 8,-3 3,-1 5,-3 7,-5 1,-2 3,-4 3,-7 1,-3 1,-5 1,-9 0,-3 0,-6 -1,-9 -1,-2 -2,-4 -4,-6 -1,-2 -3,-4 -6,-5 -2,-2 -5,-3 -8,-3 -4,-1 -8,-1 -12,-1 h -47 z m 0,-83 h 42 c 11,0 19,-2 24,-6 5,-3 7,-9 7,-17 0,-8 -2,-14 -7,-18 -5,-4 -13,-6 -24,-6 h -42 z m 206,120 c -11,0 -21,-2 -29,-7 -7,-4 -13,-11 -17,-19 -4,-9 -6,-20 -6,-34 v -82 h 43 v 82 c 0,6 1,10 3,14 1,4 4,7 7,8 3,2 7,3 12,3 6,0 11,-1 15,-4 4,-2 7,-6 10,-11 2,-4 4,-10 4,-16 v -76 h 43 v 139 h -41 v -28 h 2 c -4,10 -10,18 -18,23 -8,5 -17,8 -28,8 z m 190,0 c -20,0 -35,-5 -45,-15 -9,-10 -14,-24 -14,-43 v -51 h -27 v -33 h 28 v -39 h 42 v 39 h 44 v 33 h -44 v 50 c 0,8 2,14 6,18 4,4 10,6 18,6 3,0 6,-1 9,-1 3,-1 6,-2 9,-3 l 7,32 c -5,2 -10,4 -16,5 -5,1 -11,2 -17,2 z m 111,0 c -20,0 -35,-5 -45,-15 -9,-10 -14,-24 -14,-43 v -51 h -27 v -33 h 28 v -39 h 42 v 39 h 44 v 33 h -44 v 50 c 0,8 2,14 6,18 4,4 10,6 18,6 3,0 6,-1 9,-1 3,-1 6,-2 9,-3 l 7,32 c -5,2 -10,4 -16,5 -5,1 -11,2 -17,2 z m 118,0 c -15,0 -28,-3 -39,-9 -11,-6 -20,-14 -26,-25 -6,-11 -9,-24 -9,-38 0,-15 3,-28 9,-39 6,-11 15,-19 26,-25 11,-6 24,-9 39,-9 15,0 28,3 40,9 11,6 19,14 25,25 7,11 10,24 10,39 0,14 -3,27 -10,38 -6,11 -14,19 -25,25 -12,6 -25,9 -40,9 z m 0,-33 c 10,0 17,-4 23,-10 6,-7 9,-17 9,-30 0,-13 -3,-22 -9,-29 -6,-6 -13,-9 -23,-9 -9,0 -17,3 -22,9 -6,7 -9,16 -9,29 0,13 3,23 9,30 5,6 13,10 22,10 z m 104,30 v -139 h 41 v 27 h -1 c 4,-10 11,-17 19,-22 9,-5 19,-8 30,-8 11,0 20,3 28,7 7,4 13,11 16,20 4,8 6,20 6,33 v 82 h -44 v -80 c 0,-6 -1,-12 -2,-15 -2,-4 -4,-7 -7,-9 -3,-2 -7,-3 -13,-3 -5,0 -11,1 -15,4 -5,2 -8,6 -11,11 -2,4 -3,10 -3,16 v 76 z"
     id="path149"
     style="clip-rule:evenodd;fill-rule:evenodd;image-rendering:optimizeQuality;shape-rendering:geometricPrecision;text-rendering:geometricPrecision" /><path
     class="fil2"
     d="m 7447,9352 v -197 h 91 c 22,0 39,5 50,14 12,9 18,21 18,37 0,12 -3,22 -9,29 -7,8 -15,14 -25,17 v -3 c 8,2 15,4 21,8 5,5 10,10 13,16 4,7 5,15 5,24 0,11 -2,21 -8,30 -5,8 -14,14 -24,19 -11,4 -23,6 -38,6 z m 43,-33 h 47 c 4,0 8,-1 12,-1 3,-1 6,-2 8,-3 3,-2 5,-3 7,-6 1,-2 3,-4 3,-7 1,-2 1,-5 1,-8 0,-4 0,-7 -1,-9 -1,-3 -2,-5 -4,-7 -1,-2 -3,-4 -6,-5 -2,-1 -5,-2 -8,-3 -4,0 -8,-1 -12,-1 h -47 z m 0,-83 h 42 c 11,0 19,-2 24,-6 5,-4 7,-10 7,-18 0,-8 -2,-13 -7,-17 -5,-4 -13,-6 -24,-6 h -42 z m 206,119 c -11,0 -21,-2 -29,-6 -7,-5 -13,-11 -17,-20 -4,-9 -6,-20 -6,-33 v -82 h 43 v 82 c 0,5 1,10 3,13 1,4 4,7 7,9 3,2 7,3 12,3 6,0 11,-2 15,-4 4,-3 7,-7 10,-11 2,-5 4,-10 4,-16 v -76 h 43 v 138 h -41 v -27 h 2 c -4,10 -10,17 -18,22 -8,6 -17,8 -28,8 z m 190,0 c -20,0 -35,-5 -45,-15 -9,-9 -14,-24 -14,-43 v -51 h -27 v -32 h 28 v -40 h 42 v 40 h 44 v 32 h -44 v 50 c 0,8 2,14 6,18 4,4 10,6 18,6 3,0 6,0 9,-1 3,-1 6,-1 9,-2 l 7,31 c -5,3 -10,4 -16,5 -5,2 -11,2 -17,2 z m 111,0 c -20,0 -35,-5 -45,-15 -9,-9 -14,-24 -14,-43 v -51 h -27 v -32 h 28 v -40 h 42 v 40 h 44 v 32 h -44 v 50 c 0,8 2,14 6,18 4,4 10,6 18,6 3,0 6,0 9,-1 3,-1 6,-1 9,-2 l 7,31 c -5,3 -10,4 -16,5 -5,2 -11,2 -17,2 z m 118,0 c -15,0 -28,-3 -39,-9 -11,-6 -20,-14 -26,-25 -6,-11 -9,-24 -9,-38 0,-15 3,-28 9,-38 6,-11 15,-20 26,-25 11,-6 24,-9 39,-9 15,0 28,3 40,9 11,5 19,14 25,25 7,10 10,23 10,38 0,14 -3,27 -10,38 -6,11 -14,19 -25,25 -12,6 -25,9 -40,9 z m 0,-33 c 10,0 17,-3 23,-10 6,-7 9,-17 9,-29 0,-13 -3,-23 -9,-29 -6,-7 -13,-10 -23,-10 -9,0 -17,3 -22,10 -6,6 -9,16 -9,29 0,12 3,22 9,29 5,7 13,10 22,10 z m 104,30 v -138 h 41 v 26 h -1 c 4,-9 11,-17 19,-22 9,-5 19,-7 30,-7 11,0 20,2 28,6 7,5 13,11 16,20 4,9 6,20 6,34 v 81 h -44 v -80 c 0,-6 -1,-11 -2,-15 -2,-4 -4,-7 -7,-9 -3,-2 -7,-3 -13,-3 -5,0 -11,1 -15,4 -5,3 -8,6 -11,11 -2,5 -3,10 -3,16 v 76 z"
     id="path155"
     style="clip-rule:evenodd;fill-rule:evenodd;image-rendering:optimizeQuality;shape-rendering:geometricPrecision;text-rendering:geometricPrecision" /><path
     class="fil2"
     d="m 2448,4470 v -197 h 34 l 103,133 h -4 v -133 h 41 v 197 h -34 l -103,-131 h 4 v 131 z m 267,3 c -12,0 -22,-2 -29,-6 -8,-5 -14,-11 -18,-20 -4,-9 -6,-20 -6,-33 v -82 h 44 v 82 c 0,5 0,10 2,13 1,4 4,7 7,9 3,2 7,3 12,3 6,0 11,-2 15,-4 4,-3 8,-7 10,-11 2,-5 4,-10 4,-16 v -76 h 43 v 138 h -41 v -27 h 2 c -4,9 -10,17 -18,22 -8,6 -17,8 -27,8 z m 121,-3 v -138 h 41 v 26 h -2 c 5,-9 11,-17 20,-22 9,-5 18,-7 29,-7 11,0 21,2 28,6 8,4 13,11 17,20 4,9 5,20 5,34 v 81 h -43 v -80 c 0,-6 -1,-11 -3,-15 -1,-4 -3,-7 -7,-9 -3,-2 -7,-3 -12,-3 -6,0 -11,1 -16,4 -4,3 -8,6 -10,11 -3,5 -4,10 -4,16 v 76 z m 172,-164 v -41 h 47 v 41 z m 2,164 v -138 h 44 v 138 z m 149,3 c -21,0 -36,-5 -45,-15 -10,-9 -15,-24 -15,-43 v -51 h -26 v -32 h 27 v -40 h 42 v 40 h 44 v 32 h -44 v 50 c 0,8 2,14 6,18 4,4 10,6 18,6 3,0 6,0 9,-1 3,-1 6,-1 10,-2 l 6,31 c -5,2 -10,4 -15,5 -6,2 -12,2 -17,2 z m 118,0 c -16,0 -29,-3 -40,-9 -11,-6 -20,-14 -26,-25 -6,-11 -9,-24 -9,-38 0,-15 3,-28 9,-38 6,-11 15,-20 26,-25 11,-6 24,-9 40,-9 15,0 28,3 39,9 11,5 19,14 26,25 6,10 9,23 9,38 0,14 -3,27 -9,38 -7,11 -15,19 -26,25 -11,6 -24,9 -39,9 z m 0,-33 c 9,0 17,-3 22,-10 6,-7 9,-17 9,-29 0,-13 -3,-23 -9,-29 -5,-7 -13,-10 -22,-10 -10,0 -18,3 -23,10 -6,6 -9,16 -9,29 0,12 3,22 9,29 5,7 13,10 23,10 z m 260,33 c -11,0 -21,-1 -31,-2 -10,-2 -19,-4 -27,-7 -8,-3 -16,-7 -22,-11 l 13,-35 c 6,4 13,7 20,10 7,3 15,5 23,6 8,1 16,2 24,2 13,0 23,-2 29,-6 6,-4 9,-9 9,-16 0,-4 -1,-7 -3,-9 -2,-3 -5,-5 -9,-7 -4,-1 -10,-3 -17,-4 l -32,-7 c -18,-3 -31,-10 -40,-19 -9,-9 -13,-21 -13,-36 0,-13 3,-24 10,-33 7,-9 17,-16 29,-21 12,-5 27,-8 43,-8 9,0 18,1 26,3 9,1 17,4 24,7 7,3 14,7 19,11 l -14,34 c -7,-6 -15,-11 -25,-13 -9,-3 -20,-5 -31,-5 -8,0 -14,1 -20,3 -5,2 -10,5 -13,8 -3,4 -4,8 -4,13 0,5 2,9 6,13 4,3 10,6 20,7 l 32,7 c 19,3 33,9 42,18 9,9 14,21 14,35 0,12 -4,23 -11,33 -6,9 -16,16 -28,21 -12,6 -26,8 -43,8 z m 158,0 c -10,0 -19,-2 -27,-6 -9,-4 -15,-9 -20,-16 -4,-7 -7,-14 -7,-23 0,-10 3,-18 9,-24 5,-6 14,-10 26,-13 12,-3 28,-4 48,-4 h 16 v 22 h -15 c -7,0 -13,1 -19,1 -5,1 -9,2 -13,3 -3,1 -5,3 -7,5 -2,2 -2,5 -2,8 0,6 2,10 6,13 3,3 9,5 15,5 6,0 11,-2 16,-4 4,-3 8,-6 10,-11 3,-4 4,-10 4,-15 v -31 c 0,-9 -2,-14 -6,-18 -5,-3 -12,-5 -22,-5 -7,0 -15,1 -23,4 -8,2 -17,5 -25,10 l -12,-29 c 6,-3 12,-6 19,-9 8,-2 15,-4 23,-5 8,-2 15,-2 23,-2 14,0 26,2 36,6 9,4 17,11 22,19 5,9 7,21 7,35 v 81 h -39 v -28 h 1 c -2,7 -5,12 -9,17 -4,4 -8,8 -14,10 -6,3 -13,4 -21,4 z m 117,-3 v -138 h 42 v 26 h -2 c 5,-9 11,-17 20,-22 9,-5 18,-7 29,-7 11,0 21,2 28,6 7,4 13,11 17,20 4,9 5,20 5,34 v 81 h -43 v -80 c 0,-6 -1,-11 -3,-15 -1,-4 -4,-7 -7,-9 -3,-2 -7,-3 -12,-3 -6,0 -11,1 -16,4 -4,3 -8,6 -10,11 -3,5 -4,10 -4,16 v 76 z m 230,3 c -9,0 -17,0 -25,-2 -7,-1 -14,-3 -21,-5 -6,-2 -12,-5 -17,-8 l 11,-29 c 4,3 10,6 15,8 6,2 12,3 18,4 6,1 12,2 18,2 9,0 15,-1 19,-4 4,-2 6,-5 6,-9 0,-4 -1,-7 -4,-8 -2,-2 -6,-4 -11,-4 l -31,-5 c -12,-2 -22,-7 -28,-13 -6,-7 -10,-16 -10,-26 0,-9 3,-17 8,-24 5,-6 12,-12 22,-16 9,-3 21,-5 34,-5 7,0 14,0 20,1 7,2 13,3 19,5 6,2 11,5 16,9 l -11,28 c -4,-3 -8,-5 -13,-7 -5,-2 -10,-4 -15,-5 -6,-1 -11,-1 -15,-1 -9,0 -16,1 -20,4 -4,2 -6,5 -6,10 0,3 1,5 3,7 2,2 6,4 11,4 l 30,5 c 13,2 23,7 30,13 6,6 10,15 10,26 0,9 -3,17 -8,24 -5,7 -13,12 -22,16 -10,3 -21,5 -33,5 z m 179,-3 v -36 h 46 v -125 l 21,1 -57,34 -17,-33 65,-38 h 31 v 161 h 43 v 36 z m 225,3 c -16,0 -29,-4 -40,-12 -11,-8 -20,-19 -25,-34 -6,-15 -9,-34 -9,-56 0,-22 3,-40 9,-55 5,-15 14,-27 25,-34 11,-8 24,-12 40,-12 16,0 30,4 41,12 11,7 19,19 25,34 5,15 8,33 8,55 0,22 -3,40 -8,55 -6,16 -14,27 -25,35 -11,8 -25,12 -41,12 z m 0,-36 c 11,0 19,-5 24,-15 6,-11 8,-28 8,-51 0,-23 -2,-39 -8,-50 -5,-10 -13,-15 -24,-15 -10,0 -18,5 -24,15 -5,11 -8,27 -8,50 0,23 3,40 8,50 5,11 13,16 24,16 z"
     id="path241"
     style="clip-rule:evenodd;fill-rule:evenodd;image-rendering:optimizeQuality;shape-rendering:geometricPrecision;text-rendering:geometricPrecision" /><g
     id="g1234"
     style="clip-rule:evenodd;fill-rule:evenodd;image-rendering:optimizeQuality;shape-rendering:geometricPrecision;text-rendering:geometricPrecision"><path
       class="fil5 str3"
       d="m 17186,2019 c -30,31 -80,31 -110,0 -31,-31 -31,-80 0,-111 30,-30 80,-30 110,0 31,31 31,80 0,111"
       id="path95" /><line
       class="fil5 str3"
       x1="17011"
       y1="2084"
       x2="17076"
       y2="2019"
       id="line97" /></g><g
     id="g1241"
     style="clip-rule:evenodd;fill-rule:evenodd;image-rendering:optimizeQuality;shape-rendering:geometricPrecision;text-rendering:geometricPrecision"><path
       class="fil0"
       d="m 24021,2019 c 54,0 98,-44 98,-99 0,-55 -44,-99 -98,-99 -54,0 -98,44 -98,99 0,55 44,99 98,99 z m 0,-24 c 40,0 73,-34 73,-75 0,-41 -33,-75 -73,-75 -40,0 -73,34 -73,75 0,41 33,75 73,75 z"
       id="path185" /><path
       class="fil0"
       d="m 24153,2136 c -72,-74 -190,-74 -262,0 -5,5 -13,5 -18,0 -4,-5 -4,-13 0,-18 83,-84 215,-84 297,0 5,5 5,13 0,18 -4,5 -12,5 -17,0 z"
       id="path187" /></g><path
     class="fil11"
     d="m 5123,12112 v -157 c 0,-17 14,-31 32,-31 17,0 31,14 31,31 v 157 c 0,17 -14,31 -31,31 -18,0 -32,-14 -32,-31 z m 156,-142 c -10,-8 -25,-6 -33,4 -8,10 -6,25 4,33 37,29 58,73 58,121 0,84 -69,153 -153,153 -85,0 -154,-69 -154,-153 0,-48 21,-92 59,-121 10,-8 11,-23 3,-33 -8,-10 -22,-12 -33,-4 -48,38 -76,96 -76,158 0,110 90,200 201,200 110,0 200,-90 200,-200 0,-62 -27,-120 -76,-158 z"
     id="path107"
     style="clip-rule:evenodd;fill-rule:evenodd;image-rendering:optimizeQuality;shape-rendering:geometricPrecision;text-rendering:geometricPrecision" /><path
     class="fil0"
     d="m 6062,12112 v -157 c 0,-17 14,-31 31,-31 18,0 32,14 32,31 v 157 c 0,17 -14,31 -32,31 -17,0 -31,-14 -31,-31 z m 156,-142 c -11,-8 -25,-6 -33,4 -8,10 -7,25 3,33 38,29 59,73 59,121 0,84 -69,153 -154,153 -84,0 -153,-69 -153,-153 0,-48 21,-92 58,-121 10,-8 12,-23 4,-33 -8,-10 -23,-12 -33,-4 -49,38 -76,96 -76,158 0,110 90,200 200,200 111,0 201,-90 201,-200 0,-62 -28,-120 -76,-158 z"
     id="path111"
     style="clip-rule:evenodd;fill-rule:evenodd;image-rendering:optimizeQuality;shape-rendering:geometricPrecision;text-rendering:geometricPrecision" /><path
     class="fil3"
     d="m 2514,12225 v -197 h 91 c 21,0 38,4 50,13 12,9 18,22 18,38 0,11 -4,21 -10,29 -6,8 -15,13 -25,16 v -2 c 8,1 15,4 21,8 6,4 11,9 14,16 3,6 5,14 5,23 0,12 -3,22 -8,30 -6,8 -14,15 -25,19 -10,4 -23,7 -37,7 z m 42,-34 h 48 c 4,0 8,0 11,-1 3,-1 6,-2 9,-3 2,-1 4,-3 6,-5 2,-2 3,-4 4,-7 1,-3 1,-6 1,-9 0,-3 -1,-6 -1,-9 -1,-2 -2,-5 -4,-7 -2,-1 -4,-3 -6,-4 -3,-2 -6,-3 -9,-3 -3,-1 -7,-1 -11,-1 h -48 z m 0,-83 h 43 c 10,0 18,-2 23,-6 5,-4 8,-10 8,-17 0,-8 -3,-14 -8,-18 -5,-4 -13,-6 -23,-6 h -43 z"
     id="path125"
     style="clip-rule:evenodd;fill-rule:evenodd;image-rendering:optimizeQuality;shape-rendering:geometricPrecision;text-rendering:geometricPrecision" /><path
     class="fil2"
     d="m 3452,12225 v -197 h 91 c 22,0 39,4 51,13 11,9 17,22 17,38 0,11 -3,21 -9,29 -7,8 -15,13 -25,16 v -2 c 8,1 15,4 21,8 6,4 10,9 14,16 3,6 5,14 5,23 0,12 -3,22 -9,30 -5,8 -13,15 -24,19 -10,4 -23,7 -38,7 z m 43,-34 h 47 c 5,0 8,0 12,-1 3,-1 6,-2 9,-3 2,-1 4,-3 6,-5 1,-2 3,-4 3,-7 1,-3 2,-6 2,-9 0,-3 -1,-6 -2,-9 -1,-2 -2,-5 -3,-7 -2,-1 -4,-3 -7,-4 -2,-2 -5,-3 -8,-3 -4,-1 -7,-1 -12,-1 h -47 z m 0,-83 h 43 c 10,0 18,-2 23,-6 5,-4 8,-10 8,-17 0,-8 -3,-14 -8,-18 -5,-4 -13,-6 -23,-6 h -43 z"
     id="path127"
     style="clip-rule:evenodd;fill-rule:evenodd;image-rendering:optimizeQuality;shape-rendering:geometricPrecision;text-rendering:geometricPrecision" /><polygon
     class="fil3"
     points="15998,8246 15998,8173 16010,8173 15977,8193 15967,8174 16005,8152 16023,8152 16023,8246 16049,8246 16049,8267 15971,8267 15971,8246 "
     id="polygon24"
     style="clip-rule:evenodd;fill-rule:evenodd;image-rendering:optimizeQuality;shape-rendering:geometricPrecision;text-rendering:geometricPrecision" /><path
     class="fil3"
     d="m 17035,8269 c -5,0 -11,0 -16,-1 -5,-1 -10,-3 -14,-5 -5,-2 -8,-4 -12,-7 l 9,-19 c 5,4 10,6 15,8 6,2 11,3 17,3 4,0 8,-1 11,-2 3,-1 5,-3 7,-5 1,-2 2,-4 2,-8 0,-4 -2,-8 -5,-10 -3,-3 -8,-4 -14,-4 h -20 v -20 h 18 c 3,0 6,-1 9,-2 3,-1 5,-3 6,-5 2,-2 2,-5 2,-8 0,-4 -1,-7 -4,-10 -3,-2 -7,-3 -13,-3 -5,0 -10,1 -15,3 -5,2 -10,4 -14,8 l -9,-19 c 5,-4 11,-7 18,-10 7,-2 15,-3 23,-3 8,0 15,1 21,3 6,3 10,6 13,11 4,5 5,10 5,17 0,7 -2,12 -5,17 -4,5 -9,8 -15,10 v -1 c 5,1 9,3 12,5 4,3 7,6 9,10 2,4 3,8 3,13 0,7 -2,13 -6,19 -3,5 -8,8 -15,11 -6,3 -14,4 -23,4 z"
     id="path26"
     style="clip-rule:evenodd;fill-rule:evenodd;image-rendering:optimizeQuality;shape-rendering:geometricPrecision;text-rendering:geometricPrecision" /><path
     class="fil3"
     d="m 17482,8267 v -20 h -50 v -19 l 52,-76 h 22 v 75 h 15 v 20 h -15 v 20 z m 0,-40 v -45 h 3 l -33,50 -1,-5 z"
     id="path28"
     style="clip-rule:evenodd;fill-rule:evenodd;image-rendering:optimizeQuality;shape-rendering:geometricPrecision;text-rendering:geometricPrecision" /><path
     class="fil2"
     d="m 16469,8268 v -19 l 37,-38 c 3,-4 6,-7 8,-10 2,-2 3,-5 4,-7 1,-3 1,-5 1,-8 0,-4 -1,-8 -5,-11 -3,-2 -7,-3 -13,-3 -5,0 -10,0 -14,2 -5,2 -10,5 -14,9 l -9,-19 c 5,-5 11,-8 18,-10 8,-3 15,-4 22,-4 9,0 16,2 22,4 6,3 11,7 14,12 3,5 4,11 4,18 0,3 0,7 -1,10 -1,3 -2,7 -4,10 -1,3 -4,6 -6,10 -3,3 -6,6 -9,10 l -27,27 v -4 h 52 v 21 z"
     id="path119"
     style="clip-rule:evenodd;fill-rule:evenodd;image-rendering:optimizeQuality;shape-rendering:geometricPrecision;text-rendering:geometricPrecision" /><polygon
     class="fil6"
     points="2814,15276 2733,15196 2653,15116 2653,15175 2476,15175 2476,15378 2653,15378 2653,15437 2733,15356 "
     id="polygon59"
     style="clip-rule:evenodd;fill-rule:evenodd;image-rendering:optimizeQuality;shape-rendering:geometricPrecision;text-rendering:geometricPrecision" /><polygon
     class="fil6"
     points="3519,15276 3600,15356 3680,15437 3680,15378 3857,15378 3857,15175 3680,15175 3680,15116 3600,15196 "
     id="polygon63"
     style="clip-rule:evenodd;fill-rule:evenodd;image-rendering:optimizeQuality;shape-rendering:geometricPrecision;text-rendering:geometricPrecision" /><polygon
     class="fil2"
     points="4937,15378 4734,15378 4734,15175 4937,15175 "
     id="polygon67"
     style="clip-rule:evenodd;fill-rule:evenodd;image-rendering:optimizeQuality;shape-rendering:geometricPrecision;text-rendering:geometricPrecision" /><polygon
     class="fil6"
     points="5907,15378 5806,15378 5806,15175 5907,15175 "
     id="polygon71"
     style="clip-rule:evenodd;fill-rule:evenodd;image-rendering:optimizeQuality;shape-rendering:geometricPrecision;text-rendering:geometricPrecision" /><polygon
     class="fil9"
     points="6095,15378 5994,15378 5994,15175 6095,15175 "
     id="polygon73"
     style="clip-rule:evenodd;fill-rule:evenodd;image-rendering:optimizeQuality;shape-rendering:geometricPrecision;text-rendering:geometricPrecision" /><polygon
     class="fil2"
     points="8075,15464 8075,15298 8075,15132 8218,15215 8362,15298 8218,15381 "
     id="polygon77"
     style="clip-rule:evenodd;fill-rule:evenodd;image-rendering:optimizeQuality;shape-rendering:geometricPrecision;text-rendering:geometricPrecision" /><polygon
     class="fil6"
     points="6956,15464 6956,15298 6956,15132 7099,15215 7243,15298 7099,15381 "
     id="polygon81"
     style="clip-rule:evenodd;fill-rule:evenodd;image-rendering:optimizeQuality;shape-rendering:geometricPrecision;text-rendering:geometricPrecision" /><path
     class="fil2"
     d="m 2413,13403 v -195 h 79 c 22,0 41,3 57,11 15,8 27,19 35,33 8,15 13,33 13,53 0,21 -5,39 -13,53 -8,15 -20,26 -35,34 -16,8 -35,11 -57,11 z m 44,-36 h 32 c 21,0 36,-5 46,-15 11,-11 16,-26 16,-47 0,-20 -5,-36 -16,-46 -10,-10 -25,-15 -46,-15 h -32 z m 241,39 c -15,0 -28,-3 -39,-8 -12,-6 -20,-15 -26,-26 -6,-10 -9,-23 -9,-37 0,-15 3,-28 9,-39 6,-10 14,-19 26,-24 11,-6 24,-9 39,-9 15,0 28,3 39,9 11,5 20,14 26,24 6,11 9,24 9,39 0,14 -3,27 -9,37 -6,11 -15,20 -26,26 -11,5 -24,8 -39,8 z m 0,-33 c 9,0 17,-3 23,-10 5,-6 8,-16 8,-29 0,-13 -3,-22 -8,-29 -6,-6 -14,-9 -23,-9 -10,0 -17,3 -23,9 -6,7 -8,16 -8,29 0,13 2,23 8,29 6,7 13,10 23,10 z m 135,30 -53,-137 h 44 l 32,93 h -4 l 35,-93 h 30 l 34,93 h -3 l 32,-93 h 42 l -53,137 h -36 l -38,-97 h 11 l -36,97 z m 208,0 v -137 h 41 v 26 h -2 c 5,-9 11,-17 20,-22 9,-5 18,-7 29,-7 11,0 21,2 28,6 8,5 13,11 17,20 4,9 5,20 5,33 v 81 h -43 v -79 c 0,-6 -1,-11 -3,-15 -1,-4 -4,-7 -7,-9 -3,-2 -7,-3 -12,-3 -6,0 -11,1 -16,4 -4,2 -8,6 -10,11 -3,5 -4,10 -4,16 v 75 z m 225,3 c -17,0 -30,-4 -39,-13 -8,-9 -12,-23 -12,-40 v -145 h 43 v 143 c 0,4 1,8 2,11 2,4 4,6 6,8 3,1 7,2 11,2 2,0 4,0 7,0 2,0 4,-1 6,-1 l 1,32 c -4,1 -8,2 -12,2 -4,1 -8,1 -13,1 z m 112,0 c -15,0 -28,-3 -39,-8 -11,-6 -20,-15 -26,-26 -6,-10 -9,-23 -9,-37 0,-15 3,-28 9,-39 6,-10 15,-19 26,-24 11,-6 24,-9 39,-9 15,0 28,3 39,9 11,5 20,14 26,24 6,11 9,24 9,39 0,14 -3,27 -9,37 -6,11 -15,20 -26,26 -11,5 -24,8 -39,8 z m 0,-33 c 10,0 17,-3 23,-10 6,-6 8,-16 8,-29 0,-13 -2,-22 -8,-29 -6,-6 -13,-9 -23,-9 -9,0 -17,3 -23,9 -5,7 -8,16 -8,29 0,13 3,23 8,29 6,7 14,10 23,10 z m 152,33 c -10,0 -20,-2 -28,-6 -8,-4 -14,-9 -19,-16 -4,-6 -7,-14 -7,-22 0,-10 3,-18 9,-24 5,-6 14,-11 26,-13 12,-3 28,-5 48,-5 h 16 v 23 h -15 c -8,0 -14,0 -19,1 -5,0 -9,1 -13,3 -3,1 -6,3 -7,5 -2,2 -3,5 -3,8 0,5 2,9 6,12 4,3 9,5 16,5 6,0 11,-1 15,-4 5,-2 8,-6 11,-10 3,-5 4,-10 4,-16 v -31 c 0,-8 -2,-13 -6,-17 -5,-3 -12,-5 -22,-5 -7,0 -15,1 -23,4 -8,2 -17,5 -26,10 l -11,-29 c 6,-3 12,-6 19,-8 7,-3 15,-5 23,-6 8,-1 15,-2 23,-2 14,0 26,2 35,6 10,4 17,11 22,19 5,9 8,20 8,34 v 81 h -39 v -27 h 1 c -2,6 -5,11 -9,16 -4,4 -9,8 -15,11 -5,2 -12,3 -20,3 z m 172,0 c -13,0 -23,-3 -33,-8 -9,-6 -16,-15 -21,-26 -5,-10 -8,-23 -8,-37 0,-15 3,-28 8,-38 5,-11 12,-19 21,-25 9,-6 20,-9 32,-9 11,0 21,2 29,7 8,5 14,12 17,20 h -2 v -82 h 44 v 195 h -41 v -27 h 1 c -3,10 -9,17 -18,23 -8,5 -18,7 -29,7 z m 13,-32 c 10,0 17,-3 23,-10 5,-7 8,-17 8,-29 0,-14 -3,-23 -8,-30 -6,-6 -13,-10 -23,-10 -10,0 -17,4 -23,10 -6,7 -8,16 -8,30 0,12 2,22 8,29 6,7 13,10 23,10 z"
     id="path139"
     style="clip-rule:evenodd;fill-rule:evenodd;image-rendering:optimizeQuality;shape-rendering:geometricPrecision;text-rendering:geometricPrecision" /><path
     class="fil2"
     d="m 7933,13426 c -19,0 -34,-4 -47,-13 -13,-8 -22,-20 -29,-36 -7,-16 -10,-35 -10,-58 0,-24 4,-44 11,-61 8,-17 19,-30 33,-39 14,-9 31,-13 51,-13 8,0 16,1 23,3 8,2 15,4 22,7 7,4 13,8 19,13 l -16,35 c -7,-7 -15,-11 -23,-14 -8,-3 -17,-5 -26,-5 -8,0 -15,2 -21,4 -6,3 -12,7 -16,13 -5,5 -8,12 -10,20 -2,8 -3,18 -3,28 v 16 h -2 c 2,-9 5,-17 10,-23 5,-6 11,-11 19,-14 7,-3 15,-5 24,-5 12,0 23,3 32,9 10,6 17,14 23,25 5,10 8,22 8,35 0,14 -3,27 -9,38 -6,11 -15,19 -26,26 -10,6 -23,9 -37,9 z m -3,-37 c 7,0 12,-1 17,-4 5,-3 8,-7 11,-12 3,-5 4,-11 4,-18 0,-7 -1,-13 -4,-18 -3,-5 -6,-9 -11,-12 -5,-3 -10,-4 -17,-4 -6,0 -12,1 -17,4 -4,3 -8,7 -11,12 -2,5 -4,11 -4,18 0,7 2,13 4,18 3,5 7,9 12,12 4,3 10,4 16,4 z m 176,37 c -17,0 -32,-4 -43,-13 -12,-8 -21,-21 -27,-37 -6,-17 -10,-37 -10,-60 0,-24 4,-44 10,-61 6,-16 15,-28 27,-36 11,-9 26,-13 43,-13 18,0 33,4 45,13 12,8 20,20 26,36 6,17 9,37 9,60 0,24 -3,44 -9,60 -6,17 -15,29 -27,38 -11,9 -26,13 -44,13 z m 0,-39 c 12,0 21,-5 26,-17 6,-11 9,-30 9,-55 0,-24 -3,-42 -9,-53 -5,-12 -14,-17 -26,-17 -11,0 -20,5 -25,17 -6,11 -9,29 -9,54 0,24 3,42 8,54 6,12 15,17 26,17 z m 190,45 -30,-17 124,-215 30,17 z m -32,-96 c -11,0 -21,-2 -30,-8 -8,-5 -14,-12 -19,-22 -4,-10 -7,-22 -7,-35 0,-20 5,-36 15,-48 10,-11 24,-17 41,-17 12,0 22,3 31,8 8,5 14,13 19,23 4,9 7,21 7,34 0,13 -3,25 -7,35 -5,10 -11,17 -19,22 -9,6 -19,8 -31,8 z m 0,-29 c 7,0 12,-2 15,-8 3,-6 5,-15 5,-28 0,-13 -2,-22 -5,-27 -4,-6 -9,-9 -15,-9 -6,0 -10,3 -14,8 -3,6 -5,15 -5,28 0,13 2,23 5,28 4,6 8,8 14,8 z m 158,119 c -12,0 -22,-3 -30,-8 -9,-6 -15,-13 -20,-23 -4,-10 -6,-21 -6,-35 0,-20 5,-35 15,-47 10,-12 23,-17 41,-17 11,0 21,2 30,7 8,6 15,13 19,23 5,10 7,21 7,34 0,14 -2,25 -7,35 -4,10 -11,17 -19,23 -8,5 -19,8 -30,8 z m 0,-29 c 6,0 11,-3 14,-9 4,-5 5,-15 5,-28 0,-12 -1,-21 -5,-27 -3,-6 -8,-8 -14,-8 -7,0 -11,2 -15,8 -3,5 -5,14 -5,27 0,13 2,23 5,28 4,6 8,9 15,9 z"
     id="path141"
     style="clip-rule:evenodd;fill-rule:evenodd;image-rendering:optimizeQuality;shape-rendering:geometricPrecision;text-rendering:geometricPrecision" /><path
     class="fil14"
     d="m 14029,12835 v -33 h 38 v 33 z m 1,133 v -112 h 36 v 112 z"
     id="path237"
     style="clip-rule:evenodd;fill-rule:evenodd;image-rendering:optimizeQuality;shape-rendering:geometricPrecision;text-rendering:geometricPrecision" /><path
     class="fil2"
     d="m 13439,13464 v -124 h 28 v 124 z m 56,0 v -124 h 22 l 66,84 h -3 v -84 h 26 v 124 h -22 l -65,-83 h 3 v 83 z m 139,0 v -124 h 86 v 22 h -58 v 29 h 54 v 23 h -54 v 50 z m 162,2 c -9,0 -18,-1 -25,-4 -8,-3 -15,-8 -20,-13 -6,-6 -10,-13 -13,-21 -3,-8 -4,-16 -4,-26 0,-10 1,-19 4,-27 3,-7 8,-14 13,-20 5,-6 12,-10 20,-13 7,-3 16,-4 25,-4 9,0 18,1 26,4 7,3 14,7 19,13 6,6 10,12 13,20 3,8 4,17 4,27 0,10 -1,18 -4,26 -3,8 -7,15 -13,21 -5,6 -12,10 -19,13 -8,3 -17,4 -26,4 z m 0,-24 c 7,0 13,-1 18,-4 5,-4 9,-8 11,-14 3,-6 4,-14 4,-22 0,-9 -1,-16 -4,-22 -2,-6 -6,-10 -11,-14 -5,-3 -11,-4 -18,-4 -7,0 -13,1 -18,4 -5,4 -9,8 -11,14 -3,6 -4,13 -4,22 0,8 1,16 4,22 2,6 6,10 11,14 5,3 11,4 18,4 z m 86,22 v -124 h 58 c 14,0 25,3 33,10 8,6 11,16 11,28 0,7 -1,13 -4,19 -3,5 -8,9 -13,12 -6,3 -13,5 -20,5 l 1,-1 h 5 c 4,0 7,1 10,3 4,3 6,6 9,11 l 20,37 h -31 l -21,-38 c -1,-2 -2,-4 -4,-5 -1,-2 -3,-3 -5,-3 -2,-1 -4,-1 -6,-1 h -15 v 47 z m 28,-68 h 26 c 7,0 12,-1 16,-4 3,-3 5,-7 5,-13 0,-6 -2,-10 -5,-13 -4,-3 -9,-4 -16,-4 h -26 z m 100,68 v -124 h 26 l 42,79 h -3 l 42,-79 h 25 v 124 h -26 v -82 h 3 l -35,63 h -16 l -34,-63 h 2 v 82 z m 146,0 57,-124 h 24 l 57,124 h -29 l -14,-34 11,9 h -74 l 11,-9 -15,34 z m 69,-95 -23,54 -5,-7 h 56 l -5,7 z m 98,95 v -101 h -41 v -23 h 111 v 23 h -42 v 101 z m 86,0 v -124 h 28 v 124 z m 114,2 c -9,0 -17,-1 -25,-4 -8,-3 -14,-8 -20,-13 -5,-6 -9,-13 -12,-21 -3,-8 -5,-16 -5,-26 0,-10 2,-19 5,-27 3,-7 7,-14 12,-20 6,-6 12,-10 20,-13 8,-3 16,-4 25,-4 10,0 18,1 26,4 7,3 14,7 20,13 5,6 9,12 12,20 3,8 5,17 5,27 0,10 -2,18 -5,26 -3,8 -7,15 -12,21 -6,6 -12,10 -20,13 -8,3 -16,4 -26,4 z m 0,-24 c 7,0 13,-1 18,-4 5,-4 9,-8 12,-14 2,-6 4,-14 4,-22 0,-9 -2,-16 -4,-22 -3,-6 -7,-10 -12,-14 -5,-3 -11,-4 -18,-4 -6,0 -12,1 -17,4 -5,4 -9,8 -12,14 -2,6 -4,13 -4,22 0,8 2,16 4,22 3,6 7,10 12,14 5,3 11,4 17,4 z m 87,22 v -124 h 21 l 66,84 h -3 v -84 h 26 v 124 h -22 l -65,-83 h 3 v 83 z"
     id="path247"
     style="clip-rule:evenodd;fill-rule:evenodd;image-rendering:optimizeQuality;shape-rendering:geometricPrecision;text-rendering:geometricPrecision" /><polygon
     class="fil3"
     points="18926,12690 19061,12690 19197,12690 19129,12785 19061,12880 18993,12785 "
     id="polygon197"
     style="clip-rule:evenodd;fill-rule:evenodd;image-rendering:optimizeQuality;shape-rendering:geometricPrecision;text-rendering:geometricPrecision" /><path
     class="fil2"
     d="m 17357,13724 v -167 h -65 v -39 h 175 v 39 h -65 v 167 z m 130,-172 v -42 h 47 v 42 z m 2,172 v -145 h 44 v 145 z m 80,52 v -197 h 40 v 28 h -1 c 4,-9 10,-17 18,-22 9,-6 19,-9 30,-9 12,0 23,3 32,10 10,6 17,15 22,26 5,11 7,24 7,39 0,15 -2,29 -7,40 -5,11 -12,20 -21,26 -10,7 -21,10 -33,10 -11,0 -20,-3 -28,-8 -8,-5 -14,-12 -18,-21 h 2 v 78 z m 74,-83 c 9,0 17,-4 23,-11 5,-7 8,-17 8,-31 0,-13 -3,-24 -8,-30 -6,-7 -14,-11 -23,-11 -10,0 -17,4 -23,11 -6,6 -9,17 -9,30 0,14 3,24 9,31 6,7 13,11 23,11 z m 192,31 v -38 h 47 v -130 l 20,1 -56,35 -17,-34 65,-40 h 31 v 168 h 43 v 38 z"
     id="path217"
     style="clip-rule:evenodd;fill-rule:evenodd;image-rendering:optimizeQuality;shape-rendering:geometricPrecision;text-rendering:geometricPrecision" /><path
     class="fil2"
     d="m 17359,14632 v -167 h -65 v -38 h 175 v 38 h -65 v 167 z m 130,-171 v -43 h 47 v 43 z m 2,171 v -144 h 43 v 144 z m 79,53 v -197 h 41 v 28 h -1 c 3,-10 9,-17 18,-23 9,-5 18,-8 30,-8 12,0 23,3 32,9 9,6 16,15 22,26 5,11 7,25 7,40 0,15 -2,28 -7,40 -5,11 -12,20 -22,26 -9,6 -20,10 -32,10 -11,0 -21,-3 -29,-9 -8,-5 -13,-12 -17,-20 h 2 v 78 z m 74,-84 c 10,0 18,-3 23,-10 6,-7 9,-18 9,-31 0,-14 -3,-24 -9,-31 -5,-7 -13,-10 -23,-10 -9,0 -17,3 -22,10 -6,7 -9,17 -9,31 0,13 3,24 9,31 5,7 13,10 22,10 z m 187,31 v -33 l 63,-68 c 5,-6 10,-12 13,-16 3,-5 5,-10 7,-14 1,-5 2,-9 2,-13 0,-9 -3,-15 -8,-20 -5,-4 -13,-6 -23,-6 -8,0 -16,1 -24,4 -8,4 -16,8 -24,15 l -14,-33 c 8,-8 18,-14 31,-18 12,-4 24,-6 37,-6 14,0 27,2 37,7 10,5 18,11 23,20 5,9 8,20 8,32 0,6 -1,12 -2,18 -2,6 -4,12 -7,18 -3,5 -6,11 -11,17 -4,6 -9,12 -15,18 l -45,48 v -7 h 87 v 37 z"
     id="path219"
     style="clip-rule:evenodd;fill-rule:evenodd;image-rendering:optimizeQuality;shape-rendering:geometricPrecision;text-rendering:geometricPrecision" /><path
     class="fil2"
     d="m 17359,15539 v -167 h -65 v -39 h 175 v 39 h -65 v 167 z m 130,-172 v -42 h 47 v 42 z m 2,172 v -145 h 43 v 145 z m 79,52 v -197 h 41 v 28 h -1 c 3,-9 9,-17 18,-22 9,-6 18,-9 30,-9 12,0 23,3 32,10 9,6 16,14 22,26 5,11 7,24 7,39 0,15 -2,29 -7,40 -5,11 -12,20 -22,26 -9,7 -20,10 -32,10 -11,0 -21,-3 -29,-8 -8,-5 -13,-12 -17,-21 h 2 v 78 z m 74,-83 c 10,0 18,-4 23,-11 6,-7 9,-17 9,-31 0,-13 -3,-24 -9,-30 -5,-7 -13,-11 -23,-11 -9,0 -17,4 -22,11 -6,6 -9,17 -9,30 0,14 3,24 9,31 5,7 13,11 22,11 z m 246,34 c -9,0 -18,-1 -26,-3 -9,-2 -17,-4 -25,-8 -7,-3 -14,-7 -19,-12 l 14,-34 c 8,6 17,11 26,14 10,3 19,5 29,5 7,0 13,-1 18,-3 5,-2 9,-5 12,-9 2,-3 4,-8 4,-14 0,-8 -3,-14 -8,-18 -6,-5 -14,-7 -24,-7 h -34 v -36 h 29 c 7,0 12,-1 17,-3 4,-2 8,-5 10,-9 3,-4 4,-8 4,-14 0,-8 -3,-13 -8,-17 -5,-4 -12,-6 -21,-6 -10,0 -19,1 -27,5 -8,3 -16,8 -24,14 l -14,-33 c 8,-8 18,-14 31,-18 12,-4 24,-6 37,-6 14,0 26,2 37,7 10,4 18,10 23,19 5,8 8,18 8,29 0,12 -3,22 -9,31 -6,8 -15,14 -26,17 v -2 c 8,2 15,5 22,10 6,4 10,10 14,17 3,7 5,15 5,24 0,12 -3,23 -9,32 -6,9 -15,16 -26,21 -11,4 -24,7 -40,7 z"
     id="path221"
     style="clip-rule:evenodd;fill-rule:evenodd;image-rendering:optimizeQuality;shape-rendering:geometricPrecision;text-rendering:geometricPrecision" /><path
     class="fil3"
     d="m 17076,12896 v -205 h 79 c 22,0 41,4 57,12 15,8 27,20 35,35 8,15 12,34 12,55 0,22 -4,41 -12,56 -8,15 -20,27 -36,35 -15,8 -34,12 -56,12 z m 44,-38 h 32 c 21,0 36,-5 46,-16 10,-11 16,-27 16,-49 0,-21 -6,-37 -16,-48 -10,-11 -26,-16 -46,-16 h -32 z m 173,38 v -144 h 41 v 35 h -1 c 2,-11 7,-20 15,-27 7,-6 17,-10 29,-11 l 15,-1 3,40 -26,2 c -10,1 -18,5 -24,11 -5,5 -8,13 -8,23 v 72 z m 188,3 c -15,0 -28,-3 -39,-9 -12,-6 -20,-15 -26,-26 -6,-12 -9,-25 -9,-40 0,-15 3,-29 9,-40 6,-11 14,-20 26,-26 11,-6 24,-9 39,-9 15,0 28,3 39,9 11,6 20,15 26,26 6,11 9,25 9,40 0,15 -3,28 -9,40 -6,11 -15,20 -26,26 -11,6 -24,9 -39,9 z m 0,-34 c 9,0 17,-4 23,-11 5,-7 8,-17 8,-30 0,-14 -3,-24 -8,-31 -6,-6 -14,-10 -23,-10 -10,0 -17,4 -23,10 -5,7 -8,17 -8,31 0,13 3,23 8,30 6,7 13,11 23,11 z m 104,84 v -197 h 40 v 28 h -1 c 4,-10 10,-17 18,-23 9,-6 19,-8 30,-8 12,0 23,3 32,9 10,6 17,15 22,26 5,11 7,25 7,40 0,15 -2,28 -7,39 -5,12 -12,21 -21,27 -10,6 -21,9 -33,9 -11,0 -20,-2 -28,-8 -8,-5 -14,-12 -17,-21 h 1 v 79 z m 74,-84 c 9,0 17,-3 23,-10 5,-7 8,-18 8,-31 0,-14 -3,-24 -8,-31 -6,-7 -14,-10 -23,-10 -10,0 -17,3 -23,10 -6,7 -9,17 -9,31 0,13 3,24 9,31 6,7 13,10 23,10 z m 155,34 c -17,0 -30,-4 -39,-14 -8,-9 -12,-23 -12,-42 v -152 h 43 v 150 c 0,5 1,9 2,12 1,4 3,6 6,8 3,1 6,2 10,2 3,0 5,0 7,0 2,0 5,-1 7,-1 l 1,34 c -4,1 -8,2 -12,2 -4,1 -8,1 -13,1 z m 44,-175 v -42 h 47 v 42 z m 2,172 v -144 h 43 v 144 z m 134,3 c -8,0 -16,0 -24,-2 -8,-1 -15,-3 -21,-5 -7,-2 -12,-5 -17,-9 l 10,-29 c 5,3 10,5 16,7 6,2 12,4 18,5 6,1 12,2 17,2 9,0 16,-2 20,-4 4,-2 6,-6 6,-10 0,-4 -1,-7 -4,-9 -2,-2 -6,-3 -11,-4 l -31,-5 c -12,-2 -22,-6 -28,-13 -7,-8 -10,-16 -10,-27 0,-9 3,-18 8,-25 5,-7 12,-12 22,-16 9,-4 21,-6 34,-6 7,0 13,0 20,1 7,2 13,3 19,6 6,2 11,5 16,8 l -12,30 c -3,-3 -8,-6 -12,-8 -5,-2 -10,-3 -16,-4 -5,-1 -10,-2 -15,-2 -9,0 -15,1 -20,4 -4,2 -6,6 -6,10 0,4 2,6 4,8 2,2 6,4 11,5 l 29,5 c 14,2 24,6 31,13 6,7 9,16 9,27 0,10 -2,18 -7,25 -6,7 -13,13 -22,17 -10,3 -21,5 -34,5 z m 158,0 c -20,0 -35,-5 -45,-15 -9,-10 -14,-25 -14,-45 v -54 h -27 v -33 h 28 v -41 h 42 v 41 h 44 v 33 h -44 v 53 c 0,8 2,14 6,18 4,5 10,7 18,7 3,0 6,-1 9,-1 3,-1 6,-2 9,-3 l 6,33 c -4,2 -9,4 -15,5 -5,2 -11,2 -17,2 z"
     id="path223"
     style="clip-rule:evenodd;fill-rule:evenodd;image-rendering:optimizeQuality;shape-rendering:geometricPrecision;text-rendering:geometricPrecision" /></g>
</svg>
